<svg width="1920" height="830" viewBox="0 0 1920 830" fill="none" xmlns="http://www.w3.org/2000/svg">
<path d="M3440 0H0V830C0 830 163.238 725.206 282 706.5C457.873 678.799 548.559 824.616 726 810C836.792 800.874 821.477 732.821 1000 732.821C1184.6 732.821 1353.19 830 1538.81 830C1642.9 826.713 1744.39 798.032 1840.8 760.137C2036.69 683.14 2222.38 550 2440 550C2657.62 550 2761.48 752.161 2992 760.137C3092.29 763.607 3149.28 712.266 3247.5 732.821C3329.93 750.071 1920 830 1920 830V0Z" fill="#f1f1fc"/>
</svg>
