<svg height="512pt" viewBox="0 -35 512 512" width="512pt" xmlns="http://www.w3.org/2000/svg"><path d="m512 315.316406v-82.597656c0-46.582031-37.761719-84.347656-84.347656-84.347656h-155.25c-46.582032 0-84.347656 37.765625-84.347656 84.347656v82.597656c0 46.585938 37.765624 84.347656 84.347656 84.347656h35.535156c19.292969 0 38.128906 5.546876 54.550781 15.675782 30.207031 18.625 63.570313 25.445312 89.613281 27.5625 13.480469 1.09375 20.832032-15.398438 11.003907-24.691406-3.050781-2.886719-5.90625-5.847657-8.574219-8.863282-4.433594-5.003906-2.65625-12.949218 3.578125-15.363281 31.53125-12.214844 53.890625-42.824219 53.890625-78.667969zm0 0" fill="#abebf4"/><path d="m272.402344 148.371094c-46.582032 0-84.347656 37.765625-84.347656 84.347656v82.597656c0 46.585938 37.765624 84.347656 84.347656 84.347656h35.535156c4.1875 0 8.375.265626 12.5.777344 129.503906-63.007812 129.414062-184.214844 117.65625-251.429687-3.425781-.421875-6.902344-.640625-10.441406-.640625zm0 0" fill="#8ed7e8"/><g fill="#acabb1"><path d="m458.847656 281.746094h-197.3125c-4.269531 0-7.726562-3.460938-7.726562-7.726563 0-4.269531 3.457031-7.726562 7.726562-7.726562h197.3125c4.265625 0 7.722656 3.457031 7.722656 7.726562 0 4.265625-3.457031 7.726563-7.722656 7.726563zm0 0"/><path d="m458.847656 209h-197.3125c-4.269531 0-7.726562-3.460938-7.726562-7.726562 0-4.269532 3.457031-7.726563 7.726562-7.726563h197.3125c4.265625 0 7.722656 3.457031 7.722656 7.726563 0 4.265624-3.457031 7.726562-7.722656 7.726562zm0 0"/><path d="m389.441406 354.492188h-127.90625c-4.269531 0-7.726562-3.460938-7.726562-7.726563s3.457031-7.726563 7.726562-7.726563h127.90625c4.269532 0 7.726563 3.460938 7.726563 7.726563s-3.457031 7.726563-7.726563 7.726563zm0 0"/></g><path d="m303.808594 0h-196.855469c-59.070313 0-106.953125 47.886719-106.953125 106.953125v104.734375c0 52.828125 38.308594 96.679688 88.65625 105.359375 7.082031 1.21875 10.171875 9.699219 5.492188 15.15625-4.015626 4.6875-8.472657 9.261719-13.414063 13.636719-8.980469 7.945312-2.84375 22.691406 9.128906 21.96875 28.105469-1.691406 66.386719-8.722656 99.925781-31.199219 17.140626-11.488281 37.144532-17.96875 57.78125-17.96875h56.238282c59.070312 0 106.953125-47.886719 106.953125-106.953125v-104.734375c0-59.066406-47.882813-106.953125-106.953125-106.953125zm0 0" fill="#ccf8ff"/><path d="m159.355469 0h-52.402344c-59.070313 0-106.953125 47.886719-106.953125 106.953125v104.734375c0 52.828125 38.308594 96.679688 88.65625 105.359375 7.085938 1.21875 10.171875 9.699219 5.492188 15.15625-4.015626 4.6875-8.472657 9.261719-13.414063 13.636719-8.980469 7.945312-2.84375 22.691406 9.128906 21.96875 21.867188-1.316406 49.898438-5.863282 77.058594-18.410156-5.761719-85.703126-51.996094-187.015626-52.359375-252.679688-.261719-47.25 23.078125-78.179688 44.792969-96.71875zm0 0" fill="#abebf4"/><path d="m205.378906 206.058594c-15.988281 0-28.945312-12.960938-28.945312-28.949219v-21.046875c0-4.363281 3.535156-7.902344 7.902344-7.902344h42.089843c4.367188 0 7.902344 3.539063 7.902344 7.902344v21.046875c0 15.988281-12.960937 28.949219-28.949219 28.949219zm0 0" fill="#57565c"/><path d="m139.425781 177.109375c0-13.578125-13.824219-24.589844-30.878906-24.589844-17.050781 0-30.875 11.011719-30.875 24.589844 0 13.582031 13.824219 24.589844 30.875 24.589844 17.054687 0 30.878906-11.007813 30.878906-24.589844zm0 0" fill="#ffa6bb"/><path d="m333.089844 177.109375c0-13.578125-13.824219-24.589844-30.875-24.589844-17.054688 0-30.878906 11.011719-30.878906 24.589844 0 13.582031 13.824218 24.589844 30.878906 24.589844 17.050781 0 30.875-11.007813 30.875-24.589844zm0 0" fill="#ffa6bb"/><path d="m288.472656 163.609375c-4.269531 0-7.726562-3.457031-7.726562-7.722656v-12.828125c0-4.265625 3.457031-7.726563 7.726562-7.726563 4.269532 0 7.726563 3.460938 7.726563 7.726563v12.828125c0 4.265625-3.460938 7.722656-7.726563 7.722656zm0 0" fill="#57565c"/><path d="m122.289062 163.609375c-4.265624 0-7.726562-3.457031-7.726562-7.722656v-12.828125c0-4.265625 3.460938-7.726563 7.726562-7.726563 4.269532 0 7.726563 3.460938 7.726563 7.726563v12.828125c0 4.265625-3.457031 7.722656-7.726563 7.722656zm0 0" fill="#57565c"/></svg>