<svg fill="#fff" id="Capa_1" enable-background="new 0 0 512 512" height="512" viewBox="0 0 512 512" width="512" xmlns="http://www.w3.org/2000/svg"><g><path d="m474.427 30.108h-163.755c-4.151 0-7.515 3.365-7.515 7.515s3.364 7.515 7.515 7.515h163.754c12.43 0 22.544 10.113 22.544 22.544v263.007h-36.028l-.001-230.847c0-12.431-10.114-22.544-22.544-22.544h-364.795c-12.431 0-22.544 10.113-22.544 22.544v230.847h-36.029v-263.008c0-12.431 10.114-22.544 22.544-22.544h243.04c4.151 0 7.515-3.365 7.515-7.515s-3.364-7.515-7.515-7.515h-243.04c-20.718.001-37.573 16.856-37.573 37.574v303.848c0 20.718 16.855 37.573 37.573 37.573h165.231l-7.574 57.761h-26.702c-4.151 0-7.515 3.365-7.515 7.515s3.364 7.515 7.515 7.515h174.943c4.151 0 7.515-3.365 7.515-7.515s-3.364-7.515-7.515-7.515h-26.701l-7.574-57.761h79.629c4.151 0 7.515-3.365 7.515-7.515s-3.364-7.515-7.515-7.515h-351.252c-12.43 0-22.544-10.113-22.544-22.544v-25.811h481.941v25.811c0 12.431-10.114 22.544-22.544 22.544h-55.543c-4.151 0-7.515 3.365-7.515 7.515s3.364 7.515 7.515 7.515h55.543c20.718 0 37.573-16.855 37.573-37.573v-303.848c.001-20.718-16.854-37.573-37.572-37.573zm-172.815 436.755h-91.223l7.574-57.761h76.074zm-235.525-367.022c0-4.144 3.371-7.515 7.515-7.515h364.796c4.144 0 7.515 3.371 7.515 7.515v36.985h-379.826zm0 52.015h379.826v178.833h-36.534v-33.499c0-4.15-3.364-7.515-7.515-7.515h-127.875c-4.151 0-7.515 3.365-7.515 7.515v33.499h-20.949v-33.499c0-4.15-3.364-7.515-7.515-7.515h-127.874c-4.151 0-7.515 3.365-7.515 7.515v33.499h-36.534zm328.262 178.832h-112.845v-25.984h112.845zm-163.853 0h-112.845v-25.984h112.845z"/><path d="m94.748 102.455c-6.364 0-11.542 5.178-11.542 11.543s5.178 11.542 11.542 11.542 11.542-5.178 11.542-11.542c.001-6.364-5.177-11.543-11.542-11.543z"/><path d="m131.791 102.455c-6.364 0-11.542 5.178-11.542 11.543s5.178 11.542 11.542 11.542 11.542-5.178 11.542-11.542-5.178-11.543-11.542-11.543z"/><path d="m168.833 102.455c-6.364 0-11.542 5.178-11.542 11.543s5.178 11.542 11.542 11.542c6.365 0 11.543-5.178 11.543-11.542s-5.178-11.543-11.543-11.543z"/><path d="m110.136 271.332h54.669c4.151 0 7.515-3.365 7.515-7.515s-3.364-7.515-7.515-7.515h-47.155v-65.938h276.683v65.938h-199.47c-4.151 0-7.515 3.365-7.515 7.515s3.364 7.515 7.515 7.515h206.984c4.151 0 7.515-3.365 7.515-7.515v-80.967c0-4.15-3.364-7.515-7.515-7.515h-291.711c-4.151 0-7.515 3.365-7.515 7.515v80.968c0 4.15 3.364 7.514 7.515 7.514z"/></g></svg>