<svg id="Capa_1" enable-background="new 0 0 512 512" height="512" viewBox="0 0 512 512" width="512" xmlns="http://www.w3.org/2000/svg" xmlns:xlink="http://www.w3.org/1999/xlink"><linearGradient id="SVGID_1_" gradientUnits="userSpaceOnUse" x1="0" x2="512" y1="256" y2="256"><stop offset="0" stop-color="#ffdbed" stop-opacity="0"/><stop offset="1" stop-color="#ffdbed"/></linearGradient><g><g><path d="m451.798 43.963c-160.556-97.869-410.51-8.611-439.594 61.949-38.908 94.394 26.578 110.528 38.743 187.874 9.761 62.061-51.182 121.495-16.394 176.282 37.883 59.663 163.465 44.681 211.198 16.447 87.376-51.683 43.309-112.012 84.684-187.299 39.407-71.707 116.244-42.625 160.961-99.99 42.5-54.521 14.31-122.402-39.598-155.263z" fill="url(#SVGID_1_)"/></g><g><g><g><g><path d="m455.47 452.133h-398.94c-8.284 0-15-6.716-15-15v-314.266c0-8.284 6.716-15 15-15h398.94c8.284 0 15 6.716 15 15v314.266c0 8.285-6.715 15-15 15z" fill="#2626bc" opacity=".1"/><path d="m455.47 428.133h-398.94c-8.284 0-15-6.716-15-15v-314.266c0-8.284 6.716-15 15-15h398.94c8.284 0 15 6.716 15 15v314.266c0 8.285-6.715 15-15 15z" fill="#fff"/><path d="m196 428.133h-139.47c-8.284 0-15-6.716-15-15v-314.266c0-8.284 6.716-15 15-15h139.47z" fill="#8399fe"/><path d="m470.47 153.18v-54.313c0-8.284-6.716-15-15-15h-398.94c-8.284 0-15 6.716-15 15v54.313z" fill="#ff7eb8"/><path d="m455.471 433.133h-398.941c-11.028 0-20-8.972-20-20v-314.266c0-11.028 8.972-20 20-20h398.941c11.028 0 20 8.972 20 20v314.266c0 11.028-8.972 20-20 20zm-398.941-344.266c-5.514 0-10 4.486-10 10v314.266c0 5.514 4.486 10 10 10h398.941c5.514 0 10-4.486 10-10v-314.266c0-5.514-4.486-10-10-10z" fill="#2626bc"/></g><g><g><circle cx="85.623" cy="120.768" fill="#ff5ba8" r="10.901"/><circle cx="120.424" cy="120.768" fill="#fff" r="10.901"/><circle cx="155.224" cy="120.768" fill="#02ffb3" r="10.901"/></g><path d="m432.277 133.015h-136.158v-24.495h136.159c2.761 0 5 2.239 5 5v14.496c-.001 2.761-2.239 4.999-5.001 4.999z" fill="#ffdbed"/><path d="m296.789 108.831c-5.286-5.286-13.887-5.286-19.173 0s-5.286 13.887 0 19.173c4.037 4.037 10.003 4.98 14.953 2.852l4.348 4.348c1.952 1.952 5.119 1.952 7.071 0s1.952-5.119 0-7.071l-4.348-4.348c2.129-4.951 1.186-10.917-2.851-14.954zm-12.102 7.071c1.387-1.387 3.644-1.387 5.031 0s1.387 3.644 0 5.031-3.644 1.387-5.031 0-1.387-3.644 0-5.031z" fill="#fff"/></g></g><g><g><g><path d="m438.289 265.169h-209.181c-2.761 0-5 2.239-5 5s2.239 5 5 5h209.181c2.761 0 5-2.239 5-5s-2.239-5-5-5z" fill="#8399fe"/></g><g><path d="m438.289 285.657h-209.181c-2.761 0-5 2.239-5 5s2.239 5 5 5h209.181c2.761 0 5-2.239 5-5s-2.239-5-5-5z" fill="#ff7eb8"/></g><g><path d="m438.289 306.144h-209.181c-2.761 0-5 2.239-5 5s2.239 5 5 5h209.181c2.761 0 5-2.239 5-5s-2.239-5-5-5z" fill="#8399fe"/></g></g></g><g><g><g><path d="m438.289 343.277h-209.181c-2.761 0-5 2.239-5 5s2.239 5 5 5h209.181c2.761 0 5-2.239 5-5s-2.239-5-5-5z" fill="#8399fe"/></g><g><path d="m438.289 363.765h-209.181c-2.761 0-5 2.239-5 5s2.239 5 5 5h209.181c2.761 0 5-2.239 5-5s-2.239-5-5-5z" fill="#8399fe"/></g><g><path d="m438.289 384.253h-209.181c-2.761 0-5 2.239-5 5s2.239 5 5 5h209.181c2.761 0 5-2.239 5-5s-2.239-5-5-5z" fill="#8399fe"/></g></g></g><g><g><g><path d="m438.289 187.06h-209.181c-2.761 0-5 2.239-5 5s2.239 5 5 5h209.181c2.761 0 5-2.239 5-5s-2.239-5-5-5z" fill="#8399fe"/></g><g><path d="m438.289 207.548h-209.181c-2.761 0-5 2.239-5 5s2.239 5 5 5h209.181c2.761 0 5-2.239 5-5s-2.239-5-5-5z" fill="#8399fe"/></g><g><path d="m438.289 228.036h-209.181c-2.761 0-5 2.239-5 5s2.239 5 5 5h209.181c2.761 0 5-2.239 5-5s-2.239-5-5-5z" fill="#8399fe"/></g></g></g><g><g><circle cx="110.485" cy="213.054" fill="#02ffb3" r="33.651"/><path d="m98.625 225.807c-2.93 3-4.75 7.1-4.75 11.61v4.91c3.07 1.74 6.43 3.02 10 3.73v-8.64c0-3.64 2.96-6.61 6.61-6.61s6.61 2.97 6.61 6.61v8.64c3.57-.71 6.94-1.99 10-3.73v-4.91c0-4.51-1.81-8.61-4.75-11.61 2.94-3 4.75-7.1 4.75-11.61 0-9.16-7.45-16.62-16.61-16.62s-16.61 7.46-16.61 16.62c0 4.51 1.82 8.61 4.75 11.61zm5.25-11.61c0-3.65 2.96-6.62 6.61-6.62s6.61 2.97 6.61 6.62c0 3.64-2.96 6.61-6.61 6.61s-6.61-2.97-6.61-6.61z" fill="#fff"/></g><g><path d="m165.014 265.169h-83.181c-2.761 0-5 2.239-5 5s2.239 5 5 5h83.181c2.761 0 5-2.239 5-5s-2.239-5-5-5z" fill="#4369fd"/></g><g><path d="m144.014 285.657h-62.181c-2.761 0-5 2.239-5 5s2.239 5 5 5h62.181c2.761 0 5-2.239 5-5s-2.239-5-5-5z" fill="#4369fd"/></g><g><path d="m144.014 306.144h-62.181c-2.761 0-5 2.239-5 5s2.239 5 5 5h62.181c2.761 0 5-2.239 5-5s-2.239-5-5-5z" fill="#4369fd"/></g><g fill="#fff"><path d="m165.014 343.277h-83.181c-2.761 0-5 2.239-5 5s2.239 5 5 5h83.181c2.761 0 5-2.239 5-5s-2.239-5-5-5z"/><path d="m165.014 363.765h-83.181c-2.761 0-5 2.239-5 5s2.239 5 5 5h83.181c2.761 0 5-2.239 5-5s-2.239-5-5-5z"/><path d="m165.014 384.253h-83.181c-2.761 0-5 2.239-5 5s2.239 5 5 5h83.181c2.761 0 5-2.239 5-5s-2.239-5-5-5z"/></g></g><g><circle cx="165.012" cy="184.405" fill="#fff" r="5.002"/></g></g><path d="m213.108 63.988c-2.761 0-5-2.238-5-5 0-3.309-2.691-6-6-6-2.761 0-5-2.238-5-5s2.239-5 5-5c3.309 0 6-2.692 6-6.001 0-2.762 2.239-5 5-5s5 2.238 5 5c0 3.309 2.691 6.001 6 6.001 2.761 0 5 2.238 5 5s-2.239 5-5 5c-3.309 0-6 2.691-6 6 0 2.762-2.239 5-5 5z" fill="#ff5ba8"/><path d="m258.002 51.521c-2.761 0-5-2.238-5-5 0-3.309-2.691-6-6-6-2.761 0-5-2.238-5-5s2.239-5 5-5c3.309 0 6-2.691 6-6 0-2.762 2.239-5 5-5 2.762 0 5 2.238 5 5 0 3.309 2.691 6 6 6 2.762 0 5 2.238 5 5s-2.238 5-5 5c-3.309 0-6 2.691-6 6 0 2.762-2.238 5-5 5z" fill="#ff5ba8"/><path d="m382.552 479.134c-2.762 0-5-2.238-5-5 0-3.309-2.691-6-6-6-2.762 0-5-2.238-5-5s2.238-5 5-5c3.309 0 6-2.692 6-6.001 0-2.762 2.238-5 5-5s5 2.238 5 5c0 3.309 2.691 6.001 6 6.001 2.762 0 5 2.238 5 5s-2.238 5-5 5c-3.309 0-6 2.691-6 6 0 2.762-2.239 5-5 5z" fill="#01eca5"/><path d="m333.698 484.619c-7.88 0-14.291-6.411-14.291-14.292 0-7.88 6.411-14.291 14.291-14.291s14.291 6.411 14.291 14.291c0 7.881-6.411 14.292-14.291 14.292zm0-18.583c-2.366 0-4.291 1.925-4.291 4.291s1.925 4.292 4.291 4.292 4.291-1.926 4.291-4.292-1.925-4.291-4.291-4.291z" fill="#6583fe"/><path d="m443.288 52.988c-7.88 0-14.291-6.411-14.291-14.292 0-7.88 6.411-14.291 14.291-14.291 7.881 0 14.292 6.411 14.292 14.291 0 7.881-6.411 14.292-14.292 14.292zm0-18.583c-2.366 0-4.291 1.925-4.291 4.291s1.925 4.292 4.291 4.292 4.292-1.926 4.292-4.292-1.926-4.291-4.292-4.291z" fill="#01eca5"/></g></g></svg>