<svg height="512pt" viewBox="0 -8 512 512" width="512pt" xmlns="http://www.w3.org/2000/svg"><path d="m34.78125 389.703125c1.96875 0 3.898438-.800781 5.296875-2.199219 1.402344-1.402344 2.203125-3.332031 2.203125-5.300781 0-1.980469-.800781-3.910156-2.203125-5.3125-1.398437-1.386719-3.328125-2.1875-5.296875-2.1875-1.980469 0-3.910156.800781-5.3125 2.1875-1.390625 1.402344-2.199219 3.332031-2.199219 5.3125 0 1.96875.808594 3.898437 2.199219 5.300781 1.402344 1.398438 3.332031 2.199219 5.3125 2.199219zm0 0"/><path d="m499.5 200.503906h-44.550781c-6.890625 0-12.5 5.605469-12.5 12.5v3.5625h-21.605469c-6.894531 0-12.5 5.605469-12.5 12.5v15.480469h-117.550781c-6.496094 0-12.601563 2.539063-17.195313 7.144531l-3.175781 3.183594-.796875-.796875c-5.421875-5.4375-15.03125-9.546875-22.371094-9.558594h-143.601562v-15.457031c0-6.890625-5.605469-12.5-12.5-12.5h-21.601563v-3.5625c0-6.890625-5.609375-12.5-12.5-12.5h-44.550781c-6.894531 0-12.5 5.609375-12.5 12.5v192.625c0 6.890625 5.605469 12.5 12.5 12.5h44.550781c6.890625 0 12.5-5.605469 12.5-12.5v-3.5625h21.605469c6.890625 0 12.5-5.609375 12.5-12.5v-6.054688l9.015625 6.449219c-.585937 7.347657 1.847656 14.816407 7.351563 20.339844 4.804687 4.816406 11.257812 7.472656 18.175781 7.472656.179687 0 .359375-.011719.539062-.015625-.144531 6.832032 2.320313 13.644532 7.4375 18.773438 4.800781 4.820312 11.253907 7.472656 18.171875 7.472656.179688 0 .359375-.011719.542969-.011719-.148437 6.828125 2.320313 13.644531 7.429687 18.773438 4.804688 4.816406 11.257813 7.46875 18.175782 7.46875.179687 0 .359375-.007813.539062-.011719-.144531 6.832031 2.324219 13.644531 7.4375 18.773438 4.800782 4.816406 11.253906 7.472656 18.171875 7.472656 7.191407 0 13.976563-2.835938 19.101563-7.976563l1.769531-1.777343c4.164063 2.445312 8.921875 3.753906 13.890625 3.753906 7.359375 0 14.257812-2.859375 19.429688-8.046875l2.273437-2.277344c3.507813-3.523437 5.859375-7.769531 7.066406-12.261719 3.929688 2.105469 8.351563 3.222656 12.949219 3.222656 7.355469 0 14.257812-2.859374 19.429688-8.046874l2.273437-2.28125c3.363281-3.371094 5.664063-7.410157 6.914063-11.695313 4.34375 2.757813 9.390624 4.238281 14.679687 4.238281 7.355469 0 14.257813-2.855468 19.429687-8.046875l2.269532-2.277343c3.824218-3.835938 6.273437-8.527344 7.363281-13.46875 3.191406 1.269531 6.625 1.9375 10.167969 1.9375 7.359375 0 14.257812-2.859376 19.433594-8.046876l2.269531-2.277343c9.398437-9.425781 10.539062-24.046875 3.421875-34.734375l7.566406-4.269532v7.429688c0 6.894531 5.605469 12.5 12.5 12.5h21.605469v3.566406c0 6.890625 5.609375 12.5 12.5 12.5h44.550781c6.894531 0 12.5-5.609375 12.5-12.5v-192.625c0-6.894531-5.605469-12.5-12.5-12.5zm-444.949219 202.621094h-39.550781v-187.621094h39.550781zm83.648438-.355469c-2.902344 0-5.582031-1.089843-7.550781-3.0625-4.300782-4.3125-4.074219-11.554687.503906-16.148437l3.320312-3.332032c2.292969-2.296874 5.304688-3.566406 8.480469-3.566406 2.902344 0 5.582031 1.089844 7.550781 3.0625 4.300782 4.3125 4.074219 11.554688-.503906 16.144532l-3.324219 3.335937c-2.289062 2.300781-5.300781 3.566406-8.476562 3.566406zm26.148437 26.230469c-2.902344 0-5.582031-1.085938-7.550781-3.0625-4.300781-4.308594-4.074219-11.554688.503906-16.144531l3.324219-3.335938c2.289062-2.296875 5.304688-3.5625 8.480469-3.5625 2.902343 0 5.582031 1.085938 7.546875 3.054688 4.296875 4.316406 4.074218 11.558593-.503906 16.152343l-3.324219 3.332032c-2.289063 2.300781-5.300781 3.566406-8.476563 3.566406zm26.148438 26.230469c-2.902344 0-5.585938-1.085938-7.550782-3.058594-4.296874-4.3125-4.074218-11.554687.5-16.144531 0-.003906.003907-.003906.003907-.003906l3.324219-3.335938s0 0 .003906-.003906c2.289062-2.296875 5.300781-3.5625 8.472656-3.5625 2.902344 0 5.585938 1.089844 7.550781 3.0625 4.300781 4.3125 4.074219 11.554687-.503906 16.148437l-3.324219 3.332031c-2.289062 2.300782-5.300781 3.566407-8.476562 3.566407zm34.625 22.667969c-2.289063 2.296874-5.300782 3.566406-8.476563 3.566406-2.902343 0-5.582031-1.085938-7.550781-3.0625-4.296875-4.3125-4.070312-11.554688.503906-16.144532l3.324219-3.335937c2.292969-2.300781 5.304687-3.566406 8.480469-3.566406 2.902344 0 5.582031 1.085937 7.550781 3.0625 4.296875 4.3125 4.070313 11.554687-.503906 16.144531zm161.613281-67.355469-2.273437 2.28125c-2.335938 2.34375-5.464844 3.636719-8.808594 3.636719-3.339844 0-6.46875-1.292969-8.804688-3.636719l-58.609375-58.8125c-2.925781-2.933594-7.675781-2.941407-10.609375-.015625-2.933594 2.921875-2.941406 7.671875-.015625 10.605468l49.886719 50.058594c4.875 4.894532 4.875 12.851563 0 17.742188l-2.273438 2.277344c-2.335937 2.347656-5.464843 3.636718-8.804687 3.636718-3.34375 0-6.472656-1.289062-8.808594-3.636718l-57.648437-57.828126c-2.921875-2.933593-7.671875-2.941406-10.605469-.015624-2.933594 2.921874-2.941406 7.671874-.015625 10.605468l44.609375 44.753906.25.25c4.875 4.890626 4.875 12.847657 0 17.738282l-2.269531 2.277344c-2.339844 2.347656-5.46875 3.636718-8.808594 3.636718-3.34375 0-6.472656-1.289062-8.808594-3.636718l-62.835937-63.035157c-2.925781-2.933593-7.671875-2.941406-10.609375-.019531-2.933594 2.925781-2.9375 7.671875-.015625 10.605469l51.628906 51.796875c4.875 4.890625 4.875 12.847656 0 17.738281l-2.269531 2.277344c-2.339844 2.347656-5.46875 3.636719-8.808594 3.636719-2 0-3.917969-.46875-5.640625-1.34375 2.859375-9.066407.816406-19.261719-6.191406-26.292969-4.800781-4.816407-11.257813-7.46875-18.171875-7.46875-.183594 0-.363282.007812-.542969.011719.148437-6.832032-2.320313-13.644532-7.433594-18.773438-4.804687-4.820312-11.257812-7.472656-18.175781-7.472656-.179688 0-.359375.011718-.539062.011718.144531-6.828124-2.320313-13.644531-7.433594-18.773437-4.800782-4.816406-11.257813-7.46875-18.171875-7.46875-.183594 0-.363281.007813-.542969.011719.148438-6.832032-2.320312-13.644532-7.433594-18.773438-4.804687-4.816406-11.257812-7.472656-18.175781-7.472656-7.191406 0-13.972656 2.832031-19.101563 7.980469l-3.324218 3.332031c-.8125.8125-1.554688 1.671875-2.242188 2.558594l-14.628906-10.464844v-17.832031c0-4.140625-3.359375-7.5-7.5-7.5-4.144531 0-7.5 3.359375-7.5 7.5v39.832031h-19.105469v-155.496094h19.105469v79.664063c0 4.144531 3.355469 7.5 7.5 7.5 4.140625 0 7.5-3.355469 7.5-7.5v-51.707031h143.589844c3.347656.003906 9.171875 2.550781 11.757812 5.144531l.828125.832031-53.207031 53.375c-5.582031 5.601562-8.738281 13.015625-8.890625 20.878906-.148437 7.957032 2.804687 15.382813 8.3125 20.910156 5.367187 5.378907 12.582031 8.34375 20.3125 8.34375 8.058594 0 15.660156-3.175781 21.402344-8.941406l18.199219-18.253906c6.964843 4.007812 14.9375 6.167969 23.03125 6.167969 12.328124 0 23.917968-4.8125 32.628906-13.554688l3.460937-3.472656 61.652344 61.851563c4.875 4.890624 4.875 12.847656 0 17.738281zm36.609375-23.480469v-68.832031c0-4.140625-3.359375-7.5-7.5-7.5s-7.5 3.359375-7.5 7.5v46.679687l-18.074219 10.195313-54.597656-54.773438 8.132813-8.15625c2.921874-2.933593 2.914062-7.683593-.019532-10.605469-2.933594-2.925781-7.683594-2.917968-10.605468.015626l-22.183594 22.253906c-5.875 5.894531-13.691406 9.144531-22.003906 9.144531-6.992188 0-13.847657-2.386719-19.304688-6.722656-2.988281-2.375-7.28125-2.125-9.976562.574219l-22.570313 22.644531c-2.910156 2.917969-6.738281 4.527343-10.78125 4.527343-3.71875 0-7.160156-1.398437-9.691406-3.933593-2.609375-2.621094-4.007813-6.1875-3.9375-10.039063.078125-3.96875 1.683593-7.726562 4.519531-10.574218l66.972656-67.179688c1.753906-1.761719 4.089844-2.734375 6.570313-2.734375h117.550781v22.683594c0 4.144531 3.355469 7.5 7.5 7.5 4.140625 0 7.5-3.355469 7.5-7.5v-50.664063h19.105469v155.496094zm73.65625 16.0625h-39.550781v-187.621094h39.550781zm0 0"/><path d="m477.230469 389.703125c1.96875 0 3.898437-.800781 5.300781-2.199219 1.390625-1.402344 2.1875-3.332031 2.1875-5.300781 0-1.980469-.796875-3.910156-2.1875-5.3125-1.402344-1.386719-3.332031-2.1875-5.300781-2.1875-1.980469 0-3.910157.800781-5.308594 2.1875-1.402344 1.402344-2.203125 3.332031-2.203125 5.3125 0 1.96875.800781 3.898437 2.203125 5.300781 1.398437 1.398438 3.328125 2.199219 5.308594 2.199219zm0 0"/><path d="m256 233.027344c15.464844 0 30.625-4.171875 43.84375-12.058594 3.554688-2.125 4.71875-6.726562 2.597656-10.285156-2.125-3.554688-6.726562-4.71875-10.285156-2.597656-10.894531 6.503906-23.398438 9.941406-36.15625 9.941406-39.066406 0-70.851562-31.894532-70.851562-71.101563 0-39.203125 31.785156-71.101562 70.851562-71.101562s70.851562 31.898437 70.851562 71.101562c0 12.875-3.464843 25.484375-10.011718 36.464844-2.125 3.554687-.960938 8.160156 2.597656 10.28125s8.160156.960937 10.28125-2.597656c7.9375-13.304688 12.132812-28.570313 12.132812-44.148438 0-47.476562-38.511718-86.101562-85.851562-86.101562s-85.851562 38.625-85.851562 86.101562c0 47.476563 38.511718 86.101563 85.851562 86.101563zm0 0"/><path d="m230.140625 135.585938v-8.089844c0-4.140625-3.355469-7.5-7.5-7.5-4.140625 0-7.5 3.359375-7.5 7.5v8.089844c0 4.144531 3.359375 7.5 7.5 7.5 4.144531 0 7.5-3.355469 7.5-7.5zm0 0"/><path d="m296.859375 135.585938v-8.089844c0-4.140625-3.355469-7.5-7.5-7.5-4.140625 0-7.5 3.359375-7.5 7.5v8.089844c0 4.144531 3.359375 7.5 7.5 7.5 4.144531 0 7.5-3.355469 7.5-7.5zm0 0"/><path d="m256 191.671875c17.890625 0 32.449219-13.363281 32.449219-29.789063 0-4.140624-3.359375-7.5-7.5-7.5s-7.5 3.359376-7.5 7.5c0 8.152344-7.828125 14.789063-17.449219 14.789063s-17.449219-6.636719-17.449219-14.789063c0-4.140624-3.359375-7.5-7.5-7.5-4.144531 0-7.5 3.359376-7.5 7.5 0 16.425782 14.554688 29.789063 32.449219 29.789063zm0 0"/><path d="m380.910156 102.660156c28.230469 0 51.191406-23.023437 51.191406-51.328125 0-7.644531-1.683593-14.894531-4.6875-21.417969l6.421876-6.441406c2.925781-2.933594 2.917968-7.683594-.015626-10.609375-2.933593-2.921875-7.683593-2.914062-10.605468.019531l-4.199219 4.210938c-9.378906-10.484375-22.984375-17.09375-38.101563-17.09375-28.226562 0-51.191406 23.027344-51.191406 51.328125 0 28.304687 22.960938 51.332031 51.1875 51.332031zm0-87.660156c10.992188 0 20.847656 4.953125 27.492188 12.742188l-27.492188 27.578124-15.972656-16.027343c-2.921875-2.933594-7.671875-2.9375-10.605469-.015625-2.933593 2.921875-2.941406 7.671875-.019531 10.605468l19.167969 19.230469c1.984375 1.988281 4.621093 3.082031 7.429687 3.082031 2.8125 0 5.449219-1.09375 7.429688-3.082031l27.429687-27.519531c.863281 3.101562 1.332031 6.367188 1.332031 9.738281 0 20.03125-16.234374 36.328125-36.191406 36.328125-19.957031 0-36.191406-16.296875-36.191406-36.328125.003906-20.03125 16.238281-36.332031 36.191406-36.332031zm0 0"/><path d="m81.742188 101.730469-2.648438 15.449219c-.863281 5.027343 1.164062 10.011718 5.289062 13.011718 2.289063 1.660156 4.992188 2.539063 7.820313 2.539063 2.148437 0 4.289063-.527344 6.191406-1.527344l13.875-7.292969 13.871094 7.292969c1.902344 1 4.042969 1.527344 6.191406 1.527344 2.824219 0 5.53125-.875 7.820313-2.539063 4.125-3 6.152344-7.984375 5.292968-13.011718l-2.648437-15.445313 11.222656-10.941406c3.652344-3.558594 4.941407-8.785157 3.363281-13.640625-1.574218-4.847656-5.691406-8.316406-10.738281-9.050782l-15.511719-2.253906-6.933593-14.058594c-2.257813-4.570312-6.832031-7.414062-11.929688-7.414062-5.101562 0-9.671875 2.84375-11.929687 7.417969l-6.9375 14.054687-15.511719 2.253906c-5.046875.734376-9.160156 4.203126-10.738281 9.054688-1.574219 4.851562-.285156 10.078125 3.367187 13.636719zm17.71875-21.605469c2.441406-.355469 4.554687-1.890625 5.644531-4.105469l7.160156-14.507812 7.160156 14.507812c1.09375 2.214844 3.207031 3.75 5.648438 4.105469l16.011719 2.324219-11.585938 11.292969c-1.769531 1.722656-2.574219 4.207031-2.15625 6.640624l2.734375 15.945313-14.320313-7.53125c-1.09375-.574219-2.292968-.859375-3.492187-.859375-1.195313 0-2.394531.285156-3.488281.859375l-14.320313 7.53125 2.734375-15.945313c.417969-2.433593-.386718-4.917968-2.15625-6.640624l-11.585937-11.292969zm0 0"/></svg>