<svg id="Capa_1" enable-background="new 0 0 512 512" height="512" viewBox="0 0 512 512" width="512" xmlns="http://www.w3.org/2000/svg" xmlns:xlink="http://www.w3.org/1999/xlink"><linearGradient id="SVGID_1_" gradientUnits="userSpaceOnUse" x1="23.821" x2="459.531" y1="343.269" y2="91.711"><stop offset="0" stop-color="#dcfdee" stop-opacity="0"/><stop offset=".6288" stop-color="#d2f3e4"/></linearGradient><path d="m16.074 302.88c18.727 64.003 72.707 194.564 163.922 182.845 91.486-11.755 55.758-129.725 139.508-145.894 36.867-7.118 61.857 56.689 98.806 54.704 47.588-2.557 71.81-49.663 85.108-89.264 28.197-83.968-14.029-226.352-112.858-251.011-86.244-21.519-96.332 83.855-171.322 53.248-42.149-17.203-37.938-68.576-89.272-78.942-155.299-31.36-138.811 189.15-113.892 274.314z" fill="url(#SVGID_1_)"/><path d="m450.429 110.041h-388.858c-7.139 0-12.926 5.787-12.926 12.926v270.364c0 7.139 5.787 12.926 12.926 12.926h152.283l-4.928 23.947c-1.992 9.681-8.692 17.377-17.412 20.928-4.321 1.76-7.254 5.827-7.254 10.493v.2c0 6.194 5.022 11.216 11.216 11.216h121.05c6.194 0 11.216-5.022 11.216-11.216v-.2c0-4.666-2.933-8.733-7.254-10.493-8.719-3.551-15.419-11.247-17.412-20.928l-4.928-23.947h152.283c7.139 0 12.926-5.787 12.926-12.926v-270.364c-.002-7.139-5.789-12.926-12.928-12.926z" fill="#6583fe" opacity=".2"/><path d="m195.475 453.041h121.05c6.194 0 11.216-5.022 11.216-11.216v-.2c0-4.666-2.933-8.733-7.254-10.493-8.719-3.551-15.419-11.247-17.412-20.928l-6.611-32.121h-80.929l-6.611 32.121c-1.992 9.681-8.692 17.377-17.411 20.928-4.321 1.76-7.254 5.827-7.254 10.493v.2c0 6.195 5.022 11.216 11.216 11.216z" fill="#b7c5ff"/><path d="m301.86 404.261h-91.72l5.4-26.18h80.92z" fill="#9fb0fe"/><path d="m450.429 386.257h-388.858c-7.139 0-12.926-5.787-12.926-12.926v-270.364c0-7.139 5.787-12.926 12.926-12.926h388.859c7.139 0 12.926 5.787 12.926 12.926v270.364c-.001 7.139-5.788 12.926-12.927 12.926z" fill="#2d58e0"/><path d="m48.645 283.696v89.631c0 7.141 5.789 12.93 12.93 12.93h388.85c7.141 0 12.93-5.789 12.93-12.93v-89.631z" fill="#ff7eb8"/><path d="m315.842 341.696c20.201-46.321 33.038-104.751 33.038-133.247 0-51.296-41.584-92.88-92.88-92.88s-92.88 41.584-92.88 92.88c0 28.495 12.837 86.926 33.038 133.247z" fill="#ffc4df"/><path d="m281.34 261.194c.658 0 .973.103 1.874 1.018.485-3.523.979-7.044 1.484-10.564-.994-.281-2.103-.453-3.357-.453-5.366 0-8.166 3.055-10.019 5.077-1.555 1.696-1.825 1.832-2.645 1.832-.821 0-1.092-.136-2.648-1.833-1.853-2.021-4.653-5.076-10.02-5.076s-8.166 3.055-10.019 5.076c-1.555 1.697-1.825 1.833-2.646 1.833-.822 0-1.094-.136-2.65-1.834-1.854-2.021-4.654-5.075-10.021-5.075-1.318 0-2.466.198-3.498.506.212.639 1.255 7.646 1.651 10.48.878-.886 1.194-.986 1.848-.986.822 0 1.094.136 2.65 1.834 1.854 2.021 4.654 5.075 10.021 5.075 5.366 0 8.166-3.055 10.019-5.076 1.555-1.697 1.825-1.833 2.646-1.833s1.092.136 2.648 1.833c1.853 2.021 4.653 5.076 10.02 5.076 5.365 0 8.165-3.055 10.018-5.076 1.553-1.698 1.824-1.834 2.644-1.834z" fill="#9fb0fe"/><path d="m238.78 337.806c-.27.04-.53.06-.79.06-2.41 0-4.54-1.76-4.93-4.22l-13.9-88.16-1.56-9.92-4.54-28.79c-.43-2.72 1.43-5.28 4.16-5.71s5.29 1.43 5.72 4.16l3.79 24.05 1.7 10.75 14.51 92.06c.43 2.73-1.43 5.29-4.16 5.72z" fill="#ff5ba8"/><path d="m298.94 206.776-4.54 28.79-1.56 9.92-13.9 88.16c-.39 2.46-2.52 4.22-4.93 4.22-.26 0-.52-.02-.79-.06-2.73-.43-4.59-2.99-4.16-5.72l14.51-92.06 1.7-10.76 3.79-24.04c.43-2.73 2.99-4.59 5.72-4.16s4.59 2.99 4.16 5.71z" fill="#ff5ba8"/><path d="m228.43 240.026c-.13.13-.26.28-.41.44-1.71 1.87-4.24 4.63-8.86 5.02l-1.56-9.92c.13-.01.26-.02.4-.02.82 0 1.09-.14 2.65-1.84 1.33-1.45 3.16-3.44 6.08-4.43z" fill="#fe2c8f"/><path d="m294.4 235.566-1.56 9.92c-4.62-.39-7.14-3.15-8.86-5.02-.15-.16-.28-.31-.41-.44l1.7-10.76c2.93 1 4.75 2.98 6.09 4.44 1.55 1.7 1.82 1.84 2.64 1.84.14 0 .27.01.4.02z" fill="#fe2c8f"/><path d="m48.645 333.469v39.862c0 7.139 5.787 12.926 12.926 12.926h388.859c7.139 0 12.926-5.787 12.926-12.926v-39.862z" fill="#d2deff"/><path d="m294 237.088c-5.365 0-8.164-3.056-10.017-5.077-1.555-1.696-1.824-1.832-2.644-1.832s-1.091.136-2.646 1.833c-1.853 2.021-4.652 5.076-10.018 5.076s-8.167-3.055-10.02-5.076c-1.557-1.697-1.827-1.833-2.648-1.833-.82 0-1.091.136-2.646 1.833-1.853 2.021-4.652 5.076-10.019 5.076s-8.168-3.055-10.021-5.075c-1.557-1.698-1.828-1.834-2.65-1.834-.823 0-1.095.136-2.652 1.834-1.854 2.021-4.654 5.075-10.021 5.075-2.762 0-5-2.238-5-5s2.238-5 5-5c.822 0 1.094-.136 2.651-1.834 1.854-2.021 4.654-5.075 10.021-5.075s8.168 3.055 10.021 5.075c1.557 1.698 1.828 1.834 2.65 1.834.82 0 1.091-.136 2.646-1.833 1.853-2.021 4.652-5.076 10.019-5.076s8.167 3.055 10.02 5.076c1.557 1.697 1.827 1.833 2.648 1.833.819 0 1.09-.136 2.645-1.832 1.853-2.022 4.652-5.077 10.019-5.077 5.365 0 8.164 3.056 10.017 5.077 1.555 1.696 1.824 1.832 2.644 1.832 2.762 0 5 2.238 5 5s-2.237 5-4.999 5z" fill="#9fb0fe"/><path d="m288.985 65.959c-2.762 0-5-2.238-5-5 0-3.309-2.691-6-6-6-2.762 0-5-2.238-5-5s2.238-5 5-5c3.309 0 6-2.691 6-6 0-2.762 2.238-5 5-5s5 2.238 5 5c0 3.309 2.691 6 6 6 2.762 0 5 2.238 5 5s-2.238 5-5 5c-3.309 0-6 2.691-6 6 0 2.762-2.238 5-5 5z" fill="#01eca5"/><path d="m360 429.107c-1.279 0-2.56-.488-3.535-1.465-1.953-1.952-1.953-5.118 0-7.07l10-10c1.951-1.953 5.119-1.953 7.07 0 1.953 1.952 1.953 5.118 0 7.07l-10 10c-.975.977-2.256 1.465-3.535 1.465z" fill="#6583fe"/><path d="m132 69.959c-1.279 0-2.56-.488-3.535-1.465-1.953-1.952-1.953-5.118 0-7.07l10-10c1.951-1.953 5.119-1.953 7.07 0 1.953 1.952 1.953 5.118 0 7.07l-10 10c-.975.977-2.256 1.465-3.535 1.465z" fill="#6583fe"/><path d="m410 460.107c-2.762 0-5-2.238-5-5 0-3.309-2.691-6-6-6-2.762 0-5-2.238-5-5s2.238-5 5-5c3.309 0 6-2.691 6-6 0-2.762 2.238-5 5-5s5 2.238 5 5c0 3.309 2.691 6 6 6 2.762 0 5 2.238 5 5s-2.238 5-5 5c-3.309 0-6 2.691-6 6 0 2.762-2.238 5-5 5z" fill="#ff7eb8"/><path d="m126 443.328c-2.762 0-5-2.238-5-5 0-3.309-2.691-6-6-6-2.762 0-5-2.238-5-5s2.238-5 5-5c3.309 0 6-2.691 6-6 0-2.762 2.238-5 5-5s5 2.238 5 5c0 3.309 2.691 6 6 6 2.762 0 5 2.238 5 5s-2.238 5-5 5c-3.309 0-6 2.691-6 6 0 2.762-2.238 5-5 5z" fill="#01eca5"/><path d="m252.499 201.002c-.628 0-1.261-.118-1.866-.362-1.893-.762-3.133-2.598-3.133-4.638v-12.734l-1.965 1.964c-.938.938-2.209 1.465-3.535 1.465h-29.75c-2.762 0-5-2.238-5-5s2.238-5 5-5h27.679l9.036-9.035c1.43-1.432 3.582-1.859 5.448-1.084 1.869.773 3.087 2.597 3.087 4.619v12.389l5.146-5.354c.942-.98 2.244-1.535 3.604-1.535h33.5c2.762 0 5 2.238 5 5s-2.238 5-5 5h-31.371l-12.274 12.771c-.961.999-2.271 1.534-3.606 1.534z" fill="#fff"/><g fill="#ffdbed"><path d="m411.727 206.783h-26.52c-2.762 0-5-2.239-5-5s2.238-5 5-5h26.52c2.762 0 5 2.239 5 5s-2.238 5-5 5z"/><path d="m389.308 265.252-18.752-18.752c-1.953-1.953-1.952-5.119 0-7.071 1.953-1.952 5.118-1.953 7.071 0l18.752 18.752c1.953 1.953 1.952 5.119 0 7.071s-5.118 1.953-7.071 0z"/><path d="m389.308 138.314-18.752 18.752c-1.953 1.953-1.952 5.119 0 7.071 1.953 1.952 5.118 1.953 7.071 0l18.752-18.752c1.953-1.953 1.952-5.119 0-7.071s-5.118-1.953-7.071 0z"/><path d="m100.273 206.783h26.52c2.762 0 5-2.239 5-5s-2.238-5-5-5h-26.52c-2.762 0-5 2.239-5 5s2.238 5 5 5z"/><path d="m122.692 265.252 18.752-18.752c1.953-1.953 1.952-5.119 0-7.071s-5.118-1.953-7.071 0l-18.752 18.752c-1.953 1.953-1.952 5.119 0 7.071 1.953 1.952 5.118 1.953 7.071 0z"/><path d="m122.692 138.314 18.752 18.752c1.953 1.953 1.952 5.119 0 7.071s-5.118 1.953-7.071 0l-18.752-18.752c-1.953-1.953-1.952-5.119 0-7.071 1.953-1.952 5.118-1.953 7.071 0z"/></g><path d="m450.43 85.041h-388.86c-9.885 0-17.926 8.041-17.926 17.926v195.033c0 2.762 2.238 5 5 5s5-2.238 5-5v-195.033c0-4.37 3.556-7.926 7.926-7.926h388.86c4.37 0 7.926 3.556 7.926 7.926v270.364c0 4.37-3.556 7.926-7.926 7.926h-388.86c-4.37 0-7.926-3.556-7.926-7.926v-34.861h372.356c2.762 0 5-2.238 5-5s-2.238-5-5-5h-377.355c-2.762 0-5 2.238-5 5v39.861c0 9.885 8.041 17.926 17.926 17.926h146.149l-3.692 17.938c-1.608 7.818-6.992 14.288-14.399 17.306-.012.005-.023.011-.035.016-.022.009-.042.019-.064.029-6.241 2.588-10.269 8.493-10.269 15.079v.2c0 8.941 7.274 16.216 16.216 16.216h121.049c8.942 0 16.217-7.274 16.217-16.216v-.2c0-6.589-4.031-12.496-10.275-15.082-.019-.008-.037-.017-.056-.025-.013-.005-.025-.012-.037-.017-7.408-3.018-12.792-9.487-14.4-17.306l-3.692-17.938h146.147c9.885 0 17.926-8.041 17.926-17.926v-270.364c-.001-9.885-8.042-17.926-17.926-17.926zm-127.689 356.784c0 3.428-2.789 6.216-6.217 6.216h-121.048c-3.428 0-6.216-2.788-6.216-6.216v-.2c0-2.272 1.31-4.347 3.389-5.493h126.704c2.079 1.146 3.389 3.221 3.389 5.493v.2zm-28.64-50.422 4.077 19.808c1.15 5.587 3.66 10.687 7.207 14.921h-98.77c3.547-4.234 6.057-9.334 7.207-14.921l4.107-19.954h76.156c.009.049.005.097.016.146z" fill="#2626bc"/></svg>