<?xml version="1.0" encoding="iso-8859-1"?>
<!-- Generator: Adobe Illustrator 19.0.0, SVG Export Plug-In . SVG Version: 6.00 Build 0)  -->
<svg version="1.1" id="Capa_1" xmlns="http://www.w3.org/2000/svg" xmlns:xlink="http://www.w3.org/1999/xlink" x="0px" y="0px"
	 viewBox="0 0 512 512" style="enable-background:new 0 0 512 512;" xml:space="preserve">
<g>
	<path style="fill:#78B9EB;" d="M315.733,221.867c9.412,0.026,17.041,7.654,17.067,17.067
		C332.8,229.504,325.163,221.867,315.733,221.867z"/>
	<path style="fill:#78B9EB;" d="M332.8,238.933v8.533h153.6c9.429,0,17.067-7.637,17.067-17.067V25.6
		c0-9.429-7.637-17.067-17.067-17.067H179.2c-9.429,0-17.067,7.637-17.067,17.067v196.267h153.6
		C325.163,221.867,332.8,229.504,332.8,238.933z"/>
	<path style="fill:#78B9EB;" d="M153.6,426.667h51.2v-8.533h128v-179.2c-0.026-9.412-7.654-17.041-17.067-17.067H42.667
		c-9.412,0.026-17.041,7.654-17.067,17.067v179.2h128V426.667z"/>
</g>
<path style="fill:#E6E7E8;" d="M42.667,452.267h273.067c18.825,0.026,34.108-15.223,34.133-34.048c0-0.026,0-0.06,0-0.085H204.8
	v8.533h-51.2v-8.533H8.533C8.533,436.983,23.817,452.267,42.667,452.267z"/>
<path style="fill:#78B9EB;" d="M401.067,332.8h68.267c9.429,0,17.067,7.637,17.067,17.067V486.4c0,9.429-7.637,17.067-17.067,17.067
	h-68.267c-9.429,0-17.067-7.637-17.067-17.067V349.867C384,340.437,391.637,332.8,401.067,332.8z"/>
<g>
	<path style="fill:#231F20;" d="M486.4,0H179.2c-14.14,0-25.6,11.46-25.6,25.6v187.733H42.667c-14.14,0-25.6,11.46-25.6,25.6V409.6
		H8.533c-4.71,0-8.533,3.823-8.533,8.533c0.026,23.552,19.115,42.641,42.667,42.667h273.067
		c23.543,0.026,42.641-19.038,42.667-42.581c0-0.026,0-0.06,0-0.085c0-4.71-3.823-8.533-8.533-8.533h-8.533v-93.867H435.2
		c4.71,0,8.533-3.823,8.533-8.533s-3.823-8.533-8.533-8.533h-44.766L378.249,256H486.4c14.14,0,25.6-11.46,25.6-25.6l0,0V25.6
		C512,11.46,500.54,0,486.4,0z M333.892,436.207c-4.821,4.813-11.349,7.518-18.159,7.526H42.667
		c-10.846-0.017-20.514-6.844-24.141-17.067h126.541c0,4.71,3.823,8.533,8.533,8.533h51.2c4.71,0,8.533-3.823,8.533-8.533h126.541
		C338.603,430.242,336.563,433.502,333.892,436.207z M204.8,409.6c-4.71,0-8.533,3.823-8.533,8.533h-34.133
		c0-4.71-3.823-8.533-8.533-8.533H34.133V238.933c0-4.71,3.823-8.533,8.533-8.533h273.067c4.71,0,8.533,3.823,8.533,8.533V409.6
		H204.8z M372.685,298.667h-31.351V256h19.166L372.685,298.667z M494.933,230.4c0,4.71-3.823,8.533-8.533,8.533H341.333
		c0-14.14-11.46-25.6-25.6-25.6H170.667V25.6c0-4.71,3.823-8.533,8.533-8.533h307.2c4.71,0,8.533,3.823,8.533,8.533V230.4z"/>
	<path style="fill:#231F20;" d="M469.333,324.267h-68.267c-14.14,0-25.6,11.46-25.6,25.6V486.4c0,14.14,11.46,25.6,25.6,25.6h68.267
		c14.14,0,25.6-11.46,25.6-25.6V349.867C494.933,335.727,483.473,324.267,469.333,324.267z M477.867,486.4
		c0,4.71-3.823,8.533-8.533,8.533h-68.267c-4.71,0-8.533-3.823-8.533-8.533V349.867c0-4.71,3.823-8.533,8.533-8.533h68.267
		c4.71,0,8.533,3.823,8.533,8.533V486.4z"/>
</g>
<g>
</g>
<g>
</g>
<g>
</g>
<g>
</g>
<g>
</g>
<g>
</g>
<g>
</g>
<g>
</g>
<g>
</g>
<g>
</g>
<g>
</g>
<g>
</g>
<g>
</g>
<g>
</g>
<g>
</g>
</svg>
