<svg id="Capa_1" enable-background="new 0 0 512 512" height="512" viewBox="0 0 512 512" width="512" xmlns="http://www.w3.org/2000/svg" xmlns:xlink="http://www.w3.org/1999/xlink"><linearGradient id="SVGID_1_" gradientUnits="userSpaceOnUse" x1="0" x2="512" y1="256" y2="256"><stop offset="0" stop-color="#ffdbed" stop-opacity="0"/><stop offset="1" stop-color="#ffdbed"/></linearGradient><path d="m418.32 2.5c-55.666-9.521-178.298 12.183-200.004 105.017-14.431 61.722-14.007 112.075-50.427 113.02-21.67.562-32.97-44.31-62.889-48.001-39.047-4.817-66.145 27.695-83.057 57.138-37.205 64.772-25.571 174.918 23.354 228.632 118.488 130.086 259.197-5.952 319.358-112.309 38.585-68.213 125.637-123.352 143.767-200.248 15.177-64.376-18.503-131.003-90.102-143.249z" fill="url(#SVGID_1_)"/><g fill="#6583fe" opacity=".2"><path d="m442.979 132.499c5.523 0 10-4.477 10-10v-36.182c0-5.523-4.477-10-10-10h-376.284c-3.452 0-6.496 1.75-8.293 4.41-1.079 1.596-1.71 3.521-1.71 5.592v376.28c0 5.52 4.48 10 10 10h36.19c5.52 0 10-4.48 10-10v-330.1z"/><path d="m461.198 411.292h-8.219v-21.302l3.658-.106c4.322-.125 6.459-5.306 3.481-8.441l-7.139-7.518v-205.966c0-5.523-4.477-10-10-10h-294.643c-5.523 0-10 4.477-10 10v294.642c0 5.523 4.477 10 10 10h294.642c5.523 0 10-4.477 10-10v-26.815h8.219c2.271 0 4.111-1.841 4.111-4.111v-16.271c.001-2.271-1.84-4.112-4.11-4.112z"/></g><path d="m112.882 56.319v386.28c0 5.52-4.48 10-10 10h-36.19c-5.52 0-10-4.48-10-10v-376.28c0-5.52 4.48-10 10-10z" fill="#00d890"/><path d="m112.882 56.319v74.18h-56.19v-64.18c0-5.52 4.48-10 10-10z" fill="#00b574"/><path d="m56.694 112.499v-46.182c0-5.523 4.477-10 10-10h376.284c5.523 0 10 4.477 10 10v36.182c0 5.523-4.477 10-10 10z" fill="#02ffb3"/><path d="m442.978 452.601h-294.642c-5.523 0-10-4.477-10-10v-294.642c0-5.523 4.477-10 10-10h294.642c5.523 0 10 4.477 10 10v294.642c0 5.523-4.477 10-10 10z" fill="#ffdbed"/><path d="m330.549 330.171h-192.213v-182.212c0-5.523 4.477-10 10-10h182.212v192.212z" fill="#fff"/><path d="m397.242 307.887 2.035 78.758c.112 4.322 5.286 6.475 8.43 3.507l20.055-18.929c.355-.335.821-.528 1.309-.542l27.566-.796c4.322-.125 6.459-5.306 3.481-8.441l-54.252-57.129c-3.154-3.321-8.742-1.007-8.624 3.572z" fill="#ff7eb8"/><path d="m461.197 415.786h-16.271c-2.271 0-4.111-1.841-4.111-4.111v-16.271c0-2.271 1.841-4.111 4.111-4.111h16.271c2.271 0 4.111 1.841 4.111 4.111v16.271c.001 2.27-1.84 4.111-4.111 4.111z" fill="#ff7eb8"/><g fill="#2626bc"><path d="m117.877 112.451v-.769c-.024.011-.05.019-.074.03-.38-2.384-2.429-4.212-4.921-4.212h-51.188v-41.184c0-2.757 2.243-5 5-5h41.183v11.188c0 2.761 2.238 5 5 5s5-2.239 5-5v-11.188h21.096v11.188c0 2.761 2.238 5 5 5s5-2.239 5-5v-11.188h21.096v11.188c0 2.761 2.238 5 5 5s5-2.239 5-5v-11.188h21.097v11.188c0 2.761 2.238 5 5 5s5-2.239 5-5v-11.188h21.096v11.188c0 2.761 2.238 5 5 5s5-2.239 5-5v-11.188h21.096v11.188c0 2.761 2.238 5 5 5s5-2.239 5-5v-11.188h21.096v11.188c0 2.761 2.238 5 5 5s5-2.239 5-5v-11.188h21.097v11.188c0 2.761 2.238 5 5 5s5-2.239 5-5v-11.188h21.096v11.188c0 2.761 2.238 5 5 5s5-2.239 5-5v-11.188h21.096v11.188c0 2.761 2.238 5 5 5s5-2.239 5-5v-11.188h21.097v11.188c0 2.761 2.238 5 5 5s5-2.239 5-5v-11.188h14.142c2.757 0 5 2.243 5 5v36.183c0 2.757-2.243 5-5 5h-296.1c-2.762 0-5 2.239-5 5s2.238 5 5 5h296.097c8.271 0 15-6.729 15-15v-36.183c0-8.271-6.729-15-15-15h-376.285c-8.271 0-15 6.729-15 15v376.284c0 8.271 6.729 15 15 15h36.183c8.271 0 15-6.729 15-15v-330.053c0-.016.005-.032.005-.048s-.005-.032-.005-.048zm-15 335.15h-36.183c-2.757 0-5-2.243-5-5v-14.142h11.188c2.762 0 5-2.239 5-5s-2.238-5-5-5h-11.188v-21.096h11.188c2.762 0 5-2.239 5-5s-2.238-5-5-5h-11.188v-21.096h11.188c2.762 0 5-2.239 5-5s-2.238-5-5-5h-11.188v-21.096h11.188c2.762 0 5-2.239 5-5s-2.238-5-5-5h-11.188v-21.096h11.188c2.762 0 5-2.239 5-5s-2.238-5-5-5h-11.188v-21.096h11.188c2.762 0 5-2.239 5-5s-2.238-5-5-5h-11.188v-21.096h11.188c2.762 0 5-2.239 5-5s-2.238-5-5-5h-11.188v-21.096h11.188c2.762 0 5-2.239 5-5s-2.238-5-5-5h-11.188v-21.096h11.188c2.762 0 5-2.239 5-5s-2.238-5-5-5h-11.188v-21.096h11.188c2.762 0 5-2.239 5-5s-2.238-5-5-5h-11.188v-21.096h46.183v325.102c0 2.756-2.243 5-5 5z"/><path d="m175.068 325.171c-2.762 0-5 2.239-5 5s2.238 5 5 5h11.5c2.762 0 5-2.239 5-5s-2.238-5-5-5z"/><path d="m211.801 325.171c-2.762 0-5 2.239-5 5s2.238 5 5 5h11.5c2.762 0 5-2.239 5-5s-2.238-5-5-5z"/><path d="m248.533 325.171c-2.762 0-5 2.239-5 5s2.238 5 5 5h11.5c2.762 0 5-2.239 5-5s-2.238-5-5-5z"/><path d="m285.266 325.171c-2.762 0-5 2.239-5 5s2.238 5 5 5h11.5c2.762 0 5-2.239 5-5s-2.238-5-5-5z"/><path d="m335.549 174.691c0-2.761-2.238-5-5-5s-5 2.239-5 5v11.5c0 2.761 2.238 5 5 5s5-2.239 5-5z"/><path d="m335.549 211.423c0-2.761-2.238-5-5-5s-5 2.239-5 5v11.5c0 2.761 2.238 5 5 5s5-2.239 5-5z"/><path d="m335.549 248.155c0-2.761-2.238-5-5-5s-5 2.239-5 5v11.5c0 2.761 2.238 5 5 5s5-2.239 5-5z"/><path d="m335.549 284.888c0-2.761-2.238-5-5-5s-5 2.239-5 5v11.5c0 2.761 2.238 5 5 5s5-2.239 5-5z"/><path d="m330.549 316.62c-2.762 0-5 2.239-5 5v3.551h-3.551c-2.762 0-5 2.239-5 5s2.238 5 5 5h8.551c2.762 0 5-2.239 5-5v-8.551c0-2.761-2.238-5-5-5z"/><path d="m461.197 386.292h-3.219v-11.529c3.476-.507 6.389-2.742 7.759-6.064 1.525-3.698.762-7.798-1.993-10.698l-5.766-6.071v-69.263c0-2.761-2.238-5-5-5s-5 2.239-5 5v58.732l-38.486-40.527c-2.874-3.026-7.222-3.949-11.077-2.353-3.856 1.597-6.279 5.325-6.171 9.497l2.035 78.757c.103 3.999 2.461 7.438 6.155 8.975 1.269.527 2.584.785 3.884.785 2.485 0 4.91-.943 6.82-2.746l19.222-18.143 17.618-.509v11.155h-3.053c-5.023 0-9.11 4.087-9.11 9.111v16.271c0 5.024 4.087 9.111 9.11 9.111h3.053v21.815c0 2.757-2.243 5-5 5h-294.642c-2.757 0-5-2.243-5-5v-107.43h6.501c2.762 0 5-2.239 5-5s-2.238-5-5-5h-6.501v-177.209c0-2.757 2.243-5 5-5h177.213v6.5c0 2.761 2.238 5 5 5s5-2.239 5-5v-6.5h107.43c2.757 0 5 2.243 5 5v100.708c0 2.761 2.238 5 5 5s5-2.239 5-5v-100.708c0-8.271-6.729-15-15-15h-112.425c-.002 0-.003 0-.005 0s-.003 0-.005 0h-182.208c-8.271 0-15 6.729-15 15v294.642c0 8.271 6.729 15 15 15h294.643c8.271 0 15-6.729 15-15v-21.815h3.219c5.024 0 9.111-4.087 9.111-9.111v-16.271c0-5.025-4.087-9.112-9.112-9.112zm-32.265-20.609c-1.716.048-3.349.723-4.602 1.904l-20.055 18.929-2.035-78.758 54.252 57.129zm31.377 45.103h-14.493v-14.494h14.493z"/></g><path d="m189.498 179.933h-16.667c-2.762 0-5-2.239-5-5s2.238-5 5-5h16.667c2.762 0 5 2.239 5 5s-2.238 5-5 5z" fill="#02ffb3"/><path d="m239.498 199.263h-66.667c-2.762 0-5-2.239-5-5s2.238-5 5-5h66.667c2.762 0 5 2.239 5 5s-2.238 5-5 5z" fill="#ff7eb8"/><path d="m239.498 218.594h-66.667c-2.762 0-5-2.239-5-5s2.238-5 5-5h66.667c2.762 0 5 2.239 5 5s-2.238 5-5 5z" fill="#ff7eb8"/><path d="m350.657 381.933h16.667c2.762 0 5-2.239 5-5s-2.238-5-5-5h-16.667c-2.762 0-5 2.239-5 5s2.239 5 5 5z" fill="#00d890"/><path d="m300.657 401.263h66.667c2.762 0 5-2.239 5-5s-2.238-5-5-5h-66.667c-2.762 0-5 2.239-5 5s2.239 5 5 5z" fill="#ff7eb8"/><path d="m300.657 420.594h66.667c2.762 0 5-2.239 5-5s-2.238-5-5-5h-66.667c-2.762 0-5 2.239-5 5s2.239 5 5 5z" fill="#ff7eb8"/><path d="m489.5 253.641c-2.762 0-5-2.239-5-5 0-3.309-2.691-6-6-6-2.762 0-5-2.239-5-5s2.238-5 5-5c3.309 0 6-2.691 6-6 0-2.761 2.238-5 5-5s5 2.239 5 5c0 3.309 2.691 6 6 6 2.762 0 5 2.239 5 5s-2.238 5-5 5c-3.309 0-6 2.691-6 6 0 2.761-2.238 5-5 5z" fill="#01eca5"/><path d="m22.5 417.276c-2.762 0-5-2.239-5-5 0-3.309-2.691-6-6-6-2.762 0-5-2.239-5-5s2.238-5 5-5c3.309 0 6-2.691 6-6 0-2.761 2.238-5 5-5s5 2.239 5 5c0 3.309 2.691 6 6 6 2.762 0 5 2.239 5 5s-2.238 5-5 5c-3.309 0-6 2.691-6 6 0 2.762-2.238 5-5 5z" fill="#6583fe"/><path d="m212.551 38.542c-1.279 0-2.56-.488-3.535-1.464-1.953-1.953-1.953-5.119 0-7.071l10-10c1.951-1.952 5.119-1.952 7.07 0 1.953 1.953 1.953 5.119 0 7.071l-10 10c-.976.975-2.256 1.464-3.535 1.464z" fill="#ff7eb8"/><path d="m280.266 493.458c-1.279 0-2.56-.488-3.535-1.464-1.953-1.953-1.953-5.119 0-7.071l10-10c1.951-1.952 5.119-1.952 7.07 0 1.953 1.953 1.953 5.119 0 7.071l-10 10c-.976.976-2.256 1.464-3.535 1.464z" fill="#6583fe"/><path d="m473.5 173.587c-1.279 0-2.56-.488-3.535-1.464-1.953-1.953-1.953-5.119 0-7.071l10-10c1.951-1.952 5.119-1.952 7.07 0 1.953 1.953 1.953 5.119 0 7.071l-10 10c-.975.976-2.256 1.464-3.535 1.464z" fill="#6583fe"/></svg>