<svg id="Capa_1" enable-background="new 0 0 512 512" height="512" viewBox="0 0 512 512" width="512" xmlns="http://www.w3.org/2000/svg" xmlns:xlink="http://www.w3.org/1999/xlink"><linearGradient id="SVGID_1_" gradientUnits="userSpaceOnUse" x1="15.63" x2="496.37" y1="256" y2="256"><stop offset=".0485" stop-color="#d2deff"/><stop offset=".9993" stop-color="#dcfdee"/></linearGradient><g><g><g><path d="m20.722 179.563c26.255 85.007 107.775 89.005 182.131 93.553 244.867 14.978-63.002 218.186 146.697 238.304 77.136 7.4 157.788-56.956 145.59-140.291-11.107-75.879-121.152-121.073-121.207-191.979-.043-55.945 103.86-96.409 36.272-156.553-60.249-53.612-442.871-15.888-389.483 156.966z" fill="url(#SVGID_1_)"/></g><g><g><path d="m371.524 88.35c0-14.464-11.726-26.19-26.19-26.19h-175.52c-14.46 0-26.19 11.72-26.19 26.19v208.56c-12.251 10.082-20.065 25.361-20.065 42.465v124.465c0 5.523 4.477 10 10 10h188.302c5.523 0 10-4.477 10-10v-10.951h30.724c9.643 0 17.459-7.817 17.459-17.459v-7.857c0-6.371-3.424-11.929-8.521-14.978v-324.245z" fill="#2626bc" opacity=".1"/><g><path d="m231.761 399.79h100.101v50.05h-100.101z" fill="#ff7eb8"/><g><g><path d="m371.524 64.35v329.91c0 14.47-11.72 26.19-26.19 26.19h-175.52c-14.46 0-26.19-11.72-26.19-26.19v-329.91c0-14.47 11.73-26.19 26.19-26.19h175.52c14.47 0 26.19 11.72 26.19 26.19z" fill="#fff"/><path d="m143.624 233.84v160.42c0 14.47 11.73 26.19 26.19 26.19h175.52c14.47 0 26.19-11.72 26.19-26.19v-160.42z" fill="#97ffd2"/><path d="m143.624 305.84v88.42c0 14.47 11.73 26.19 26.19 26.19h175.52c14.47 0 26.19-11.72 26.19-26.19v-88.42z" fill="#b7c5ff"/><path d="m143.624 334.84v59.42c0 14.47 11.73 26.19 26.19 26.19h175.52c14.47 0 26.19-11.72 26.19-26.19v-59.42z" fill="#9fb0fe"/><path d="m305.608 58.185 6.248-20.025h-109.558l6.248 20.025c1.138 3.646 4.514 6.13 8.334 6.13h80.395c3.819 0 7.195-2.483 8.333-6.13z" fill="#6583fe"/></g></g><g fill="#ffa8cf"><path d="m123.56 449.84v-134.465c0-30.359 24.611-54.97 54.97-54.97h57.596c14.946 0 27.062 12.116 27.062 27.062 0 14.946-12.116 27.062-27.062 27.062h-46.559s77.112 6.111 77.112 135.311"/><g><path d="m369.569 294.812h-46.019c-12.606 0-22.825-10.219-22.825-22.825 0-12.606 10.219-22.825 22.825-22.825h46.019c9.643 0 17.459 7.817 17.459 17.459v10.732c.001 9.643-7.816 17.459-17.459 17.459z"/><path d="m369.569 340.463h-56.494c-12.606 0-22.825-10.219-22.825-22.825 0-12.606 10.219-22.825 22.825-22.825h56.494c9.643 0 17.459 7.817 17.459 17.459v10.732c.001 9.642-7.816 17.459-17.459 17.459z"/><path d="m369.569 386.113h-46.019c-12.606 0-22.825-10.219-22.825-22.825 0-12.606 10.219-22.825 22.825-22.825h46.019c9.643 0 17.459 7.817 17.459 17.459v10.732c.001 9.642-7.816 17.459-17.459 17.459z"/><path d="m362.586 428.889h-41.361c-11.812 0-21.388-9.576-21.388-21.388 0-11.812 9.576-21.388 21.388-21.388h41.361c9.643 0 17.459 7.817 17.459 17.459v7.857c0 9.643-7.817 17.46-17.459 17.46z"/></g></g></g><g><path d="m187.92 65.563h-16c-2.761 0-5-2.239-5-5v-4.98c0-2.761 2.239-5 5-5h16c2.761 0 5 2.239 5 5v4.98c0 2.761-2.239 5-5 5z" fill="#b7c5ff"/><g><g><path d="m328.253 64.822c-2.761 0-5-2.239-5-5v-3.5c0-2.761 2.239-5 5-5s5 2.239 5 5v3.5c0 2.762-2.239 5-5 5z" fill="#b7c5ff"/></g><g><path d="m343.503 64.822c-2.761 0-5-2.239-5-5v-3.5c0-2.761 2.239-5 5-5s5 2.239 5 5v3.5c0 2.762-2.239 5-5 5z" fill="#b7c5ff"/></g></g></g><path d="m92.741 257.84c-2.761 0-5-2.238-5-5 0-3.309-2.691-6-6-6-2.761 0-5-2.238-5-5s2.239-5 5-5c3.309 0 6-2.691 6-6 0-2.762 2.239-5 5-5s5 2.238 5 5c0 3.309 2.691 6 6 6 2.761 0 5 2.238 5 5s-2.239 5-5 5c-3.309 0-6 2.691-6 6 0 2.762-2.239 5-5 5z" fill="#6583fe"/><path d="m410.039 224.691c-2.762 0-5-2.238-5-5 0-3.309-2.691-6-6-6-2.762 0-5-2.238-5-5s2.238-5 5-5c3.309 0 6-2.692 6-6.001 0-2.762 2.238-5 5-5s5 2.238 5 5c0 3.309 2.691 6.001 6 6.001 2.762 0 5 2.238 5 5s-2.238 5-5 5c-3.309 0-6 2.691-6 6 0 2.762-2.238 5-5 5z" fill="#6583fe"/><path d="m414.628 162.749c-1.279 0-2.56-.488-3.535-1.465l-11-11c-1.953-1.952-1.953-5.118 0-7.07l11-11c1.951-1.953 5.119-1.953 7.07 0l11 11c1.953 1.952 1.953 5.118 0 7.07l-11 11c-.975.977-2.256 1.465-3.535 1.465zm-3.929-16 3.929 3.929 3.929-3.929-3.929-3.929z" fill="#01eca5"/><path d="m426.039 413.113c-1.279 0-2.56-.488-3.535-1.465l-11-11c-1.953-1.952-1.953-5.118 0-7.07l11-11c1.951-1.953 5.119-1.953 7.07 0l11 11c1.953 1.952 1.953 5.118 0 7.07l-11 11c-.975.977-2.256 1.465-3.535 1.465zm-3.929-16 3.929 3.929 3.929-3.929-3.929-3.929z" fill="#01eca5"/><path d="m85.961 315.174c-1.28 0-2.559-.488-3.536-1.465l-11-11c-1.953-1.952-1.953-5.118 0-7.07l11-11c1.953-1.953 5.118-1.953 7.071 0l11 11c1.953 1.952 1.953 5.118 0 7.07l-11 11c-.976.977-2.255 1.465-3.535 1.465zm-3.929-16 3.929 3.929 3.929-3.929-3.929-3.929z" fill="#ff7eb8"/></g><g><g><g><path d="m197.31 202.69c-2.761 0-5-2.238-5-5v-91.846c0-2.762 2.239-5 5-5s5 2.238 5 5v91.846c0 2.762-2.239 5-5 5z" fill="#01eca5"/></g><g><path d="m247.653 202.69c-2.761 0-5-2.238-5-5v-91.846c0-2.762 2.239-5 5-5s5 2.238 5 5v91.846c0 2.762-2.238 5-5 5z" fill="#01eca5"/></g><g><path d="m279.997 202.69c-2.762 0-5-2.238-5-5v-52.787c0-2.762 2.238-5 5-5s5 2.238 5 5v52.787c0 2.762-2.238 5-5 5z" fill="#01eca5"/></g><path d="m247.653 156.768h-46.758c-2.761 0-5-2.238-5-5s2.239-5 5-5h46.758c2.761 0 5 2.238 5 5s-2.238 5-5 5z" fill="#01eca5"/></g><path d="m280 126.52c-.33 0-.66-.04-.98-.1-.319-.07-.63-.16-.939-.29-.3-.12-.59-.28-.86-.46s-.53-.391-.76-.62c-.23-.23-.44-.48-.62-.76-.18-.271-.34-.561-.46-.86-.13-.3-.22-.62-.29-.939-.06-.32-.09-.65-.09-.971 0-1.319.53-2.609 1.46-3.54.229-.229.49-.439.76-.62.271-.18.561-.33.86-.46.31-.12.62-.22.939-.279.641-.13 1.311-.13 1.95 0 .32.06.64.159.94.279.3.13.59.28.859.46.271.181.53.391.761.62.93.931 1.47 2.221 1.47 3.54 0 .32-.04.65-.101.971-.069.319-.159.64-.29.939-.119.3-.279.59-.46.86-.18.279-.39.529-.619.76-.23.229-.49.44-.761.62-.27.18-.56.34-.859.46-.301.13-.62.22-.94.29-.321.059-.651.1-.97.1z" fill="#01eca5"/><g><path d="m313.279 179.306c-2.762 0-5-2.238-5-5v-68.461c0-2.762 2.238-5 5-5s5 2.238 5 5v68.461c0 2.761-2.238 5-5 5z" fill="#01eca5"/></g><path d="m313.28 202.689c-1.32 0-2.601-.529-3.53-1.46-.24-.239-.44-.489-.63-.76-.181-.28-.33-.57-.46-.87-.12-.3-.221-.609-.28-.93-.07-.32-.1-.65-.1-.98 0-.319.029-.649.1-.979.06-.311.16-.63.28-.931.13-.3.279-.59.46-.859.18-.28.39-.53.62-.76.229-.24.489-.44.76-.631.27-.18.56-.329.87-.46.3-.119.609-.22.93-.279 1.62-.33 3.35.2 4.51 1.37.24.229.44.479.63.76.181.27.33.56.46.859.12.301.221.62.28.931.07.33.101.66.101.979 0 .33-.03.66-.101.98-.06.32-.16.63-.28.93-.13.3-.279.59-.46.87-.189.271-.399.521-.63.76-.93.931-2.21 1.46-3.53 1.46z" fill="#01eca5"/></g><g><path d="m292.188 239.414h-61.788c-2.761 0-5-2.238-5-5s2.239-5 5-5h61.788c2.761 0 5 2.238 5 5s-2.239 5-5 5z" fill="#b7c5ff"/></g></g></g><path d="m392.029 277.353v-10.731c0-12.384-10.075-22.459-22.46-22.459h-46.019c-15.343 0-27.825 12.482-27.825 27.825 0 7.569 3.041 14.438 7.962 19.459-10.737 3.86-18.437 14.142-18.437 26.191s7.7 22.331 18.437 26.191c-4.92 5.021-7.962 11.89-7.962 19.459 0 9.037 4.333 17.078 11.027 22.164-7.171 4.722-11.917 12.84-11.917 22.049 0 2.771.432 5.441 1.227 7.952h-26.465c-3.913-30.75-14.226-63.515-38.095-85.403-4.761-4.366-9.526-7.809-14.042-10.521h18.665c17.679 0 32.061-14.383 32.061-32.063 0-17.679-14.383-32.062-32.061-32.062h-57.595c-10.885 0-21.093 2.93-29.902 8.02v-199.074c0-11.684 9.505-21.189 21.189-21.189h175.52c11.684 0 21.189 9.506 21.189 21.189v151.152c0 2.762 2.238 5 5 5s5-2.238 5-5v-151.152c0-17.198-13.991-31.189-31.189-31.189h-175.52c-17.198 0-31.189 13.991-31.189 31.189v206.307c-12.304 10.99-20.068 26.962-20.068 44.719v134.464c0 2.762 2.239 5 5 5s5-2.238 5-5v-134.465c0-27.554 22.417-49.97 49.97-49.97h57.596c12.165 0 22.061 9.897 22.061 22.063s-9.897 22.062-22.061 22.062h-46.559-20.661c-2.761 0-5 2.238-5 5s2.239 5 5 5h20.407c1.773.203 18.981 2.547 35.931 18.354 23.835 22.228 36.434 60.941 36.434 111.956 0 2.762 2.238 5 5 5s5-2.238 5-5c0-7.663-.294-15.892-1.026-24.387h31.254c4.822 5.184 11.695 8.436 19.316 8.436h5.637v15.951c0 2.762 2.238 5 5 5s5-2.238 5-5v-15.951h25.725c12.384 0 22.459-10.075 22.459-22.459v-7.857c0-5.652-2.104-10.82-5.563-14.771 7.426-3.668 12.547-11.319 12.547-20.146v-10.732c0-7.044-3.263-13.338-8.353-17.459 5.091-4.121 8.353-10.415 8.353-17.459v-10.732c0-7.044-3.263-13.338-8.353-17.459 5.093-4.124 8.355-10.418 8.355-17.462zm-16.984 134.077c0 6.87-5.589 12.459-12.459 12.459h-41.361c-9.037 0-16.389-7.352-16.389-16.388s7.352-16.388 16.389-16.388h2.326 39.035c6.87 0 12.459 5.589 12.459 12.459zm6.984-99.159v10.732c0 6.87-5.59 12.459-12.46 12.459h-7.405c-2.762 0-5 2.238-5 5s2.238 5 5 5h7.405c6.87 0 12.46 5.589 12.46 12.459v10.732c0 6.87-5.59 12.459-12.46 12.459h-6.983-39.035c-9.829 0-17.825-7.996-17.825-17.825s7.996-17.825 17.825-17.825h4.952c2.762 0 5-2.238 5-5s-2.238-5-5-5h-4.952-10.476c-9.829 0-17.825-7.996-17.825-17.825s7.996-17.825 17.825-17.825h10.476 46.019c6.869.001 12.459 5.589 12.459 12.459zm-58.478-22.458c-9.829 0-17.825-7.996-17.825-17.825s7.996-17.825 17.825-17.825h46.019c6.87 0 12.46 5.589 12.46 12.459v10.731c0 6.87-5.59 12.46-12.46 12.46z" fill="#2626bc"/></g></svg>