<?xml version="1.0" encoding="iso-8859-1"?>
<!-- Generator: Adobe Illustrator 19.0.0, SVG Export Plug-In . SVG Version: 6.00 Build 0)  -->
<svg version="1.1" id="Capa_1" xmlns="http://www.w3.org/2000/svg" xmlns:xlink="http://www.w3.org/1999/xlink" x="0px" y="0px"
	 viewBox="0 0 512.004 512.004" style="enable-background:new 0 0 512.004 512.004;" xml:space="preserve">
<path style="fill:#0071BC;" d="M388.24,44.239h44.118v88.236H388.24V44.239z"/>
<path style="fill:#CCCCCC;" d="M150.002,432.479V150.123l141.178-97.06l141.178,97.06v282.356H150.002z"/>
<path style="fill:#29ABE2;" d="M114.707,344.242v123.531H44.118V344.242H114.707z"/>
<path style="fill:#CCCCCC;" d="M44.118,353.066V458.95H0V353.066H44.118z"/>
<path style="fill:#F2C09A;" d="M114.707,451.194l78.027,32.4c33.847,13.783,71.666,14.206,105.813,1.165l136.307-51.971
	c12.256-4.782,18.318-18.591,13.544-30.847c-0.026-0.062-0.044-0.115-0.071-0.176c-4.588-11.965-18.009-17.947-29.974-13.359
	c-0.221,0.088-0.441,0.176-0.662,0.265l-73.774,31.324c-4.077,1.65-8.365,2.709-12.741,3.132
	c11.894-2.656,19.377-14.444,16.73-26.33c-2.241-10.05-11.135-17.206-21.433-17.259h-68.445c-8.294,0-16.474-1.932-23.894-5.638
	c-27.397-13.703-57.609-20.833-88.236-20.833h-31.192V451.194z"/>
<g>
	<path style="fill:#E9937C;" d="M234.17,373.846c7.421,3.706,15.591,5.638,23.886,5.638h68.418c12.185,0,22.059,9.874,22.059,22.059
		c-0.018,3.018-0.662,6-1.888,8.762c-3.521-8.003-11.435-13.165-20.171-13.174h-68.418c-8.294,0-16.465-1.932-23.886-5.638
		c-27.397-13.703-57.609-20.833-88.236-20.833h-31.227v-17.647h31.218C176.561,353.013,206.773,360.143,234.17,373.846z"/>
	<path style="fill:#E9937C;" d="M448.355,401.702c2.215,5.656,2.197,11.947-0.053,17.585c-4.65-11.938-18.097-17.85-30.036-13.2
		c-0.185,0.071-0.371,0.15-0.547,0.221l-73.766,31.324c-5.691,2.418-11.806,3.671-17.991,3.671H220.591v-17.7h105.372
		c6.185,0,12.3-1.244,17.991-3.662l73.766-31.324c11.815-4.959,25.412,0.6,30.362,12.415
		C448.179,401.252,448.267,401.473,448.355,401.702z"/>
</g>
<path style="fill:#29ABE2;" d="M79.413,168.767c0,10.138,8.215,18.353,18.353,18.353c3.627,0,7.174-1.076,10.182-3.079
	L291.18,61.886l183.231,122.154c8.435,5.621,19.827,3.344,25.456-5.091c2.003-3.018,3.079-6.556,3.079-10.182
	c0-6.132-3.071-11.868-8.171-15.274L291.18,17.768L87.583,153.493C82.483,156.899,79.413,162.626,79.413,168.767z"/>
<circle style="fill:#FED856;" cx="291.18" cy="238.324" r="79.413"/>
<path d="M499.665,146.161l-60.248-40.156h1.765V44.239c0-4.871-3.953-8.824-8.824-8.824H388.24c-4.871,0-8.824,3.953-8.824,8.824
	v21.75L296.077,10.4c-2.965-1.976-6.829-1.976-9.794,0L82.695,146.161c-12.574,8.197-16.121,25.033-7.924,37.606
	s25.033,16.121,37.606,7.924c0.159-0.106,0.318-0.203,0.468-0.309l28.333-18.891v171.752h-17.647c0-4.871-3.953-8.824-8.824-8.824
	H44.118c-4.871,0-8.824,3.953-8.824,8.824H0v17.647h35.295v88.236H0v17.647h35.295c0,4.871,3.953,8.824,8.824,8.824h70.589
	c4.871,0,8.824-3.953,8.824-8.824v-3.362l65.877,27.353c35.912,14.656,76.06,15.097,112.29,1.235l136.307-51.962
	c8.074-3.071,14.568-9.265,18.018-17.18c3.574-8.029,3.768-17.162,0.521-25.333c-2.885-7.306-8.356-13.288-15.362-16.827V172.491
	l28.333,18.891c12.397,8.453,29.312,5.259,37.765-7.147c8.453-12.397,5.259-29.312-7.147-37.765
	C499.982,146.364,499.823,146.258,499.665,146.161z M397.063,53.063h26.471v42.353l-26.471-17.647V53.063z M105.884,458.95H52.942
	V353.066h52.942V458.95z M439.884,416.729c-1.562,3.6-4.509,6.415-8.171,7.818l-136.307,51.971
	c-32.03,12.265-67.527,11.885-99.283-1.076l-72.592-30.15V361.89h22.368c29.259,0.035,58.112,6.847,84.292,19.906
	c8.647,4.306,18.177,6.556,27.839,6.565h68.445c7.306,0.044,13.2,6,13.156,13.315c-0.035,6.124-4.271,11.427-10.235,12.812
	c-1.156,0.106-2.294,0.344-3.468,0.344H220.591v17.647h105.336h0.547c0.176,0,0.344-0.053,0.529-0.053
	c7.006-0.115,13.915-1.579,20.365-4.306l73.774-31.324c3.512-1.5,7.491-1.5,11.003,0c3.653,1.553,6.521,4.518,7.941,8.224
	C441.587,408.787,441.517,413.005,439.884,416.729L439.884,416.729z M423.534,378.319c-3.194,0.273-6.327,1.024-9.291,2.224
	l-57.212,24.3c0.168-1.077,0.274-2.162,0.326-3.247c0-17.056-13.827-30.883-30.883-30.883h-68.445
	c-6.927-0.009-13.747-1.624-19.95-4.703c-24.733-12.327-51.68-19.571-79.254-21.327V160.711L291.18,72.475l132.354,88.236
	L423.534,378.319z M489.094,177.141c-3.097,1.685-6.874,1.5-9.794-0.468L296.077,54.545c-2.965-1.976-6.829-1.976-9.794,0
	L103.06,176.699c-4.385,2.921-10.306,1.729-13.227-2.656c-1.041-1.571-1.597-3.406-1.597-5.285
	c-0.009-3.194,1.588-6.177,4.244-7.941L291.18,28.357l198.699,132.487c2.656,1.765,4.253,4.747,4.244,7.941
	c0.026,3.512-1.915,6.75-5.029,8.382L489.094,177.141z"/>
<path d="M70.589,423.655h17.647v17.647H70.589V423.655z"/>
<path d="M282.356,185.417v10.103c-13.235,4.121-20.621,18.186-16.509,31.412c2.038,6.538,6.653,11.965,12.785,15.018l17.197,8.603
	c3.724,1.862,5.232,6.388,3.371,10.112c-1.279,2.55-3.882,4.165-6.732,4.165h-2.577c-4.156-0.009-7.527-3.379-7.535-7.535v-1.288
	h-17.647v1.288c0.044,10.968,7.182,20.638,17.647,23.903v10.103h17.647v-10.103c13.235-4.121,20.621-18.186,16.509-31.412
	c-2.038-6.538-6.653-11.965-12.785-15.018l-17.197-8.603c-3.724-1.862-5.232-6.388-3.371-10.112c1.279-2.55,3.882-4.165,6.732-4.165
	h2.577c4.156,0.009,7.527,3.379,7.535,7.535v1.288h17.647v-1.288c-0.044-10.968-7.182-20.638-17.647-23.903v-10.103H282.356z"/>
<path d="M202.943,238.359c0,48.733,39.503,88.236,88.236,88.236s88.236-39.503,88.236-88.236s-39.503-88.236-88.236-88.236
	C242.473,150.176,202.996,189.644,202.943,238.359z M361.769,238.359c0,38.983-31.606,70.589-70.589,70.589
	s-70.589-31.606-70.589-70.589s31.606-70.589,70.589-70.589C330.145,167.814,361.725,199.394,361.769,238.359z"/>
<path d="M326.474,229.535h17.647v17.647h-17.647V229.535z"/>
<path d="M238.238,229.535h17.647v17.647h-17.647V229.535z"/>
<g>
</g>
<g>
</g>
<g>
</g>
<g>
</g>
<g>
</g>
<g>
</g>
<g>
</g>
<g>
</g>
<g>
</g>
<g>
</g>
<g>
</g>
<g>
</g>
<g>
</g>
<g>
</g>
<g>
</g>
</svg>
