<svg id="Capa_1" enable-background="new 0 0 512 512" height="512" viewBox="0 0 512 512" width="512" xmlns="http://www.w3.org/2000/svg"><g><g><path d="m321.912 113.563c0-23.186 14.178-43.054 34.334-51.426v-17.141c0-8.024-6.505-14.529-14.529-14.529h-193.497v104.425c0 2.761-2.239 5-5 5h-35.089v229.201h35.615c2.761 0 5 2.239 5 5v76.442c0 2.761-2.239 5-5 5h-35.615v19.679c0 8.024 6.505 14.529 14.529 14.529h194.889v-101.304c0-2.761 2.238-5 5-5h33.698v-218.451c-20.157-8.372-34.335-28.239-34.335-51.425z" fill="#acacac"/><g><path d="m138.131 475.215v-19.679h-30v19.679c0 8.024 6.505 14.529 14.529 14.529h30c-8.025 0-14.529-6.505-14.529-14.529z" fill="#9c9c9c"/></g><path d="m321.912 113.563c0-2.401.169-4.76.464-7.081h-174.156v28.411c0 2.761-2.239 5-5 5h-35.089v229.201h35.615c2.761 0 5 2.239 5 5v34.678h168.803v-20.333c0-2.761 2.238-5 5-5h33.698v-218.451c-20.157-8.372-34.335-28.239-34.335-51.425z" fill="#6cf5c2"/><path d="m108.131 139.893h30v202.222h-30z" fill="#00f2a6"/><path d="m143.746 369.094c2.761 0 5 2.239 5 5v34.678h168.803v-20.333c0-2.761 2.238-5 5-5h33.698v-41.324h-248.116v26.979z" fill="#fff"/><path d="m108.131 342.115h30v26.979h-30z" fill="#eaf6ff"/></g><g><g><path d="m143.746 455.536h-105.026c-2.761 0-5-2.239-5-5v-76.442c0-2.761 2.239-5 5-5h105.027c2.761 0 5 2.239 5 5v76.442c-.001 2.762-2.239 5-5.001 5z" fill="#fed402"/></g><g><path d="m53.72 450.536v-76.442c0-2.761 2.239-5 5-5h-20c-2.761 0-5 2.239-5 5v76.442c0 2.761 2.239 5 5 5h20c-2.762 0-5-2.239-5-5z" fill="#fac600"/></g><g><path d="m94.486 417.189 52.671-46.687c-.894-.867-2.088-1.408-3.411-1.408h-105.026c-1.323 0-2.517.541-3.411 1.408l52.671 46.686c1.872 1.66 4.634 1.66 6.506.001z" fill="#fed402"/></g></g><g><g><path d="m433.248 113.563c0 30.745-24.923 55.667-55.668 55.667-30.744 0-55.668-24.923-55.668-55.667s24.923-55.668 55.668-55.668c30.745-.001 55.668 24.923 55.668 55.668z" fill="#d8ecfe"/></g><g><path d="m398.238 159.23c-30.745 0-55.668-24.923-55.668-55.667 0-17.924 8.48-33.859 21.637-44.041-24.284 5.99-42.296 27.907-42.296 54.041 0 30.745 24.923 55.667 55.668 55.667 12.821 0 24.62-4.345 34.031-11.628-4.283 1.057-8.76 1.628-13.372 1.628z" fill="#c4e2ff"/></g></g><g><g><path d="m255.279 166.331h-46.181c-26.113 0-47.281 21.897-47.281 48.908 0 19.75 11.321 36.756 27.615 44.475 3.928 1.861 6.471 5.887 6.471 10.356v17.443c0 2.903 3.281 4.48 5.426 2.608l26.688-23.293c1.984-1.731 4.495-2.681 7.091-2.681h20.171c26.113 0 47.281-21.897 47.281-48.908 0-27.012-21.168-48.908-47.281-48.908z" fill="#fff"/></g><g><g><path d="m215.903 260.07c0-4.469-2.543-8.496-6.471-10.356-16.293-7.719-27.615-24.725-27.615-44.475 0-15.23 6.731-28.833 17.283-37.802-21.309 4.747-37.283 24.341-37.283 47.802 0 19.75 11.321 36.756 27.615 44.475 3.928 1.861 6.471 5.887 6.471 10.356v17.443c0 2.903 3.281 4.48 5.426 2.608l14.574-12.72z" fill="#eaf6ff"/></g></g></g><g><g><path d="m439.766 198.671c1.933 0 3.898.106 5.84.315 23.414 2.524 42.632 21.18 45.697 44.362 1.517 11.473-.699 22.764-6.409 32.654l-39.934 68.822c-1.561 2.687-4.151 2.977-5.192 2.977s-3.632-.29-5.194-2.98l-39.939-68.831c-4.49-7.777-6.866-16.651-6.866-25.648 0-13.802 5.409-26.779 15.23-36.538 9.82-9.758 22.878-15.133 36.767-15.133-.001 0-.001 0 0 0z" fill="#fe646f"/></g><g><path d="m415.453 265.99c-4.49-7.777-6.866-16.651-6.866-25.648 0-13.802 5.409-26.779 15.229-36.538 1.374-1.365 2.818-2.635 4.312-3.826-9.443 2.135-18.116 6.855-25.132 13.826-9.821 9.76-15.229 22.736-15.229 36.538 0 8.998 2.377 17.871 6.866 25.648l39.94 68.831c1.563 2.69 4.153 2.98 5.194 2.98s3.632-.29 5.192-2.977l8.118-13.991z" fill="#fd4755"/></g><circle cx="439.767" cy="248.726" fill="#fff" r="17.989"/></g><g><g><path d="m429.583 504.5h-107.034c-2.761 0-5-2.239-5-5v-111.061c0-2.761 2.239-5 5-5h107.034c2.761 0 5 2.239 5 5v111.061c0 2.761-2.239 5-5 5z" fill="#0593fc"/></g><g><path d="m337.549 499.5v-111.061c0-2.761 2.238-5 5-5h-20c-2.762 0-5 2.239-5 5v111.061c0 2.761 2.238 5 5 5h20c-2.762 0-5-2.239-5-5z" fill="#0182fc"/></g><g><path d="m401.07 441.394-40.812-24.374c-2-1.194-4.538.246-4.538 2.576v48.748c0 2.329 2.539 3.77 4.538 2.576l40.812-24.374c1.949-1.165 1.949-3.988 0-5.152z" fill="#fff"/></g></g><g><path d="m143.22 139.893h-117.989c-2.761 0-5-2.239-5-5v-122.393c0-2.761 2.239-5 5-5h117.989c2.761 0 5 2.239 5 5v122.393c0 2.761-2.239 5-5 5z" fill="#fedba6"/></g><g><path d="m40.231 134.893v-122.393c0-2.761 2.239-5 5-5h-20c-2.761 0-5 2.239-5 5v122.393c0 2.761 2.239 5 5 5h20c-2.761 0-5-2.239-5-5z" fill="#fece85"/></g><g><g><path d="m84.226 108.185c-.836 0-1.672-.327-2.313-.982-5.256-5.367-19.196-19.728-30.681-31.58-8.047-8.324-8.046-21.866 0-30.189 3.882-4.015 9.064-6.226 14.592-6.226s10.71 2.211 14.592 6.226l3.809 3.94 3.809-3.94c3.882-4.015 9.064-6.226 14.592-6.226s10.71 2.211 14.592 6.226c8.046 8.323 8.046 21.866 0 30.189-11.485 11.852-25.424 26.211-30.681 31.58-.64.655-1.475.982-2.311.982z" fill="#fe646f"/></g></g><g><g><path d="m71.232 65.623c-6.879-7.115-7.856-18.033-2.976-26.255-.802-.096-1.611-.16-2.432-.16-5.528 0-10.71 2.211-14.592 6.226-8.046 8.323-8.047 21.865 0 30.189 11.485 11.852 25.426 26.213 30.681 31.58.641.655 1.477.982 2.313.982s1.672-.327 2.313-.982c2.556-2.61 7.171-7.352 12.551-12.891-6.449-6.614-18.041-18.559-27.858-28.689z" fill="#fd4755"/></g></g><g><path d="m214.102 452.627h36.173c4.143 0 7.5-3.357 7.5-7.5s-3.357-7.5-7.5-7.5h-36.173c-4.143 0-7.5 3.357-7.5 7.5s3.358 7.5 7.5 7.5z"/><path d="m203.981 75.446h56.414c4.143 0 7.5-3.357 7.5-7.5s-3.357-7.5-7.5-7.5h-56.414c-4.143 0-7.5 3.357-7.5 7.5s3.358 7.5 7.5 7.5z"/><circle cx="180.385" cy="67.174" r="7.5"/><circle cx="283.992" cy="67.174" r="7.5"/><circle cx="232.189" cy="373.999" r="7.5"/><circle cx="183.72" cy="373.999" r="7.5"/><circle cx="277.72" cy="373.999" r="7.5"/><path d="m377.58 121.063h22.732c4.143 0 7.5-3.357 7.5-7.5s-3.357-7.5-7.5-7.5h-15.232v-23.352c0-4.143-3.357-7.5-7.5-7.5s-7.5 3.357-7.5 7.5v30.852c0 4.142 3.357 7.5 7.5 7.5z"/><path d="m255.279 158.831h-46.182c-30.206 0-54.78 25.304-54.78 56.407 0 21.953 12.522 42.071 31.903 51.252 1.326.629 2.183 2.033 2.183 3.579v17.443c0 4.288 2.501 8.194 6.371 9.953 1.442.656 2.958.978 4.459.977 2.527 0 5.012-.911 7.027-2.671l26.689-23.293c.614-.537 1.381-.832 2.158-.832h20.171c30.206 0 54.781-25.305 54.781-56.408s-24.574-56.407-54.78-56.407zm0 97.815h-20.171c-4.405 0-8.676 1.609-12.022 4.531l-19.683 17.179v-8.287c0-7.312-4.224-14.037-10.761-17.135-14.17-6.712-23.325-21.509-23.325-37.696 0-22.832 17.846-41.407 39.78-41.407h46.182c21.936 0 39.781 18.575 39.781 41.407.001 22.833-17.845 41.408-39.781 41.408z"/><path d="m252.53 192.952h-40.684c-4.143 0-7.5 3.357-7.5 7.5s3.357 7.5 7.5 7.5h40.684c4.143 0 7.5-3.357 7.5-7.5s-3.357-7.5-7.5-7.5z"/><path d="m240.985 222.013h-29.139c-4.143 0-7.5 3.357-7.5 7.5s3.357 7.5 7.5 7.5h29.139c4.143 0 7.5-3.357 7.5-7.5s-3.357-7.5-7.5-7.5z"/><path d="m498.738 242.366c-3.512-26.566-25.52-47.946-52.33-50.837-2.21-.237-4.444-.358-6.643-.358h-.002c-15.884 0-30.818 6.148-42.053 17.313-11.249 11.179-17.444 26.045-17.444 41.859 0 10.312 2.722 20.477 7.879 29.411l39.942 68.836c2.442 4.203 6.809 6.712 11.679 6.712 4.871 0 9.237-2.508 11.681-6.714l39.941-68.836c6.544-11.333 9.086-24.261 7.35-37.386zm-20.332 29.872-38.64 66.592-38.639-66.589c-3.834-6.644-5.861-14.216-5.861-21.898 0-11.79 4.623-22.878 13.017-31.219 8.406-8.354 19.586-12.953 31.482-12.953 1.664 0 3.358.092 5.036.272 20.02 2.158 36.449 18.093 39.065 37.888 1.3 9.821-.592 19.476-5.46 27.907z"/><path d="m439.767 223.236c-14.055 0-25.489 11.435-25.489 25.489 0 14.056 11.435 25.49 25.489 25.49 14.056 0 25.49-11.435 25.49-25.49 0-14.054-11.435-25.489-25.49-25.489zm0 35.98c-5.784 0-10.489-4.706-10.489-10.49s4.705-10.489 10.489-10.489 10.49 4.705 10.49 10.489-4.706 10.49-10.49 10.49z"/><path d="m364.103 410.58c-3.238-1.933-7.287-1.979-10.566-.116-3.28 1.861-5.317 5.36-5.317 9.132v48.748c0 3.771 2.037 7.271 5.316 9.132 1.605.91 3.395 1.365 5.183 1.365 1.865 0 3.731-.495 5.385-1.482l40.813-24.374c3.203-1.914 5.116-5.283 5.116-9.015s-1.913-7.103-5.116-9.016zm-.883 49.834v-32.89l27.536 16.445z"/><path d="m91.896 112.45c5.513-5.629 19.988-20.545 30.716-31.614 10.823-11.197 10.823-29.417-.001-40.615-5.308-5.489-12.404-8.513-19.984-8.513-6.849 0-13.304 2.469-18.401 6.995-5.098-4.526-11.553-6.995-18.401-6.995-7.578 0-14.676 3.022-19.985 8.514-10.824 11.197-10.823 29.417.007 40.621 10.719 11.06 25.192 25.975 30.712 31.611 2.043 2.083 4.767 3.23 7.668 3.23 2.904.001 5.627-1.148 7.669-3.234zm-35.272-42.04c-5.268-5.448-5.268-14.314-.002-19.763 2.458-2.54 5.726-3.939 9.202-3.939s6.744 1.399 9.2 3.938l3.809 3.94c1.413 1.462 3.359 2.288 5.393 2.288s3.979-.825 5.392-2.287l3.81-3.94c2.456-2.54 5.724-3.938 9.2-3.938 3.478 0 6.745 1.398 9.2 3.938 5.268 5.45 5.268 14.316.007 19.758-9.097 9.387-20.896 21.547-27.608 28.434-6.715-6.891-18.513-19.049-27.603-28.429z"/><path d="m429.583 375.938h-65.836v-200.752c4.455 1 9.081 1.544 13.833 1.544 34.831 0 63.168-28.337 63.168-63.168s-28.337-63.168-63.168-63.168c-4.752 0-9.378.545-13.833 1.544v-6.943c0-12.146-9.882-22.028-22.029-22.028h-185.998v-10.467c0-6.893-5.607-12.5-12.5-12.5h-117.989c-6.893 0-12.5 5.607-12.5 12.5v122.393c0 6.893 5.607 12.5 12.5 12.5h26.077c4.143 0 7.5-3.357 7.5-7.5s-3.357-7.5-7.5-7.5h-23.577v-117.393h112.989v117.393h-53.744c-4.143 0-7.5 3.357-7.5 7.5s3.357 7.5 7.5 7.5h13.655v214.201h-61.911c-6.893 0-12.5 5.607-12.5 12.5v76.442c0 6.893 5.607 12.5 12.5 12.5h61.911v12.18c0 12.146 9.882 22.028 22.028 22.028h187.39v2.256c0 6.893 5.607 12.5 12.5 12.5h107.034c6.893 0 12.5-5.607 12.5-12.5v-30.5c0-4.143-3.357-7.5-7.5-7.5s-7.5 3.357-7.5 7.5v28h-102.034v-106.062h102.034v42.395c0 4.143 3.357 7.5 7.5 7.5s7.5-3.357 7.5-7.5v-44.895c0-6.892-5.607-12.5-12.5-12.5zm-3.835-262.375c0 26.56-21.608 48.168-48.168 48.168s-48.168-21.608-48.168-48.168 21.608-48.168 48.168-48.168 48.168 21.608 48.168 48.168zm-84.03-75.595c3.876 0 7.029 3.153 7.029 7.028v12.392c-16.185 8.341-28.316 23.464-32.618 41.595h-160.409v-61.015zm-212.74 338.626-37.746 33.456-37.745-33.456zm-87.758 71.442v-62.273l41.783 37.037c2.347 2.081 5.288 3.121 8.23 3.121 2.941 0 5.883-1.04 8.228-3.12l41.785-37.038v62.273zm268.829 34.208h-187.39c-3.875 0-7.028-3.153-7.028-7.028v-12.18h28.115c6.893 0 12.5-5.607 12.5-12.5v-34.264h153.803zm13.927-132.63h24.771v26.324h-26.198c-6.893 0-12.5 5.607-12.5 12.5v12.834h-153.803v-27.179c0-6.893-5.607-12.5-12.5-12.5h-28.115v-11.979h173.012c4.143 0 7.5-3.357 7.5-7.5s-3.357-7.5-7.5-7.5h-173.012v-187.221h27.589c6.893 0 12.5-5.607 12.5-12.5v-20.91h158.703c.16 24.269 14.075 45.319 34.324 55.755v164.877h-24.771c-4.143 0-7.5 3.357-7.5 7.5s3.357 7.499 7.5 7.499z"/></g></g></svg>