<?xml version="1.0" encoding="iso-8859-1"?>
<!-- Generator: Adobe Illustrator 19.0.0, SVG Export Plug-In . SVG Version: 6.00 Build 0)  -->
<svg version="1.1" id="Capa_1" xmlns="http://www.w3.org/2000/svg" xmlns:xlink="http://www.w3.org/1999/xlink" x="0px" y="0px"
	 viewBox="0 0 512 512" style="enable-background:new 0 0 512 512;" xml:space="preserve">
<g>
	<g>
		<path d="M386,112.5H126c-4.143,0-7.5,3.358-7.5,7.5v44c0,4.142,3.357,7.5,7.5,7.5h260c4.143,0,7.5-3.358,7.5-7.5v-44
			C393.5,115.858,390.143,112.5,386,112.5z M378.5,156.5h-245v-29h245V156.5z"/>
	</g>
</g>
<g>
	<g>
		<path d="M256,185.463H126c-4.143,0-7.5,3.358-7.5,7.5v86.875c0,4.142,3.357,7.5,7.5,7.5h130c4.143,0,7.5-3.358,7.5-7.5v-86.875
			C263.5,188.821,260.143,185.463,256,185.463z M248.5,272.338h-115v-71.875h115V272.338z"/>
	</g>
</g>
<g>
	<g>
		<path d="M256,298.625H126c-4.143,0-7.5,3.358-7.5,7.5V393c0,4.142,3.357,7.5,7.5,7.5h130c4.143,0,7.5-3.358,7.5-7.5v-86.875
			C263.5,301.983,260.143,298.625,256,298.625z M248.5,385.5h-115v-71.875h115V385.5z"/>
	</g>
</g>
<g>
	<g>
		<path d="M386,185.5h-96c-4.143,0-7.5,3.358-7.5,7.5v200c0,4.142,3.357,7.5,7.5,7.5h96c4.143,0,7.5-3.358,7.5-7.5V193
			C393.5,188.858,390.143,185.5,386,185.5z M378.5,385.5h-81v-185h81V385.5z"/>
	</g>
</g>
<g>
	<g>
		<path d="M416,408.667c-4.143,0-7.5,3.358-7.5,7.5v20.5h-305V127.75c0-4.142-3.357-7.5-7.5-7.5s-7.5,3.358-7.5,7.5v356.417v0.333
			c0,15.164,12.337,27.5,27.5,27.5h280c15.163,0,27.5-12.336,27.5-27.5v-0.333v-68C423.5,412.024,420.143,408.667,416,408.667z
			 M408.5,484.167c0,6.893-5.607,12.5-12.5,12.5H116c-6.893,0-12.5-5.607-12.5-12.5v-32.5h305V484.167z"/>
	</g>
</g>
<g>
	<g>
		<path d="M279,30h-46c-4.143,0-7.5,3.358-7.5,7.5c0,4.142,3.357,7.5,7.5,7.5h46c4.143,0,7.5-3.358,7.5-7.5
			C286.5,33.358,283.143,30,279,30z"/>
	</g>
</g>
<g>
	<g>
		<circle cx="206.55" cy="37.5" r="7.5"/>
	</g>
</g>
<g>
	<g>
		<path d="M338,467H174c-4.143,0-7.5,3.358-7.5,7.5c0,4.142,3.357,7.5,7.5,7.5h164c4.143,0,7.5-3.358,7.5-7.5
			C345.5,470.358,342.143,467,338,467z"/>
	</g>
</g>
<g>
	<g>
		<path d="M396,0H116c-15.163,0-27.5,12.336-27.5,27.5v68.25c0,4.142,3.357,7.5,7.5,7.5s7.5-3.358,7.5-7.5V75h249
			c4.143,0,7.5-3.358,7.5-7.5c0-4.142-3.357-7.5-7.5-7.5h-249V27.5c0-6.893,5.607-12.5,12.5-12.5h280c6.893,0,12.5,5.607,12.5,12.5
			V60h-24.25c-4.143,0-7.5,3.358-7.5,7.5c0,4.142,3.357,7.5,7.5,7.5h24.25v308.667c0,4.142,3.357,7.5,7.5,7.5s7.5-3.358,7.5-7.5
			V27.5C423.5,12.336,411.163,0,396,0z"/>
	</g>
</g>
<g>
</g>
<g>
</g>
<g>
</g>
<g>
</g>
<g>
</g>
<g>
</g>
<g>
</g>
<g>
</g>
<g>
</g>
<g>
</g>
<g>
</g>
<g>
</g>
<g>
</g>
<g>
</g>
<g>
</g>
</svg>
