<svg id="Capa_1" enable-background="new 0 0 512 512" height="512" viewBox="0 0 512 512" width="512" xmlns="http://www.w3.org/2000/svg" xmlns:xlink="http://www.w3.org/1999/xlink"><linearGradient id="SVGID_1_" gradientUnits="userSpaceOnUse" x1="420.854" x2="181.854" y1="81.636" y2="452.636"><stop offset=".0112" stop-color="#dcfdee"/><stop offset=".3814" stop-color="#e8f1ee"/><stop offset="1" stop-color="#ffdbed"/></linearGradient><path d="m364.823 55.215c-69.098-27.035-164.784-16.764-217.662 31.51-37.336 34.085-8.439 43.8 17.016 106.17 18.423 45.14-164.177 38.927-164.177 120.495 0 94.299 132.251 76.424 181.329 87.218 75.036 16.504 140.496 78.242 220.668 70.103 69.795-7.086 96.403-61.855 106.109-124.642 18.082-116.976-26.329-245.094-143.283-290.854z" fill="url(#SVGID_1_)"/><path d="m413.91 129.901h-357.48c-11.046 0-20 8.954-20 20v193.449c0 9.316 6.379 17.121 15 19.344v10.79c0 9.316 6.379 17.121 15 19.344v10.379c0 .64.03 1.27.09 1.9.95 10.16 9.5 18.1 19.91 18.1h297.48c10.41 0 18.96-7.94 19.91-18.1.06-.63.09-1.26.09-1.9v-10.379c8.621-2.223 15-10.029 15-19.344v-10.79c8.621-2.223 15-10.029 15-19.344v-193.449c0-11.046-8.955-20-20-20z" fill="#2626bc" opacity=".11"/><path d="m424.74 309.203v73.45c0 .64-.03 1.27-.09 1.9-.95 10.16-9.5 18.1-19.91 18.1h-297.48c-10.41 0-18.96-7.94-19.91-18.1-.06-.63-.09-1.26-.09-1.9v-73.45c0-11.04 8.95-20 20-20h297.48c11.05 0 20 8.96 20 20z" fill="#ff7eb8"/><path d="m424.74 309.203v73.45c0 .64-.03 1.27-.09 1.9-1.6.25-3.24.38-4.91.38h-327.48c-1.67 0-3.31-.13-4.91-.38-.06-.63-.09-1.26-.09-1.9v-73.45c0-11.04 8.95-20 20-20h297.48c11.05 0 20 8.96 20 20z" fill="#ff5ba8"/><path d="m419.74 372.93h-327.48c-11.046 0-20-8.954-20-20v-133.45c0-11.046 8.954-20 20-20h327.48c11.046 0 20 8.954 20 20v133.45c0 11.045-8.954 20-20 20z" fill="#9fb0fe"/><path d="m439.74 219.483v133.45c0 .5-.02.99-.06 1.48-1.61.25-3.26.38-4.94.38h-357.48c-1.68 0-3.33-.13-4.94-.38-.04-.49-.06-.98-.06-1.48v-133.45c0-11.05 8.95-20 20-20h327.48c11.05 0 20 8.95 20 20z" fill="#8399fe"/><path d="m434.74 342.795h-357.48c-11.046 0-20-8.954-20-20v-193.449c0-11.046 8.954-20 20-20h357.48c11.046 0 20 8.954 20 20v193.449c0 11.046-8.954 20-20 20z" fill="#02ffb3"/><path d="m418.67 200.536v51.068c0 2.224-1.479 4.15-3.607 4.799-20.164 6.15-35.631 23.053-39.731 44.032-.454 2.321-2.537 3.966-4.902 3.966h-228.86c-2.365 0-4.448-1.645-4.902-3.966-4.1-20.979-19.567-37.882-39.731-44.032-2.128-.649-3.607-2.574-3.607-4.799v-51.068c0-2.224 1.479-4.15 3.607-4.799 20.164-6.15 35.631-23.053 39.731-44.032.454-2.321 2.537-3.966 4.902-3.966h228.86c2.365 0 4.448 1.645 4.902 3.966 4.1 20.979 19.567 37.882 39.731 44.032 2.128.65 3.607 2.575 3.607 4.799z" fill="#00d890"/><ellipse cx="256" cy="226.07" fill="#02ffb3" rx="50.5" ry="64.188"/><path d="m181.388 285.987h-21.81c-2.762 0-5-2.239-5-5s2.238-5 5-5h21.81c2.762 0 5 2.239 5 5s-2.238 5-5 5z" fill="#97ffd2"/><path d="m352.421 176.154h-21.81c-2.762 0-5-2.239-5-5s2.238-5 5-5h21.81c2.762 0 5 2.239 5 5s-2.238 5-5 5z" fill="#97ffd2"/><g fill="#dcfdee"><circle cx="148.579" cy="226.07" r="5.59"/><circle cx="165.489" cy="226.07" r="5.59"/><circle cx="182.399" cy="226.07" r="5.59"/><circle cx="329.601" cy="226.07" r="5.59"/><circle cx="346.511" cy="226.07" r="5.59"/><circle cx="363.421" cy="226.07" r="5.59"/></g><path d="m410.909 174.815c-1.28 0-2.559-.488-3.536-1.464-1.953-1.953-1.953-5.119 0-7.071l17.667-17.667c1.953-1.952 5.118-1.952 7.071 0 1.953 1.953 1.953 5.119 0 7.071l-17.667 17.667c-.976.976-2.256 1.464-3.535 1.464z" fill="#00d890"/><path d="m398.424 160.981c-1.28 0-2.559-.488-3.536-1.464-1.953-1.953-1.953-5.119 0-7.071l17.667-17.667c1.953-1.952 5.118-1.952 7.071 0 1.953 1.953 1.953 5.119 0 7.071l-17.667 17.667c-.976.976-2.255 1.464-3.535 1.464z" fill="#00d890"/><path d="m95.909 318.826c-1.28 0-2.559-.488-3.536-1.464-1.953-1.953-1.953-5.119 0-7.071l17.667-17.667c1.953-1.952 5.118-1.952 7.071 0 1.953 1.953 1.953 5.119 0 7.071l-17.667 17.667c-.976.976-2.256 1.464-3.535 1.464z" fill="#00d890"/><path d="m83.424 304.993c-1.28 0-2.559-.488-3.536-1.464-1.953-1.953-1.953-5.119 0-7.071l17.667-17.667c1.953-1.952 5.118-1.952 7.071 0 1.953 1.953 1.953 5.119 0 7.071l-17.666 17.666c-.977.976-2.256 1.465-3.536 1.465z" fill="#00d890"/><path d="m262.549 221.07h-1.549v-10.28h6.511c2.762 0 5-2.239 5-5s-2.238-5-5-5h-6.511v-2.551c0-2.761-2.238-5-5-5s-5 2.239-5 5v2.551h-1.549c-8.348 0-15.14 6.792-15.14 15.141 0 8.348 6.792 15.14 15.14 15.14h1.549v10.281h-6.511c-2.762 0-5 2.239-5 5s2.238 5 5 5h6.511v2.551c0 2.761 2.238 5 5 5s5-2.239 5-5v-2.551h1.549c8.348 0 15.14-6.792 15.14-15.141-.001-8.349-6.793-15.141-15.14-15.141zm-13.098 0c-2.834 0-5.14-2.306-5.14-5.14s2.306-5.141 5.14-5.141h1.549v10.281zm13.098 20.281h-1.549v-10.281h1.549c2.834 0 5.14 2.306 5.14 5.14s-2.306 5.141-5.14 5.141z" fill="#fff"/><path d="m454.74 274.45c2.762 0 5-2.239 5-5v-140.104c0-13.785-11.215-25-25-25h-357.48c-13.785 0-25 11.215-25 25v193.449c0 10.231 6.18 19.041 15 22.906v7.229c0 10.069 6.003 19.005 15 22.921v6.803c0 13.785 11.215 25 25 25h297.48c13.785 0 25-11.215 25-25v-6.812c8.995-3.916 15-12.842 15-22.912v-7.229c8.82-3.866 15-12.676 15-22.906v-25.245c0-2.761-2.238-5-5-5s-5 2.239-5 5v25.245c0 8.271-6.729 15-15 15h-357.48c-8.271 0-15-6.729-15-15v-193.449c0-8.271 6.729-15 15-15h357.48c8.271 0 15 6.729 15 15v140.104c0 2.761 2.239 5 5 5zm-20 73.345v5.135c0 6.851-4.624 12.824-11.241 14.526-1.227.314-2.491.474-3.759.474h-303.677c-2.762 0-5 2.239-5 5s2.238 5 5 5h303.677v4.724c0 8.271-6.729 15-15 15h-297.48c-8.271 0-15-6.729-15-15v-10.354c0-2.281-1.544-4.273-3.753-4.842-6.622-1.706-11.247-7.679-11.247-14.528v-5.135z" fill="#2626bc"/><path d="m380.239 150.748c-.906-4.64-5.031-8.008-9.809-8.008h-228.861c-4.777 0-8.902 3.368-9.809 8.007-3.735 19.115-17.638 34.521-36.281 40.208-4.276 1.304-7.149 5.154-7.149 9.581v51.068c0 4.427 2.873 8.277 7.148 9.581 18.645 5.687 32.547 21.093 36.282 40.207.905 4.64 5.031 8.008 9.809 8.008h228.861c4.777 0 8.903-3.368 9.809-8.007 3.735-19.115 17.638-34.521 36.281-40.208 4.276-1.304 7.149-5.154 7.149-9.581v-51.068c0-4.427-2.873-8.277-7.148-9.581-18.644-5.686-32.546-21.093-36.282-40.207zm33.365 100.873c-22.188 6.767-38.732 25.104-43.173 47.78l-228.855.075c-4.446-22.75-20.991-41.088-43.245-47.871l.066-51.084c22.188-6.767 38.732-25.104 43.173-47.78l228.855-.075c4.445 22.748 20.987 41.083 43.245 47.897z" fill="#2626bc"/><path d="m59.25 381.199h-3.25v-3.25c0-2.761-2.238-5-5-5s-5 2.239-5 5v3.25h-3.25c-2.762 0-5 2.239-5 5s2.238 5 5 5h3.25v3.25c0 2.761 2.238 5 5 5s5-2.239 5-5v-3.25h3.25c2.762 0 5-2.239 5-5s-2.238-5-5-5z" fill="#8399fe"/><path d="m154.209 78.083h-3.25v-3.25c0-2.761-2.238-5-5-5s-5 2.239-5 5v3.25h-3.25c-2.762 0-5 2.239-5 5s2.238 5 5 5h3.25v3.25c0 2.761 2.238 5 5 5s5-2.239 5-5v-3.25h3.25c2.762 0 5-2.239 5-5s-2.238-5-5-5z" fill="#01eca5"/><path d="m466.104 389.21h-3.25v-3.25c0-2.761-2.238-5-5-5s-5 2.239-5 5v3.25h-3.25c-2.762 0-5 2.239-5 5s2.238 5 5 5h3.25v3.25c0 2.761 2.238 5 5 5s5-2.239 5-5v-3.25h3.25c2.762 0 5-2.239 5-5s-2.238-5-5-5z" fill="#ff7eb8"/><path d="m449.623 73.425c-1.458 0-2.923-.221-4.354-.666-3.725-1.158-6.775-3.697-8.591-7.15-1.814-3.453-2.176-7.406-1.018-11.131 1.157-3.724 3.697-6.774 7.15-8.589 3.452-1.815 7.407-2.176 11.129-1.018 3.725 1.158 6.775 3.697 8.591 7.15 1.814 3.453 2.176 7.405 1.018 11.13-1.157 3.725-3.697 6.775-7.15 8.59-2.125 1.117-4.441 1.684-6.775 1.684zm-.023-19.215c-.736 0-1.466.179-2.136.531-1.089.572-1.889 1.534-2.254 2.708s-.251 2.42.32 3.508c.572 1.088 1.534 1.889 2.708 2.254 1.175.366 2.421.251 3.508-.321 1.089-.572 1.889-1.534 2.254-2.708.365-1.174.251-2.419-.32-3.508-.572-1.088-1.534-1.889-2.708-2.254-.451-.14-.913-.21-1.372-.21z" fill="#ff7eb8"/><path d="m75.415 437.622c-1.433 0-2.889-.213-4.327-.66-7.688-2.391-11.998-10.591-9.608-18.28 2.393-7.688 10.586-11.999 18.281-9.608 7.688 2.391 11.998 10.591 9.607 18.28-1.944 6.25-7.727 10.268-13.953 10.268zm.012-19.208c-1.963 0-3.785 1.266-4.398 3.237-.753 2.423.605 5.008 3.029 5.762s5.007-.605 5.762-3.029c.753-2.424-.605-5.008-3.028-5.762-.454-.141-.914-.208-1.365-.208zm9.167 7.455h.01z" fill="#ff7eb8"/></svg>