<?xml version="1.0" encoding="utf-8"?>
<!-- Generator: Adobe Illustrator 22.0.1, SVG Export Plug-In . SVG Version: 6.00 Build 0)  -->
<svg version="1.1" id="Layer_1" xmlns="http://www.w3.org/2000/svg" xmlns:xlink="http://www.w3.org/1999/xlink" x="0px" y="0px"
	 viewBox="0 0 200 200" style="enable-background:new 0 0 200 200;" xml:space="preserve">
<style type="text/css">
	.st0{display:none;}
	.st1{display:inline;fill:#00B2FF;}
	.st2{fill:#00B2FF;}
</style>
<g class="st0">
	<path class="st1" d="M162.7,184.7c-3.6-4-33.9-36.6-56.1-41.1c0-0.2,0.1-0.3,0.1-0.5v-42.1c0.1,0,0.3,0,0.4,0
		c22.9,0,41.5-18.6,41.5-41.5c0-2.1-0.2-4.3-0.5-6.3l-0.6-3.9l-3.9-0.6c-2-0.3-4.1-0.5-6.3-0.5c-6.8,0-13.2,1.7-18.8,4.6
		c5.2-14.6,2-31.6-9.7-43.3c-1.5-1.5-3.1-2.9-4.8-4.1L100.9,3l-3.2,2.3c-1.7,1.2-3.3,2.6-4.8,4.1C81.3,21,78.1,37.7,83,52.2
		c-5.4-2.6-11.4-4.1-17.8-4.1c-2.2,0-4.2,0.2-6.3,0.5L55,49.3l-0.6,3.9c-0.3,2-0.5,4.1-0.5,6.3c0,22.9,18.6,41.5,41.5,41.5
		c0.1,0,0.3,0,0.4,0V143c0,0.3,0,0.5,0.1,0.8c-21.9,5.4-52.4,36.9-56,40.7c-2.1,2.2-2,5.6,0.2,7.7c1.1,1,2.4,1.5,3.7,1.5
		c1.4,0,2.9-0.6,3.9-1.7c9.9-10.4,38.8-37.5,53.7-38.2c0.2,0,0.3,0,0.5,0c13.2,0,39.2,23.2,52.7,38.1c2,2.2,5.5,2.4,7.7,0.4
		C164.6,190.3,164.8,186.9,162.7,184.7z M137.8,59c0,0.1,0,0.3,0,0.4c0,17-13.9,30.9-31.1,30.6c0-0.1,0-0.3,0-0.4
		c0-16.9,13.8-30.6,30.6-30.6C137.5,59,137.7,59,137.8,59z M100.6,17.1c0.1-0.1,0.2-0.2,0.3-0.3c0.1,0.1,0.2,0.2,0.3,0.3
		c12,12,12,31.7-0.3,43.6c-0.1-0.1-0.2-0.2-0.3-0.3C88.6,48.5,88.6,29.1,100.6,17.1z M64.8,59.4c0-0.1,0-0.3,0-0.4
		c0.1,0,0.3,0,0.4,0c16.9,0,30.6,13.7,30.6,30.6c0,0.1,0,0.3,0,0.4C78.6,90.3,64.8,76.5,64.8,59.4z"/>
</g>
<g class="st0">
	<path class="st1" d="M163.4,158.6c-3.7-4.1-34.2-36.9-56.6-41.5V82.3c0.1,0,0.3,0,0.4,0c23.1,0,41.9-18.8,41.9-41.9
		c0-2.2-0.2-4.3-0.5-6.4l-0.6-3.9l-3.9-0.6c-2-0.3-4.2-0.5-6.4-0.5c-15.6,0-29.2,8.6-36.5,21.3c-7.2-12.7-20.8-21.3-36.5-21.3
		c-2.2,0-4.3,0.2-6.4,0.5l-3.9,0.6L53.9,34c-0.3,2.1-0.5,4.1-0.5,6.4c0,23.1,18.8,41.9,42,41.9c0.1,0,0.3,0,0.4,0v35.1
		C73.7,123,43,154.7,39.3,158.5c-2.1,2.2-2,5.7,0.2,7.8c1.1,1,2.4,1.5,3.8,1.5c1.5,0,2.9-0.6,4-1.7c10-10.5,39.2-37.9,54.3-38.6
		c0.2,0,0.3,0,0.5,0c13.3,0,39.6,23.5,53.2,38.5c2,2.2,5.5,2.4,7.8,0.4C165.2,164.4,165.4,160.9,163.4,158.6z M137.8,39.9
		c0.1,0,0.3,0,0.4,0c0,0.1,0,0.3,0,0.4c0,17.2-14.1,31.2-31.4,31c0-0.1,0-0.3,0-0.4C106.8,53.8,120.7,39.9,137.8,39.9z M95.8,71.3
		c-17.4,0.2-31.4-13.8-31.4-31c0-0.1,0-0.3,0-0.4c0.1,0,0.3,0,0.4,0c17.1,0,31,13.9,31,31C95.8,71,95.8,71.2,95.8,71.3z"/>
</g>
<g>
	<path class="st2" d="M164.4,146.6c-3.8-4.2-35.9-39-58.9-42.5V78.2c0-0.2,0-0.5-0.1-0.7c0-0.6,0.1-1.2,0.1-1.8
		c0-19.2-15.6-34.8-34.8-34.8c-1.8,0-3.6,0.1-5.3,0.4l-4,0.6l-0.6,4c-0.3,1.7-0.4,3.5-0.4,5.3c0,18.9,15.2,34.3,34,34.8V105
		c-22.4,6.5-52.5,37.6-56.1,41.5c-2.1,2.2-2,5.8,0.2,7.9c1.1,1,2.5,1.5,3.8,1.5c1.5,0,3-0.6,4-1.7c10.2-10.7,39.9-38.5,55.2-39.2
		c0.2,0,0.3,0,0.5,0c13.5,0,40.3,23.9,54.1,39.1c2.1,2.3,5.6,2.5,7.9,0.4C166.3,152.4,166.5,148.9,164.4,146.6z M71.6,52
		c12.4,0.4,22.4,10.4,22.8,22.8C82,74.4,72,64.4,71.6,52z"/>
</g>
</svg>
