<svg id="Capa_1" enable-background="new 0 0 512 512" height="512" viewBox="0 0 512 512" width="512" xmlns="http://www.w3.org/2000/svg" xmlns:xlink="http://www.w3.org/1999/xlink"><linearGradient id="SVGID_1_" gradientUnits="userSpaceOnUse" x1="125.669" x2="334.669" y1="420.174" y2="150.174"><stop offset=".0112" stop-color="#dcfdee"/><stop offset=".7774" stop-color="#ccddfb"/><stop offset="1" stop-color="#c7d3ff"/></linearGradient><path d="m38.145 134.71c19.974-57.707 57.562-157.818 137.712-129.893 31.204 10.872 41.003 52.164 72.37 57.311 29.626 4.861 54.704-24.255 82.89-29.776 35.014-6.859 72.067 2.317 85.37 36.48 15.916 40.874-30.997 86.737-19.655 124.062 18.708 61.564 87.863-40.471 100.229 58.88 17.304 139.025-136.801 386.519-240.619 182.998-52.643-103.199-107.815-30.825-189.876-82.161-77.922-48.747-53.805-144.567-28.421-217.901z" fill="url(#SVGID_1_)"/><path d="m401.428 373.549h-20.71v-193.149c0-11.52-9.33-20.85-20.84-20.85h-15.71c1.186-3.544 1.944-7.275 2.191-11.134 1.726-26.953-20.5-49.18-47.453-47.453-21.825 1.398-39.656 18.833-41.506 40.625-.536 6.317.257 12.383 2.114 17.963h-167.486c-11.51 0-20.84 9.33-20.84 20.85v193.149h-20.708c-6.89 0-12.476 5.585-12.476 12.476v11.465c0 12.09 9.797 21.898 21.898 21.898h332.104c12.101 0 21.898-9.807 21.898-21.898v-11.465c0-6.892-5.586-12.477-12.476-12.477z" fill="#2626bc" opacity=".11"/><path d="m404.99 159.4v208.93c0 2.76-2.24 5-5 5h-304.53v-213.93c0-11.52 9.33-20.85 20.84-20.85h267.85c11.51 0 20.84 9.33 20.84 20.85z" fill="#ffa8cf"/><path d="m370.63 142.36c-1.39 21.82-18.83 39.65-40.62 41.5-10.57.9-20.45-1.9-28.5-7.23l-14.22 6.26c-2.94 1.29-5.94-1.7-4.64-4.64l6.26-14.22c-4.82-7.28-7.57-16.05-7.39-25.48h89.19c.03 1.25 0 2.53-.08 3.81z" fill="#ff7eb8"/><path d="m268.148 297.249v6.504c0 1.657-1.343 3-3 3h-5.388c-1.657 0-3-1.343-3-3v-6.504c0-1.657 1.343-3 3-3h5.388c1.657 0 3 1.343 3 3z" fill="#ffc4df"/><path d="m289.398 288.249v15.504c0 1.657-1.343 3-3 3h-5.388c-1.657 0-3-1.343-3-3v-15.504c0-1.657 1.343-3 3-3h5.388c1.657 0 3 1.343 3 3z" fill="#ffdbed"/><path d="m246.898 297.249v6.504c0 1.657-1.343 3-3 3h-5.388c-1.657 0-3-1.343-3-3v-6.504c0-1.657 1.343-3 3-3h5.388c1.657 0 3 1.343 3 3z" fill="#ffc4df"/><path d="m225.648 297.249v6.504c0 1.657-1.343 3-3 3h-5.388c-1.657 0-3-1.343-3-3v-6.504c0-1.657 1.343-3 3-3h5.388c1.657 0 3 1.343 3 3z" fill="#ffc4df"/><path d="m204.398 297.249v6.504c0 1.657-1.343 3-3 3h-5.388c-1.657 0-3-1.343-3-3v-6.504c0-1.657 1.343-3 3-3h5.388c1.657 0 3 1.343 3 3z" fill="#ff7eb8"/><path d="m310.648 282.249v21.504c0 1.657-1.343 3-3 3h-5.388c-1.657 0-3-1.343-3-3v-21.504c0-1.657 1.343-3 3-3h5.388c1.657 0 3 1.343 3 3z" fill="#ffdbed"/><path d="m331.898 288.249v15.504c0 1.657-1.343 3-3 3h-5.388c-1.657 0-3-1.343-3-3v-15.504c0-1.657 1.343-3 3-3h5.388c1.657 0 3 1.343 3 3z" fill="#ffdbed"/><path d="m353.148 273.249v30.504c0 1.657-1.343 3-3 3h-5.388c-1.657 0-3-1.343-3-3v-30.504c0-1.657 1.343-3 3-3h5.388c1.657 0 3 1.343 3 3z" fill="#97ffd2"/><path d="m374.398 258.249v45.504c0 1.657-1.343 3-3 3h-5.388c-1.657 0-3-1.343-3-3v-45.504c0-1.657 1.343-3 3-3h5.388c1.657 0 3 1.343 3 3z" fill="#01eca5"/><path d="m404.993 327.7v40.63c0 2.76-2.24 5-5 5h-304.53v-45.63z" fill="#6583fe"/><path d="m438.178 365.024v11.465c0 12.09-9.797 21.898-21.898 21.898h-332.103c-12.101 0-21.898-9.808-21.898-21.898v-11.465c0-6.89 5.586-12.476 12.476-12.476h107.067c1.849 0 3.548 1.021 4.416 2.654l6.56 12.348c.868 1.633 2.566 2.654 4.416 2.654h106.031c1.849 0 3.548-1.021 4.416-2.654l6.56-12.348c.868-1.633 2.566-2.654 4.416-2.654h107.067c6.889 0 12.474 5.586 12.474 12.476z" fill="#b7c5ff"/><path d="m438.18 365.02v11.47c0 12.09-9.8 21.9-21.9 21.9h-14.72c12.1 0 21.9-9.81 21.9-21.9v-11.47c0-6.89-5.59-12.47-12.48-12.47h14.72c6.89 0 12.48 5.58 12.48 12.47z" fill="#d2deff"/><path d="m370.634 127.416c1.726-26.953-20.5-49.18-47.453-47.453-21.825 1.398-39.656 18.833-41.506 40.624-.897 10.57 1.903 20.446 7.238 28.497l-6.264 14.227c-1.294 2.938 1.7 5.932 4.638 4.638l14.227-6.264c8.05 5.335 17.927 8.135 28.497 7.238 21.79-1.851 39.225-19.682 40.623-41.507z" fill="#02ffb3"/><circle cx="306.208" cy="124.478" fill="#fff" r="5.59"/><circle cx="326.118" cy="124.478" fill="#fff" r="5.59"/><circle cx="346.029" cy="124.478" fill="#fff" r="5.59"/><path d="m204.841 181.245h-16.752c-3.145 0-5.694-2.549-5.694-5.694 0-3.145 2.549-5.694 5.694-5.694h16.752c3.145 0 5.694 2.549 5.694 5.694 0 3.145-2.549 5.694-5.694 5.694z" fill="#ffdbed"/><path d="m285.841 202.458h-97.752c-3.145 0-5.694-2.549-5.694-5.694 0-3.145 2.549-5.694 5.694-5.694h97.752c3.145 0 5.694 2.549 5.694 5.694 0 3.144-2.549 5.694-5.694 5.694z" fill="#ffdbed"/><path d="m143.879 370.667h-43.333c-2.761 0-5-2.239-5-5v-13.118h53.333v13.118c0 2.761-2.238 5-5 5z" fill="#ff7eb8"/><path d="m399.787 370.667h-43.333c-2.761 0-5-2.239-5-5v-13.118h53.333v13.118c0 2.761-2.238 5-5 5z" fill="#ff7eb8"/><path d="m164.256 214.115h-20.994c.696-1.618 1.062-3.376 1.062-5.19v-7.161h7.28c2.761 0 5-2.239 5-5s-2.239-5-5-5h-7.28v-7.208c0-3.377 2.748-6.125 6.125-6.125s6.124 2.748 6.124 6.125c0 2.761 2.239 5 5 5s5-2.239 5-5c0-8.891-7.233-16.125-16.124-16.125s-16.125 7.233-16.125 16.125v7.208h-1.409c-2.761 0-5 2.239-5 5s2.239 5 5 5h1.409v7.161c0 .836-.325 1.622-.917 2.213-2.182 2.182-2.829 5.434-1.648 8.285s3.938 4.693 7.023 4.693h25.474c2.761 0 5-2.239 5-5s-2.239-5.001-5-5.001z" fill="#ffdbed"/><path d="m167.462 57.233h-3.25v-3.25c0-2.761-2.239-5-5-5s-5 2.239-5 5v3.25h-3.25c-2.761 0-5 2.239-5 5s2.239 5 5 5h3.25v3.25c0 2.761 2.239 5 5 5s5-2.239 5-5v-3.25h3.25c2.761 0 5-2.239 5-5s-2.238-5-5-5z" fill="#8399fe"/><path d="m123.164 111.183c-3.74 0-7.479-1.423-10.326-4.27-5.694-5.693-5.694-14.958 0-20.651 5.694-5.695 14.958-5.693 20.652 0 5.693 5.694 5.693 14.958 0 20.652-2.847 2.846-6.587 4.269-10.326 4.269zm0-19.197c-1.179 0-2.357.449-3.255 1.346-1.794 1.794-1.794 4.715 0 6.509 1.795 1.795 4.715 1.795 6.509 0 1.794-1.794 1.794-4.715 0-6.51-.897-.896-2.075-1.345-3.254-1.345z" fill="#ff7eb8"/><path d="m441.199 293.845c-3.74 0-7.479-1.423-10.326-4.27-5.694-5.694-5.694-14.958 0-20.652s14.958-5.693 20.652 0c5.693 5.693 5.693 14.958 0 20.651-2.847 2.847-6.587 4.271-10.326 4.271zm6.79-7.806h.01zm-6.79-11.391c-1.179 0-2.357.449-3.255 1.346-1.794 1.794-1.794 4.715 0 6.51 1.795 1.794 4.714 1.794 6.509 0 1.794-1.794 1.794-4.715 0-6.509-.896-.898-2.075-1.347-3.254-1.347z" fill="#8399fe"/><path d="m211.465 453.783c-8.052 0-14.603-6.551-14.603-14.603s6.551-14.603 14.603-14.603 14.603 6.551 14.603 14.603-6.551 14.603-14.603 14.603zm0-19.205c-2.538 0-4.603 2.065-4.603 4.603s2.064 4.603 4.603 4.603 4.603-2.064 4.603-4.603-2.065-4.603-4.603-4.603z" fill="#01eca5"/><path d="m342.146 453.238h-3.25v-3.25c0-2.761-2.239-5-5-5s-5 2.239-5 5v3.25h-3.25c-2.761 0-5 2.239-5 5s2.239 5 5 5h3.25v3.25c0 2.761 2.239 5 5 5s5-2.239 5-5v-3.25h3.25c2.761 0 5-2.239 5-5s-2.239-5-5-5z" fill="#ff7eb8"/><g fill="#2626bc"><path d="m425.703 347.549h-15.705v-19.848c0-2.761-2.239-5-5-5-.001 0-.001 0-.002 0s-.001 0-.002 0h-304.534v-163.304c0-8.737 7.108-15.845 15.845-15.845h136.907c2.761 0 5-2.239 5-5s-2.239-5-5-5h-136.907c-14.251 0-25.845 11.594-25.845 25.845v188.152h-15.705c-9.636 0-17.476 7.839-17.476 17.476v11.465c0 14.832 12.066 26.897 26.897 26.897h332.104c14.832 0 26.898-12.066 26.898-26.897v-11.465c.001-9.637-7.839-17.476-17.475-17.476zm-25.909 18.117h-43.34v-8.118h43.336zm.204-32.965v14.847h-81.362c-3.708 0-7.092 2.034-8.831 5.308l-6.56 12.347h-106.032l-6.56-12.348c-1.739-3.274-5.123-5.308-8.831-5.308h-81.361v-14.847h299.537zm-256.112 32.965h-43.34v-8.118h43.336zm289.293 10.823c0 9.317-7.581 16.897-16.898 16.897h-332.104c-9.317 0-16.897-7.58-16.897-16.897v-11.465c0-4.122 3.354-7.476 7.476-7.476h15.791v8.118c0 5.514 4.486 10 10 10h43.333c5.514 0 10-4.486 10-10v-8.118h27.942l6.56 12.348c1.739 3.274 5.123 5.308 8.831 5.308h106.032c3.708 0 7.092-2.034 8.831-5.308l6.56-12.347h27.818v8.118c0 5.514 4.486 10 10 10h43.333c5.514 0 10-4.486 10-10v-8.118h15.915c4.122 0 7.476 3.354 7.476 7.476v11.464z"/><path d="m278.072 161.295c-1.428 3.241-.732 6.953 1.772 9.457s6.217 3.2 9.457 1.773l11.809-5.2c7.608 4.461 16.12 6.766 24.959 6.766 1.445 0 2.902-.062 4.362-.186 18.663-1.584 34.474-13.748 41.456-30.352h12.264c8.737 0 15.845 7.108 15.845 15.845v138.826c0 2.761 2.239 5 5 5s5-2.239 5-5v-138.827c0-14.251-11.594-25.845-25.845-25.845h-9.267c.355-1.906.611-3.845.738-5.816.915-14.281-4.343-28.254-14.426-38.337s-24.062-15.339-38.337-14.426c-24.265 1.554-44.113 20.982-46.168 45.191-.882 10.39 1.389 20.469 6.58 29.322zm8.584-40.285c1.64-19.316 17.479-34.817 36.844-36.058 11.411-.734 22.575 3.467 30.626 11.518 8.051 8.05 12.249 19.213 11.518 30.626-1.24 19.365-16.742 35.204-36.058 36.844-9.057.765-17.81-1.453-25.312-6.424-.832-.551-1.794-.832-2.762-.832-.683 0-1.37.14-2.015.424l-10.737 4.728 4.728-10.737c.686-1.558.532-3.358-.408-4.777-4.971-7.503-7.193-16.255-6.424-25.312z"/><path d="m241.558 353.667h17.341c2.761 0 5-2.239 5-5s-2.239-5-5-5h-17.341c-2.761 0-5 2.239-5 5s2.239 5 5 5z"/></g><path d="m268.989 267.62h-126.056c-2.761 0-5-2.239-5-5s2.239-5 5-5h126.056c1.336 0 2.591-.52 3.536-1.464l49.224-49.224c2.832-2.833 6.599-4.393 10.606-4.393h24.716c4.007 0 7.774 1.56 10.607 4.393l25.46 25.461c.944.944 2.2 1.464 3.536 1.464h30.539c2.761 0 5 2.239 5 5s-2.239 5-5 5h-30.539c-4.007 0-7.774-1.56-10.607-4.393l-25.46-25.461c-.944-.944-2.2-1.464-3.536-1.464h-24.716c-1.336 0-2.591.52-3.535 1.464l-49.224 49.224c-2.833 2.833-6.6 4.393-10.607 4.393z" fill="#02ffb3"/><path d="m142.933 307.785c-1.28 0-2.559-.488-3.536-1.464-1.953-1.953-1.953-5.119 0-7.071l62.182-62.182c2.833-2.833 6.6-4.393 10.607-4.393h50.884c1.335 0 2.591-.52 3.536-1.465l13.281-13.281c2.833-2.833 6.6-4.394 10.607-4.394h38.227c1.336 0 2.591-.52 3.536-1.464l15.689-15.689c2.833-2.833 6.6-4.394 10.606-4.394h67.234c1.336 0 2.591-.52 3.536-1.464l29.609-29.609c1.953-1.952 5.118-1.952 7.071 0 1.953 1.953 1.953 5.119 0 7.071l-29.609 29.609c-2.833 2.833-6.6 4.393-10.607 4.393h-67.234c-1.316 0-2.604.534-3.535 1.464l-15.69 15.69c-2.833 2.833-6.6 4.393-10.607 4.393h-38.227c-1.335 0-2.591.52-3.536 1.465l-13.281 13.281c-2.833 2.833-6.6 4.394-10.607 4.394h-50.884c-1.336 0-2.591.52-3.536 1.464l-62.182 62.182c-.975.975-2.254 1.464-3.534 1.464z" fill="#ff7eb8"/></svg>