<svg id="Capa_1" enable-background="new 0 0 512 512" height="512" viewBox="0 0 512 512" width="512" xmlns="http://www.w3.org/2000/svg" xmlns:xlink="http://www.w3.org/1999/xlink"><linearGradient id="SVGID_1_" gradientUnits="userSpaceOnUse" x1="96.524" x2="444.685" y1="456.774" y2="41.852"><stop offset="0" stop-color="#d2deff" stop-opacity="0"/><stop offset=".6852" stop-color="#d2deff"/></linearGradient><g><g><path d="m4.896 327.335c17.448 172.871 292.417 167.142 420.804 136.265 82.47-19.834 87.596-59.472 86.106-144.001-.96-54.486 3.443-198.725-32.004-244.123-54.448-69.733-103.228-25.998-170.656-3.235-86.488 29.197-120.189-22.932-202.476-21.38-120.641 2.278-110.779 187.252-101.774 276.474z" fill="url(#SVGID_1_)"/></g><g><g><g><g><path d="m455.47 455.209h-398.94c-8.284 0-15-6.716-15-15v-314.267c0-8.284 6.716-15 15-15h398.94c8.284 0 15 6.716 15 15v314.266c0 8.285-6.715 15.001-15 15.001z" fill="#2626bc" opacity=".1"/><path d="m455.47 431.209h-398.94c-8.284 0-15-6.716-15-15v-314.267c0-8.284 6.716-15 15-15h398.94c8.284 0 15 6.716 15 15v314.266c0 8.285-6.715 15.001-15 15.001z" fill="#fff"/><path d="m470.47 156.256v-54.313c0-8.284-6.716-15-15-15h-398.94c-8.284 0-15 6.716-15 15v54.313z" fill="#01eca5"/><path d="m455.471 436.208h-398.942c-11.028 0-20-8.972-20-20v-314.265c0-11.028 8.972-20 20-20h398.941c11.028 0 20 8.972 20 20v314.266c.001 11.028-8.971 19.999-19.999 19.999zm-398.942-344.265c-5.514 0-10 4.486-10 10v314.266c0 5.514 4.486 10 10 10h398.941c5.514 0 10-4.486 10-10v-314.266c0-5.514-4.486-10-10-10z" fill="#2626bc"/></g><g><g><circle cx="85.623" cy="123.843" fill="#ff5ba8" r="10.901"/><circle cx="120.424" cy="123.843" fill="#fff" r="10.901"/><circle cx="155.224" cy="123.843" fill="#97ffd2" r="10.901"/></g><path d="m432.277 136.091h-136.158v-24.496h136.159c2.761 0 5 2.239 5 5v14.496c-.001 2.762-2.239 5-5.001 5z" fill="#dcfdee"/><path d="m296.789 111.907c-5.286-5.286-13.887-5.286-19.173 0s-5.286 13.887 0 19.173c4.037 4.037 10.003 4.98 14.953 2.852l4.348 4.348c1.952 1.952 5.119 1.952 7.071 0s1.952-5.119 0-7.071l-4.348-4.348c2.129-4.951 1.186-10.917-2.851-14.954zm-12.102 7.071c1.387-1.387 3.644-1.387 5.031 0s1.387 3.644 0 5.031-3.644 1.387-5.031 0-1.387-3.644 0-5.031z" fill="#fff"/></g></g><g><circle cx="256" cy="226.546" fill="#01eca5" r="33.651"/><path d="m272.617 227.684c0-9.16-7.46-16.61-16.62-16.61s-16.61 7.45-16.61 16.61c0 4.52 1.82 8.62 4.75 11.62-2.93 2.99-4.75 7.09-4.75 11.61v4.9c3.07 1.74 6.43 3.02 10 3.73v-8.63c0-3.65 2.97-6.61 6.61-6.61 3.65 0 6.62 2.96 6.62 6.61v8.63c3.57-.71 6.93-1.99 10-3.73v-4.9c0-4.52-1.82-8.62-4.76-11.61 2.94-3 4.76-7.1 4.76-11.62zm-16.62 6.62c-3.64 0-6.61-2.97-6.61-6.62 0-3.64 2.97-6.61 6.61-6.61 3.65 0 6.62 2.97 6.62 6.61 0 3.65-2.97 6.62-6.62 6.62z" fill="#fff"/></g><path d="m374.588 315.325h-237.176c-5.523 0-10-4.477-10-10v-15.139c0-5.523 4.477-10 10-10h237.175c5.523 0 10 4.477 10 10v15.139c.001 5.523-4.477 10-9.999 10z" fill="#d2deff"/><path d="m374.588 280.187h-29.748v35.139h29.748c5.523 0 10-4.477 10-10v-15.139c0-5.523-4.478-10-10-10z" fill="#9fb0fe"/><g><path d="m178.514 377.916h-32.602c-2.761 0-5-2.239-5-5v-32.602c0-2.761 2.239-5 5-5h32.602c2.761 0 5 2.239 5 5v32.602c0 2.762-2.238 5-5 5z" fill="#ffa8cf"/><path d="m241.039 377.916h-32.602c-2.761 0-5-2.239-5-5v-32.602c0-2.761 2.239-5 5-5h32.602c2.761 0 5 2.239 5 5v32.602c0 2.762-2.239 5-5 5z" fill="#02ffb3"/><path d="m303.563 377.916h-32.602c-2.761 0-5-2.239-5-5v-32.602c0-2.761 2.239-5 5-5h32.602c2.761 0 5 2.239 5 5v32.602c0 2.762-2.238 5-5 5z" fill="#ff5ba8"/><path d="m366.088 377.916h-32.602c-2.761 0-5-2.239-5-5v-32.602c0-2.761 2.239-5 5-5h32.602c2.761 0 5 2.239 5 5v32.602c0 2.762-2.239 5-5 5z" fill="#8399fe"/></g><g><path d="m443.915 184.895h-20.681c-2.761 0-5-2.239-5-5s2.239-5 5-5h20.681c2.761 0 5 2.239 5 5s-2.239 5-5 5z" fill="#8399fe"/></g><g><path d="m443.915 207.895h-20.681c-2.761 0-5-2.239-5-5s2.239-5 5-5h20.681c2.761 0 5 2.239 5 5s-2.239 5-5 5z" fill="#8399fe"/></g><g><path d="m443.915 230.895h-20.681c-2.761 0-5-2.239-5-5s2.239-5 5-5h20.681c2.761 0 5 2.239 5 5s-2.239 5-5 5z" fill="#8399fe"/></g></g><path d="m360.721 62.304c-7.881 0-14.292-6.411-14.292-14.292 0-7.88 6.411-14.291 14.292-14.291 7.88 0 14.291 6.411 14.291 14.291 0 7.881-6.411 14.292-14.291 14.292zm0-18.583c-2.366 0-4.292 1.925-4.292 4.291s1.926 4.292 4.292 4.292 4.291-1.926 4.291-4.292-1.925-4.291-4.291-4.291z" fill="#6583fe"/><path d="m85.623 62.304c-7.88 0-14.291-6.411-14.291-14.292 0-7.88 6.411-14.291 14.291-14.291 7.881 0 14.292 6.411 14.292 14.291 0 7.881-6.411 14.292-14.292 14.292zm0-18.583c-2.366 0-4.291 1.925-4.291 4.291s1.925 4.292 4.291 4.292 4.292-1.926 4.292-4.292-1.926-4.291-4.292-4.291z" fill="#01eca5"/><path d="m432.234 54.597c-2.762 0-5-2.238-5-5 0-3.309-2.691-6-6-6-2.762 0-5-2.238-5-5s2.238-5 5-5c3.309 0 6-2.691 6-6 0-2.762 2.238-5 5-5s5 2.238 5 5c0 3.309 2.691 6 6 6 2.762 0 5 2.238 5 5s-2.238 5-5 5c-3.309 0-6 2.691-6 6 0 2.762-2.238 5-5 5z" fill="#ff5ba8"/><path d="m325.486 489.403c-2.762 0-5-2.238-5-5 0-3.309-2.692-6-6.001-6-2.762 0-5-2.238-5-5s2.238-5 5-5c3.309 0 6.001-2.691 6.001-6 0-2.762 2.238-5 5-5s5 2.238 5 5c0 3.309 2.691 6 5.999 6 2.762 0 5 2.238 5 5s-2.238 5-5 5c-3.308 0-5.999 2.691-5.999 6 0 2.762-2.238 5-5 5z" fill="#ff5ba8"/><path d="m277.647 489.403c-2.762 0-5-2.238-5-5 0-3.309-2.691-6-6-6-2.762 0-5-2.238-5-5s2.238-5 5-5c3.309 0 6-2.691 6-6 0-2.762 2.238-5 5-5s5 2.238 5 5c0 3.309 2.691 6 6 6 2.762 0 5 2.238 5 5s-2.238 5-5 5c-3.309 0-6 2.691-6 6 0 2.762-2.238 5-5 5z" fill="#01eca5"/></g></g></svg>