<?xml version="1.0" encoding="iso-8859-1"?>
<!-- Generator: Adobe Illustrator 19.0.0, SVG Export Plug-In . SVG Version: 6.00 Build 0)  -->
<svg version="1.1" id="Capa_1" xmlns="http://www.w3.org/2000/svg" xmlns:xlink="http://www.w3.org/1999/xlink" x="0px" y="0px"
	 viewBox="0 0 512 512" style="enable-background:new 0 0 512 512;" xml:space="preserve">
<path style="fill:#5C5560;" d="M512,256c0,46.049-12.152,89.255-33.447,126.589c-1.567,2.759-3.323,5.705-5.256,8.808
	c-27.136,43.468-66.957,78.211-114.291,99.035c-7.795,3.427-15.799,6.489-23.98,9.132c-4.827,1.567-9.718,2.999-14.66,4.274
	c-4.378,1.139-8.808,2.163-13.27,3.062c-16.51,3.345-33.594,5.1-51.096,5.1c-50.761,0-98.053-14.764-137.843-40.249
	c-26.049-16.666-48.87-37.93-67.344-62.631C18.902,366.414,0,313.407,0,256C0,119.986,106.078,8.746,240.013,0.491
	c3.323-0.209,6.656-0.345,10.01-0.418h0.042C252.04,0.021,254.015,0,256,0C397.385,0,512,114.615,512,256z"/>
<path style="fill:#3E8E33;" d="M478.553,382.589c-1.567,2.759-3.323,5.705-5.256,8.808c-27.136,43.468-66.957,78.211-114.291,99.035
	c-7.795,3.427-15.799,6.489-23.98,9.132c-4.827,1.567-9.718,2.999-14.66,4.274l32.172-444.771l39.999,34.994l42.998,1.003
	L478.553,382.589z"/>
<path style="fill:#7FC029;" d="M334.503,64.92c-10.909-28.421-28.212-53.77-56.592-49.246c-6.51-8.631-15.475-14.858-27.847-15.6
	h-0.042C249.208,0.021,248.383,0,247.536,0c-2.529,0-5.036,0.167-7.523,0.491c-44.116,5.778-80.238,61.67-93.8,125.555l-61.67,20.02
	l-33.73,263.053c18.474,24.701,41.294,45.965,67.344,62.631l188.938,35.15c9.509-1.923,18.829-4.378,27.93-7.335l17.512-440.498
	L334.503,64.92z M165.763,119.704c0,0,8.777-27.638,20.773-52.642c12.006-24.994,51.001-61.001,73.007-47.501
	c0.658,0.408,1.296,0.846,1.902,1.317c-25.266,11.661-45.108,38.922-55.223,85.692L165.763,119.704z M276.741,83.675l-49.622,16.102
	c0,0,9.467-51.493,44.534-64.136C279.406,55.557,276.741,83.675,276.741,83.675z M295.037,77.73c0,0,0-23.291-7.795-44.377
	c17.983,1.881,27.209,21.138,31.754,36.603L295.037,77.73z"/>
<path style="fill:#FDFEFD;" d="M124.166,361.18c8.989,6.496,17.982,13.095,28.394,17.355c4.479,1.833,9.049,3.257,13.847,4.031
	c8.615,1.39,16.428,0.24,21.909-7.294c5.745-7.896,4.726-16.319,0.905-24.618c-2.627-5.703-7.027-10.088-11.685-14.164
	c-6.017-5.263-12.098-10.453-18.208-15.608c-19.831-16.728-25.971-38.429-22.478-63.301c6.09-43.363,38.335-74.347,81.947-79.659
	c18.748-2.284,37.14-2.101,55.257,4.017c4.067,1.373,4.472,3.029,3.173,6.77c-5.674,16.335-11.169,32.735-16.485,49.19
	c-1.073,3.322-1.957,3.871-5.355,2.478c-13.872-5.686-28.219-9.078-43.355-6.541c-10.524,1.764-18.977,6.377-21.938,17.566
	c-2.084,7.876,0.677,14.423,6.278,19.929c7.749,7.619,16.779,13.654,25.338,20.269c10.342,7.995,19.913,16.743,26.603,28.148
	c11.917,20.317,12.047,42.002,5.861,63.793c-10.463,36.858-42.119,56.749-80.196,51.942c-22.131-2.794-41.667-10.842-58.611-25.37
	c-3.81-3.266-5.243-6.207-3.364-11.47c3.967-11.105,6.995-22.546,10.398-33.852C122.776,363.546,122.829,362.162,124.166,361.18z"/>
<g>
</g>
<g>
</g>
<g>
</g>
<g>
</g>
<g>
</g>
<g>
</g>
<g>
</g>
<g>
</g>
<g>
</g>
<g>
</g>
<g>
</g>
<g>
</g>
<g>
</g>
<g>
</g>
<g>
</g>
</svg>
