<svg fill="#fff" version="1.1" id="Capa_1" xmlns="http://www.w3.org/2000/svg" xmlns:xlink="http://www.w3.org/1999/xlink" x="0px" y="0px"
	 viewBox="0 0 508 508" style="enable-background:new 0 0 508 508;" xml:space="preserve">
<g>
	<g>
		<path d="M367.05,292.5c12.2-98.2-20.3-199.7-93.3-272.7L253.95,0l-19.9,19.8c-72.9,72.9-105.4,174.5-93.3,272.7
			c-17.9,24.3-27.5,53-27.5,83.1c0,22.5,5.2,44,15.6,64.1l15.6,29.9v-34.2c0-21.3,6.4-42,18-59.7c5.2,12.6,11.1,25,18,37.1l2.4,4.2
			h142.3l2.4-4.2c6.8-12.1,12.8-24.5,18-37.1c11.6,17.7,18,38.5,18,59.9l-1.7,37.8l17.3-33.6c10.3-20.1,15.6-41.7,15.6-64.1
			C394.55,345.5,385.05,316.8,367.05,292.5z M245.75,31.5l8.2-8.2l8.2,8.1c19.2,19.2,35.4,40.5,48.6,63.2h-113.6
			C210.35,72,226.55,50.7,245.75,31.5z M132.55,401.7c-1.8-8.5-2.8-17.2-2.8-26.1c0-20.8,5.1-40.7,14.8-58.7c0.1,0.5,0.2,1,0.4,1.5
			c2.6,12.7,6,25.3,10.2,37.7c0.2,0.3,0.2,0.6,0.3,0.9C144.85,370.3,137.15,385.5,132.55,401.7z M347.85,308.4
			c-0.2,1-0.4,1.9-0.6,2.9c-0.8,4.2-1.7,8.4-2.7,12.5c-0.2,0.7-0.3,1.5-0.5,2.2c-2.5,10.1-5.4,20-8.9,29.8l-0.2,0.6
			c-5.3,15.1-11.8,29.8-19.6,44.1h-122.9c-7.9-14.4-14.4-29.2-19.8-44.4l-0.1-0.2c-3.4-9.7-6.4-19.6-8.9-29.7
			c-0.2-0.8-0.4-1.6-0.6-2.4c-1-4.1-1.9-8.2-2.7-12.4c-0.2-1-0.4-2-0.6-3c-0.9-4.7-1.7-9.5-2.3-14.3c0-0.2-0.1-0.5-0.1-0.7
			c-8.3-62.2,2.3-125.9,30.7-182.2h131.5c28.4,56.5,39.1,120.5,30.6,182.9C349.45,298.9,348.75,303.6,347.85,308.4z M375.25,401.6
			c-4.5-16.2-12.3-31.4-22.9-44.7c0.1-0.3,0.2-0.6,0.3-0.8c4.2-12.4,7.5-25,10.2-37.7c0.1-0.5,0.3-1,0.4-1.6
			c9.8,18,14.9,38,14.9,58.8C378.05,384.5,377.15,393.1,375.25,401.6z"/>
	</g>
</g>
<g>
	<g>
		<path d="M253.95,168.8c-31.9,0-57.9,26-57.9,57.9s26,57.9,57.9,57.9c31.9,0,57.9-26,57.9-57.9
			C311.85,194.8,285.85,168.8,253.95,168.8z M253.95,268.1c-22.8,0-41.4-18.6-41.4-41.4s18.6-41.4,41.4-41.4s41.4,18.6,41.4,41.4
			S276.75,268.1,253.95,268.1z"/>
	</g>
</g>
<g>
	<g>
		<rect x="245.65" y="425.3" width="16.5" height="57.9"/>
	</g>
</g>
<g>
	<g>
		<rect x="287.05" y="450.1" width="16.5" height="57.9"/>
	</g>
</g>
<g>
	<g>
		<rect x="204.35" y="450.1" width="16.5" height="57.9"/>
	</g>
</g>

</svg>
