<svg id="Capa_1" enable-background="new 0 0 512 512" height="512" viewBox="0 0 512 512" width="512" xmlns="http://www.w3.org/2000/svg" xmlns:xlink="http://www.w3.org/1999/xlink"><linearGradient id="SVGID_1_" gradientUnits="userSpaceOnUse" x1="8.753" x2="524.202" y1="401.161" y2="103.566"><stop offset="0" stop-color="#dcfdee" stop-opacity="0"/><stop offset=".6288" stop-color="#d2f3e4"/></linearGradient><path d="m418.32 2.5c-55.666-9.521-178.298 12.183-200.004 105.017-14.431 61.722-14.007 112.075-50.427 113.02-21.67.562-32.97-44.31-62.889-48.001-39.047-4.817-66.145 27.695-83.057 57.138-37.205 64.772-25.571 174.918 23.354 228.632 118.488 130.086 259.197-5.952 319.358-112.309 38.585-68.213 125.637-123.352 143.767-200.248 15.177-64.376-18.503-131.003-90.102-143.249z" fill="url(#SVGID_1_)"/><g fill="#6583fe" opacity=".2"><path d="m445.079 212.816c-7.232-7.748-17.458-12.193-28.057-12.193h-56.839v-14.652c0-6.1-4.945-11.046-11.046-11.046h-126.047c-.002-1.681-.835-3.322-2.373-4.264-7.177-4.396-11.462-12.034-11.462-20.436s4.285-16.041 11.462-20.437c3.097-1.9 3.109-6.623 0-8.527-7.177-4.396-11.462-12.034-11.462-20.436s4.285-16.041 11.462-20.437c2.355-1.441 3.095-4.52 1.653-6.875-1.442-2.354-4.519-3.094-6.875-1.652-10.169 6.227-16.241 17.055-16.241 28.964 0 9.529 3.895 18.358 10.659 24.699-6.763 6.341-10.659 15.171-10.659 24.7s3.895 18.358 10.658 24.699h-91.064c-6.1 0-11.045 4.945-11.045 11.046v213.277 1.144c-4.031 2.896-7.973 6.225-11.725 9.978-23.325 23.325-30.547 53.92-16.13 68.336 11.28 11.28 32.464 9.311 52.32-3.251 10.79 6.597 25.622 10.674 41.998 10.674 26.312 0 48.634-10.521 56.596-25.124h96.184c18.301 0 33.137-14.836 33.137-33.137v-8.492h34.361c27.177 0 49.935-21.238 51.81-48.349l8.952-129.38c.732-10.572-2.996-21.08-10.227-28.829zm-17.951 26.882-8.952 129.38c-.859 12.418-11.183 22.052-23.631 22.052h-8.934c-10.234 0-19.378-4.661-25.429-11.974v-7.734-130.579c6.05-7.314 15.195-11.974 25.429-11.974h31.089c2.793 0 5.543 1.007 7.509 2.991 2.083 2.103 3.122 4.901 2.919 7.838z"/><path d="m146.033 119.971c0 11.909 6.071 22.737 16.241 28.964.814.499 1.716.737 2.606.737 1.683 0 3.326-.85 4.269-2.39 1.442-2.355.702-5.434-1.653-6.875-7.177-4.396-11.462-12.035-11.462-20.437s4.285-16.04 11.462-20.436c3.096-1.9 3.11-6.624 0-8.527-7.177-4.396-11.462-12.035-11.462-20.437s4.285-16.04 11.462-20.436c2.355-1.441 3.095-4.52 1.653-6.875-1.442-2.354-4.521-3.094-6.875-1.652-10.169 6.227-16.241 17.054-16.241 28.963 0 9.529 3.895 18.359 10.659 24.7-6.764 6.343-10.659 15.172-10.659 24.701z"/><path d="m262.704 105.091c.815.499 1.716.737 2.606.737 1.683 0 3.326-.85 4.269-2.39 1.442-2.355.702-5.434-1.653-6.875-7.178-4.396-11.463-12.035-11.463-20.437 0-8.4 4.285-16.04 11.463-20.436 2.355-1.441 3.095-4.52 1.653-6.875-1.442-2.354-4.519-3.094-6.875-1.652-10.169 6.227-16.24 17.055-16.24 28.963 0 11.91 6.071 22.738 16.24 28.965z"/><path d="m321.768 148.935c.814.499 1.716.737 2.606.737 1.683 0 3.326-.85 4.269-2.39 1.442-2.355.702-5.434-1.653-6.875-7.177-4.396-11.462-12.035-11.462-20.437s4.285-16.04 11.462-20.436c2.355-1.441 3.095-4.52 1.653-6.875-1.441-2.354-4.521-3.094-6.875-1.652-10.169 6.227-16.241 17.054-16.241 28.963s6.072 22.738 16.241 28.965z"/></g><path d="m394.544 399.376h-56.042c-7.8 0-14.123-6.323-14.123-14.123v-190.507c0-7.8 6.323-14.123 14.123-14.123h78.52c10.599 0 20.825 4.445 28.057 12.193 7.231 7.749 10.959 18.258 10.228 28.831l-8.952 129.38c-1.876 27.111-24.634 48.349-51.811 48.349zm-8.932-28.246h8.934c12.448 0 22.772-9.634 23.631-22.052l8.952-129.38c.204-2.937-.835-5.735-2.919-7.838-1.966-1.984-4.716-2.991-7.509-2.991h-31.089c-18.218 0-32.987 14.769-32.987 32.987v96.288c0 18.218 14.768 32.986 32.987 32.986z" fill="#8399fe"/><path d="m327.046 441.004h-186.107c-18.301 0-33.137-14.836-33.137-33.137v-241.896c0-6.1 4.945-11.046 11.046-11.046h230.289c6.1 0 11.046 4.945 11.046 11.046v241.897c0 18.301-14.836 33.136-33.137 33.136z" fill="#9fb0fe"/><path d="m360.183 351.422h-68.583c-5.523 0-10-4.477-10-10v-131.56c0-5.523 4.477-10 10-10h68.583z" fill="#ffa8cf"/><path d="m107.803 199.862h23.583c5.523 0 10 4.477 10 10v131.56c0 5.523-4.477 10-10 10h-23.583z" fill="#ffa8cf"/><path d="m107.803 379.248v28.62c0 18.301 14.836 33.137 33.137 33.137h186.107c18.301 0 33.137-14.836 33.137-33.137v-28.62z" fill="#fff"/><ellipse cx="174.266" cy="429.213" fill="#fe2c8f" rx="59.727" ry="36.915"/><path d="m174.266 392.298c32.985 0 59.727 16.527 59.727 36.915 0 1.095-.077 2.174-.231 3.245-11.714-.081-11.791-6.491-23.66-6.491-11.945 0-11.945 6.491-23.891 6.491-11.945 0-11.945-6.491-23.891-6.491-11.945 0-11.945 6.491-23.891 6.491-11.868 0-11.945-6.409-23.66-6.491 2.66-18.871 28.285-33.669 59.497-33.669z" fill="#ff5ba8"/><ellipse cx="122.181" cy="416.472" fill="#ff7eb8" rx="59.727" ry="36.915" transform="matrix(.707 -.707 .707 .707 -258.705 208.377)"/><path d="m96.078 390.369c23.324-23.324 53.919-30.547 68.336-16.13.774.774 1.483 1.592 2.131 2.458-8.341 8.226-12.927 3.748-21.319 12.14-8.447 8.447-3.857 13.036-12.304 21.483s-13.036 3.857-21.483 12.304-3.857 13.036-12.304 21.483c-8.392 8.392-12.979 3.914-21.319 12.14-11.464-15.224-3.809-43.807 18.262-65.878z" fill="#ffa8cf"/><g fill="#2626bc"><path d="m448.734 189.404c-8.174-8.759-19.732-13.781-31.712-13.781h-51.839v-9.651c0-8.848-7.198-16.046-16.045-16.046h-129.542c-6.498-4.482-10.342-11.748-10.342-19.699 0-8.401 4.285-16.041 11.462-20.437.028-.017.049-.04.076-.058.249-.159.489-.334.709-.539.008-.008.018-.014.026-.021.207-.194.393-.414.568-.647.049-.066.096-.132.141-.2.043-.063.092-.121.132-.187.05-.081.076-.168.121-.251.085-.158.165-.317.233-.483.06-.148.109-.297.155-.449.046-.155.087-.309.119-.468.032-.161.053-.322.068-.484.015-.159.025-.316.025-.476s-.01-.317-.025-.476c-.015-.162-.037-.323-.068-.484-.031-.159-.072-.313-.119-.468-.045-.151-.094-.301-.155-.449-.067-.166-.148-.325-.233-.483-.044-.083-.071-.17-.121-.251-.03-.048-.07-.086-.101-.133-.099-.15-.212-.291-.327-.431-.1-.121-.199-.242-.309-.352s-.231-.209-.352-.309c-.14-.116-.281-.229-.431-.328-.047-.031-.084-.071-.132-.1-7.177-4.396-11.462-12.035-11.462-20.436s4.285-16.041 11.462-20.437c2.355-1.441 3.095-4.52 1.653-6.875-1.442-2.354-4.519-3.094-6.875-1.652-10.169 6.227-16.24 17.055-16.24 28.964 0 9.529 3.895 18.358 10.658 24.699-6.763 6.341-10.658 15.171-10.658 24.7 0 7.23 2.249 14.054 6.283 19.699h-86.689c-8.848 0-16.046 7.198-16.046 16.046v180.45c0 2.762 2.239 5 5 5s5-2.238 5-5v-180.45c0-3.334 2.712-6.046 6.046-6.046h230.289c3.333 0 6.045 2.712 6.045 6.046v241.896c0 15.515-12.622 28.137-28.137 28.137h-60.481c-2.761 0-5 2.238-5 5s2.239 5 5 5h60.481c21.029 0 38.137-17.108 38.137-38.137v-3.492h29.361c29.793 0 54.742-23.282 56.799-53.004l8.952-129.38c.827-11.949-3.386-23.827-11.56-32.587zm-83.551 33.312c.036-.036.078-.061.113-.097 5.347-5.643 12.561-8.75 20.315-8.75h31.089c1.564 0 3.006.551 3.957 1.51 1.075 1.086 1.588 2.46 1.483 3.976l-8.952 129.38c-.675 9.755-8.864 17.396-18.643 17.396h-8.934c-7.755 0-14.97-3.107-20.315-8.75-.035-.037-.077-.062-.113-.098zm85.135-1.413-8.952 129.38c-1.695 24.501-22.262 43.693-46.822 43.693h-29.361v-24.2c6.035 3.875 13.049 5.954 20.428 5.954h8.934c15.012 0 27.583-11.73 28.619-26.707l8.952-129.38c.304-4.403-1.242-8.56-4.355-11.702-2.816-2.843-6.847-4.473-11.061-4.473h-31.089c-7.379 0-14.393 2.079-20.428 5.954v-24.199h51.839c9.218 0 18.112 3.865 24.401 10.604 6.289 6.74 9.531 15.879 8.895 25.076z"/><path d="m146.033 99.971c0 11.909 6.071 22.737 16.24 28.964.815.499 1.716.737 2.606.737 1.683 0 3.326-.85 4.269-2.39 1.442-2.355.702-5.434-1.653-6.875-7.178-4.396-11.463-12.035-11.463-20.437 0-8.4 4.285-16.04 11.463-20.436.028-.017.049-.04.076-.058.249-.159.489-.334.709-.539.008-.008.018-.014.026-.021.207-.194.393-.414.568-.647.049-.066.096-.132.141-.2.043-.063.092-.121.132-.187.05-.081.076-.168.121-.251.085-.158.165-.317.233-.483.06-.148.109-.297.155-.449.046-.155.087-.309.119-.468.032-.161.053-.322.068-.484.015-.159.025-.316.025-.476s-.01-.317-.025-.476c-.015-.162-.037-.323-.068-.484-.031-.159-.072-.313-.119-.468-.045-.151-.094-.301-.155-.449-.067-.166-.148-.325-.233-.483-.044-.083-.071-.17-.121-.251-.03-.048-.07-.086-.101-.133-.099-.15-.211-.29-.326-.429-.101-.122-.2-.244-.311-.354-.109-.109-.229-.207-.35-.307-.141-.117-.282-.23-.434-.33-.047-.031-.083-.07-.131-.1-7.178-4.396-11.463-12.035-11.463-20.437 0-8.4 4.285-16.04 11.463-20.436 2.355-1.441 3.095-4.52 1.653-6.875-1.442-2.354-4.519-3.094-6.875-1.652-10.169 6.227-16.24 17.055-16.24 28.963 0 9.529 3.895 18.359 10.658 24.7-6.762 6.343-10.657 15.172-10.657 24.701z"/><path d="m262.705 85.091c.814.499 1.716.737 2.606.737 1.683 0 3.326-.85 4.269-2.39 1.442-2.355.702-5.434-1.653-6.875-7.177-4.396-11.462-12.035-11.462-20.437s4.285-16.04 11.462-20.436c2.355-1.441 3.095-4.52 1.653-6.875-1.441-2.354-4.521-3.094-6.875-1.652-10.169 6.227-16.241 17.054-16.241 28.963s6.072 22.738 16.241 28.965z"/><path d="m321.768 128.935c.815.499 1.716.737 2.606.737 1.683 0 3.326-.85 4.269-2.39 1.442-2.355.702-5.434-1.653-6.875-7.178-4.396-11.463-12.035-11.463-20.437 0-8.4 4.285-16.04 11.463-20.436 2.355-1.441 3.095-4.52 1.653-6.875-1.441-2.354-4.519-3.094-6.875-1.652-10.169 6.227-16.24 17.055-16.24 28.963-.001 11.91 6.071 22.738 16.24 28.965z"/><path d="m219.128 398.856c-11.581-7.157-26.734-11.216-42.857-11.528-1.126-6.551-3.914-12.216-8.321-16.624-8.243-8.244-20.854-10.877-35.512-7.419-13.799 3.257-27.967 11.62-39.896 23.549s-20.292 26.097-23.549 39.896c-3.459 14.656-.825 27.268 7.418 35.511 5.877 5.877 13.974 8.903 23.448 8.903 3.816 0 7.855-.49 12.063-1.483 6.823-1.611 13.736-4.474 20.425-8.395 11.651 6.363 26.465 9.863 41.918 9.863 16.87 0 32.802-4.105 44.862-11.559 12.81-7.918 19.865-18.698 19.865-30.356s-7.054-22.44-19.864-30.358zm-109.502 61.071c-11.159 2.635-20.442.944-26.144-4.757-12.232-12.232-4.846-40.289 16.13-61.266 10.633-10.633 23.106-18.051 35.122-20.887 11.158-2.633 20.442-.943 26.144 4.757 12.232 12.232 4.846 40.289-16.13 61.266-10.633 10.633-23.106 18.051-35.122 20.887zm64.64 1.201c-11.746 0-22.998-2.217-32.374-6.309 3.433-2.635 6.761-5.542 9.928-8.709 11.929-11.929 20.292-26.097 23.549-39.896.722-3.058 1.163-6.02 1.358-8.879 28.577.781 52.266 15.058 52.266 31.877 0 17.301-25.062 31.916-54.727 31.916z"/></g><path d="m312.453 242.497h-76.52c-2.762 0-5-2.239-5-5s2.238-5 5-5h76.52c2.762 0 5 2.239 5 5s-2.238 5-5 5z" fill="#fff"/><path d="m312.453 263.107h-46.52c-2.762 0-5-2.239-5-5s2.238-5 5-5h46.52c2.762 0 5 2.239 5 5s-2.238 5-5 5z" fill="#fff"/><path d="m91.655 115.971c-2.761 0-5-2.238-5-5 0-3.309-2.692-6-6-6-2.761 0-5-2.238-5-5s2.239-5 5-5c3.309 0 6-2.691 6-6 0-2.762 2.239-5 5-5s5 2.238 5 5c0 3.309 2.691 6 6 6 2.761 0 5 2.238 5 5s-2.239 5-5 5c-3.308 0-6 2.691-6 6 0 2.761-2.238 5-5 5z" fill="#ff7eb8"/><path d="m420.606 140.671c-2.761 0-5-2.238-5-5 0-3.309-2.691-6-6-6-2.761 0-5-2.238-5-5s2.239-5 5-5c3.309 0 6-2.691 6-6 0-2.762 2.239-5 5-5s5 2.238 5 5c0 3.309 2.691 6 6 6 2.761 0 5 2.238 5 5s-2.239 5-5 5c-3.309 0-6 2.691-6 6 0 2.762-2.239 5-5 5z" fill="#01eca5"/><path d="m400.927 469.037c-2.761 0-5-2.238-5-5 0-3.309-2.691-6-6-6-2.761 0-5-2.238-5-5s2.239-5 5-5c3.309 0 6-2.691 6-6 0-2.762 2.239-5 5-5s5 2.238 5 5c0 3.309 2.691 6 6 6 2.761 0 5 2.238 5 5s-2.239 5-5 5c-3.309 0-6 2.691-6 6 0 2.762-2.239 5-5 5z" fill="#01eca5"/><path d="m390.927 86.128c-1.28 0-2.559-.488-3.536-1.465-1.953-1.952-1.953-5.118 0-7.07l10-10c1.953-1.953 5.118-1.953 7.071 0 1.953 1.952 1.953 5.118 0 7.07l-10 10c-.976.977-2.255 1.465-3.535 1.465z" fill="#6583fe"/><path d="m56.603 361.422c-1.28 0-2.559-.488-3.536-1.465-1.953-1.952-1.953-5.118 0-7.07l10-10c1.953-1.953 5.118-1.953 7.071 0 1.953 1.952 1.953 5.118 0 7.07l-10 10c-.976.977-2.255 1.465-3.535 1.465z" fill="#6583fe"/></svg>