<svg id="Capa_1" enable-background="new 0 0 512 512" height="512" viewBox="0 0 512 512" width="512" xmlns="http://www.w3.org/2000/svg" xmlns:xlink="http://www.w3.org/1999/xlink"><linearGradient id="SVGID_1_" gradientUnits="userSpaceOnUse" x1="53.976" x2="458.024" y1="256" y2="256"><stop offset="0" stop-color="#ffdbed"/><stop offset="1" stop-color="#dcfdee"/></linearGradient><g><g><g><path d="m170.091.39c-68.06 4.435-134.218 61.127-111.591 135.073 18.265 59.691 84.702 87.73 134.671 115.676 47.928 26.805 98.6 60.229 112.037 117.192 9.247 39.199-2.084 84.916 22.012 117.187 42.331 56.693 124.077 13.634 130.314-47.258 5.176-50.542-31.51-94.701-65.828-132.165-33.267-36.317-70.462-71.374-99.992-110.843-27.345-36.55-41.639-81.985-5.379-118.188 8.145-8.132 17.848-16.505 14.872-29.734-9.77-43.394-97.817-49.109-131.116-46.94z" fill="url(#SVGID_1_)"/></g><g><g><g fill="#2626bc" opacity=".15"><path d="m401.684 133.747 21.286 4.92c.376.087.754.129 1.127.129 1.926 0 3.727-1.118 4.551-2.933l1.396-3.075 20.944 4.264c2.708.553 5.346-1.196 5.897-3.902s-1.196-5.346-3.902-5.897l-24.847-5.058c-2.286-.465-4.586.71-5.55 2.832l-1.352 2.976-17.299-3.999c-2.691-.621-5.376 1.055-5.998 3.746-.621 2.69 1.056 5.375 3.747 5.997z"/><path d="m402.815 109.079c.904 0 1.82-.245 2.644-.759l18.53-11.572c2.019-1.261 2.869-3.77 2.033-5.998l-1.187-3.162 17.825-11.795c2.303-1.524 2.935-4.626 1.411-6.929-1.525-2.303-4.626-2.933-6.929-1.411l-21.146 13.993c-1.943 1.286-2.741 3.745-1.922 5.927l1.148 3.06-15.06 9.404c-2.342 1.463-3.055 4.547-1.593 6.89.948 1.519 2.578 2.352 4.246 2.352z"/><path d="m415.995 179.446 21.146 13.993c.849.562 1.807.831 2.755.831 1.622 0 3.212-.788 4.174-2.241 1.524-2.303.892-5.405-1.411-6.929l-17.825-11.795 1.187-3.162c.836-2.229-.014-4.737-2.033-5.998l-18.53-11.572c-2.343-1.463-5.427-.75-6.889 1.592-1.463 2.342-.75 5.427 1.592 6.889l15.06 9.405-1.148 3.06c-.819 2.182-.021 4.641 1.922 5.927z"/><path d="m114.451 414.252-21.286-4.92c-2.321-.536-4.694.637-5.678 2.804l-1.396 3.075-20.944-4.264c-2.712-.554-5.346 1.196-5.897 3.902s1.196 5.346 3.902 5.897l24.847 5.058c.334.068.669.101 1 .101 1.93 0 3.728-1.121 4.55-2.933l1.352-2.976 17.299 3.999c2.689.62 5.375-1.055 5.998-3.746.621-2.689-1.056-5.375-3.747-5.997z"/><path d="m110.677 439.68-18.53 11.572c-2.019 1.261-2.869 3.77-2.033 5.998l1.187 3.162-17.825 11.795c-2.303 1.524-2.935 4.626-1.411 6.929.962 1.454 2.553 2.241 4.174 2.241.947 0 1.906-.269 2.755-.831l21.146-13.993c1.943-1.286 2.741-3.745 1.922-5.927l-1.148-3.06 15.06-9.404c2.342-1.463 3.055-4.547 1.593-6.89-1.464-2.341-4.547-3.056-6.89-1.592z"/><path d="m100.14 368.554-21.146-13.993c-2.302-1.524-5.405-.893-6.929 1.411-1.524 2.303-.892 5.405 1.411 6.929l17.825 11.795-1.187 3.162c-.836 2.229.014 4.737 2.033 5.998l18.53 11.572c.824.515 1.739.76 2.644.76 1.667 0 3.297-.833 4.246-2.352 1.463-2.342.75-5.427-1.592-6.889l-15.06-9.405 1.148-3.06c.818-2.183.021-4.642-1.923-5.928z"/><path d="m380.209 269h-20.762v-2c0-8.271-6.729-15-15-15h-172.759c-8.271 0-15 6.729-15 15v2h-20.762c-36.821 0-66.777-29.956-66.777-66.777s29.956-66.777 66.777-66.777h24.56v1.378c0 8.271 6.729 15 15 15h11.544v12.945c0 7.122 4.845 13.22 11.782 14.831 0 0 158.065 36.876 159.432 36.876 19.998 0 25.281-56.274 25.281-86.03s-5.284-86.03-25.281-86.03c-.002 0-.004 0-.006 0-.008 0-.016.001-.024.001-1.356.004-159.402 36.874-159.402 36.874-6.937 1.611-11.782 7.709-11.782 14.831v12.946h-11.544c-8.271 0-15 6.729-15 15v1.378h-24.56c-42.335 0-76.777 34.442-76.777 76.777s34.443 76.777 76.778 76.777h20.762v2c0 8.271 6.729 15 15 15h172.759c8.271 0 15-6.729 15-15v-2h20.762c36.821 0 66.777 29.956 66.777 66.777s-29.956 66.777-66.777 66.777h-24.56v-1.378c0-8.271-6.729-15-15-15h-11.544v-12.946c0-7.122-4.845-13.22-11.782-14.831 0 0-158.023-36.865-159.365-36.873-.022 0-.044-.003-.066-.003 0 0 0 0-.001 0-19.998 0-25.281 56.274-25.281 86.03s5.284 86.03 25.281 86.03c1.367 0 159.433-36.875 159.433-36.875 6.937-1.611 11.782-7.709 11.782-14.831v-12.946h11.544c8.271 0 15-6.729 15-15v-1.378h24.56c42.335 0 76.777-34.442 76.777-76.777s-34.444-76.776-76.779-76.776z"/></g><g><g><g><g><path d="m210.242 122.824h-34.756c-5.523 0-10-4.477-10-10v-12.756c0-5.523 4.477-10 10-10h34.756z" fill="#6583fe"/><g><path d="m192.03 72.122v68.648c0 4.756 3.28 8.884 7.913 9.96l158.302 36.746v-162.06l-158.302 36.746c-4.633 1.076-7.913 5.204-7.913 9.96z" fill="#fff"/><g fill="#ff7eb8"><path d="m250.704 64.527c0 12.085-9.795 21.886-21.881 21.886s-21.886-9.8-21.886-21.886c0-1.396.128-2.756.383-4.08l39.007-9.054c2.746 3.661 4.377 8.206 4.377 13.134z"/><path d="m332.742 37.534c0 12.085-9.795 21.881-21.881 21.881-10.761 0-19.708-7.766-21.538-18l42.586-9.882c.541 1.906.833 3.92.833 6.001z"/><path d="m252.923 147.285c0 5.547-2.065 10.613-5.47 14.473l-37.524-8.711c-.501-1.835-.767-3.768-.767-5.762 0-12.085 9.795-21.886 21.881-21.886 12.085 0 21.88 9.801 21.88 21.886z"/><circle cx="332.742" cy="143.579" r="21.883"/></g><ellipse cx="358.245" cy="106.446" fill="#6583fe" rx="20.281" ry="81.03"/><path d="m378.526 106.446c0 44.75-9.08 81.03-20.28 81.03-3.7 0-7.16-3.95-10.14-10.85-6.06-14.02-10.14-40.2-10.14-70.18s4.08-56.16 10.14-70.18c2.98-6.9 6.44-10.85 10.14-10.85 11.2 0 20.28 36.28 20.28 81.03z" fill="#6583fe"/><ellipse cx="348.106" cy="106.446" fill="#4369fd" rx="10.14" ry="70.18"/><circle cx="280.017" cy="103.517" fill="#ff7eb8" r="21.883"/></g></g></g></g><g><g><path d="m305.893 377.176h34.756c5.523 0 10 4.477 10 10v12.756c0 5.523-4.477 10-10 10h-34.756z" fill="#6583fe"/><g><path d="m324.105 427.878v-68.648c0-4.756-3.28-8.884-7.913-9.96l-158.302-36.746v162.06l158.302-36.746c4.633-1.076 7.913-5.204 7.913-9.96z" fill="#fff"/><g fill="#ff7eb8"><path d="m265.431 435.473c0-12.085 9.795-21.886 21.881-21.886s21.886 9.8 21.886 21.886c0 1.396-.128 2.756-.383 4.08l-39.007 9.054c-2.746-3.661-4.377-8.206-4.377-13.134z"/><path d="m183.394 462.466c0-12.085 9.795-21.881 21.881-21.881 10.761 0 19.708 7.766 21.538 18l-42.586 9.882c-.542-1.906-.833-3.92-.833-6.001z"/><path d="m263.212 352.715c0-5.547 2.065-10.613 5.47-14.473l37.524 8.711c.501 1.835.767 3.768.767 5.762 0 12.085-9.795 21.886-21.881 21.886-12.084 0-21.88-9.801-21.88-21.886z"/><circle cx="183.394" cy="356.421" r="21.883"/></g><ellipse cx="157.89" cy="393.554" fill="#6583fe" rx="20.281" ry="81.03"/><path d="m137.609 393.554c0-44.75 9.08-81.03 20.28-81.03 3.7 0 7.16 3.95 10.14 10.85 6.06 14.02 10.14 40.2 10.14 70.18s-4.08 56.16-10.14 70.18c-2.98 6.9-6.44 10.85-10.14 10.85-11.2 0-20.28-36.28-20.28-81.03z" fill="#6583fe"/><ellipse cx="168.029" cy="393.554" fill="#4369fd" rx="10.14" ry="70.18"/><circle cx="236.118" cy="396.483" fill="#ff7eb8" r="21.883"/></g></g></g></g><path d="m344.447 267h-172.759c-5.523 0-10-4.477-10-10v-14c0-5.523 4.477-10 10-10h172.759c5.523 0 10 4.477 10 10v14c0 5.523-4.477 10-10 10z" fill="#ff7eb8"/></g><path d="m451.986 249c-2.761 0-5-2.239-5-5 0-3.309-2.691-6-6-6-2.761 0-5-2.239-5-5s2.239-5 5-5c3.309 0 6-2.691 6-6 0-2.761 2.239-5 5-5s5 2.239 5 5c0 3.309 2.691 6 6 6 2.761 0 5 2.239 5 5s-2.239 5-5 5c-3.309 0-6 2.691-6 6 0 2.761-2.239 5-5 5z" fill="#01eca5"/><path d="m129.327 63.624c-2.761 0-5-2.239-5-5 0-3.309-2.691-6-6-6-2.761 0-5-2.239-5-5s2.239-5 5-5c3.309 0 6-2.691 6-6 0-2.761 2.239-5 5-5s5 2.239 5 5c0 3.309 2.691 6 6 6 2.761 0 5 2.239 5 5s-2.239 5-5 5c-3.309 0-6 2.691-6 6 0 2.761-2.239 5-5 5z" fill="#6583fe"/><path d="m60.014 314.68c-2.761 0-5-2.239-5-5 0-3.309-2.691-6-6-6-2.761 0-5-2.239-5-5s2.239-5 5-5c3.309 0 6-2.691 6-6 0-2.761 2.239-5 5-5s5 2.239 5 5c0 3.309 2.691 6 6 6 2.761 0 5 2.239 5 5s-2.239 5-5 5c-3.309 0-6 2.691-6 6 0 2.761-2.239 5-5 5z" fill="#ff7eb8"/><path d="m378.526 470.526c-1.28 0-2.559-.488-3.536-1.464l-11-11c-1.953-1.953-1.953-5.119 0-7.071l11-11c1.953-1.952 5.118-1.952 7.071 0l11 11c1.953 1.953 1.953 5.119 0 7.071l-11 11c-.976.976-2.255 1.464-3.535 1.464zm-3.929-16 3.929 3.929 3.929-3.929-3.929-3.929z" fill="#ff7eb8"/><path d="m389.526 328.524c-1.28 0-2.559-.488-3.536-1.464l-11-11c-1.953-1.953-1.953-5.119 0-7.071l11-11c1.953-1.952 5.118-1.952 7.071 0l11 11c1.953 1.953 1.953 5.119 0 7.071l-11 11c-.976.976-2.255 1.464-3.535 1.464zm-3.929-16 3.929 3.929 3.929-3.929-3.929-3.929z" fill="#6583fe"/></g></g><g fill="#2626bc"><path d="m401.684 109.748 21.286 4.92c.376.087.754.129 1.127.129 1.926 0 3.727-1.118 4.551-2.933l1.396-3.075 20.944 4.264c2.706.553 5.346-1.196 5.897-3.902s-1.196-5.346-3.902-5.897l-24.847-5.058c-2.287-.464-4.586.71-5.55 2.832l-1.352 2.976-17.299-3.999c-2.689-.621-5.376 1.055-5.998 3.746-.621 2.689 1.057 5.374 3.747 5.997z"/><path d="m402.815 85.079c.904 0 1.82-.245 2.644-.759l18.53-11.572c2.019-1.261 2.869-3.77 2.033-5.998l-1.187-3.162 17.825-11.794c2.303-1.524 2.935-4.626 1.411-6.929-1.524-2.302-4.626-2.933-6.929-1.411l-21.146 13.993c-1.944 1.286-2.741 3.745-1.922 5.927l1.148 3.06-15.06 9.404c-2.342 1.463-3.055 4.547-1.593 6.89.949 1.518 2.578 2.351 4.246 2.351z"/><path d="m423.989 140.145-18.53-11.572c-2.343-1.464-5.427-.75-6.889 1.592-1.463 2.342-.75 5.427 1.592 6.889l15.06 9.405-1.148 3.06c-.819 2.182-.022 4.641 1.922 5.927l21.146 13.993c.849.562 1.807.831 2.755.831 1.622 0 3.212-.788 4.174-2.241 1.524-2.303.892-5.405-1.411-6.929l-17.825-11.794 1.187-3.162c.836-2.23-.014-4.739-2.033-5.999z"/><path d="m158.539 469.3-.905.21c-1.094-.467-4.436-3.634-7.833-14.799-3.45-11.338-5.854-27.252-6.77-44.809-.144-2.758-2.5-4.887-5.253-4.733-2.758.144-4.877 2.496-4.733 5.253.602 11.542 4.627 69.095 24.813 69.159.01 0 .019.002.029.002.021 0 .042-.003.062-.004 1.346-.007 2.623-.276 3.838-.769l155.537-36.104c6.937-1.611 11.782-7.709 11.782-14.831v-12.946h11.544c8.271 0 15-6.729 15-15v-1.378h24.56c42.335 0 76.777-34.442 76.777-76.777s-34.443-76.774-76.778-76.774h-20.762v-2c0-8.271-6.729-15-15-15h-105.283c-2.761 0-5 2.239-5 5s2.239 5 5 5h105.284c2.757 0 5 2.243 5 5v14c0 2.757-2.243 5-5 5h-172.76c-2.757 0-5-2.243-5-5v-14c0-2.757 2.243-5 5-5h33.815c2.761 0 5-2.239 5-5s-2.239-5-5-5h-33.815c-8.271 0-15 6.729-15 15v2h-20.762c-36.821 0-66.777-29.956-66.777-66.777s29.956-66.777 66.777-66.777h24.56v1.378c0 8.271 6.729 15 15 15h11.544v12.945c0 7.122 4.845 13.221 11.782 14.831l155.537 36.105c1.215.492 2.492.761 3.838.769.021 0 .042.004.062.004.01 0 .019-.002.028-.002 19.97-.062 25.248-56.289 25.248-86.029 0-29.756-5.284-86.03-25.281-86.03-.028 0-.055.003-.083.004-.035.001-.07.003-.106.005-1.298.023-2.532.287-3.708.763l-155.535 36.103c-6.937 1.611-11.782 7.709-11.782 14.831v12.946h-11.544c-8.271 0-15 6.729-15 15v1.378h-24.56c-42.335 0-76.777 34.442-76.777 76.777s34.442 76.776 76.777 76.776h20.762v2c0 8.271 6.729 15 15 15h172.759c8.271 0 15-6.729 15-15v-2h20.762c36.821 0 66.777 29.956 66.777 66.777s-29.956 66.777-66.777 66.777h-24.56v-1.378c0-8.271-6.729-15-15-15h-11.544v-12.946c0-7.121-4.845-13.22-11.782-14.831l-155.539-36.105c-1.173-.475-2.405-.738-3.7-.762-.039-.001-.078-.005-.117-.005-.026 0-.051-.003-.077-.003-20.117 0-24.205 57.237-24.82 68.711-.148 2.757 1.967 5.112 4.725 5.26 2.754.146 5.113-1.967 5.26-4.725.936-17.453 3.346-33.258 6.786-44.505 3.384-11.064 6.705-14.204 7.793-14.668l.903.21c1.609 1.102 5.366 5.77 8.843 19.664 3.734 14.919 5.791 34.836 5.791 56.083s-2.057 41.164-5.791 56.083c-3.476 13.89-7.231 18.56-8.841 19.663zm209.197-418.937c3.734 14.919 5.791 34.836 5.791 56.083s-2.057 41.164-5.791 56.083c-3.789 15.137-7.907 19.323-9.22 19.877l-.919-.213c-1.61-1.104-5.366-5.773-8.842-19.664-3.734-14.919-5.791-34.836-5.791-56.083s2.057-41.164 5.791-56.083c3.477-13.891 7.232-18.56 8.842-19.664l.919-.213c1.313.555 5.431 4.74 9.22 19.877zm-170.706 21.759c0-2.444 1.663-4.537 4.043-5.089l142.652-33.113c-8.22 18.534-10.761 51.899-10.761 72.526s2.541 53.993 10.761 72.527l-142.651-33.114c-2.38-.552-4.043-2.645-4.043-5.089v-68.648zm-26.544 27.946c0-2.757 2.243-5 5-5h11.544v22.756h-11.544c-2.757 0-5-2.243-5-5zm170.163 282.108c2.757 0 5 2.243 5 5v12.756c0 2.757-2.243 5-5 5h-11.544v-22.756zm-168.238-61.148 142.651 33.114c2.381.553 4.043 2.646 4.043 5.089v68.647c0 2.444-1.663 4.537-4.043 5.089l-142.651 33.113c8.22-18.534 10.761-51.899 10.761-72.526-.001-20.627-2.542-53.993-10.761-72.526z"/><path d="m114.452 390.252-21.286-4.92c-2.319-.536-4.695.637-5.678 2.804l-1.397 3.075-20.944-4.264c-2.704-.555-5.346 1.195-5.897 3.902-.551 2.706 1.196 5.346 3.902 5.897l24.847 5.058c.334.068.668.101 1 .101 1.929 0 3.728-1.121 4.55-2.933l1.352-2.976 17.299 3.999c2.69.621 5.376-1.055 5.998-3.746.621-2.689-1.056-5.374-3.746-5.997z"/><path d="m117.567 417.273c-1.463-2.342-4.547-3.055-6.89-1.593l-18.53 11.572c-2.019 1.261-2.869 3.77-2.033 5.998l1.187 3.162-17.825 11.795c-2.303 1.524-2.935 4.626-1.411 6.929.962 1.454 2.553 2.241 4.174 2.241.947 0 1.906-.269 2.755-.831l21.146-13.993c1.943-1.286 2.741-3.745 1.922-5.927l-1.148-3.06 15.06-9.404c2.342-1.462 3.055-4.547 1.593-6.889z"/><path d="m100.141 344.555-21.146-13.993c-2.303-1.523-5.405-.893-6.929 1.411-1.524 2.303-.892 5.405 1.411 6.929l17.825 11.795-1.187 3.162c-.836 2.228.014 4.737 2.033 5.998l18.53 11.572c.824.515 1.739.76 2.644.76 1.667 0 3.297-.833 4.246-2.352 1.463-2.342.75-5.427-1.592-6.889l-15.06-9.405 1.148-3.06c.817-2.184.02-4.642-1.923-5.928z"/></g></g></svg>