<svg id="Capa_1" enable-background="new 0 0 512 512" height="512" viewBox="0 0 512 512" width="512" xmlns="http://www.w3.org/2000/svg" xmlns:xlink="http://www.w3.org/1999/xlink"><linearGradient id="SVGID_1_" gradientUnits="userSpaceOnUse" x1="220.073" x2="264.073" y1="42.345" y2="308.345"><stop offset="0" stop-color="#c7d3ff"/><stop offset=".593" stop-color="#e7d8f5"/><stop offset=".997" stop-color="#ffdbed"/></linearGradient><path d="m501.873 144.75c-22.357-56.888-91.226-91.003-149.556-68.427-66.582 25.769-44.506 131.673-104.983 153.088-32.669 11.568-80.963-31.644-113.969-38.271-60.821-12.21-115.881 30.705-129.439 90.135-13.832 60.63 8.353 141.61 74.967 158.066 79.35 19.602 120.683-51.729 187.249-72.211 68.31-21.019 144.263 28.622 200.814-31.776 41.78-44.621 57.055-134.272 34.917-190.604z" fill="url(#SVGID_1_)"/><path d="m410.473 372.045h-20.711v-193.15c0-11.52-9.33-20.85-20.84-20.85h-267.85c-11.51 0-20.84 9.33-20.84 20.85v193.15h-20.707c-6.89 0-12.476 5.586-12.476 12.476v11.465c0 12.09 9.797 21.898 21.898 21.898h332.104c12.101 0 21.898-9.807 21.898-21.898v-11.465c0-6.89-5.586-12.476-12.476-12.476z" fill="#2626bc" opacity=".11"/><path d="m410.763 157.895v208.93c0 2.76-2.24 5-5 5h-304.53v-213.93c0-11.52 9.33-20.85 20.84-20.85h267.85c11.51 0 20.84 9.33 20.84 20.85z" fill="#b7c5ff"/><path d="m101.231 187.181h309.537v139.017h-309.537z" fill="#6583fe"/><path d="m410.763 326.197v40.63c0 2.76-2.24 5-5 5h-304.53v-45.63z" fill="#01eca5"/><path d="m443.949 363.521v11.465c0 12.09-9.797 21.898-21.898 21.898h-332.104c-12.101 0-21.898-9.808-21.898-21.898v-11.465c0-6.89 5.586-12.476 12.476-12.476h107.067c1.849 0 3.548 1.021 4.416 2.654l6.56 12.348c.868 1.633 2.566 2.654 4.416 2.654h106.031c1.849 0 3.548-1.021 4.416-2.654l6.56-12.348c.868-1.633 2.566-2.654 4.415-2.654h107.067c6.89 0 12.476 5.586 12.476 12.476z" fill="#97ffd2"/><path d="m443.95 363.517v11.47c0 12.09-9.8 21.9-21.9 21.9h-14.72c12.1 0 21.9-9.81 21.9-21.9v-11.47c0-6.89-5.59-12.47-12.48-12.47h14.72c6.89 0 12.48 5.58 12.48 12.47z" fill="#dcfdee"/><path d="m149.65 369.164h-43.333c-2.761 0-5-2.239-5-5v-13.118h53.333v13.118c0 2.761-2.239 5-5 5z" fill="#ff7eb8"/><path d="m405.558 369.164h-43.333c-2.761 0-5-2.239-5-5v-13.118h53.333v13.118c0 2.761-2.239 5-5 5z" fill="#ff7eb8"/><path d="m133.062 298.187c0 2.761 2.239 5 5 5h235.875c2.761 0 5-2.239 5-5 0-2.761-2.239-5-5-5h-235.874c-2.762 0-5.001 2.239-5.001 5z" fill="#ffa8cf"/><path d="m207.5 182.181h-69.438c-2.761 0-5 2.239-5 5 0 2.761 2.239 5 5 5h69.438c2.761 0 5-2.239 5-5 0-2.762-2.239-5-5-5z" fill="#ff7eb8"/><path d="m156.5 199.11h-18.438c-2.761 0-5 2.239-5 5 0 2.761 2.239 5 5 5h18.438c2.761 0 5-2.239 5-5 0-2.762-2.239-5-5-5z" fill="#ffa8cf"/><path d="m212.5 293.187h-74.438c-2.761 0-5 2.239-5 5s2.239 5 5 5h74.438z" fill="#ff7eb8"/><path d="m234.778 224.366v34.2c0 4.146 4.485 6.741 8.079 4.674l29.742-17.1c3.606-2.073 3.606-7.275 0-9.348l-29.742-17.1c-3.594-2.067-8.079.528-8.079 4.674z" fill="#ffdbed"/><g fill="#ff7eb8"><circle cx="138.652" cy="168.743" r="5.59"/><circle cx="155.563" cy="168.743" r="5.59"/><circle cx="172.473" cy="168.743" r="5.59"/></g><path d="m294.21 103.665c-3.74 0-7.479-1.423-10.326-4.27-5.694-5.694-5.694-14.958 0-20.652 5.693-5.694 14.958-5.693 20.652 0 5.693 5.693 5.693 14.958 0 20.651-2.847 2.847-6.587 4.271-10.326 4.271zm6.79-7.806h.01zm-6.79-11.391c-1.179 0-2.357.449-3.255 1.346-1.794 1.794-1.794 4.715 0 6.51 1.795 1.794 4.714 1.794 6.509 0 1.794-1.794 1.794-4.715 0-6.509-.897-.898-2.075-1.347-3.254-1.347z" fill="#01eca5"/><path d="m354.225 104.171h-3.25v-3.25c0-2.761-2.239-5-5-5s-5 2.239-5 5v3.25h-3.25c-2.761 0-5 2.239-5 5s2.239 5 5 5h3.25v3.25c0 2.761 2.239 5 5 5s5-2.239 5-5v-3.25h3.25c2.761 0 5-2.239 5-5s-2.239-5-5-5z" fill="#ff7eb8"/><path d="m76.3 162.461h-3.25v-3.25c0-2.761-2.239-5-5-5s-5 2.239-5 5v3.25h-3.25c-2.761 0-5 2.239-5 5s2.239 5 5 5h3.25v3.25c0 2.761 2.239 5 5 5s5-2.239 5-5v-3.25h3.25c2.761 0 5-2.239 5-5s-2.239-5-5-5z" fill="#8399fe"/><path d="m216.077 441.611c-3.9 0-7.568-1.519-10.326-4.277-5.693-5.694-5.693-14.958 0-20.651 5.694-5.693 14.958-5.693 20.652 0 5.693 5.694 5.693 14.958 0 20.651-2.758 2.758-6.425 4.277-10.326 4.277zm0-19.204c-1.179 0-2.357.449-3.255 1.346-1.794 1.794-1.794 4.714 0 6.509.87.87 2.025 1.349 3.255 1.349s2.385-.479 3.254-1.348c1.794-1.794 1.794-4.714 0-6.509-.896-.898-2.075-1.347-3.254-1.347z" fill="#01eca5"/><path d="m50.21 332.017c-3.74 0-7.479-1.423-10.326-4.27-5.694-5.693-5.694-14.958 0-20.651 5.695-5.695 14.959-5.693 20.652 0 5.693 5.694 5.693 14.958 0 20.652-2.847 2.846-6.587 4.269-10.326 4.269zm0-19.197c-1.179 0-2.357.449-3.255 1.346-1.794 1.794-1.794 4.715 0 6.509 1.795 1.795 4.715 1.795 6.509 0 1.794-1.794 1.794-4.715 0-6.51-.897-.896-2.075-1.345-3.254-1.345z" fill="#ff7eb8"/><path d="m431.473 346.045h-15.706v-188.151c0-14.251-11.594-25.845-25.845-25.845h-267.846c-14.251 0-25.845 11.594-25.845 25.845v60.689c0 2.761 2.239 5 5 5s5-2.239 5-5v-60.689c0-8.737 7.108-15.845 15.845-15.845h267.847c8.737 0 15.845 7.108 15.845 15.845v163.304h-299.538v-74.516c0-2.761-2.239-5-5-5s-5 2.239-5 5v99.363h-15.705c-9.636 0-17.476 7.84-17.476 17.476v11.464c0 14.832 12.066 26.898 26.897 26.898h245.366c2.761 0 5-2.239 5-5s-2.239-5-5-5h-245.365c-9.317 0-16.897-7.581-16.897-16.898v-11.464c0-4.123 3.354-7.476 7.476-7.476h15.791v8.118c0 5.514 4.486 10 10 10h43.333c5.514 0 10-4.486 10-10v-8.118h27.943l6.56 12.347c1.739 3.274 5.124 5.309 8.831 5.309h106.032c3.708 0 7.092-2.034 8.831-5.308l6.56-12.348h27.818v8.118c0 5.514 4.486 10 10 10h43.333c5.514 0 10-4.486 10-10v-8.118h15.915c4.122 0 7.476 3.354 7.476 7.476v11.465c0 9.317-7.58 16.898-16.897 16.898h-58.639c-2.761 0-5 2.239-5 5s2.239 5 5 5h58.639c14.831 0 26.897-12.066 26.897-26.898v-11.465c0-9.636-7.84-17.476-17.476-17.476zm-281.817 18.118h-43.339v-8.118h43.335zm165.919-12.809-6.56 12.347h-106.032l-6.56-12.347c-1.739-3.274-5.124-5.309-8.831-5.309h-81.362v-14.847h299.537v14.847h-81.361c-3.707 0-7.092 2.035-8.831 5.309zm89.989 12.809h-43.34v-8.118h43.336z" fill="#2626bc"/><path d="m264.67 342.164h-17.341c-2.761 0-5 2.239-5 5s2.239 5 5 5h17.341c2.761 0 5-2.239 5-5s-2.239-5-5-5z" fill="#2626bc"/><path d="m376.554 175.437c0-9.161-7.453-16.613-16.613-16.613s-16.613 7.453-16.613 16.613c0 4.518 1.818 8.615 4.755 11.613-2.936 2.998-4.755 7.095-4.755 11.613 0 2.761 2.239 5 5 5s5-2.239 5-5c0-3.646 2.967-6.613 6.613-6.613s6.613 2.967 6.613 6.613c0 2.761 2.239 5 5 5s5-2.239 5-5c0-4.518-1.818-8.615-4.755-11.613 2.937-2.998 4.755-7.096 4.755-11.613zm-16.614-6.614c3.646 0 6.613 2.967 6.613 6.613s-2.967 6.613-6.613 6.613-6.613-2.967-6.613-6.613 2.967-6.613 6.613-6.613z" fill="#ff7eb8"/></svg>