<svg id="Capa_1" enable-background="new 0 0 512 512" height="512" viewBox="0 0 512 512" width="512" xmlns="http://www.w3.org/2000/svg" xmlns:xlink="http://www.w3.org/1999/xlink"><linearGradient id="SVGID_1_" gradientUnits="userSpaceOnUse" x1="48.606" x2="438.791" y1="463.622" y2="-1.382"><stop offset="0" stop-color="#d2deff" stop-opacity="0"/><stop offset=".6852" stop-color="#d2deff"/></linearGradient><g><g><path d="m418.32 2.5c-55.666-9.521-178.298 12.183-200.004 105.017-14.431 61.722-14.007 112.075-50.427 113.02-21.67.562-32.97-44.31-62.889-48.001-39.047-4.817-66.145 27.695-83.057 57.138-37.205 64.772-25.571 174.918 23.354 228.632 118.488 130.086 259.197-5.952 319.358-112.309 38.585-68.213 125.637-123.352 143.767-200.248 15.177-64.376-18.503-131.003-90.102-143.249z" fill="url(#SVGID_1_)"/></g><g><g><g><g><g><path d="m455.47 452.133h-398.94c-8.284 0-15-6.716-15-15v-314.266c0-8.284 6.716-15 15-15h398.94c8.284 0 15 6.716 15 15v314.266c0 8.285-6.715 15-15 15z" fill="#2626bc" opacity=".1"/><path d="m455.47 428.133h-398.94c-8.284 0-15-6.716-15-15v-314.266c0-8.284 6.716-15 15-15h398.94c8.284 0 15 6.716 15 15v314.266c0 8.285-6.715 15-15 15z" fill="#fff"/><path d="m470.47 256.315v-157.448c0-8.284-6.716-15-15-15h-398.94c-8.284 0-15 6.716-15 15v157.449h428.94z" fill="#2d58e0"/><path d="m470.47 153.18v-54.313c0-8.284-6.716-15-15-15h-398.94c-8.284 0-15 6.716-15 15v54.313z" fill="#01eca5"/><path d="m455.471 433.133h-398.941c-11.028 0-20-8.972-20-20v-314.266c0-11.028 8.972-20 20-20h398.941c11.028 0 20 8.972 20 20v314.266c0 11.028-8.972 20-20 20zm-398.941-344.266c-5.514 0-10 4.486-10 10v314.266c0 5.514 4.486 10 10 10h398.941c5.514 0 10-4.486 10-10v-314.266c0-5.514-4.486-10-10-10z" fill="#2626bc"/></g><g><g><circle cx="85.623" cy="120.768" fill="#ff5ba8" r="10.901"/><circle cx="120.424" cy="120.768" fill="#fff" r="10.901"/><circle cx="155.224" cy="120.768" fill="#97ffd2" r="10.901"/></g><path d="m432.277 133.015h-136.158v-24.495h136.159c2.761 0 5 2.239 5 5v14.496c-.001 2.761-2.239 4.999-5.001 4.999z" fill="#dcfdee"/><path d="m296.789 108.831c-5.286-5.286-13.887-5.286-19.173 0s-5.286 13.887 0 19.173c4.037 4.037 10.003 4.98 14.953 2.852l4.348 4.348c1.952 1.952 5.119 1.952 7.071 0s1.952-5.119 0-7.071l-4.348-4.348c2.129-4.951 1.186-10.917-2.851-14.954zm-12.102 7.071c1.387-1.387 3.644-1.387 5.031 0s1.387 3.644 0 5.031-3.644 1.387-5.031 0-1.387-3.644 0-5.031z" fill="#fff"/></g></g></g><path d="m315.078 231.84h-118.156c-2.761 0-5-2.239-5-5v-16.706c0-2.761 2.239-5 5-5h118.156c2.761 0 5 2.239 5 5v16.706c0 2.762-2.239 5-5 5z" fill="#fff"/><g><g><path d="m97.253 172.806h-23.68c-2.761 0-5 2.239-5 5s2.239 5 5 5h23.681c2.761 0 5-2.239 5-5s-2.24-5-5.001-5z" fill="#fff"/></g><g><g><path d="m258.063 280.53h-53.681c-2.761 0-5 2.239-5 5s2.239 5 5 5h53.681c2.761 0 5-2.239 5-5s-2.239-5-5-5z" fill="#9fb0fe"/></g><g><path d="m307.618 280.53h-23.681c-2.761 0-5 2.239-5 5s2.239 5 5 5h23.681c2.761 0 5-2.239 5-5s-2.239-5-5-5z" fill="#02ffb3"/></g></g><g><path d="m122.105 172.806h-23.681c-2.761 0-5 2.239-5 5s2.239 5 5 5h23.681c2.761 0 5-2.239 5-5s-2.239-5-5-5z" fill="#02ffb3"/></g></g><g><g><path d="m180.205 407.984h-81.54c-2.761 0-5-2.239-5-5v-81.54c0-2.761 2.239-5 5-5h81.54c2.761 0 5 2.239 5 5v81.54c0 2.761-2.239 5-5 5z" fill="#d2deff"/><path d="m180.205 407.984h-81.54c-2.761 0-5-2.239-5-5v-14.545h91.54v14.545c0 2.761-2.239 5-5 5z" fill="#8399fe"/></g><g><path d="m296.77 407.984h-81.54c-2.761 0-5-2.239-5-5v-81.54c0-2.761 2.239-5 5-5h81.54c2.761 0 5 2.239 5 5v81.54c0 2.761-2.238 5-5 5z" fill="#ffdbed"/><path d="m296.77 407.984h-81.54c-2.761 0-5-2.239-5-5v-14.545h91.54v14.545c0 2.761-2.238 5-5 5z" fill="#ff7eb8"/></g><g><path d="m413.336 407.984h-81.54c-2.761 0-5-2.239-5-5v-81.54c0-2.761 2.239-5 5-5h81.54c2.761 0 5 2.239 5 5v81.54c0 2.761-2.239 5-5 5z" fill="#dcfdee"/><path d="m413.336 407.984h-81.54c-2.761 0-5-2.239-5-5v-14.545h91.54v14.545c0 2.761-2.239 5-5 5z" fill="#01eca5"/></g></g><g><path d="m442.652 188c0-9.16-7.453-16.613-16.613-16.613s-16.613 7.453-16.613 16.613c0 4.518 1.818 8.615 4.755 11.613-2.936 2.998-4.755 7.095-4.755 11.613 0 2.761 2.239 5 5 5s5-2.239 5-5c0-3.646 2.967-6.613 6.613-6.613s6.613 2.967 6.613 6.613c0 2.761 2.239 5 5 5s5-2.239 5-5c0-4.518-1.818-8.615-4.755-11.613 2.937-2.997 4.755-7.095 4.755-11.613zm-16.613-6.613c3.646 0 6.613 2.966 6.613 6.613s-2.967 6.613-6.613 6.613-6.613-2.967-6.613-6.613 2.966-6.613 6.613-6.613z" fill="#fff"/></g></g><path d="m437.277 48.87c-7.88 0-14.291-6.411-14.291-14.291 0-7.881 6.411-14.292 14.291-14.292 7.881 0 14.292 6.411 14.292 14.292 0 7.88-6.411 14.291-14.292 14.291zm0-18.583c-2.366 0-4.291 1.926-4.291 4.292s1.925 4.291 4.291 4.291 4.292-1.925 4.292-4.291-1.925-4.292-4.292-4.292z" fill="#ff5ba8"/><path d="m128.306 480.713c-7.88 0-14.292-6.411-14.292-14.292 0-7.88 6.411-14.291 14.292-14.291s14.292 6.411 14.292 14.291c0 7.881-6.411 14.292-14.292 14.292zm0-18.583c-2.366 0-4.292 1.925-4.292 4.291s1.925 4.292 4.292 4.292 4.292-1.926 4.292-4.292-1.926-4.291-4.292-4.291z" fill="#ff5ba8"/><path d="m174.79 480.713c-7.88 0-14.292-6.411-14.292-14.292 0-7.88 6.411-14.291 14.292-14.291s14.292 6.411 14.292 14.291c-.001 7.881-6.412 14.292-14.292 14.292zm0-18.583c-2.366 0-4.292 1.925-4.292 4.291s1.925 4.292 4.292 4.292 4.292-1.926 4.292-4.292-1.926-4.291-4.292-4.291z" fill="#01eca5"/><path d="m210.23 53.536c-2.761 0-5-2.238-5-5 0-3.309-2.691-6-6-6-2.761 0-5-2.238-5-5s2.239-5 5-5c3.309 0 6-2.691 6-6 0-2.762 2.239-5 5-5s5 2.238 5 5c0 3.309 2.691 6 6 6 2.761 0 5 2.238 5 5s-2.239 5-5 5c-3.309 0-6 2.691-6 6 0 2.762-2.239 5-5 5z" fill="#01eca5"/><path d="m160.065 64.827c-2.761 0-5-2.238-5-5 0-3.309-2.691-6-6-6-2.761 0-5-2.238-5-5s2.239-5 5-5c3.309 0 6-2.691 6-6 0-2.762 2.239-5 5-5s5 2.238 5 5c0 3.309 2.691 6 6 6 2.761 0 5 2.238 5 5s-2.239 5-5 5c-3.309 0-6 2.691-6 6 0 2.762-2.239 5-5 5z" fill="#6583fe"/></g></g></svg>