<svg id="Capa_1" enable-background="new 0 0 511.999 511.999" height="512" viewBox="0 0 511.999 511.999" width="512" xmlns="http://www.w3.org/2000/svg"><g><path d="m204.717 182.941c-2.986 2.869-3.082 7.617-.212 10.604l10.535 10.966c2.872 2.988 7.619 3.081 10.604.212 2.986-2.869 3.082-7.617.212-10.604l-10.535-10.966c-2.87-2.987-7.618-3.081-10.604-.212z"/><path d="m315.957 253.07c3.606 2.054 8.183.792 10.23-2.801 2.052-3.599.797-8.179-2.801-10.23l-12.212-6.962c-3.599-2.051-8.18-.798-10.23 2.801-2.052 3.599-.797 8.179 2.801 10.23z"/><path d="m92.73.09c-38.624 1.837-69.892 33.111-71.68 71.779-1.34 28.992 13.615 55.691 39.026 69.678 1.271.7 2.352 1.87 3.043 3.296l11.919 24.575c-24.951 36.469-38.116 79.071-38.116 123.506 0 .172.006.343.006.515.266 119.539 96.119 216.716 215.676 218.522l.133.002c120.563 2.168 222.34-95.332 222.34-219.039 0-44.435-13.166-87.037-38.117-123.507l11.919-24.575c.69-1.424 1.778-2.598 3.063-3.306 24.11-13.282 39.088-38.609 39.088-66.099 0-43.102-35.926-77.429-79.107-75.348-38.624 1.837-69.892 33.111-71.68 71.779-.307 6.65.252 13.176 1.589 19.459-2.262-.965-4.69-1.952-7.011-2.849-19.51-7.522-39.739-12.148-60.71-13.869-4.132-.34-7.749 2.732-8.088 6.861-.339 4.128 2.733 7.749 6.861 8.088 14.454 1.186 28.562 3.872 42.229 7.999-10.358 9.402-12.423 19.845-11.953 27.828 1.238 21.042 16.685 27.222 26.905 31.312 8.278 3.312 10.065 4.546 10.065 6.951 0 3.279-5.119 5.952-12.929 9.655-10.504 4.981-26.379 12.509-24.043 30.854 2.763 21.698 22.162 23.951 42.626 24.963-.378 2.166-.587 4.389-.587 6.662 0 21.305 17.333 38.638 38.638 38.638 7.908 0 15.266-2.392 21.396-6.485 10.445 3.537 12.838 5.695 12.35 10.144-.208 1.897-.695 6.341-11.502 9.246-8.522 2.291-19.941 2.738-30.984 3.171-9.748.382-18.954.742-26.383 2.338-10.809 2.323-16.854 7.4-17.966 15.092-1.646 11.381-5.573 18.764-9.039 25.277-8.024 15.081-11.256 25.697 11.479 45.906 8.33 7.405 17.804 13.62 26.965 19.631 16.76 10.996 32.656 21.435 40.505 37.987-8.229 8.277-17.157 15.858-26.695 22.637-25.342-33.326-52.943-19.948-75.368-9.073-7.037 3.412-13.684 6.636-20.207 8.629-15.767 4.818-27.005 18.148-32.09 37.843-10.871-.511-21.523-1.874-31.889-4.029 2.31-15.498 2.486-35.927.505-60.927l-.067-.778c-.341-4.128-3.967-7.193-8.091-6.858-4.128.34-7.198 3.962-6.858 8.091l.065.75c1.835 23.149 1.773 41.97-.175 56.113-85.57-24.551-147.678-103.356-147.862-195.798 0-.135-.004-.27-.004-.405 0-38.475 10.592-75.47 30.748-107.768l1.458 3.006c2.303 4.75 7.011 7.688 12.271 7.688h.001c5.269 0 9.973-2.945 12.273-7.688l21.011-43.319c1.275-2.631 3.172-3.319 5.346-4.618 11.177-6.667 20.967-16.448 27.694-28.847 2.979-1.535 5.328-2.637 6.66-3.263 9.88 8.635 20.16 14.023 30.616 16.037 10.026 1.932 14.626 5.448 14.736 8.076.138 3.271-5.249 9.573-15.35 12.417-15.719 4.425-28.258 14.954-32.723 27.479-2.988 8.385-1.99 16.772 2.812 23.621 3.04 4.334 7 8.071 10.829 11.686 11.513 10.866 12.423 13.41 6.955 19.445-4.088 4.513-12.019 6.908-20.461 8.874-.018-21.166-17.203-38.604-38.638-38.604-21.305 0-38.638 17.333-38.638 38.638 0 19.145 14.134 35.487 33.083 38.239-2.49 7.437-7.39 13.128-12.165 18.677-5.9 6.854-12.001 13.943-10.619 23.19 1.165 7.792 7.356 14.851 20.077 22.888 10.461 6.609 20.631 10.998 29.604 14.87 21.175 9.138 36.475 15.74 44.844 45.058 1.138 3.984 5.29 6.29 9.271 5.153 3.983-1.137 6.29-5.288 5.153-9.271-10.321-36.155-31.21-45.17-53.324-54.713-8.882-3.833-18.065-7.796-27.535-13.779-11.358-7.176-13.053-11.078-13.254-12.423-.366-2.453 3.456-6.894 7.152-11.188 5.967-6.932 13.866-16.119 16.539-29.436 11.077-3.032 20.178-10.878 24.912-21.142 13.052-2.858 26.674-5.641 35.117-14.96 8.862-9.782 7.836-18.585 5.415-24.246-2.674-6.252-8.021-11.298-13.191-16.178-3.284-3.1-6.68-6.305-8.844-9.39-1.987-2.835-2.312-6.189-.964-9.972 2.816-7.899 11.71-14.994 22.658-18.076 15.961-4.494 26.764-15.797 26.271-27.487-.27-6.399-4.12-17.789-26.885-22.174-5.855-1.128-11.766-3.796-17.663-7.944 17.264-6.395 35.317-10.394 53.936-11.921 4.128-.338 7.2-3.959 6.861-8.088-.339-4.128-3.936-7.208-8.088-6.861-23.56 1.931-46.272 7.557-67.754 16.731 1.116-5.168 1.705-10.493 1.705-15.904.005-43.038-35.861-77.43-79.102-75.345zm262.499 72.473c1.422-30.774 26.639-56.027 57.408-57.49 34.712-1.631 63.395 25.885 63.395 60.365 0 22.022-12.003 42.316-31.326 52.96-4.035 2.224-7.259 5.646-9.321 9.897l-13.839 28.533c0 .001-.001.001-.001.002l-5.947 12.263-19.787-40.797c-2.063-4.253-5.28-7.673-9.305-9.889-11.136-6.132-19.216-14.857-24.968-25.949-4.783-9.543-6.78-19.706-6.309-29.895zm28.608 186.859c-13.034 0-23.638-10.604-23.638-23.638 0-13.091 10.712-23.638 23.638-23.638 13.034 0 23.638 10.604 23.638 23.638 0 13.001-10.569 23.638-23.638 23.638zm-15.455 126.778c-9.111-5.978-17.718-11.624-25.229-18.3-7.805-6.938-11.86-12.146-12.397-15.923-.412-2.897 1.155-6.014 4.195-11.727 3.639-6.84 8.623-16.206 10.649-30.229.01-.017 1.132-1.675 8.128-2.879 5.991-1.032 13.745-1.336 21.955-1.657 24.155-.946 54.219-2.124 56.81-25.771 1.433-13.066-6.881-19.555-15.862-23.499 3.638-5.832 5.844-12.949 5.844-20.433 0-21.305-17.333-38.638-38.638-38.638-13.308 0-25.229 6.839-32.192 17.275-20.557-1.337-32.155-.779-33.604-12.157-.871-6.843 4.082-9.949 15.59-15.406 9.58-4.543 21.502-10.196 21.502-23.209 0-13.078-11.267-17.586-19.493-20.878-10.431-4.174-16.857-7.289-17.503-18.266-.481-8.183 4.274-15.205 14.146-20.905 5.952 2.407 11.579 5.003 16.913 7.746 6.744 12.477 17.026 23.017 30.076 30.2 1.271.7 2.352 1.87 3.043 3.296l21.01 43.318c2.303 4.75 7.011 7.688 12.271 7.688h.002c5.257 0 9.967-2.935 12.272-7.688 1.288-2.656.971-2.003 1.456-3.003 20.158 32.302 30.752 69.296 30.752 107.765 0 47.234-16.314 94.1-48.652 132.093-10.115-17.204-26.81-28.161-43.044-38.813zm-85.61 87.069c7.638-2.334 15.127-5.966 22.369-9.479 22.17-10.751 38.64-18.732 56.26 3.826-30.168 18.27-64.292 28.299-99.547 29.296 3.212-10.046 9.324-20.101 20.918-23.643zm-157.261-344.871c-4.035 2.224-7.259 5.646-9.321 9.897l-19.787 40.798-19.787-40.797c-2.063-4.253-5.28-7.673-9.305-9.889-20.366-11.21-32.351-32.608-31.276-55.845 1.422-30.774 26.639-56.027 57.408-57.49 34.717-1.631 63.395 25.894 63.395 60.365-.001 22.032-12.01 42.321-31.327 52.961zm26.286 107.456c-.042 13.054-10.688 23.568-23.635 23.568-13.034 0-23.638-10.604-23.638-23.638s10.604-23.638 23.638-23.638c13.033 0 23.637 10.604 23.637 23.638 0 .024-.002.047-.002.07z"/><path d="m96.403 33.97c-22.865 0-41.468 18.603-41.468 41.468s18.603 41.467 41.468 41.467 41.467-18.602 41.467-41.467-18.602-41.468-41.467-41.468zm0 67.935c-14.595 0-26.468-11.873-26.468-26.467 0-14.595 11.873-26.468 26.468-26.468 14.594 0 26.467 11.873 26.467 26.468-.001 14.593-11.874 26.467-26.467 26.467z"/><path d="m415.597 116.905c22.865 0 41.467-18.602 41.467-41.467s-18.602-41.468-41.467-41.468-41.468 18.603-41.468 41.468 18.603 41.467 41.468 41.467zm0-67.935c14.594 0 26.467 11.873 26.467 26.468 0 14.594-11.873 26.467-26.467 26.467-14.595 0-26.468-11.873-26.468-26.467 0-14.595 11.873-26.468 26.468-26.468z"/></g></svg>