<?xml version="1.0" encoding="utf-8"?>
<!-- Generator: Adobe Illustrator 22.0.1, SVG Export Plug-In . SVG Version: 6.00 Build 0)  -->
<svg version="1.1" id="Layer_1" xmlns="http://www.w3.org/2000/svg" xmlns:xlink="http://www.w3.org/1999/xlink" x="0px" y="0px"
	 viewBox="0 0 1920 1085" style="enable-background:new 0 0 1920 1085;" xml:space="preserve">
<style type="text/css">
	.st0{display:none;fill:#FF31B1;}
	.st1{display:none;}
	.st2{fill:none;}
	
		.st3{opacity:0.5;fill:none;stroke:#FFFFFF;stroke-width:1.1707;stroke-linecap:round;stroke-linejoin:round;stroke-miterlimit:10;enable-background:new    ;}
	
		.st4{opacity:0.5;fill:none;stroke:#FFFFFF;stroke-width:1.1484;stroke-linecap:round;stroke-linejoin:round;stroke-miterlimit:10;enable-background:new    ;}
	
		.st5{opacity:0.5;fill:none;stroke:#FFFFFF;stroke-width:1.1261;stroke-linecap:round;stroke-linejoin:round;stroke-miterlimit:10;enable-background:new    ;}
	
		.st6{opacity:0.5;fill:none;stroke:#FFFFFF;stroke-width:1.1038;stroke-linecap:round;stroke-linejoin:round;stroke-miterlimit:10;enable-background:new    ;}
	
		.st7{opacity:0.5;fill:none;stroke:#FFFFFF;stroke-width:1.0815;stroke-linecap:round;stroke-linejoin:round;stroke-miterlimit:10;enable-background:new    ;}
	
		.st8{opacity:0.5;fill:none;stroke:#FFFFFF;stroke-width:1.0591;stroke-linecap:round;stroke-linejoin:round;stroke-miterlimit:10;enable-background:new    ;}
	
		.st9{opacity:0.5;fill:none;stroke:#FFFFFF;stroke-width:1.0368;stroke-linecap:round;stroke-linejoin:round;stroke-miterlimit:10;enable-background:new    ;}
	
		.st10{opacity:0.5;fill:none;stroke:#FFFFFF;stroke-width:1.0145;stroke-linecap:round;stroke-linejoin:round;stroke-miterlimit:10;enable-background:new    ;}
	
		.st11{opacity:0.5;fill:none;stroke:#FFFFFF;stroke-width:0.9922;stroke-linecap:round;stroke-linejoin:round;stroke-miterlimit:10;enable-background:new    ;}
	
		.st12{opacity:0.5;fill:none;stroke:#FFFFFF;stroke-width:0.9699;stroke-linecap:round;stroke-linejoin:round;stroke-miterlimit:10;enable-background:new    ;}
	
		.st13{opacity:0.5;fill:none;stroke:#FFFFFF;stroke-width:0.9476;stroke-linecap:round;stroke-linejoin:round;stroke-miterlimit:10;enable-background:new    ;}
	
		.st14{opacity:0.5;fill:none;stroke:#FFFFFF;stroke-width:0.9253;stroke-linecap:round;stroke-linejoin:round;stroke-miterlimit:10;enable-background:new    ;}
	
		.st15{opacity:0.5;fill:none;stroke:#FFFFFF;stroke-width:0.9029;stroke-linecap:round;stroke-linejoin:round;stroke-miterlimit:10;enable-background:new    ;}
	
		.st16{opacity:0.5;fill:none;stroke:#FFFFFF;stroke-width:0.8806;stroke-linecap:round;stroke-linejoin:round;stroke-miterlimit:10;enable-background:new    ;}
	
		.st17{opacity:0.5;fill:none;stroke:#FFFFFF;stroke-width:0.8583;stroke-linecap:round;stroke-linejoin:round;stroke-miterlimit:10;enable-background:new    ;}
	
		.st18{opacity:0.5;fill:none;stroke:#FFFFFF;stroke-width:0.836;stroke-linecap:round;stroke-linejoin:round;stroke-miterlimit:10;enable-background:new    ;}
	
		.st19{opacity:0.5;fill:none;stroke:#FFFFFF;stroke-width:0.8137;stroke-linecap:round;stroke-linejoin:round;stroke-miterlimit:10;enable-background:new    ;}
	
		.st20{opacity:0.5;fill:none;stroke:#161616;stroke-width:1.1473;stroke-linejoin:round;stroke-miterlimit:10;enable-background:new    ;}
	
		.st21{opacity:0.5;fill:none;stroke:#161616;stroke-width:1.0653;stroke-linejoin:round;stroke-miterlimit:10;enable-background:new    ;}
	.st22{clip-path:url(#SVGID_2_);}
	
		.st23{opacity:0.5;fill:none;stroke:#FFFFFF;stroke-width:1.169;stroke-linecap:round;stroke-linejoin:round;stroke-miterlimit:10;enable-background:new    ;}
	.st24{opacity:0.5;fill:#FFFFFF;enable-background:new    ;}
	
		.st25{opacity:0.5;clip-path:url(#SVGID_4_);fill:none;stroke:#FFD0CA;stroke-width:2;stroke-miterlimit:10;enable-background:new    ;}
	
		.st26{opacity:0.5;clip-path:url(#SVGID_6_);fill:none;stroke:#FFD0CA;stroke-width:2;stroke-miterlimit:10;enable-background:new    ;}
</style>
<rect x="-83.1" y="-34.8" class="st0" width="2055.3" height="1119.8"/>
<g id="BACKGROUND" class="st1">
</g>
<rect class="st2" width="1920" height="1280"/>
<g>
	<path class="st3" d="M592.3,98.7c-17.9,15.3-21.6,34.8-28.8,58c-9.8,31.6-37.1,34.3-51.2,28.2C485,173,479,136.1,450.9,133.1
		c-39.6-4.3-46.9,40.5-76.1,38.1c-17.1-1.4-29-20.4-31.4-24c-28.9-42.3-64.4-28.2-100.5-57.4c-15.4-13.4-21.4-33.3-32.3-48.9
		c-4.7-6.3-11.4-8.7-16-13.8c-35.3-35.9-41.7-97.7-28.2-140.8c13.4-39.7,10.6-77.1,25.6-115.2c5.3-7.8,13.4-9,20.2-15.1
		c23.3-11.7,55.5,4.3,69.6-17.5c16-26.7-5.3-95.6,44.3-84.8c25.3,5.4,24.8,20,48.9,31.1c4.8,2.2,23.6-0.9,28-4.2
		c30.6-22.9,11.9-60.4,27.3-94.2c7.1-20.4,26.7-35.2,51.1-37c32.3-0.4,58.4,17.9,75,45.2c3.7,4.9,7.1,10.1,10.1,15.6
		c2.2,4.1,4.2,8.4,5.9,13c-1.4,22.5-1.4,46.2,9.8,64.1c21.6,37.7,65.9,6.3,93.5,16.6c30.1,9.4,10.8,52.1,19.1,78.8
		c4.8,4.8,9.7,9.5,14.5,14.3c4.9,4.8,9.7,9.5,14.2,14.5c15.6,17.8,13.2,46.8,3,69.6c-2.6,6.4-4.4,12.7-4.7,18.7
		c0.5,6,1,11.9,1.4,17.9c0,4.6-0.8,8.7-3.4,11.7c-8.2,7.7-13.1,18.5-12.7,27.2c1,49.9,15.5,109-44.9,127.9
		C638.9,91.6,620.5,74.7,592.3,98.7z"/>
	<path class="st4" d="M332.9-332.8c23.9,5,23.5,18.8,46.2,29.2c4.6,2.1,22.2-0.8,26.4-3.9c5-3.7,8.5-7.7,11.1-12.1
		c12.7-21.4,3.9-49.7,14.7-76.7c7.6-18.9,25.1-33.9,48.2-34.8c30.6-1.2,53.8,18.2,70.9,42.8c3.3,4.8,6.8,9.5,9.6,14.5
		c2.1,3.8,4,7.9,5.6,12.1c-1.1,17.5-1.2,35.7,5,51c1.2,3.1,2.7,6,4.5,8.8c21.1,34.9,62,6.6,88.3,15.7c21.7,7.6,16.1,32.7,16,55.7
		c0,5,0.2,9.9,1.1,14.4c0.3,1.7,0.7,3.3,1.2,4.9c4.5,4.6,9.2,9.1,13.8,13.7c4.6,4.6,9.2,9.1,13.5,13.8c15,16.8,12.1,44.2,2.8,66.2
		c-2.5,6-4.5,12-4.4,17.7c0.2,5.6,1.1,11.2,1.4,16.9c0.2,4.3-0.6,8.3-3.2,11.1c-7.4,7.7-12.3,17.5-12.1,25.7c0,1,0.1,2,0.1,3.1
		c1.3,46.5,12.9,100.3-43,117.8c-10.4,3.3-19.8,1.3-29.8,0.9c-8-0.3-16.4,0.3-25.9,5.6c-3.2,1.8-6.6,4-10.1,7
		c-17.1,14.2-20.6,32.5-27.5,54.3c-9.3,29.6-35,32.3-48.4,26.5c-25.8-11.1-31.4-45.7-57.9-48.6c-37.3-4-44.2,37.8-71.6,35.5
		c-1.1-0.1-2.2-0.3-3.3-0.5c-14.3-3.3-24.2-18.9-26.4-22C322.4,94,288.6,107.8,255,79.7c-14.8-12.4-20.1-31.5-30.7-46.2
		c-4.3-6-10.7-8.3-15.1-13c-23-24.6-33.6-60.6-32.8-94.1c0.3-13.8,2.1-27.1,6-38.8c12.1-37.7,9.8-72.9,24-108.9
		c5-7.4,12.7-8.5,19.1-14.3c4.5-2.3,9.3-3.5,14.3-4.1c19.3-2.4,41,3.8,51.3-12.7c7.6-12.1,6.6-33.6,9-51.3
		C302.5-323,308.6-337.9,332.9-332.8z"/>
	<path class="st5" d="M339.7-319.1c22.4,4.6,22.1,17.5,43.5,27.2c4.3,2,20.9-0.8,24.8-3.7c4.7-3.4,8-7.2,10.5-11.4
		c12-20,3.8-46.7,14-72c7.1-17.8,23.6-31.7,45.4-32.6c28.8-1.1,50.6,17.4,66.8,40.3c3.1,4.4,6.4,8.8,9.1,13.5
		c2,3.5,3.7,7.2,5.3,11.2c-1,16.2-1,33.1,5,47.3c1.2,2.8,2.7,5.6,4.3,8.2c20.1,32.4,58.4,6.1,83.2,14.9
		c20.5,7.3,15.1,31.2,15.2,52.9c0,4.7,0.3,9.5,1.1,13.7c0.3,1.6,0.7,3.1,1.2,4.6c4.3,4.3,8.7,8.7,13,13c4.3,4.3,8.7,8.6,12.7,13.2
		c14.1,15.9,11.4,42,2.7,62.9c-2.4,5.7-4.3,11.3-4.1,16.6c0.1,5.3,1.1,10.6,1.2,15.9c0.2,4-0.5,7.9-3,10.5
		c-6.9,7.3-11.5,16.5-11.3,24.3c0,0.9,0,1.9,0.1,2.8c1.1,43.8,11.7,94.4-41,110.8c-9.8,3.1-18.6,1.3-27.9,0.9
		c-7.6-0.3-15.4,0.3-24.3,5.2c-3.1,1.6-6.2,3.7-9.5,6.5c-15.9,13.4-19.4,30.4-25.9,50.9c-8.8,27.7-33,30.3-45.5,24.9
		c-24.2-10.2-29.6-42.6-54.5-45.5c-34.9-3.9-41.5,35.1-67.2,32.8c-1.1-0.1-2.1-0.2-3.1-0.5c-13.4-3.1-22.7-17.7-24.8-20.7
		c-25.9-36.8-57.5-23.9-89-50.1c-14-11.6-19.1-29.6-29.1-43.4c-4.1-5.6-10.1-7.9-14.2-12.4c-22-23-31.8-56.8-31.3-88.4
		c0.2-13,1.8-25.4,5.3-36.5c11.1-35.5,9.1-68.7,22.4-102.5c4.7-6.9,11.8-8.1,17.9-13.6c4.2-2.1,8.8-3.3,13.4-4
		c18.2-2.4,38.4,3.4,48.2-12.2c7.2-11.3,6.3-31.5,8.8-48.2C311.5-309.6,316.9-323.8,339.7-319.1z"/>
	<path class="st6" d="M346.7-305.6c20.9,4.2,20.8,16.2,40.7,25.3c4,1.8,19.5-0.7,23.2-3.4c4.3-3.2,7.5-6.7,9.8-10.6
		c11.2-18.7,3.7-43.7,13.2-67.4c6.6-16.6,22-29.7,42.5-30.4c27-0.9,47.5,16.6,62.6,37.8c3,4.1,6,8.1,8.5,12.4
		c1.9,3.3,3.5,6.6,5,10.3c-0.8,15-0.8,30.5,5,43.6c1.1,2.6,2.5,5.1,4,7.6c18.9,30,54.9,5.6,78,14c19.3,7,14.2,29.6,14.4,50.1
		c0,4.4,0.3,8.9,1.1,12.9c0.3,1.5,0.7,3,1.1,4.3c4,4.1,8.2,8.2,12.3,12.4c4.1,4.1,8.2,8.2,12,12.5c13.2,15.2,10.8,39.7,2.4,59.5
		c-2.2,5.3-4,10.6-3.9,15.6c0.1,5,0.9,9.9,1.1,15c0.1,3.8-0.5,7.4-2.8,9.8c-6.4,6.9-10.8,15.5-10.6,22.8c0,0.9,0,1.8,0.1,2.7
		c0.8,41.1,10.4,88.6-38.9,103.9c-9.2,2.9-17.4,1.3-26.1,0.9c-7.1-0.2-14.5,0.3-22.8,4.9c-2.8,1.5-5.8,3.5-8.8,6
		c-15,12.4-18.3,28.2-24.6,47.3c-8.4,25.7-30.9,28.2-42.7,23.3c-22.7-9.4-27.8-39.6-51-42.3C419,92,412.8,128,388.8,125.8
		c-1-0.1-1.9-0.2-2.9-0.5c-12.5-2.9-21.2-16.5-23.2-19.3c-24.4-34.1-53.8-22-83.3-46.5c-13.1-10.8-18-27.6-27.4-40.6
		c-3.8-5.3-9.4-7.4-13.3-11.7c-20.2-21.8-29.4-53.6-29-83.2c0.2-12.1,1.4-23.7,4.7-34.2c10.2-33.2,8.3-64.5,20.8-96.2
		c4.3-6.6,11.1-7.7,16.7-12.8c4-2.1,8.2-3.1,12.5-3.7c17-2.4,35.9,2.8,45.2-11.7c6.7-10.6,6.1-29.4,8.5-45.1
		C320.4-296.3,325.3-309.8,346.7-305.6z"/>
	<path class="st7" d="M353.6-291.9c19.5,3.7,19.5,15,38,23.3c3.8,1.8,18.2-0.6,21.7-3.1c4-2.9,7-6.3,9.2-9.8
		c10.5-17.4,3.5-40.7,12.4-62.6c6.3-15.4,20.5-27.6,39.6-28.2c25.3-0.8,44.2,15.9,58.6,35.3c2.8,3.8,5.6,7.4,8,11.4
		c1.8,3,3.3,6.1,4.6,9.4c-0.7,13.7-0.5,27.8,5,39.9c1.1,2.4,2.4,4.7,3.8,6.9c17.8,27.6,51.3,5.2,72.9,13.2
		c18.1,6.7,13.3,28.1,13.6,47.3c0,4.1,0.4,8.5,1.1,12.1c0.3,1.4,0.7,2.7,1.1,4.1c3.8,3.9,7.7,7.8,11.5,11.7s7.7,7.8,11.2,11.9
		c12.4,14.3,10.1,37.4,2.3,56.1c-2.1,5-3.7,9.9-3.7,14.6c0.1,4.7,0.8,9.3,0.9,14c0.1,3.6-0.5,6.9-2.6,9.2c-6,6.5-9.9,14.5-9.8,21.4
		c0,0.8,0,1.7,0,2.5c0.6,38.4,9.2,82.7-36.8,97c-8.5,2.7-16.2,1.2-24.3,1c-6.6-0.2-13.5,0.3-21.3,4.5c-2.7,1.4-5.4,3.2-8.2,5.6
		c-14,11.4-17.2,26.1-23.1,43.7c-7.9,23.8-28.8,26.2-39.8,21.7c-21.1-8.5-25.9-36.5-47.5-39.1c-30.2-3.5-36.1,29.7-58.3,27.5
		c-0.9-0.1-1.8-0.2-2.7-0.5c-11.6-2.7-19.7-15.3-21.6-17.9c-23-31.4-50-20.2-77.5-42.7c-12.4-10.1-17-25.7-25.7-37.8
		c-3.6-5-8.7-6.9-12.4-10.9c-18.8-20.5-27.5-50.3-27.2-78c0.1-11.4,1.1-22.1,4-31.9c9.2-31,7.6-60.3,19.2-89.9
		c4-6.1,10.3-7.2,15.5-12.1c3.7-1.9,7.6-3,11.7-3.6c15.8-2.4,33.4,2.4,42.1-11.1c6.3-9.9,5.9-27.3,8.2-42
		C329.3-282.9,333.7-295.7,353.6-291.9z"/>
	<path class="st8" d="M360.5-278.3c17.9,3.4,18.1,13.7,35.2,21.4c3.6,1.6,16.8-0.5,20.1-2.8c3.7-2.7,6.5-5.7,8.5-9.1
		c9.8-16,3.4-37.7,11.6-58c5.8-14.3,19-26.5,36.7-26c23.4,0.8,41.1,15.1,54.5,32.9c2.6,3.5,5.3,6.8,7.5,10.3
		c1.7,2.7,3.1,5.5,4.3,8.5c-0.6,12.4-0.2,25.3,5,36.2c1.1,2.2,2.2,4.3,3.6,6.3c16.6,25.2,47.7,4.7,67.7,12.4
		c16.9,6.5,12.3,26.5,12.8,44.6c0,3.8,0.5,8,1.2,11.4c0.3,1.3,0.7,2.6,1.1,3.8c3.6,3.7,7.2,7.3,10.8,11c3.6,3.7,7.2,7.3,10.5,11.2
		c11.5,13.6,9.5,35,2.1,52.8c-1.9,4.7-3.4,9.2-3.4,13.6c0,4.3,0.8,8.6,0.8,13c0.1,3.3-0.5,6.4-2.4,8.5c-5.5,6-9.2,13.5-9.1,19.9
		c0,0.8,0,1.5,0,2.3c0.4,35.8,7.9,76.8-34.9,90c-7.9,2.5-15,1.2-22.5,1c-6.2-0.2-12.5,0.3-19.7,4.2c-2.4,1.3-5,2.9-7.7,5
		c-13,10.4-16.2,24-21.7,40.1c-7.5,21.9-26.8,24.2-37,20.1c-19.5-7.7-24.1-33.5-44-35.9c-27.8-3.3-33.3,26.9-53.9,24.8
		c-0.8-0.1-1.7-0.2-2.4-0.5c-10.7-2.6-18.2-14.1-20-16.5c-21.4-28.6-46.3-18.4-71.8-39.1c-11.5-9.3-15.9-23.8-24.1-35
		c-3.4-4.6-8.1-6.5-11.4-10.2c-17.5-19.1-25.4-46.8-25.3-72.6c0-10.5,0.8-20.4,3.4-29.5c8.3-28.8,6.8-56,17.6-83.5
		c3.7-5.6,9.5-6.8,14.3-11.3c3.4-1.8,7-2.8,10.8-3.4c14.6-2.4,30.9,1.8,39-10.6c6-9.2,5.7-25.3,7.9-38.8
		C338.3-269.6,342-281.7,360.5-278.3z"/>
	<path class="st9" d="M367.5-264.6c16.5,2.9,16.8,12.5,32.5,19.5c3.4,1.4,15.4-0.5,18.5-2.6c3.5-2.4,6-5.3,7.9-8.3
		c9.1-14.7,3.3-34.6,10.8-53.3c5.3-13.1,17.5-24.4,33.9-23.8c21.7,0.8,38,14.3,50.4,30.4c2.4,3.1,5,6.1,7,9.3c1.5,2.4,2.8,4.9,4,7.6
		c-0.5,11.1,0,22.7,4.9,32.5c1,2,2.1,3.9,3.4,5.7c15.6,22.7,44.1,4.3,62.6,11.6c15.6,6.2,11.4,25,12,41.7c0.1,3.5,0.5,7.5,1.2,10.6
		c0.3,1.2,0.7,2.4,1.1,3.6c3.4,3.4,6.7,6.9,10.1,10.3c3.4,3.5,6.6,6.9,9.7,10.5c10.7,12.7,8.8,32.7,2,49.4
		c-1.8,4.3-3.2,8.5-3.1,12.6c0,4,0.6,8,0.7,12.1c0.1,3.1-0.5,6-2.3,7.9c-5,5.6-8.4,12.5-8.4,18.5c0,0.7,0,1.4,0,2.1
		c0.2,33.1,6.7,70.9-32.8,83.1c-7.2,2.3-13.8,1.2-20.7,1.1c-5.6-0.2-11.5,0.3-18.2,3.8c-2.3,1.1-4.7,2.7-7.1,4.6
		c-12,9.5-15.1,21.7-20.3,36.5c-6.9,19.9-24.6,22.2-34.2,18.5c-18-6.9-22.3-30.4-40.6-32.7c-25.5-3.2-30.7,24.2-49.4,22.2
		c-0.8-0.1-1.5-0.2-2.2-0.4c-9.8-2.4-16.7-12.9-18.4-15.1c-19.9-25.9-42.6-16.6-66.1-35.4c-10.7-8.5-14.9-21.8-22.4-32.3
		c-3.1-4.3-7.4-6.1-10.5-9.5c-16-17.8-23.3-43.4-23.4-67.1c0-9.7,0.5-18.8,2.7-27.2c7.3-26.5,6-51.8,16-77.2
		c3.4-5.3,8.7-6.3,13.1-10.5c3.1-1.7,6.5-2.7,9.9-3.3c13.4-2.3,28.4,1.4,35.9-10.1c5.6-8.5,5.5-23.2,7.7-35.7
		C347.3-256.3,350.4-267.7,367.5-264.6z"/>
	<path class="st10" d="M374.4-250.9c15,2.5,15.4,11.2,29.8,17.5c3.1,1.4,14-0.4,16.9-2.3c3.2-2.2,5.5-4.7,7.2-7.6
		c8.4-13.4,3.1-31.7,10.1-48.7c4.9-12,15.9-22.2,31-21.6c19.9,0.8,34.8,13.6,46.2,27.9c2.3,2.8,4.6,5.4,6.5,8.2
		c1.4,2.1,2.6,4.3,3.7,6.7c-0.3,9.9,0.2,20,4.9,28.8c0.9,1.8,2,3.4,3.1,5.1c14.4,20.3,40.5,3.8,57.4,10.8
		c14.5,5.9,10.4,23.5,11.2,39c0.1,3.2,0.5,7,1.2,9.8c0.3,1.1,0.6,2.2,1.1,3.3c3.1,3.3,6.3,6.5,9.3,9.7c3.1,3.3,6.2,6.5,8.9,9.9
		c9.8,12,8.2,30.4,1.8,46.1c-1.6,4-2.9,7.9-2.9,11.6c0,3.7,0.5,7.3,0.5,11.1c0,2.8-0.5,5.4-2.1,7.2c-4.5,5.2-7.6,11.5-7.6,17
		c0,0.7,0,1.3,0,2c0,30.4,5.4,65.1-30.7,76.1c-6.6,2.1-12.6,1.1-18.9,1.1c-5.2-0.1-10.6,0.3-16.6,3.5c-2.1,1-4.3,2.4-6.5,4.1
		c-11,8.5-14,19.6-18.8,33c-6.5,18-22.6,20.1-31.4,16.9c-16.4-6.1-20.4-27.4-37.1-29.5c-23.1-3-27.9,21.5-44.9,19.5
		c-0.7-0.1-1.4-0.2-2.1-0.4c-8.9-2.3-15.3-11.7-16.9-13.7c-18.4-23.2-38.9-14.7-60.3-31.7c-9.9-8-13.9-20.1-20.8-29.8
		c-2.8-3.9-6.8-5.6-9.6-8.8c-14.6-16.4-21.4-40.1-21.5-61.7c-0.1-8.9,0.2-17.2,2.1-24.9c6.4-24.3,5.3-47.6,14.4-70.9
		c3.1-4.8,7.9-5.9,12-9.7c2.8-1.6,5.9-2.5,9-3.1c12.3-2.3,25.9,0.9,32.9-9.5c5.2-7.7,5.3-21.1,7.4-32.6
		C356.3-242.9,358.7-253.6,374.4-250.9z"/>
	<path class="st11" d="M381.3-237.4c13.5,2.1,14,10,27,15.6c2.8,1.2,12.7-0.3,15.3-2.1c2.9-2,5-4.3,6.6-6.8
		c7.6-12.1,3.1-28.6,9.3-44c4.4-10.8,14.4-20.1,28.1-19.5c18.1,0.8,31.7,12.9,42.1,25.4c2.1,2.5,4.2,4.7,6,7.2
		c1.3,1.8,2.4,3.7,3.4,5.8c-0.2,8.6,0.4,17.4,4.9,25.1c0.9,1.5,1.8,3.1,3,4.5c13.3,17.9,36.9,3.4,52.3,9.9
		c13.3,5.6,9.5,22,10.4,36.2c0.1,2.9,0.6,6.5,1.3,9.1c0.3,1.1,0.6,2.1,1,3.1c2.9,3.1,5.7,6,8.5,9c2.8,3.1,5.6,6.1,8.2,9.2
		c8.9,11.1,7.6,28.2,1.6,42.7c-1.4,3.6-2.6,7.2-2.7,10.6c0,3.4,0.4,6.7,0.5,10.1c0,2.5-0.5,5-1.9,6.6c-4,4.7-6.9,10.5-6.9,15.6
		c0,0.6,0,1.2,0,1.8c-0.2,27.8,4.2,59.2-28.8,69.2c-6,1.9-11.4,1.1-17.1,1.1c-4.7-0.1-9.6,0.3-15,3.1c-1.9,0.9-3.9,2.1-6,3.6
		c-10,7.5-13,17.4-17.5,29.4c-6,16-20.5,18.2-28.5,15.3c-14.9-5.3-18.6-24.3-33.6-26.4c-20.8-2.8-25.2,18.8-40.5,16.9
		c-0.6-0.1-1.2-0.2-1.8-0.4c-8-2.1-13.7-10.5-15.3-12.3C378.1,16.6,359.8,24.2,340.4,9c-9-7-12.8-17.9-19.1-26.7
		c-2.5-3.6-6.1-5.2-8.7-8.1C299.4-40.8,293.3-62.4,293-82c-0.2-8.1-0.2-15.5,1.5-22.6c5.4-22,4.5-43.3,12.8-64.5
		c2.8-4.4,7.2-5.4,10.8-8.9c2.5-1.4,5.3-2.4,8.1-2.9c11.1-2.3,23.4,0.4,29.8-9c4.7-7,5-19.1,7.2-29.4
		C365.2-229.6,367.1-239.6,381.3-237.4z"/>
	<path class="st12" d="M388.2-223.7c12.1,1.7,12.7,8.7,24.3,13.7c2.6,1.1,11.3-0.2,13.7-1.8c2.6-1.8,4.5-3.7,6-6
		c6.9-10.7,2.9-25.6,8.5-39.3c4-9.7,12.9-17.9,25.3-17.2c16.3,0.8,28.5,12.1,38,23c1.9,2.2,3.9,4,5.4,6.1c1.1,1.5,2.2,3.2,3.1,4.9
		c-0.1,7.3,0.6,14.7,4.9,21.4c0.8,1.3,1.8,2.6,2.7,3.9c12.1,15.5,33.3,3,47.1,9.1c12.1,5.3,8.5,20.4,9.6,33.4c0.1,2.7,0.7,6,1.3,8.3
		c0.2,1,0.6,1.9,1,2.7c2.6,2.8,5.3,5.6,7.9,8.3c2.6,2.8,5.1,5.6,7.4,8.5c8.1,10.3,6.9,25.8,1.4,39.4c-1.3,3.3-2.4,6.5-2.4,9.5
		c-0.1,3.1,0.3,6.1,0.3,9.2c0,2.3-0.4,4.4-1.7,6c-3.6,4.3-6.1,9.5-6.2,14.1c0,0.5,0,1.1,0,1.6c-0.5,25,3,53.3-26.7,62.3
		c-5.3,1.8-10.2,1.1-15.3,1.1c-4.3,0-8.6,0.3-13.5,2.8c-1.8,0.8-3.5,1.8-5.3,3.1c-9,6.6-11.8,15.3-16,25.9
		c-5.6,14.1-18.5,16.1-25.6,13.7c-13.3-4.4-16.9-21.3-30.1-23.2C434.7,18.2,430.6,36.9,417,35c-0.5-0.1-1.1-0.2-1.6-0.3
		c-7.1-1.9-12.3-9.3-13.7-10.9C386.4,6,370.3,12.7,352.9-0.6c-8.2-6.3-11.7-16-17.5-24c-2.3-3.2-5.5-4.7-7.8-7.3
		c-11.8-13.7-17.2-33.2-17.8-50.9c-0.2-7.3-0.5-13.9,0.9-20.2c4.5-19.8,3.7-39.1,11.3-58.2c2.5-4,6.3-5,9.6-8.2
		c2.3-1.4,4.7-2.2,7.2-2.7c9.9-2.2,20.9-0.1,26.7-8.5c4.3-6.3,4.8-16.9,6.9-26.3C374.2-216.3,375.4-225.5,388.2-223.7z"/>
	<path class="st13" d="M395.2-210.1c10.5,1.3,11.4,7.5,21.5,11.7c2.4,1,9.9-0.2,12.1-1.5c2.3-1.4,4-3.3,5.3-5.3
		c6.2-9.4,2.7-22.6,7.8-34.6c3.5-8.5,11.4-15.7,22.4-15c14.6,0.8,25.3,11.4,33.9,20.5c1.8,1.9,3.5,3.4,4.9,5.1c1.1,1.3,2,2.6,2.7,4
		c0.1,6.1,0.8,12.1,4.8,17.7c0.8,1.1,1.6,2.2,2.5,3.3c11.1,13,29.8,2.5,42,8.2c10.8,5,7.6,18.9,8.8,30.6c0.2,2.4,0.8,5.6,1.3,7.6
		c0.2,0.8,0.6,1.7,0.9,2.5c2.4,2.6,4.8,5.1,7.1,7.7c2.4,2.6,4.6,5.2,6.6,7.9c7.2,9.5,6.3,23.5,1.3,36c-1.1,2.9-2.1,5.8-2.1,8.5
		c-0.1,2.7,0.2,5.4,0.2,8.2c0,2.1-0.4,4-1.5,5.4c-3.1,3.9-5.3,8.5-5.4,12.7c0,0.5,0,1-0.1,1.4c-0.7,22.4,1.8,47.5-24.6,55.3
		c-4.7,1.5-9,1.1-13.5,1.1c-3.7,0.1-7.6,0.3-12,2.4c-1.5,0.6-3.1,1.5-4.7,2.7c-8,5.6-10.8,13-14.6,22.3c-5,12.2-16.3,14-22.8,12.1
		c-11.7-3.7-15-18.2-26.7-20.1c-16-2.4-19.8,13.4-31.6,11.5c-0.5-0.1-1-0.2-1.4-0.3c-6.2-1.8-10.8-8.1-12.1-9.5
		c-13.7-15.1-27.8-9.2-43-20.7c-7.4-5.5-10.7-14-15.8-21.1c-2.1-2.8-4.8-4.3-6.9-6.6c-10.5-12.4-15.3-29.8-15.9-45.5
		c-0.3-6.5-0.9-12.2,0.2-17.9c3.5-17.6,3-34.9,9.7-51.9c2.2-3.5,5.6-4.6,8.4-7.4c2-1.2,4.1-2.1,6.3-2.6c8.8-2.2,18.4-0.6,23.6-7.9
		c4-5.6,4.7-14.9,6.6-23.2C383.1-203,383.8-211.4,395.2-210.1z"/>
	<path class="st14" d="M402.1-196.4c9.1,0.8,10.1,6.2,18.8,9.8c2.1,0.8,8.6-0.1,10.5-1.2c2-1.2,3.5-2.7,4.7-4.5c5.5-8,2.7-19.6,7-30
		c3.1-7.4,9.8-13.5,19.5-12.9c12.7,0.8,22.2,10.6,29.8,18c1.6,1.5,3.1,2.7,4.4,4c0.9,1,1.8,2,2.4,3.1c0.2,4.8,1.1,9.5,4.8,14
		c0.7,0.8,1.4,1.8,2.3,2.7c9.9,10.6,26.2,2.1,36.8,7.4c9.6,4.7,6.6,17.4,8,27.8c0.2,2.1,0.8,5,1.4,6.8c0.2,0.8,0.6,1.5,0.9,2.3
		c2.1,2.4,4.3,4.7,6.3,7s4.1,4.8,5.9,7.2c6.3,8.7,5.6,21.2,1.1,32.7c-1,2.6-1.8,5.1-1.9,7.6c-0.1,2.4,0.1,4.8,0.1,7.2
		c-0.1,1.8-0.4,3.5-1.3,4.7c-2.7,3.4-4.6,7.6-4.7,11.2c0,0.5,0,0.8-0.1,1.3c-0.8,19.7,0.5,41.6-22.7,48.4c-4,1.4-7.8,1.1-11.7,1.1
		c-3.3,0.1-6.6,0.3-10.4,2.1c-1.4,0.5-2.7,1.2-4.2,2.1c-7,4.6-9.7,10.9-13.2,18.7c-4.6,10.2-14.3,12.1-20,10.5
		c-10.1-2.8-13.2-15.2-23.2-16.9C440-6.4,436.6,6.5,426.5,4.7c-0.4-0.1-0.8-0.2-1.2-0.3c-5.3-1.6-9.2-6.9-10.5-8.2
		c-12.1-12.4-24-7.4-37.3-17c-6.6-4.7-9.7-12.1-14.1-18.4c-1.8-2.5-4.2-3.8-6-6c-9.2-10.9-13.4-26.3-14.3-40.1
		c-0.4-5.6-1.2-10.5-0.4-15.6c2.6-15.4,2.2-30.7,8.1-45.5c1.9-3.1,4.8-4.1,7.2-6.6c1.8-1.1,3.6-1.9,5.5-2.4
		c7.6-2.2,15.9-1.1,20.6-7.5c3.6-4.9,4.4-12.8,6.3-20.1C392.1-189.6,392.1-197.4,402.1-196.4z"/>
	<path class="st15" d="M409-182.8c7.6,0.5,8.7,5,16.1,7.8c1.8,0.7,7.2,0,8.9-1s3-2.3,4-3.7c4.7-6.7,2.5-16.6,6.3-25.3
		c2.7-6.2,8.3-10.9,16.6-10.7c11,0.4,19.1,9.8,25.7,15.6c1.4,1.2,2.8,2.1,3.9,3c0.8,0.7,1.5,1.4,2.1,2.2c0.3,3.6,1.3,6.9,4.8,10.3
		c0.7,0.7,1.3,1.4,2.1,2.1c8.7,8.2,22.6,1.7,31.7,6.6c8.4,4.5,5.6,15.9,7.2,25c0.2,1.8,0.8,4.6,1.4,6c0.2,0.7,0.5,1.4,0.8,2
		c1.9,2.1,3.8,4.3,5.6,6.3c1.8,2.2,3.6,4.3,5.1,6.6c5.5,7.9,5,18.9,0.9,29.3c-0.8,2.2-1.5,4.4-1.7,6.6c-0.2,2.1,0,4.1-0.1,6.2
		c-0.1,1.5-0.3,3-1.1,4.1c-2.2,3.1-3.8,6.6-4,9.8c0,0.4-0.1,0.8-0.1,1.1c-1.1,17-0.8,35.7-20.6,41.4c-3.4,1.2-6.6,1.1-9.9,1.2
		c-2.8,0.2-5.7,0.3-8.8,1.8c-1.1,0.4-2.4,0.9-3.6,1.7c-6,3.7-8.6,8.7-11.7,15.1c-4.1,8.3-12.2,10-17.1,8.8
		c-8.5-2-11.4-12.1-19.8-13.7c-11.3-2.1-14.3,7.9-22.7,6.2c-0.3-0.1-0.7-0.2-1-0.3c-4.4-1.4-7.8-5.7-8.8-6.8
		c-10.5-9.8-20.4-5.6-31.6-13.4c-5.6-3.8-8.5-10-12.4-15.4c-1.5-2.1-3.5-3.4-5-5.2c-7.6-9.6-11.1-22.9-12.1-34.6
		c-0.5-4.9-1.5-8.9-1-13.2c1.7-13.2,1.4-26.5,6.5-39.2c1.6-2.7,4-3.7,6.1-5.9c1.4-1,3-1.7,4.6-2.3c6.4-2.2,13.4-1.6,17.5-6.9
		c3.2-4.1,4.2-10.8,6.1-16.9C401.1-176.3,400.5-183.4,409-182.8z"/>
	<path class="st16" d="M415.9-169.2c6,0.5,7.4,3.7,13.4,5.9c1.6,0.6,5.9,0.1,7.3-0.7c1.4-0.8,2.5-1.8,3.4-3c4-5.4,2.4-13.6,5.4-20.7
		c2.2-5,6.8-8.8,13.7-8.5c9.2,0.5,16,9.1,21.6,13c1.3,0.9,2.4,1.4,3.4,1.9c0.7,0.5,1.3,0.8,1.8,1.3c0.5,2.3,1.4,4.2,4.7,6.6
		c0.6,0.5,1.2,0.9,1.8,1.4c7.6,5.8,19,1.2,26.5,5.7c7.2,4.3,4.7,14.3,6.4,22.3c0.2,1.4,0.9,4.1,1.4,5.3c0.2,0.6,0.5,1.1,0.8,1.8
		c1.7,1.9,3.3,3.8,4.9,5.7c1.6,2,3.1,3.9,4.4,6c4.7,7.1,4.3,16.6,0.8,25.9c-0.7,1.9-1.3,3.7-1.4,5.5s-0.1,3.5-0.2,5.2
		c-0.1,1.3-0.3,2.5-1,3.5c-1.7,2.6-3,5.6-3.3,8.3c0,0.3-0.1,0.6-0.1,0.9c-1.3,14.3-2,29.8-18.5,34.5c-2.7,1-5.4,1-8.1,1.2
		c-2.4,0.2-4.7,0.3-7.3,1.4c-1,0.2-2,0.7-3,1.2c-5,2.7-7.6,6.6-10.3,11.5c-3.6,6.3-10.1,7.9-14.3,7.2c-6.9-1.2-9.5-9.1-16.2-10.5
		c-8.9-1.8-11.6,5.2-18.2,3.5c-0.3-0.1-0.5-0.2-0.8-0.2c-3.5-1.3-6.3-4.5-7.2-5.3c-8.7-7.2-16.7-3.7-25.8-9.7
		c-5-3.2-7.6-8.2-10.8-12.8c-1.3-1.8-2.9-2.9-4.1-4.5c-6.2-8.2-9.2-19.5-10.2-29.3c-0.5-4-1.9-7.2-1.7-10.9
		c0.8-10.9,0.7-22.2,5-32.9c1.3-2.3,3.2-3.2,4.9-5.1c1.1-0.9,2.4-1.5,3.7-2.1c5.3-2.2,10.9-2.1,14.4-6.4c2.8-3.4,4-8.7,5.8-13.8
		C410.1-163,408.8-169.8,415.9-169.2z"/>
	<path class="st17" d="M422.9-155.5c4.6-0.3,6,2.4,10.6,3.9c1.4,0.5,4.5,0.2,5.7-0.5c1.1-0.5,2-1.3,2.7-2.2c3.3-4,2.3-10.5,4.7-15.9
		c1.8-3.9,5.3-6.8,10.8-6.3c7.5,0.7,13,8.2,17.5,10.6c1.1,0.6,2.1,0.7,2.8,0.9c0.5,0.2,1.1,0.2,1.5,0.4c0.6,1,1.6,1.6,4.7,2.9
		c0.5,0.2,1.1,0.5,1.6,0.8c6.3,3.4,15.4,0.8,21.4,4.9c6,4,3.7,12.8,5.6,19.5c0.2,1.1,1,3.6,1.4,4.6c0.2,0.5,0.5,1,0.8,1.4
		c1.4,1.7,2.8,3.4,4.1,5c1.3,1.8,2.6,3.5,3.7,5.3c3.7,6.3,3.7,14.3,0.6,22.6c-0.5,1.5-1,3.1-1.1,4.5c-0.2,1.4-0.2,2.8-0.3,4.3
		c-0.1,1.1-0.3,2.1-0.8,2.8c-1.2,2.1-2.2,4.6-2.5,6.9c0,0.2-0.1,0.5-0.1,0.8c-1.5,11.7-3.2,24-16.6,27.5c-2.1,0.8-4.2,1-6.3,1.2
		c-1.8,0.2-3.7,0.3-5.7,1.1c-0.8,0.2-1.6,0.4-2.4,0.8c-4,1.7-6.4,4.3-8.9,7.9c-3.1,4.4-8,6-11.4,5.6c-5.3-0.5-7.7-6-12.8-7.3
		c-6.6-1.7-8.9,2.5-13.8,0.8c-0.2-0.1-0.4-0.2-0.6-0.2c-2.6-1.1-4.7-3.4-5.6-4c-6.8-4.7-13-1.8-20.1-6c-4.1-2.4-6.5-6.3-9.2-10.1
		c-1-1.4-2.2-2.4-3.2-3.8c-4.8-6.9-7.1-16-8.4-23.9c-0.5-3.3-2.2-5.6-2.3-8.5c-0.2-8.7-0.1-18,3.4-26.5c1-1.8,2.4-2.8,3.7-4.3
		c0.9-0.8,1.8-1.4,2.8-1.9c4-2.1,8.4-2.5,11.4-5.9c2.4-2.7,3.8-6.6,5.6-10.7C419-149.6,417.2-155.2,422.9-155.5z"/>
	<path class="st18" d="M429.8-141.9c3.1-0.6,4.7,1.1,7.9,2c1.1,0.3,3.1,0.2,4.1-0.2c0.8-0.3,1.4-0.8,2.1-1.4
		c2.5-2.7,2.1-7.6,3.9-11.3c1.3-2.7,3.7-4.7,7.9-4.1c5.6,0.8,10,7.3,13.4,8.1c1,0.2,1.7,0,2.3-0.2c0.5-0.2,0.8-0.3,1.2-0.5
		c0.8-0.2,1.7-1.4,4.7-0.8c0.5,0.1,0.9,0.1,1.4,0.2c5.1,1.1,11.7,0.5,16.2,4c4.7,3.8,2.8,11.2,4.8,16.7c0.2,0.9,1.1,3.1,1.4,3.8
		c0.2,0.4,0.5,0.8,0.8,1.2c1.2,1.4,2.3,2.9,3.4,4.3c1.1,1.5,2.1,3.1,2.9,4.7c2.9,5.5,3,12,0.5,19.2c-0.4,1.1-0.8,2.4-0.9,3.5
		c-0.2,1.1-0.3,2.2-0.5,3.3c-0.2,0.8-0.3,1.5-0.6,2.2c-0.8,1.8-1.4,3.6-1.8,5.4c0,0.2-0.1,0.4-0.1,0.6c-1.8,9-4.5,18.1-14.5,20.6
		c-1.5,0.6-3,1-4.5,1.3c-1.4,0.3-2.7,0.3-4.2,0.8c-0.6,0-1.2,0.1-1.8,0.2c-3.1,0.7-5.3,2.2-7.5,4.4c-2.5,2.5-5.9,3.8-8.6,4
		c-3.7,0.2-5.9-3-9.3-4.1c-4.2-1.4-6.2-0.2-9.4-1.8c-0.2-0.1-0.2-0.2-0.4-0.2c-1.7-0.9-3.2-2.1-4-2.6c-4.8-2.4-9.4,0.2-14.3-2.3
		c-3.4-1.7-5.5-4.3-7.5-7.2c-0.8-1.1-1.6-2-2.3-3.1c-3.4-5.5-5-12.7-6.5-18.5c-0.6-2.4-2.5-4-2.9-6.3c-1.1-6.5-0.8-13.8,1.8-20.2
		c0.7-1.4,1.6-2.4,2.5-3.5c0.6-0.7,1.3-1.2,1.9-1.8c2.9-2.1,5.9-3.1,8.2-5.3c2.1-2,3.6-4.5,5.3-7.6C428-136.3,425.5-141,429.8-141.9
		z"/>
	<path class="st19" d="M473.5-68.5c-4.6-1.2-8.7,1.1-13,3c-4.4,1.5-8.1-2.7-10.9-5.6c-3.6-3.3-7.5,1.2-11.1,0.2
		c-8-2.4-9-13.1-11.8-19.8c-0.7-1.6-2.9-2.3-3.5-3.9c-2.7-5.9-0.9-13.6,2.6-18.2c3.3-4.3,6.8-5.2,10.2-9.2c1-0.7-2.1-4.5,0.8-6
		c3-1.5,6.4,1.5,9.1-0.5c3.1-2.5,1.5-10.2,8.2-8.5c3.9,1,6.9,6.3,9.2,5.6c3.1-0.8,2.2-5,7.4-7.2c4.3-1.8,9-0.5,12.3,2.8
		c3.4,3.7,1.9,9.7,4,13.9c0.2,0.6,1.1,2.6,1.5,3.1c6.1,7.6,9.2,14.5,5.7,24.5c-1.1,3.6-1.8,7.1-2.8,10.8
		c-2.1,6.3-5.7,12.2-12.4,13.7c-0.8,0.5-1.8,1-2.7,1.3C475.3-68.6,474.4-68.6,473.5-68.5z"/>
</g>
<rect class="st2" width="1920" height="1280"/>
<g>
	<path class="st20" d="M2086.8,99.7c-32.7,47.1-90.1,92.8-147.8,88.3c-7.2-0.5-31-2.2-47.6,4.6c-67.3,27.5-97.5,81.7-170.2,52.2
		c-47.7-19.9-97.7-55.2-122.5-100.6c-3.6-6.5-6.6-13.1-9-20c-2.5-13.4-4.7-29.3-16.1-36.1c-104.4-72.7-124.9-224.8-43.1-313.3
		c4.3-4.8,8.8-9,13.6-12.5c15.9-10.2,34-19.3,40.9-35.2c14.8-37.5,43.7-66.9,77.8-80.6c6.8-2.7,13.8-4.8,21-6.2
		c12.5-4,28.4,0.5,39.7-8.6c51.6-30.5,104.8-32.3,148.4-11.1c6.3,3,12.2,6.5,17.9,9.6c74.5-2.2,156.9,33,181.8,99.2
		c2.8,7.3,4.9,14.9,7.9,21.3c41.4,35.5,50.5,90,39.1,142.2c2,6.3,3.9,12.8,5.4,19.3c14.1,58.6,8.8,122.5-26.4,173.2
		C2094.1,90.4,2090.5,95.2,2086.8,99.7z"/>
	<path class="st20" d="M1597.9-255c14.5-35.3,41.4-63.5,73.7-76.3c6.4-2.6,13.2-4.2,19.9-5.9c12.1-3.1,26.9,0.5,37.6-8.1
		c48.9-28.8,99.3-30.6,140.5-10.6c5.9,2.9,11.6,6.2,16.9,9c70.6-2.1,148.7,31.2,172.2,93.9c2.6,7,4.6,14.1,7.4,20.2
		c39.2,33.6,47.8,85.3,37,134.7c1.9,6,3.6,12.1,5.2,18.3c13.5,55.5,8.3,116-25,164.1c-3.2,4.7-6.9,9.1-10.2,13.6
		c-32.5,43.5-85.3,87.6-140,83.6c-6.9-0.5-29.3-1.9-45.1,4.5c-63.6,26.1-92.6,77.5-161.2,49.3c-45.2-18.6-92.5-52.3-116-95.2
		c-3.3-6.1-6.3-12.4-8.5-19c-2.3-12.7-4.7-27.4-15.2-34.2c-101.2-65.5-117.4-212.1-40.9-296.8c4.1-4.6,8.3-8.7,12.9-11.8
		C1574-231.9,1591.7-239.9,1597.9-255z"/>
	<path class="st20" d="M1610.9-237.3c13.7-33.3,39.1-59.9,69.6-72.1c6.1-2.5,12.4-3.9,18.8-5.6c11.4-2.9,25.4,0.5,35.6-7.7
		c46.2-27.2,93.8-28.9,132.7-10c5.6,2.7,11,5.8,16,8.6c66.6-2,140.4,29.5,162.6,88.7c2.5,6.6,4.4,13.4,7,19.1
		c37,31.8,45.1,80.5,34.9,127.2c1.9,5.7,3.5,11.4,4.9,17.2c12.7,52.4,7.9,109.5-23.6,154.9c-3.1,4.4-6.5,8.6-9.7,12.8
		c-30.7,41.1-80.6,82.3-132.2,78.9c-6.6-0.5-27.7-1.7-42.5,4.3c-60,24.6-87.6,73-152.2,46.5c-42.8-17.5-87.4-49.3-109.5-89.9
		c-3.2-5.8-5.9-11.8-8-17.9c-2.2-12-4.4-25.8-14.4-32.2c-95.6-61.8-110.8-200.2-38.6-280.2c3.9-4.3,7.8-8.2,12.2-11.2
		C1588.3-215.4,1605-223,1610.9-237.3z"/>
	<path class="st20" d="M1623.9-219.5c12.9-31.3,36.8-56.4,65.4-67.8c5.7-2.3,11.8-3.7,17.6-5.3c10.7-2.8,23.9,0.5,33.5-7.2
		c43.4-25.7,88.2-27.2,124.9-9.4c5.3,2.6,10.3,5.5,15.1,8c62.7-1.9,132,27.8,152.9,83.4c2.3,6.2,4.1,12.6,6.6,17.9
		c34.8,29.8,42.4,75.8,32.9,119.7c1.7,5.3,3.2,10.7,4.6,16.2c11.9,49.3,7.4,103.1-22.2,145.7c-2.9,4.2-6.1,8.1-9,12.1
		c-28.8,38.7-75.8,77.2-124.4,74.3c-6.3-0.4-26.1-1.5-40,4.3c-56.4,23.1-82.6,68.5-143.2,43.5c-40.2-16.5-82.2-46.5-103.1-84.6
		c-3-5.5-5.6-11.1-7.6-16.9c-2.1-11.3-4.2-24.3-13.5-30.4c-89.9-58.1-104.2-188.3-36.3-263.6c3.6-4,7.3-7.7,11.4-10.5
		C1602.6-199,1618.3-206.1,1623.9-219.5z"/>
	<path class="st20" d="M1636.8-201.8c12.1-29.4,34.5-52.8,61.3-63.5c5.3-2.2,11-3.5,16.5-4.9c10.1-2.6,22.4,0.4,31.4-6.7
		c40.7-24,82.6-25.5,117-8.8c4.9,2.4,9.7,5.1,14.1,7.6c58.8-1.8,123.8,26,143.3,78.2c2.2,5.8,3.9,11.8,6.2,16.8
		c32.6,28,39.8,71,30.8,112.1c1.6,5,3,10.1,4.3,15.2c11.2,46.2,7,96.6-20.8,136.5c-2.7,3.9-5.7,7.6-8.5,11.3
		c-27.1,36.2-71.1,72-116.6,69.6c-6-0.3-24.4-1.2-37.5,4.1c-52.8,21.7-77.6,64-134.2,40.7c-37.6-15.5-77-43.5-96.6-79.2
		c-2.8-5.1-5.2-10.4-7.1-15.8c-1.9-10.5-3.9-22.8-12.7-28.4c-84.3-54.5-97.6-176.5-34-247c3.4-3.8,6.9-7.2,10.7-9.9
		C1616.9-182.5,1631.6-189.2,1636.8-201.8z"/>
	<path class="st20" d="M1649.8-184.1c11.3-27.4,32.2-49.2,57.2-59.3c5-2,10.2-3.2,15.5-4.6c9.4-2.4,20.9,0.4,29.2-6.3
		c38-22.4,77.2-23.8,109.2-8.2c4.6,2.2,9,4.8,13.1,7c54.8-1.6,115.4,24.3,133.7,72.9c2,5.4,3.6,11,5.8,15.7
		c30.5,26.1,37.1,66.2,28.8,104.6c1.5,4.6,2.9,9.4,4,14.2c10.4,43.1,6.5,90.1-19.4,127.4c-2.6,3.6-5.3,7-8,10.5
		c-25.2,33.8-66.3,66.7-108.7,64.9c-5.7-0.2-22.7-1-34.9,4c-49.2,20.3-72.6,59.5-125.2,37.8c-35.1-14.5-71.8-40.6-90.1-74
		c-2.6-4.8-4.9-9.7-6.6-14.8c-1.8-9.8-3.6-21.3-11.8-26.5c-78.5-50.8-91.1-164.7-31.7-230.5c3.2-3.5,6.4-6.7,10.1-9.2
		C1631.2-166,1645-172.2,1649.8-184.1z"/>
	<path class="st20" d="M1662.8-166.3c10.4-25.4,29.8-45.7,53.1-55c4.6-1.9,9.5-3,14.3-4.3c8.7-2.2,19.4,0.4,27.1-5.9
		c35.3-20.8,71.6-22.1,101.4-7.7c4.3,2.1,8.3,4.4,12.2,6.6c50.9-1.5,107.2,22.5,124.1,67.6c1.9,5,3.3,10.2,5.3,14.5
		c28.2,24.3,34.4,61.5,26.7,97.1c1.4,4.3,2.6,8.7,3.7,13.2c9.7,40,6,83.6-18,118.2c-2.4,3.4-4.9,6.6-7.3,9.8
		c-23.4,31.3-61.6,61.5-100.9,60.3c-5.4-0.2-21.1-0.8-32.4,3.9c-45.6,18.8-67.6,55-116.3,34.9c-32.6-13.5-66.6-37.6-83.6-68.7
		c-2.4-4.4-4.5-9-6.2-13.7c-1.7-9.1-3.4-19.7-11-24.7c-72.9-47.2-84.6-152.8-29.5-213.9c2.9-3.2,6-6.3,9.3-8.5
		C1645.5-149.6,1658.3-155.4,1662.8-166.3z"/>
	<path class="st20" d="M1675.8-148.5c9.7-23.4,27.5-42.2,48.9-50.8c4.3-1.7,8.7-2.8,13.2-3.9c8-2.1,17.9,0.3,25-5.4
		c32.5-19.2,66-20.3,93.5-7c3.9,1.9,7.7,4.1,11.3,6c46.9-1.4,98.9,20.8,114.5,62.5c1.7,4.6,3.1,9.4,4.9,13.5
		c26.1,22.3,31.8,56.7,24.6,89.6c1.3,4,2.4,8,3.4,12.1c8.9,37,5.6,77.2-16.6,109.1c-2.2,3.1-4.6,6-6.8,9
		c-21.6,28.9-56.9,56.4-93.1,55.6c-5.1-0.1-19.5-0.5-29.8,3.7c-42,17.3-62.5,50.5-107.3,32.1c-30.1-12.4-61.5-34.8-77.2-63.3
		c-2.2-4.1-4.2-8.3-5.6-12.6c-1.5-8.4-3.1-18.2-10.1-22.7c-67.3-43.5-78-141-27.1-197.3c2.7-3,5.5-5.7,8.6-7.9
		C1659.8-133.1,1671.6-138.4,1675.8-148.5z"/>
	<path class="st20" d="M1688.7-130.8c8.8-21.5,25.2-38.7,44.8-46.5c3.9-1.5,8-2.6,12.1-3.6c7.3-1.9,16.4,0.3,23-4.9
		c29.8-17.5,60.5-18.6,85.6-6.4c3.6,1.8,7,3.8,10.4,5.5c43-1.3,90.5,19,104.8,57.2c1.6,4.3,2.9,8.7,4.6,12.3
		c23.9,20.5,29.1,52,22.6,82c1.2,3.6,2.2,7.4,3.2,11.1c8.2,33.8,5.1,70.7-15.2,99.9c-2,2.9-4.2,5.6-6.2,8.3
		c-19.8,26.5-52.1,51.2-85.3,50.9c-4.8-0.1-17.9-0.3-27.3,3.6c-38.3,15.8-57.6,45.9-98.3,29.1c-27.5-11.4-56.4-31.9-70.7-58
		c-2-3.7-3.8-7.6-5.2-11.6c-1.4-7.7-2.9-16.7-9.3-20.8c-61.6-39.9-71.4-129.1-24.9-180.7c2.5-2.8,5-5.3,7.9-7.2
		C1674.1-116.6,1684.9-121.5,1688.7-130.8z"/>
	<path class="st20" d="M1701.7-113c8-19.5,22.9-35.1,40.7-42.2c3.6-1.4,7.3-2.3,11-3.2c6.6-1.7,14.9,0.3,20.8-4.5
		c27.1-15.9,55-16.9,77.8-5.9c3.2,1.6,6.4,3.4,9.4,5c39-1.2,82.3,17.3,95.2,52c1.5,3.9,2.6,7.8,4.1,11.1
		c21.6,18.6,26.4,47.2,20.5,74.5c1.1,3.3,2,6.7,2.9,10.1c7.4,30.7,4.6,64.2-13.8,90.8c-1.8,2.6-3.8,5-5.6,7.5
		c-18,24-47.4,46.1-77.5,46.2c-4.5,0-16.2-0.1-24.7,3.5c-34.8,14.4-52.6,41.4-89.4,26.3c-25-10.3-51.2-28.9-64.2-52.6
		c-1.9-3.4-3.5-6.9-4.7-10.5c-1.3-7-2.6-15.2-8.4-18.9c-56-36.2-64.9-117.3-22.6-164.1c2.2-2.5,4.6-4.8,7.1-6.6
		C1688.4-100.2,1698.3-104.6,1701.7-113z"/>
	<path class="st20" d="M1714.7-95.2c7.2-17.5,20.6-31.5,36.6-38c3.2-1.3,6.6-2.1,9.9-2.9c6-1.5,13.4,0.2,18.7-4
		c24.4-14.4,49.4-15.2,69.9-5.3c2.9,1.4,5.8,3.1,8.4,4.5c35.1-1.1,73.9,15.5,85.7,46.7c1.3,3.5,2.3,7,3.7,10.1
		c19.5,16.7,23.7,42.4,18.4,67c0.9,3,1.9,6,2.6,9.1c6.6,27.6,4.2,57.8-12.4,81.6c-1.6,2.3-3.4,4.6-5.1,6.7
		c-16.2,21.6-42.7,41-69.7,41.6c-4.2,0.1-14.5,0.2-22.2,3.3c-31.2,13-47.5,37-80.4,23.4c-22.5-9.3-46-26-57.7-47.4
		c-1.7-3-3.1-6.2-4.3-9.4c-1.2-6.3-2.3-13.6-7.6-17c-50.3-32.5-58.4-105.4-20.3-147.6c2-2.2,4.1-4.3,6.4-5.9
		C1702.7-83.7,1711.6-87.7,1714.7-95.2z"/>
	<path class="st20" d="M1727.7-77.5c6.4-15.5,18.2-28,32.5-33.7c2.9-1.2,5.8-1.9,8.7-2.6c5.3-1.4,11.9,0.2,16.6-3.6
		c21.6-12.8,43.8-13.5,62.1-4.6c2.6,1.2,5.1,2.7,7.5,4c31.2-0.9,65.6,13.8,76,41.4c1.2,3.1,2.1,6.3,3.3,8.9
		c17.3,14.8,21.1,37.6,16.3,59.5c0.9,2.6,1.6,5.3,2.2,8c6,24.5,3.7,51.3-11.1,72.4c-1.5,2.1-3,4-4.5,6c-14.4,19.2-38,35.9-61.8,37
		c-3.9,0.2-12.9,0.4-19.6,3.2c-27.5,11.5-42.5,32.4-71.4,20.6c-19.9-8.2-40.8-23-51.3-42.1c-1.5-2.7-2.8-5.5-3.8-8.3
		c-1-5.6-2.1-12.1-6.7-15.1c-44.7-28.9-51.8-93.6-18-131c1.8-2,3.6-3.8,5.7-5.3C1717.1-67.2,1724.9-70.8,1727.7-77.5z"/>
	<path class="st20" d="M1740.6-59.7c5.6-13.6,15.9-24.4,28.4-29.5c2.5-1,5.1-1.6,7.7-2.2c4.6-1.2,10.4,0.2,14.5-3.1
		c18.9-11.1,38.3-11.8,54.2-4.1c2.2,1.1,4.5,2.4,6.6,3.5c27.2-0.8,57.4,12.1,66.4,36.2c1,2.7,1.8,5.5,2.9,7.8
		c15.1,13,18.4,32.9,14.3,52c0.8,2.3,1.4,4.6,2,7c5.2,21.4,3.2,44.8-9.7,63.2c-1.2,1.8-2.6,3.5-3.9,5.3
		c-12.5,16.8-33.2,30.8-54,32.2c-3.6,0.2-11.3,0.6-17.1,3.1c-23.9,10.1-37.6,27.9-62.5,17.6c-17.5-7.2-35.6-20.2-44.8-36.7
		c-1.3-2.4-2.4-4.8-3.3-7.3c-0.9-4.9-1.8-10.5-5.9-13.1c-39-25.2-45.2-81.8-15.8-114.4c1.5-1.8,3.2-3.3,4.9-4.6
		C1731.4-50.8,1738.2-53.9,1740.6-59.7z"/>
	<path class="st20" d="M1753.5-42c4.8-11.6,13.7-21,24.3-25.2c2.2-0.9,4.3-1.4,6.6-1.9c3.9-1,8.9,0.2,12.4-2.7
		c16.2-9.5,32.8-10.1,46.4-3.5c1.9,0.9,3.8,2,5.6,3c23.3-0.7,49,10.3,56.7,31c0.9,2.3,1.5,4.6,2.5,6.6
		c12.9,11.1,15.8,28.1,12.2,44.5c0.6,2,1.2,4,1.7,6c4.4,18.3,2.8,38.3-8.3,54.1c-1.1,1.5-2.2,3-3.4,4.5
		c-10.7,14.3-28.4,25.7-46.2,27.6c-3.3,0.3-9.6,0.9-14.5,2.9c-20.3,8.6-32.5,23.4-53.5,14.8c-14.9-6.1-30.5-17.2-38.3-31.4
		c-1.1-2-2.1-4.1-2.8-6.3c-0.8-4.2-1.5-9-5-11.3c-33.4-21.6-38.7-69.9-13.5-97.9c1.3-1.5,2.7-2.9,4.3-3.9
		C1745.7-34.3,1751.5-37,1753.5-42z"/>
	<path class="st20" d="M1766.5-24.3c3.9-9.7,11.4-17.4,20.2-20.9c1.8-0.7,3.6-1.2,5.4-1.6c3.3-0.9,7.3,0.2,10.3-2.2
		c13.4-7.9,27.2-8.4,38.5-2.9c1.6,0.8,3.2,1.7,4.6,2.5c19.3-0.5,40.7,8.6,47.2,25.7c0.7,1.9,1.2,3.9,2,5.6
		c10.7,9.2,13.1,23.3,10.1,36.9c0.5,1.6,1,3.3,1.4,5c3.7,15.2,2.3,31.8-6.9,44.9c-0.9,1.3-1.9,2.5-2.8,3.7
		c-8.9,11.9-23.7,20.8-38.3,22.9c-3,0.5-8,1.2-12,2.9c-16.7,7.1-27.5,18.9-44.5,11.9c-12.4-5.1-25.4-14.3-31.8-26.1
		c-0.9-1.7-1.7-3.4-2.3-5.2c-0.6-3.5-1.3-7.5-4.2-9.4c-27.7-17.9-32.2-58.1-11.2-81.3c1.1-1.2,2.2-2.4,3.6-3.2
		C1760-17.8,1764.8-20.1,1766.5-24.3z"/>
	<path class="st20" d="M1779.5-6.5c3.2-7.7,9-13.8,16.1-16.6c1.4-0.5,2.9-0.9,4.3-1.3c2.6-0.7,5.9,0.1,8.2-1.8
		c10.7-6.3,21.6-6.6,30.6-2.3c1.3,0.6,2.6,1.3,3.7,2c15.4-0.5,32.4,6.8,37.6,20.5c0.5,1.5,1,3.1,1.6,4.4c8.6,7.3,10.4,18.6,8,29.4
		c0.4,1.3,0.8,2.6,1.2,4c2.9,12.1,1.9,25.3-5.5,35.8c-0.7,1-1.5,2-2.2,2.9c-7.1,9.5-18.9,15.9-30.5,18.2c-2.7,0.5-6.3,1.4-9.4,2.7
		c-13.1,5.6-22.5,14.4-35.6,9c-9.9-4.1-20.2-11.4-25.3-20.8c-0.7-1.3-1.4-2.7-1.9-4.2c-0.5-2.8-1-6-3.3-7.4
		c-22-14.3-25.6-46.2-8.9-64.7c0.9-1,1.8-1.9,2.8-2.6C1774.3-1.5,1778.1-3.2,1779.5-6.5z"/>
	<path class="st20" d="M1869.5,68.5c-5,7.3-14.1,11.1-22.7,13.5c-12.7,3.7-22.3,13.3-33.5,8.7c-7.3-3-15-8.5-18.8-15.5
		c-0.5-1-1-2-1.4-3.1c-0.4-2.1-0.7-4.5-2.5-5.6c-16.1-11.1-19.2-34.6-6.6-48.2c0.6-0.8,1.4-1.4,2.1-1.9c2.5-1.5,5.3-2.9,6.3-5.4
		c2.2-5.7,6.7-10.3,12-12.4c1.1-0.4,2.1-0.8,3.2-0.9c1.9-0.6,4.3,0.1,6.1-1.3c8-4.7,16.1-4.9,22.8-1.7c0.9,0.5,1.9,1,2.8,1.5
		c11.4-0.3,24.1,5.1,27.9,15.2c0.4,1.2,0.8,2.3,1.2,3.2c6.3,5.5,7.7,13.8,6,21.9c0.3,1,0.6,1.9,0.9,2.9c2.2,9,1.4,18.8-4,26.6
		C1870.7,67.1,1870.1,67.8,1869.5,68.5z"/>
</g>
<rect class="st2" width="1920" height="1280"/>
<g>
	<path class="st21" d="M-341.9,923.2c-25.1-52.7-36.6-126.5-3.5-175.2c4.2-6.1,12.5-9.7,14.6-17c19.8-71.2-17.7-154.8,45.1-204.1
		c41.6-32.1,98-58.5,150.6-57.5c7.5,0.2,15,0.8,22.3,2.1c13,4.6,28.2,10.6,40,4c116.9-55.7,261.6,3,298.6,119.9
		c2.1,6.2,3.5,12.4,4.2,18.4c1,19.1-0.2,39.8,10.5,53.9c25.7,31.9,37.2,72.4,32,109.4c-1,7.4-2.7,14.7-5.1,21.7
		c-2.8,13-14.8,24.8-12.5,39.5c0.8,61-24.3,108.9-65,136.8c-5.8,4-11.9,7.5-17.5,11C136.8,1052.9,64,1108-6.9,1096.6
		c-7.9-1.3-15.7-3.2-22.8-3.8c-52.3,18.6-105-0.8-145.4-37.2c-6.6-1.4-13.3-3-19.8-4.9c-59-17-112.8-54-139.7-110.6
		C-337.3,934.4-339.7,928.8-341.9,923.2z"/>
	<path class="st21" d="M224.1,622.9c1.5,18.1-0.3,37.9,9.9,51c23.9,30.6,35.2,68.5,30.3,103.6c-0.9,7-3,13.7-4.8,20.5
		c-3.4,12.2-14,23.6-11.9,37.4c0.8,57.8-23,103.2-61.6,129.5c-5.5,3.7-11.3,7.1-16.6,10.4c-33.7,63.4-102.6,115.6-169.8,104.8
		c-7.5-1.2-14.8-3-21.6-3.6c-49.5,17.6-99.5-0.8-137.7-35.2c-6.3-1.4-12.5-2.9-18.8-4.7c-55.8-16.1-106.7-51.2-132.3-104.8
		c-2.5-5.3-4.6-10.7-6.9-15.8c-22-50.7-34.6-119.8-3.3-165.9c3.9-5.8,11.9-9.1,13.8-16.1c18.8-67.4-16.9-146.9,42.7-193.3
		c39.3-30.6,92.8-55.4,142.7-54.5c7.1,0.2,14.1,0.8,21.1,2c12.4,4.3,26.5,9.7,37.9,3.8c108.9-56.4,246.5,3.2,282.9,113.5
		C222.1,611.4,223.6,617.1,224.1,622.9z"/>
	<path class="st21" d="M218.3,632c1.4,17.1-0.3,35.7,9.4,48.1c22.5,28.9,33.2,64.7,28.6,97.8c-0.9,6.6-2.8,13-4.6,19.4
		c-3.1,11.5-13.2,22.2-11.2,35.2c0.8,54.6-21.8,97.4-58.1,122.3c-5.2,3.6-10.7,6.8-15.7,9.8c-31.9,59.9-96.8,109.2-160.3,98.9
		c-7-1.1-14.1-2.9-20.4-3.4c-46.7,16.7-93.9-0.8-130-33.2c-5.9-1.3-11.9-2.7-17.7-4.4c-52.7-15.2-100.8-48.3-125-98.9
		c-2.4-5-4.3-10.1-6.4-15c-20.8-47.9-32.7-113.1-3.1-156.6c3.7-5.4,11.2-8.6,13-15.2c17.7-63.7-16-138.7,40.3-182.5
		c37.1-28.9,87.7-52.3,134.7-51.4c6.7,0.1,13.4,0.8,19.9,1.9c11.7,4.1,25.1,9.1,35.7,3.6c102.8-53.3,232.8,3,267,107.2
		C216.3,621.1,217.9,626.6,218.3,632z"/>
	<path class="st21" d="M212.4,641.1c1.4,16.1-0.3,33.6,8.8,45.3c21.2,27.2,31.3,60.9,26.9,92c-0.8,6.2-2.6,12.2-4.3,18.2
		c-3,10.8-12.5,20.9-10.5,33.2c0.8,51.3-20.4,91.7-54.6,115.1c-4.9,3.3-10,6.4-14.7,9.2c-30,56.3-91.2,102.7-150.9,93.1
		c-6.6-1.1-13.2-2.7-19.1-3.2c-44,15.7-88.4-0.7-122.3-31.3c-5.6-1.2-11.2-2.5-16.7-4.2c-49.6-14.3-94.9-45.4-117.6-93.1
		c-2.2-4.7-4.1-9.5-6.1-14.1c-19.6-45-30.8-106.4-3-147.4c3.5-5.1,10.5-8.1,12.3-14.3c16.7-59.9-15.1-130.5,38-171.7
		c34.9-27.2,82.5-49.2,126.7-48.5c6.4,0.1,12.5,0.7,18.7,1.8c11,3.9,23.6,8.6,33.6,3.4c96.7-50.2,219,2.9,251.3,100.9
		C210.7,630.9,212,636,212.4,641.1z"/>
	<path class="st21" d="M206.6,650.2c1.3,15.1-0.3,31.5,8.2,42.4c19.8,25.5,29.3,57.1,25.2,86.2c-0.8,5.8-2.5,11.4-4,17.1
		c-2.8,10.2-11.7,19.6-9.8,31.1c0.7,48.1-19.1,85.9-51.3,107.8c-4.6,3.1-9.4,5.9-13.8,8.6c-28,52.8-85.4,96.2-141.4,87.3
		c-6.2-1-12.4-2.5-18-3c-41.2,14.7-82.8-0.7-114.6-29.3c-5.3-1.1-10.4-2.4-15.6-3.9c-46.5-13.5-88.9-42.6-110.1-87.3
		c-2-4.4-3.8-8.9-5.7-13.2c-18.4-42.2-28.8-99.7-2.7-138.1c3.2-4.8,9.8-7.6,11.4-13.4c15.7-56.2-14.1-122.2,35.5-161
		c32.7-25.5,77.3-46.1,118.8-45.4c5.9,0.1,11.8,0.7,17.5,1.7c10.3,3.6,22.1,8,31.5,3.1c90.6-46.9,205.3,2.7,235.4,94.5
		C204.9,640.7,206.2,645.5,206.6,650.2z"/>
	<path class="st21" d="M200.7,659.4c1.2,14.1-0.3,29.4,7.7,39.6c18.6,23.8,27.4,53.3,23.6,80.5c-0.8,5.4-2.3,10.7-3.7,15.9
		c-2.6,9.5-10.8,18.3-9.1,29.1c0.7,44.9-17.9,80.1-47.8,100.6c-4.2,3-8.8,5.5-12.9,8c-26.2,49.2-79.6,89.8-131.9,81.4
		c-5.8-0.9-11.5-2.4-16.8-2.8c-38.5,13.7-77.2-0.6-106.9-27.4c-4.9-1-9.7-2.2-14.6-3.6c-43.4-12.5-82.9-39.7-102.8-81.4
		c-1.9-4.1-3.6-8.3-5.3-12.4c-17.1-39.3-26.9-93-2.5-128.8c3-4.5,9.2-7.1,10.7-12.5c14.6-52.4-13.1-114,33.1-150.1
		c30.5-23.7,72.1-43,110.8-42.4c5.5,0.1,11,0.6,16.3,1.6c9.6,3.4,20.6,7.5,29.4,3c84.5-43.8,191.5,2.5,219.7,88.2
		C199.2,650.4,200.4,654.9,200.7,659.4z"/>
	<path class="st21" d="M195,668.5c1.1,13-0.3,27.3,7.1,36.8c17.2,22,25.3,49.4,21.9,74.6c-0.7,5.1-2.1,9.9-3.5,14.8
		c-2.4,8.8-10.1,16.9-8.6,26.9c0.6,41.7-16.6,74.4-44.4,93.4c-4,2.7-8.1,5.2-11.9,7.5c-24.3,45.7-74,83.4-122.4,75.5
		c-5.4-0.8-10.7-2.2-15.6-2.6c-35.7,12.7-71.7-0.6-99.3-25.4c-4.6-0.9-9.1-2.1-13.6-3.4c-40.2-11.6-76.9-36.9-95.4-75.6
		c-1.8-3.8-3.3-7.7-4.9-11.4c-15.9-36.5-25-86.3-2.4-119.5c2.8-4.2,8.6-6.6,9.9-11.6c13.6-48.6-12.2-105.8,30.8-139.4
		c28.3-22,66.9-39.9,102.8-39.3c5.2,0.1,10.2,0.6,15.2,1.4c8.9,3.1,19.1,6.9,27.3,2.7c78.4-40.7,177.7,2.4,203.8,81.8
		C193.5,660.2,194.6,664.4,195,668.5z"/>
	<path class="st21" d="M189.1,677.6c1,12-0.3,25.2,6.6,33.9c15.8,20.3,23.4,45.6,20.2,68.9c-0.7,4.7-1.9,9.1-3.2,13.6
		c-2.2,8.1-9.3,15.7-7.9,24.8c0.5,38.5-15.3,68.6-40.9,86.2c-3.6,2.5-7.5,4.7-11,6.9c-22.4,42.2-68.2,76.8-112.9,69.6
		c-5-0.8-9.9-2-14.4-2.4C-7.3,991-40.5,978.7-66,955.8c-4.2-0.8-8.4-1.9-12.5-3.1c-37.1-10.8-71-34-88-69.7c-1.7-3.5-3-7.1-4.6-10.6
		c-14.7-33.7-23-79.6-2.2-110.3c2.6-3.8,7.9-6.1,9.1-10.7c12.5-44.8-11.3-97.7,28.4-128.5c26.1-20.3,61.8-36.9,94.9-36.3
		c4.7,0.1,9.4,0.5,14,1.4c8.2,2.9,17.6,6.4,25.2,2.5c72.3-37.5,163.9,2.1,188.1,75.5C187.8,670,188.8,673.8,189.1,677.6z"/>
	<path class="st21" d="M183.3,686.8c0.9,11-0.2,23,6,31.1c14.6,18.6,21.4,41.8,18.5,63.1c-0.6,4.2-1.8,8.4-3,12.5
		c-2,7.5-8.6,14.3-7.2,22.8c0.5,35.2-14,62.9-37.5,78.9c-3.4,2.3-6.9,4.3-10.1,6.4c-20.5,38.6-62.4,70.4-103.4,63.8
		c-4.6-0.8-9.1-1.9-13.1-2.2c-30.2,10.8-60.6-0.5-83.9-21.4c-3.8-0.8-7.6-1.8-11.4-2.9c-34-9.8-65.1-31.2-80.6-63.8
		c-1.5-3.2-2.8-6.5-4.2-9.7c-13.4-30.8-21.1-72.9-2-101.1c2.4-3.5,7.2-5.6,8.4-9.8c11.4-41.1-10.3-89.5,26-117.8
		c23.9-18.6,56.5-33.7,86.9-33.2c4.3,0.1,8.6,0.5,12.9,1.3c7.5,2.6,16.2,5.8,23,2.3c66.3-34.4,150.1,1.9,172.2,69.1
		C182,679.7,183,683.3,183.3,686.8z"/>
	<path class="st21" d="M177.5,695.8c0.8,10-0.2,20.9,5.5,28.2c13.2,16.9,19.5,38,16.8,57.3c-0.5,3.9-1.6,7.6-2.7,11.4
		c-1.9,6.8-7.7,13-6.5,20.7c0.4,31.9-12.7,57.1-34.1,71.7c-3,2.1-6.3,4-9.1,5.8c-18.6,35.1-56.8,64-93.9,57.9
		c-4.2-0.7-8.2-1.7-11.9-2c-27.4,9.7-55-0.4-76.2-19.5c-3.5-0.8-6.9-1.6-10.4-2.6c-30.9-8.9-59-28.3-73.2-57.9
		c-1.4-2.9-2.5-5.9-3.8-8.8c-12.2-28-19.1-66.2-1.9-91.7c2.2-3.2,6.5-5.1,7.6-8.9c10.4-37.3-9.4-81.2,23.6-106.9
		c21.7-16.9,51.3-30.7,79-30.2c3.9,0.1,7.8,0.4,11.7,1.1c6.9,2.4,14.7,5.3,20.9,2.1c60.2-31.2,136.4,1.8,156.5,62.8
		C176.4,689.5,177.2,692.7,177.5,695.8z"/>
	<path class="st21" d="M171.6,705c0.8,9-0.2,18.8,4.9,25.3c11.9,15.2,17.5,34.1,15.1,51.5c-0.5,3.5-1.4,6.9-2.4,10.2
		c-1.7,6.1-6.9,11.7-5.8,18.6c0.4,28.7-11.4,51.3-30.6,64.5c-2.7,1.9-5.6,3.6-8.2,5.2c-16.8,31.5-51,57.5-84.5,52.1
		c-3.7-0.6-7.4-1.5-10.8-1.8c-24.6,8.8-49.5-0.4-68.4-17.5c-3.1-0.7-6.3-1.4-9.3-2.3c-27.8-8-53.1-25.4-65.8-52.1
		c-1.3-2.6-2.3-5.3-3.4-7.9c-10.9-25.2-17.2-59.6-1.6-82.5c1.9-2.9,5.9-4.6,6.9-8c9.3-33.5-8.4-73,21.3-96.1
		c19.6-15.2,46.2-27.5,71-27.1c3.6,0.1,7,0.4,10.5,1c6.2,2.2,13.2,4.8,18.8,1.9c54.1-28,122.6,1.6,140.6,56.5
		C170.6,699.3,171.4,702.1,171.6,705z"/>
	<path class="st21" d="M165.8,714.1c0.7,8-0.2,16.7,4.4,22.5c10.5,13.5,15.5,30.2,13.4,45.7c-0.4,3-1.3,6.1-2.1,9.1
		c-1.4,5.4-6.2,10.4-5.3,16.5c0.3,25.5-10.2,45.6-27.2,57.2c-2.5,1.7-5,3.1-7.3,4.6c-14.9,28-45.3,51.1-75,46.3
		c-3.3-0.5-6.5-1.4-9.6-1.6c-21.8,7.8-43.8-0.3-60.7-15.6c-2.8-0.6-5.5-1.3-8.3-2c-24.7-7.1-47.1-22.6-58.5-46.3c-1.1-2.3-2-4.7-3-7
		c-9.7-22.4-15.2-52.9-1.4-73.2c1.7-2.5,5.3-4.1,6.1-7.1c8.3-29.7-7.5-64.8,18.8-85.3c17.4-13.5,41-24.5,62.9-24.1
		c3.1,0.1,6.3,0.3,9.3,0.9c5.4,1.9,11.7,4.2,16.7,1.7c48-24.9,108.9,1.4,124.9,50.2C164.9,709,165.6,711.6,165.8,714.1z"/>
	<path class="st21" d="M159.9,723.2c0.6,6.9-0.1,14.6,3.8,19.7c9.2,11.8,13.6,26.4,11.7,40c-0.3,2.7-1.2,5.3-1.9,7.9
		c-1.3,4.7-5.4,9.1-4.6,14.4c0.3,22.3-8.9,39.8-23.7,50c-2.1,1.4-4.3,2.8-6.4,4c-13,24.5-39.6,44.6-65.5,40.4
		c-2.9-0.4-5.8-1.2-8.3-1.4c-19.1,6.8-38.4-0.3-53.1-13.6c-2.5-0.5-4.8-1.1-7.2-1.8c-21.5-6.2-41.2-19.7-51-40.4
		c-0.9-2-1.8-4.2-2.6-6.1c-8.5-19.6-13.4-46.2-1.3-64c1.5-2.2,4.6-3.6,5.3-6.2c7.3-26-6.5-56.6,16.4-74.5
		c15.1-11.9,35.7-21.4,55-21.1c2.7,0.1,5.4,0.3,8.1,0.8c4.7,1.7,10.3,3.7,14.6,1.4c42-21.8,95,1.3,109.1,43.8
		C159.2,718.8,159.7,721,159.9,723.2z"/>
	<path class="st21" d="M154.2,732.3c0.5,6-0.1,12.5,3.3,16.9c7.9,10.1,11.6,22.6,10,34.1c-0.3,2.3-1,4.6-1.6,6.8
		c-1.1,4.1-4.7,7.8-3.9,12.3c0.3,19.1-7.6,34.1-20.3,42.7c-1.8,1.3-3.7,2.4-5.5,3.5c-11.1,20.9-33.8,38.1-56,34.6
		c-2.5-0.4-4.9-1-7.1-1.2c-16.3,5.8-32.8-0.3-45.4-11.6c-2.1-0.4-4.2-0.9-6.2-1.5c-18.4-5.3-35.2-16.9-43.6-34.6
		c-0.8-1.7-1.5-3.6-2.3-5.3c-7.3-16.7-11.4-39.5-1.1-54.7c1.3-1.9,3.9-3,4.6-5.3c6.2-22.3-5.6-48.5,14.1-63.7
		c13-10.1,30.6-18.3,47-18c2.4,0,4.7,0.3,6.9,0.7c4.1,1.4,8.7,3.2,12.5,1.3c35.9-18.6,81.3,1.1,93.3,37.4
		C153.5,728.5,154,730.5,154.2,732.3z"/>
	<path class="st21" d="M148.3,741.5c0.4,5-0.1,10.3,2.7,14c6.5,8.4,9.7,18.8,8.3,28.4c-0.3,1.9-0.8,3.7-1.4,5.6
		c-0.9,3.3-3.8,6.4-3.2,10.3c0.3,15.8-6.3,28.3-16.9,35.5c-1.5,1-3.1,1.9-4.6,2.9c-9.2,17.4-28.1,31.7-46.5,28.7
		c-2-0.3-4.1-0.8-5.9-1c-13.6,4.8-27.2-0.2-37.7-9.7c-1.7-0.3-3.5-0.8-5.2-1.3c-15.3-4.4-29.2-14-36.3-28.7
		c-0.7-1.4-1.3-2.9-1.9-4.3c-6-13.9-9.4-32.9-0.8-45.5c1.1-1.6,3.2-2.5,3.8-4.4c5.2-18.5-4.7-40.2,11.7-52.9
		c10.8-8.4,25.4-15.2,39.1-14.9c1.9,0,3.9,0.3,5.8,0.6c3.4,1.2,7.3,2.6,10.3,1c29.8-15.4,67.5,0.8,77.5,31.1
		C147.7,738.3,148.1,739.9,148.3,741.5z"/>
	<path class="st21" d="M142.5,750.6c0.3,4-0.1,8.2,2.2,11.1c5.2,6.7,7.7,15,6.6,22.6c-0.3,1.5-0.7,3-1,4.5c-0.8,2.6-3,5.2-2.5,8.1
		c0.2,12.6-5,22.5-13.4,28.2c-1.2,0.8-2.5,1.5-3.6,2.3c-7.4,13.8-22.4,25.2-37,22.9c-1.6-0.3-3.2-0.7-4.7-0.8
		c-10.8,3.8-21.7-0.2-30-7.7c-1.4-0.3-2.7-0.6-4.1-1c-12.4-3.6-23.5-11.2-29-22.9c-0.5-1.2-1-2.3-1.5-3.5c-4.8-11-7.5-26.1-0.7-36.2
		c0.8-1.3,2.5-1.9,3-3.5c4.1-14.7-3.7-32,9.3-42.2c8.6-6.7,20.2-12.1,31.1-11.9c1.5,0,3,0.2,4.6,0.4c2.7,0.9,5.8,2.1,8.2,0.8
		c23.7-12.3,53.8,0.7,61.7,24.7C142,748.1,142.4,749.4,142.5,750.6z"/>
	<path class="st21" d="M48.8,807.2c-3.8-8-5.6-19.4-0.5-26.9c0.6-0.9,1.9-1.4,2.2-2.6c3-10.9-2.7-23.8,6.9-31.3
		c6.4-4.9,15.1-9,23.1-8.8c1.2,0,2.3,0.1,3.4,0.3c2,0.7,4.3,1.6,6.1,0.6c18-8.6,40.2,0.4,45.9,18.4c0.3,0.9,0.5,1.9,0.7,2.8
		c0.2,3,0,6.1,1.6,8.3c4,4.9,5.7,11.1,4.9,16.8c-0.2,1.1-0.4,2.3-0.8,3.3c-0.4,2-2.3,3.8-1.9,6.1c0.2,9.4-3.7,16.8-10,21
		c-0.9,0.6-1.9,1.2-2.7,1.7c-5.4,10.3-16.6,18.8-27.4,17.1c-1.2-0.2-2.4-0.5-3.5-0.6c-8,2.9-16.1-0.1-22.4-5.7c-1-0.3-2-0.5-3-0.8
		c-9.1-2.6-17.3-8.3-21.4-17C49.5,809,49.1,808.1,48.8,807.2z"/>
</g>
<g>
	<defs>
		<rect id="SVGID_1_" width="1920" height="1280"/>
	</defs>
	<clipPath id="SVGID_2_">
		<use xlink:href="#SVGID_1_"  style="overflow:visible;"/>
	</clipPath>
	<g class="st22">
		<path class="st23" d="M2056.5,1132c-29.3,38.7-23.3,86.6-23.3,134.5c-3,47.9-56.9,65.8-95.8,80.8c-44.9,20.9-18,74.8-41.9,104.7
			c-53.9,65.8-158.6,32.9-233.4,32.9c-18,0-32.9,18-50.9,18c-65.8,3-131.7-44.9-161.6-95.8c-26.9-47.9-91.6-68.5-89-150.6
			c1.1-34.1,50.1-61.9,41.1-94.8c-12-38.9-92.8-74.8-38.9-113.7c32.9-23.9,78.6-23.3,81.6-54.4c3.2-33.9-60.6-53.4-60.6-110.2
			c0-47.9,29.9-86.8,74.8-104.7c47.9-18,96.3,10.1,140.8,19.2c23.3,4.8,50.6-6.2,57.5-10.2c86-49.9,154.8-23.9,235.6,47.9
			c29.9,23.9,59.9,44.9,89.8,68.8c50.9,44.9,92.8,101.7,79.2,170.8c0.6,9.8,2.1,20.5,1.7,30.4
			C2062.9,1115.5,2059.5,1123.7,2056.5,1132z"/>
		<path class="st23" d="M1482.4,795.4c39-15.1,78.6,3.4,115.8,14c6.1,1.8,12.1,3.3,18.1,4.5c22.1,4.5,47.9-6,54.7-9.9
			c79.6-46.4,143.6-23.9,218.1,40.8c1.7,1.5,3.5,3.1,5.3,4.6c27.8,23.4,57.3,41.9,85.1,65.3c49.3,41.4,88,96.6,75.2,162.1
			c0.6,9.3,2,19.5,1.6,28.9s-3.6,17.2-6.4,25c-27.8,36.8-20.7,82.2-22.2,127.7c-1.4,45.5-54.5,61.2-90.9,76.7
			c-43.3,18.4-16.9,71.1-39.8,99.4c-50.8,62.8-150.5,31.2-221.5,31.2c-17,0-31.2,16.7-48.3,17c-62.5,1.4-125.1-42.6-153.3-91
			c-25.5-43.8-83.7-63.7-84.6-136.3c0-2.1,0-4.3,0.1-6.5c1.1-32.3,48-58.9,39-90c-10.8-37.1-88-70.6-37-107.7
			c31.1-22.7,74.1-22.5,76.9-51.9c2.7-28.7-44.5-46.7-54.9-88.2c-1.3-5.1-2-10.6-2-16.4C1411.5,849.2,1439.7,811.9,1482.4,795.4z"/>
		<path class="st23" d="M1506.2,812c36.9-14.3,74.5,3.6,109.8,13.7c5.8,1.6,11.5,3.1,17.2,4.2c20.9,4.1,45.2-5.8,51.8-9.6
			c75.1-44.4,135.6-22.7,206.1,38.6c1.7,1.4,3.3,2.9,5,4.4c26.3,22.1,54.2,39.6,80.5,61.7c46.6,39.2,83.3,91.4,71.2,153.4
			c0.6,8.8,1.9,18.4,1.5,27.3c-0.4,8.9-3.4,16.3-6.1,23.7c-26.3,34.8-19.6,77.8-21,120.8c-1.3,43.1-51.6,57.9-86,72.6
			c-40.9,17.4-16,67.3-37.6,94.1c-48.1,59.4-142.4,29.6-209.6,29.6c-16.1,0-29.6,15.8-45.7,16.1c-59.2,1.3-118-40.7-145-86.2
			c-24.5-41.4-79.4-60.1-80.1-128.8c0-2,0-4.1,0.1-6.2c1.2-30.6,45.4-55.8,36.9-85.2c-10.2-35.1-83.3-66.5-35.2-101.7
			c29.3-21.6,69.5-21.7,72.1-49.5c2.6-27.2-41.6-44.4-51.2-83.6c-1.2-4.8-1.8-10-1.8-15.5C1439.2,862.9,1465.8,827.7,1506.2,812z"/>
		<path class="st23" d="M1530,828.7c34.9-13.5,70.4,3.9,103.8,13.3c5.5,1.5,10.9,2.9,16.3,3.9c19.8,3.8,42.6-5.5,48.9-9.3
			c70.7-42.2,127.6-21.5,194.1,36.3c1.6,1.3,3.1,2.8,4.7,4.1c24.8,20.8,51.1,37.3,75.9,58.2c44,37,78.6,86.2,67.1,144.7
			c0.5,8.3,1.8,17.4,1.4,25.8c-0.3,8.4-3.2,15.4-5.7,22.4c-24.8,32.8-18.5,73.4-19.8,113.9c-1.3,40.6-48.6,54.6-81.1,68.4
			c-38.6,16.4-15.1,63.5-35.5,88.7c-45.3,56-134.4,27.9-197.7,27.9c-15.2,0-27.9,14.9-43.1,15.2c-55.8,1.3-111-38.7-136.6-81.4
			c-23.4-38.9-75.1-56.5-75.7-121.4c0-1.9,0-3.8,0.1-5.8c1.2-28.8,42.8-52.7,34.7-80.4c-9.6-33.1-78.5-62.3-33.3-95.7
			c27.5-20.4,64.9-20.8,67.4-47.1c2.5-25.7-38.6-42.2-47.6-78.9c-1.1-4.6-1.7-9.4-1.7-14.6C1466.8,876.6,1492,843.4,1530,828.7z"/>
		<path class="st23" d="M1553.8,845.4c32.9-12.8,66.4,4.2,97.8,12.9c5.2,1.4,10.3,2.7,15.4,3.6c18.6,3.5,39.9-5.3,46.1-9
			c66.3-40,119.6-20.3,182.1,34.1c1.5,1.3,2.9,2.6,4.4,3.8c23.3,19.6,47.9,35,71.2,54.6c41.4,34.8,73.9,81,63.1,136
			c0.5,7.8,1.7,16.3,1.4,24.2c-0.3,7.9-3,14.4-5.4,21c-23.3,30.8-17.4,69-18.6,107.1c-1.2,38.2-45.7,51.3-76.2,64.3
			c-36.3,15.4-14.2,59.7-33.4,83.4c-42.6,52.7-126.3,26.2-185.8,26.2c-14.3,0-26.2,14-40.5,14.3c-52.5,1.2-103.9-36.7-128.3-76.6
			c-22.3-36.5-70.9-52.9-71.2-113.9c0-1.8,0-3.6,0.1-5.5c1.2-27.1,40.2-49.6,32.6-75.6c-9-31.1-73.8-58.1-31.5-89.7
			c25.6-19.2,60.3-20,62.7-44.6c2.3-24.3-35.6-39.9-43.9-74.3c-1-4.3-1.6-8.8-1.5-13.7C1494.5,890.3,1518.1,859.2,1553.8,845.4z"/>
		<path class="st23" d="M1577.6,862c30.9-12,62.3,4.5,91.8,12.6c4.9,1.3,9.7,2.5,14.4,3.3c17.4,3.2,37.3-5.1,43.2-8.7
			c61.9-37.7,111.5-19.1,170.1,31.9c1.4,1.2,2.7,2.4,4.1,3.6c21.8,18.3,44.8,32.8,66.6,51c38.7,32.5,69.1,75.8,59.1,127.3
			c0.5,7.3,1.6,15.3,1.3,22.7c-0.3,7.4-2.8,13.5-5,19.7c-21.9,28.9-16.3,64.6-17.4,100.2c-1.1,35.7-42.8,48.1-71.4,60.2
			c-34,14.4-13.3,55.9-31.2,78.1c-39.9,49.3-118.2,24.5-174,24.5c-13.4,0-24.5,13.1-37.9,13.4c-49.1,1.1-96.9-34.7-120-71.8
			c-21.2-34-66.6-49.3-66.7-106.5c0-1.7,0-3.4,0.1-5.1c1.3-25.3,37.5-46.5,30.5-70.8c-8.5-29.1-69-53.9-29.6-83.7
			c23.8-18,55.7-19.2,57.9-42.2c2.2-22.8-32.7-37.6-40.2-69.6c-0.9-4-1.4-8.3-1.4-12.8C1522.2,903.9,1544.2,874.9,1577.6,862z"/>
		<path class="st23" d="M1601.3,878.7c28.9-11.2,58.2,4.8,85.8,12.2c4.6,1.2,9.1,2.3,13.5,3c16.2,2.8,34.6-4.9,40.4-8.4
			c57.5-35.5,103.4-17.8,158.1,29.6c1.3,1.1,2.5,2.2,3.8,3.3c20.3,17,41.7,30.5,61.9,47.5c36.1,30.3,64.4,70.6,55,118.6
			c0.4,6.8,1.5,14.2,1.2,21.1s-2.6,12.6-4.7,18.3c-20.4,26.9-15.2,60.2-16.2,93.4c-1,33.3-39.9,44.8-66.5,56.1
			c-31.7,13.5-12.4,52-29.1,72.7c-37.1,45.9-110.1,22.9-162.1,22.9c-12.5,0-22.9,12.2-35.3,12.5c-45.7,1-89.8-32.8-111.7-67
			c-20.2-31.6-62.3-45.7-62.3-99c0-1.6,0-3.1,0.1-4.8c1.3-23.5,34.9-43.5,28.4-66.1c-7.9-27.1-64.2-49.7-27.7-77.7
			c22-16.8,51.1-18.4,53.2-39.8c2-21.3-29.8-35.3-36.6-64.9c-0.9-3.7-1.3-7.7-1.2-11.9C1549.9,917.6,1570.4,890.7,1601.3,878.7z"/>
		<path class="st23" d="M1625.1,895.4c26.9-10.4,54.1,5,79.8,11.8c4.3,1.1,8.5,2.1,12.6,2.7c15,2.5,31.9-4.6,37.5-8.1
			c53.1-33.2,95.4-16.5,146.1,27.4c1.2,1,2.3,2.1,3.6,3.1c18.7,15.7,38.6,28.2,57.3,43.9c33.4,28.1,59.7,65.5,51,109.9
			c0.4,6.3,1.4,13.2,1.1,19.6s-2.4,11.7-4.3,17c-18.9,24.9-14.1,55.7-15,86.5c-1,30.8-36.9,41.5-61.6,52
			c-29.3,12.5-11.4,48.2-27,67.4c-34.4,42.5-102,21.2-150.2,21.2c-11.6,0-21.2,11.3-32.7,11.6c-42.4,1-82.8-30.8-103.4-62.3
			c-19.1-29.1-58.1-42.1-57.8-91.5c0-1.4,0.1-2.9,0.1-4.4c1.3-21.8,32.3-40.4,26.3-61.3c-7.3-25.1-59.5-45.5-25.9-71.7
			c20.2-15.6,46.6-17.5,48.5-37.3c1.9-19.8-26.8-33.1-32.9-60.3c-0.8-3.5-1.2-7.1-1.1-11C1577.5,931.3,1596.5,906.5,1625.1,895.4z"
			/>
		<path class="st23" d="M1648.9,912.1c24.9-9.6,50,5.3,73.7,11.5c4,1,7.9,1.8,11.7,2.4c13.9,2.1,29.3-4.4,34.7-7.8
			c48.7-30.9,87.3-15.3,134.2,25.2c1.1,0.9,2.2,1.9,3.3,2.8c17.2,14.4,35.5,25.9,52.7,40.4c30.8,25.9,55,60.3,46.9,101.2
			c0.4,5.8,1.2,12.2,1,18s-2.3,10.7-4,15.6c-17.4,22.9-12.9,51.3-13.8,79.7c-0.9,28.4-34,38.2-56.7,47.9c-27,11.5-10.5,44.4-24.8,62
			c-31.7,39.2-94,19.5-138.3,19.5c-10.6,0-19.5,10.4-30.1,10.6c-39,0.9-75.7-28.8-95-57.5c-18-26.7-53.8-38.5-53.3-84.1
			c0-1.3,0.1-2.7,0.2-4.1c1.4-20,29.7-37.3,24.1-56.5c-6.7-23.2-54.8-41.4-24-65.7c18.3-14.4,42-16.7,43.7-34.9
			c1.8-18.3-23.9-30.8-29.3-55.6c-0.7-3.2-1-6.5-1-10.1C1605.2,945,1622.7,922.2,1648.9,912.1z"/>
		<path class="st23" d="M1672.7,928.7c22.9-8.9,45.9,5.6,67.7,11.1c3.7,0.9,7.3,1.6,10.8,2.1c12.7,1.8,26.6-4.2,31.8-7.5
			c44.3-28.6,79.3-14.1,122.2,23c1,0.9,2,1.7,3,2.6c15.7,13.1,32.3,23.6,48,36.8c28.1,23.6,50.2,55.1,42.9,92.5
			c0.3,5.3,1.1,11.1,0.9,16.5s-2.1,9.8-3.6,14.3c-15.9,21-11.8,46.9-12.6,72.8c-0.8,26-31.1,34.9-51.8,43.7
			c-24.7,10.5-9.6,40.6-22.7,56.7c-29,35.8-85.9,17.8-126.4,17.8c-9.7,0-17.8,9.5-27.5,9.7c-35.7,0.8-68.6-26.9-86.7-52.7
			c-16.9-24.3-49.5-34.9-48.9-76.6c0-1.2,0.1-2.4,0.2-3.7c1.4-18.3,27.1-34.2,22-51.7c-6.1-21.2-50-37.3-22.2-59.6
			c16.5-13.2,37.4-15.9,39-32.5c1.6-16.8-20.9-28.5-25.6-51c-0.6-2.9-0.9-6-0.8-9.2C1632.9,958.7,1648.8,938,1672.7,928.7z"/>
		<path class="st23" d="M1696.5,945.4c20.9-8.1,41.9,5.9,61.7,10.7c3.4,0.8,6.7,1.4,9.9,1.8c11.5,1.5,24-4,29-7.2
			c40-26.2,71.3-12.9,110.2,20.7c0.9,0.8,1.8,1.6,2.7,2.3c14.2,11.8,29.2,21.3,43.4,33.3c25.5,21.4,45.5,49.9,38.9,83.8
			c0.3,4.8,1,10.1,0.8,14.9c-0.2,4.9-1.9,8.9-3.3,12.9c-14.4,19-10.7,42.5-11.4,66c-0.7,23.5-28.2,31.6-47,39.6
			c-22.4,9.5-8.7,36.8-20.5,51.4c-26.2,32.4-77.8,16.1-114.5,16.1c-8.8,0-16.1,8.6-25,8.8c-32.3,0.7-61.6-24.9-78.4-47.9
			c-15.9-21.8-45.3-31.3-44.4-69.2c0-1.1,0.1-2.2,0.2-3.4c1.4-16.5,24.5-31.1,19.9-46.9c-5.6-19.2-45.3-33.1-20.3-53.6
			c14.7-12.1,32.8-15.1,34.3-30c1.5-15.3-18-26.3-22-46.3c-0.5-2.6-0.7-5.4-0.7-8.3C1660.6,972.3,1674.9,953.7,1696.5,945.4z"/>
		<path class="st23" d="M1720.3,962.1c18.9-7.3,37.8,6.2,55.7,10.4c3.1,0.7,6,1.2,8.9,1.5c10.3,1.1,21.3-3.7,26.1-6.9
			c35.6-23.9,63.2-11.6,98.2,18.5c0.8,0.7,1.6,1.4,2.4,2.1c12.7,10.5,26.1,19.1,38.8,29.7c22.8,19.2,40.8,44.7,34.8,75.1
			c0.3,4.3,0.9,9,0.8,13.4c-0.2,4.4-1.7,8-3,11.6c-12.9,17-9.6,38.1-10.3,59.1c-0.7,21.1-25.2,28.3-42.1,35.5
			c-20,8.5-7.8,32.9-18.4,46c-23.5,29.1-69.7,14.5-102.6,14.5c-7.9,0-14.5,7.7-22.4,7.9c-29,0.7-54.6-22.9-70.1-43.1
			c-14.8-19.3-41-27.6-40-61.7c0-1,0.1-2,0.2-3c1.5-14.7,21.9-28,17.8-42.1c-5-17.2-40.5-28.9-18.4-47.6
			c12.8-10.9,28.2-14.2,29.5-27.6c1.4-13.8-15-24-18.3-41.7c-0.4-2.3-0.6-4.8-0.5-7.4C1688.3,986,1701.1,969.5,1720.3,962.1z"/>
		<path class="st23" d="M1744.1,978.7c16.8-6.5,33.7,6.5,49.7,10c2.8,0.6,5.4,1,8,1.2c9.1,0.8,18.6-3.5,23.2-6.6
			c31.3-21.5,55.2-10.4,86.2,16.3c0.7,0.6,1.4,1.2,2.1,1.8c11.2,9.2,23,16.8,34.1,26.1c20.2,17,36,39.5,30.8,66.3
			c0.3,3.8,0.8,8,0.7,11.8c-0.2,3.9-1.5,7-2.6,10.3c-11.4,15.1-8.5,33.7-9.1,52.3c-0.6,18.6-22.3,25.1-37.2,31.4
			c-17.7,7.5-6.9,29.1-16.3,40.7c-20.8,25.7-61.6,12.8-90.7,12.8c-7,0-12.8,6.8-19.8,7c-25.6,0.6-47.6-20.9-61.8-38.3
			c-13.8-16.9-36.7-24-35.5-54.2c0-0.9,0.1-1.8,0.2-2.6c1.5-13,19.3-24.9,15.7-37.3c-4.4-15.2-35.8-24.7-16.6-41.6
			c11-9.7,23.6-13.4,24.8-25.2c1.2-12.3-12-21.7-14.7-37c-0.4-2.1-0.5-4.2-0.4-6.5C1715.9,999.7,1727.2,985.3,1744.1,978.7z"/>
		<path class="st23" d="M1767.8,995.4c14.8-5.7,29.6,6.7,43.7,9.6c2.5,0.5,4.8,0.8,7.1,0.9c8,0.5,16-3.2,20.4-6.3
			c27-19,47.1-9.2,74.2,14.1c0.6,0.5,1.2,1.1,1.9,1.6c9.7,8,19.8,14.5,29.5,22.6c17.5,14.7,31.3,34.3,26.7,57.6
			c0.2,3.3,0.7,6.9,0.6,10.3s-1.3,6.1-2.3,8.9c-9.9,13.1-7.4,29.2-7.9,45.4c-0.5,16.2-19.4,21.8-32.3,27.3
			c-15.4,6.5-6,25.3-14.1,35.4c-18.1,22.3-53.5,11.1-78.8,11.1c-6.1,0-11.1,5.9-17.2,6.1c-22.2,0.5-40.5-18.9-53.4-33.5
			c-12.8-14.4-32.5-20.4-31-46.8c0-0.8,0.1-1.5,0.2-2.3c1.5-11.2,16.7-21.8,13.5-32.5c-3.8-13.2-31-20.6-14.7-35.6
			c9.2-8.5,19.1-12.6,20.1-22.7c1.1-10.8-9.1-19.5-11-32.3c-0.3-1.8-0.3-3.7-0.2-5.6C1743.6,1013.4,1753.4,1001,1767.8,995.4z"/>
		<path class="st23" d="M1791.6,1012.1c12.8-5,25.5,7,37.7,9.3c2.1,0.4,4.2,0.6,6.2,0.6c6.8,0.2,13.3-3,17.5-6
			c22.8-16.5,39.1-8,62.3,11.8c0.5,0.4,1,0.9,1.6,1.3c8.2,6.7,16.7,12.2,24.8,19c14.9,12.5,26.6,29.2,22.7,48.9
			c0.2,2.8,0.6,5.9,0.5,8.7c-0.1,2.8-1.1,5.2-1.9,7.6c-8.4,11.1-6.3,24.8-6.7,38.5c-0.4,13.7-16.5,18.5-27.4,23.2
			c-13.1,5.6-5.1,21.5-12,30c-15.3,19-45.5,9.4-66.9,9.4c-5.1,0-9.4,5-14.6,5.1c-18.9,0.4-33.5-16.9-45.1-28.8
			c-11.7-12-28.2-16.8-26.6-39.3c0-0.6,0.1-1.3,0.2-1.9c1.6-9.5,14-18.7,11.4-27.7c-3.3-11.2-26.3-16.4-12.9-29.6
			c7.4-7.3,14.5-11.8,15.3-20.3c0.9-9.3-6.1-17.2-7.4-27.7c-0.2-1.5-0.2-3.1-0.1-4.7C1771.3,1027,1779.5,1016.8,1791.6,1012.1z"/>
		<path class="st23" d="M1815.4,1028.8c10.8-4.2,21.4,7.3,31.7,8.9c1.8,0.3,3.6,0.4,5.3,0.4c5.6-0.1,10.7-2.7,14.7-5.7
			c18.5-14,31.1-6.7,50.3,9.6c0.4,0.4,0.9,0.7,1.3,1.1c6.7,5.4,13.6,9.9,20.2,15.5c12.2,10.3,21.9,24,18.7,40.2
			c0.2,2.3,0.5,4.8,0.4,7.2c-0.1,2.3-0.9,4.3-1.6,6.2c-6.9,9.1-5.1,20.4-5.5,31.7c-0.4,11.3-13.5,15.2-22.6,19
			c-10.7,4.6-4.2,17.7-9.9,24.7c-12.6,15.6-37.4,7.8-55,7.8c-4.2,0-7.8,4.1-12,4.2c-15.5,0.4-26.6-14.9-36.8-24
			c-10.7-9.5-23.9-13.2-22.1-31.9c0.1-0.5,0.1-1.1,0.2-1.6c1.6-7.7,11.4-15.6,9.3-23c-2.7-9.2-21.5-12.1-11-23.6
			c5.6-6.1,9.9-11,10.6-17.9c0.8-7.8-3.1-14.9-3.7-23c-0.1-1.2-0.1-2.5,0.1-3.8C1799,1040.7,1805.7,1032.5,1815.4,1028.8z"/>
		<path class="st23" d="M1949.6,1110.7c-5.4,7.2-4.3,16-4.3,24.8c-0.6,8.8-10.5,12.2-17.7,14.9c-8.3,3.9-3.3,13.8-7.7,19.3
			c-9.9,12.2-29.3,6.1-43.1,6.1c-3.3,0-6.1,3.3-9.4,3.3c-12.2,0.6-19.6-12.9-28.5-19.2c-9.8-6.9-19.6-9.6-17.6-24.4
			c0.8-6.2,9.1-13.3,7.4-19.4c-2.2-7.2-16.7-7.9-9.1-17.6c8.2-10.6,5.8-23.3,5.8-33.8c0-8.8,5.5-16,13.8-19.3
			c8.8-3.3,17.3,7.5,25.7,8.5c6.5,0.8,11.3-1.5,16.2-5.4c14.3-11.5,23.4-5.9,38.3,7.4c5.5,4.4,11.1,8.3,16.6,12.7
			c9.4,8.3,17.1,18.8,14.6,31.5c0.1,1.8,0.4,3.8,0.3,5.6C1950.8,1107.6,1950.2,1109.2,1949.6,1110.7z"/>
	</g>
</g>
<rect class="st2" width="1920" height="1280"/>
<g>
	<path class="st23" d="M791.9,1445.1c21.8-36.3,62.4-47.1,101.1-62.7c37.7-18,34.7-67.5,34.1-103.7c2.3-43.1,54.6-38.9,71-68
		c35.6-65-25.1-138.9-49.4-199.4c-5.8-14.6,3.7-32.4-2.1-47c-19-54.2-79.2-91.8-130-99.4c-47.5-6.2-84.4-27.9-130.8-31.6
		c-10.6,1.5-16,9.2-25.6,13.2c-23.7,18-28,56.3-57.4,59.7c-35.4,3-90.7-50.6-104.6,5.6c-8.6,34.4,8.5,69.7,0.8,106.6
		c-36.4-27.5-81.1-54.5-127-36c-38.7,15.6-60.4,52.5-60.3,94.7c1.1,44.5,34.6,78.9,64.6,104.8c2.2,5.1,3.2,10,3.7,14.8
		c9.1,86.2,34.7,170.7,119.1,212.7c29.1,16.4,55.8,33.7,84.9,50.1c52.9,26.5,112.5,41.8,163.9,8.4c8.2-2.7,17.3-5,25.2-8.5
		C780.7,1455.7,786.2,1450.2,791.9,1445.1z"/>
	<path class="st23" d="M750.2,1451.3c7.8-2.5,16.4-4.7,23.9-8.1c7.5-3.4,12.7-8.5,18.1-13.3c20.7-34.5,59.7-43.6,96-59.5
		c36.3-16,31.7-64,32.3-98.5c0.8-41,52-36.9,67.4-64.5c34.2-61.5-23.8-131.9-47-189.2c-5.6-13.8,3.3-30.7-1.9-44.6
		c-19.3-51-75.1-87.6-123.4-94.4c-45-6.3-80.1-26.4-124.2-30c-10.1,1.4-15.2,8.8-24.3,12.5c-22.5,17.1-26.5,53.9-54.6,56.7
		c-33.5,3.4-86.1-48-99.3,5.3c-8.2,32.7,8,66.2,0.7,101.1c-34.5-26.1-76.9-51.8-120.5-34.2c-36.7,14.8-57.8,49.8-57.2,89.8
		c0.6,42.3,32.9,74.9,61.3,99.4c2.1,4.9,3.1,9.5,3.6,14c8.6,81.8,34,159.9,113,201.8c28,14.8,52.6,32.7,80.5,47.6
		C644.2,1469.7,701.4,1483.1,750.2,1451.3z"/>
	<path class="st23" d="M752.7,1434.9c7.3-2.4,15.5-4.4,22.6-7.7c7.1-3.2,12-8.1,17.2-12.6c19.5-32.6,56.5-41.2,90.8-56.3
		c34.3-15.1,30-60.6,30.6-93.2c0.7-38.8,49.2-34.9,63.8-61.1c32.3-58.2-22.5-124.8-44.5-179.1c-5.2-13.1,3.1-29-1.8-42.2
		c-18.2-48.3-71-82.9-116.8-89.3c-42.6-5.9-75.7-25-117.5-28.4c-9.6,1.3-14.3,8.3-23,11.8c-21.3,16.1-25,51-51.6,53.6
		c-31.7,3.2-81.5-45.5-94,5.1c-7.8,30.9,7.6,62.6,0.7,95.7c-32.7-24.7-72.8-49-114.1-32.3c-34.8,14-54.6,47.2-54.1,85
		c0.5,40,31.1,70.9,58,94.1c2,4.6,2.9,9,3.3,13.3c8.1,77.4,32.2,151.4,106.9,191c26.5,14,49.8,30.9,76.3,45.1
		C652.4,1452.3,706.5,1464.9,752.7,1434.9z"/>
	<path class="st23" d="M755.2,1418.6c6.9-2.3,14.6-4.2,21.4-7.2c6.7-3.1,11.3-7.6,16.2-11.9c18.4-30.8,53.3-38.9,85.7-53.1
		c32.4-14.3,28.3-57.1,28.9-87.9c0.7-36.6,46.4-32.9,60.1-57.6c30.5-54.9-21.3-117.7-41.9-168.9c-5-12.3,3-27.4-1.7-39.8
		c-17.2-45.5-67-78.2-110.2-84.2c-40.2-5.6-71.5-23.6-110.9-26.8c-9.1,1.2-13.5,7.8-21.7,11.2c-20,15.3-23.6,48-48.7,50.6
		c-29.9,3.1-76.9-42.9-88.6,4.8c-7.3,29.1,7.1,59.1,0.7,90.3c-30.9-23.3-68.7-46.2-107.6-30.5c-32.8,13.2-51.6,44.5-51.1,80.2
		c0.5,37.7,29.3,66.8,54.6,88.7c1.9,4.4,2.7,8.5,3.1,12.6c7.7,73,30.3,142.8,100.9,180.2c25,13.2,47,29.2,71.9,42.4
		C660.7,1434.9,711.7,1446.8,755.2,1418.6z"/>
	<path class="st23" d="M757.8,1402.1c6.5-2.2,13.8-4,20-6.8c6.3-2.8,10.7-7.1,15.3-11.2c17.3-28.9,50.1-36.5,80.5-49.9
		c30.5-13.4,26.6-53.7,27.2-82.6c0.6-34.3,43.6-30.9,56.6-54.1c28.7-51.6-20-110.6-39.4-158.8c-4.6-11.6,2.8-25.7-1.7-37.4
		c-16.1-42.8-63-73.5-103.5-79.1c-37.7-5.3-67.2-22.2-104.2-25.2c-8.5,1.2-12.7,7.3-20.4,10.5c-18.8,14.3-22.2,45.1-45.8,47.6
		c-28.1,2.9-72.3-40.3-83.3,4.4c-6.9,27.4,6.7,55.5,0.6,84.8c-29-21.9-64.5-43.4-101.1-28.7c-30.9,12.5-48.5,41.7-48,75.3
		c0.5,35.5,27.5,62.8,51.4,83.4c1.7,4.1,2.6,8,3,11.8c7.2,68.6,28.5,134.2,94.8,169.4c23.5,12.5,44.1,27.5,67.6,39.9
		C668.9,1417.5,716.9,1428.8,757.8,1402.1z"/>
	<path class="st23" d="M760.3,1385.7c6.1-2,12.9-3.7,18.7-6.4c5.9-2.6,10-6.7,14.3-10.5c16.2-27.1,46.9-34.2,75.4-46.7
		c28.5-12.6,24.9-50.2,25.5-77.3c0.6-32.2,40.8-28.9,52.9-50.6c26.8-48.3-18.7-103.5-36.9-148.6c-4.4-10.8,2.6-24.1-1.6-35
		c-15.1-40.1-59-68.8-96.9-74.1c-35.3-5-62.8-20.7-97.5-23.5c-7.9,1.1-11.9,6.9-19.1,9.8c-17.7,13.4-20.7,42.3-42.8,44.5
		c-26.3,2.7-67.6-37.7-77.9,4.2c-6.4,25.6,6.3,51.9,0.6,79.4c-27.1-20.5-60.4-40.6-94.7-26.8c-28.8,11.6-45.3,39.1-44.9,70.5
		c0.4,33.2,25.8,58.7,48.1,78.1c1.7,3.8,2.4,7.5,2.8,11.1c6.7,64.2,26.7,125.6,88.7,158.5c22,11.7,41.3,25.7,63.3,37.4
		C677.1,1400.1,722,1410.6,760.3,1385.7z"/>
	<path class="st23" d="M762.8,1369.3c5.7-1.8,12-3.5,17.4-5.9c5.5-2.4,9.3-6.3,13.2-9.8c15.1-25.2,43.7-31.9,70.2-43.5
		c26.6-11.7,23.2-46.8,23.7-72c0.5-30,38-26.9,49.3-47.2c25-45-17.4-96.5-34.3-138.4c-4.1-10.1,2.4-22.5-1.4-32.6
		c-14-37.3-54.9-64.1-90.3-69c-32.9-4.6-58.6-19.3-90.8-22c-7.4,1-11.1,6.4-17.8,9.2c-16.5,12.5-19.3,39.4-39.9,41.5
		c-24.5,2.4-63-35.1-72.6,3.9c-6,23.9,5.8,48.4,0.5,74c-25.3-19.1-56.2-37.8-88.2-25c-26.8,10.8-42.3,36.4-41.8,65.7
		c0.4,30.9,24.1,54.7,44.8,72.8c1.6,3.6,2.3,7,2.6,10.3c6.3,59.8,24.8,117.1,82.7,147.6c20.5,10.8,38.4,23.9,58.9,34.8
		C685.3,1382.7,727.2,1392.5,762.8,1369.3z"/>
	<path class="st23" d="M765.4,1352.8c5.2-1.7,11.1-3.2,16.2-5.5c5.1-2.3,8.6-5.8,12.3-9.1c14-23.4,40.4-29.5,65-40.4
		c24.7-10.8,21.5-43.4,22-66.8c0.5-27.8,35.2-24.9,45.7-43.8c23.2-41.7-16.1-89.4-31.8-128.3c-3.7-9.3,2.3-20.8-1.3-30.2
		c-13.1-34.6-50.9-59.4-83.7-64c-30.5-4.3-54.3-18-84.2-20.3c-6.9,1-10.3,5.9-16.5,8.5c-15.3,11.6-18,36.5-37,38.4
		c-22.7,2.3-58.4-32.6-67.3,3.6c-5.6,22.1,5.4,44.9,0.5,68.5c-23.4-17.7-52.1-35-81.7-23.2c-24.9,10-39.1,33.7-38.8,60.8
		c0.3,28.7,22.2,50.7,41.5,67.4c1.4,3.3,2.1,6.4,2.4,9.5c5.8,55.4,23,108.4,76.6,136.8c19,10,35.6,22.1,54.6,32.2
		C693.5,1365.3,732.3,1374.4,765.4,1352.8z"/>
	<path class="st23" d="M767.9,1336.5c4.8-1.6,10.2-3,14.9-5.1c4.7-2.1,7.9-5.3,11.3-8.3c12.9-21.5,37.3-27.2,59.9-37.1
		c22.7-9.9,19.8-39.9,20.2-61.4c0.4-25.5,32.4-23,42.1-40.3c21.4-38.4-14.8-82.3-29.3-118.1c-3.5-8.6,2-19.2-1.2-27.8
		c-12-31.8-46.9-54.6-77-58.9c-28.1-3.9-49.9-16.5-77.5-18.7c-6.3,0.9-9.4,5.5-15.2,7.8c-14,10.6-16.6,33.6-34.1,35.4
		c-20.9,2.1-53.7-30-62,3.3c-5.1,20.4,5,41.3,0.4,63.1c-21.5-16.3-48-32.2-75.2-21.4c-22.9,9.2-36.1,31.1-35.7,56
		c0.3,26.4,20.5,46.7,38.3,62.1c1.3,3.1,1.9,5.9,2.2,8.8c5.3,51.1,21.2,99.9,70.5,125.9c17.5,9.2,32.9,20.4,50.3,29.7
		C701.7,1348,737.5,1356.2,767.9,1336.5z"/>
	<path class="st23" d="M770.4,1320.1c4.4-1.5,9.3-2.7,13.6-4.6c4.3-1.9,7.2-4.9,10.4-7.6c11.8-19.7,34.1-24.8,54.7-33.9
		c20.7-9.2,18.1-36.5,18.5-56.1c0.4-23.4,29.6-21,38.4-36.8c19.5-35.1-13.6-75.2-26.8-108c-3.1-7.8,1.8-17.5-1.1-25.5
		c-11-29.1-42.9-49.9-70.4-53.9c-25.7-3.6-45.7-15.1-70.9-17.1c-5.8,0.8-8.6,5-13.9,7.1c-12.8,9.8-15.1,30.7-31.1,32.3
		c-19.1,1.9-49.1-27.4-56.7,3.1c-4.7,18.7,4.5,37.7,0.4,57.7c-19.7-14.9-43.8-29.5-68.8-19.5c-20.9,8.5-32.9,28.4-32.6,51.2
		c0.3,24.1,18.7,42.7,35,56.7c1.2,2.8,1.7,5.4,2,8c4.9,46.6,19.4,91.3,64.5,115.1c16,8.5,30,18.7,45.9,27.1
		C710,1330.5,742.6,1338.1,770.4,1320.1z"/>
	<path class="st23" d="M772.9,1303.6c4-1.3,8.5-2.4,12.4-4.2c3.8-1.7,6.5-4.4,9.4-6.9c10.6-17.8,30.9-22.5,49.6-30.8
		c18.7-8.3,16.4-33,16.7-50.9c0.4-21.2,26.8-19,34.9-33.4c17.7-31.8-12.3-68.2-24.2-97.8c-2.9-7.1,1.7-15.9-1-23
		c-9.9-26.3-38.8-45.2-63.8-48.7c-23.3-3.2-41.4-13.7-64.1-15.5c-5.2,0.7-7.8,4.5-12.6,6.4c-11.6,8.8-13.7,27.8-28.2,29.3
		c-17.3,1.7-44.5-24.8-51.3,2.8c-4.3,16.9,4.1,34.2,0.3,52.3c-17.9-13.5-39.7-26.8-62.3-17.6c-19,7.7-29.8,25.7-29.5,46.4
		c0.3,21.9,17,38.7,31.6,51.4c1,2.5,1.6,4.9,1.8,7.2c4.4,42.3,17.6,82.6,58.4,104.3c14.5,7.7,27.2,16.9,41.7,24.6
		C718.2,1313.1,747.7,1320.1,772.9,1303.6z"/>
	<path class="st23" d="M775.5,1287.2c3.6-1.2,7.6-2.2,11.1-3.7c3.5-1.6,5.9-3.9,8.4-6.2c9.6-16,27.6-20.1,44.5-27.5
		s14.7-29.6,15-45.6c0.3-19,24.1-17.1,31.2-29.9c15.9-28.5-11-61.1-21.7-87.7c-2.6-6.4,1.5-14.2-0.9-20.7
		c-8.9-23.6-34.8-40.5-57.2-43.7c-20.8-2.9-37-12.2-57.5-13.9c-4.7,0.6-7,4.1-11.2,5.8c-10.4,7.9-12.3,24.9-25.3,26.2
		c-15.5,1.6-39.8-22.2-45.9,2.4c-3.7,15.2,3.7,30.7,0.3,46.8c-16-12.1-35.6-24-55.8-15.8c-17,6.9-26.8,23.1-26.5,41.6
		c0.3,19.6,15.2,34.7,28.3,46c1,2.3,1.4,4.4,1.7,6.5c4,37.8,15.8,74.1,52.4,93.4c13,6.9,24.3,15.2,37.3,22.1
		C726.5,1295.8,752.9,1301.9,775.5,1287.2z"/>
	<path class="st23" d="M778.1,1270.8c3.1-1,6.7-1.9,9.8-3.3c3.1-1.4,5.2-3.5,7.4-5.5c8.5-14.1,24.4-17.9,39.3-24.3
		c14.9-6.5,13-26.2,13.2-40.3c0.3-16.7,21.3-15.1,27.6-26.4c14-25.2-9.8-54-19.2-77.5c-2.3-5.7,1.3-12.6-0.8-18.2
		c-7.8-20.9-30.8-35.8-50.6-38.6c-18.4-2.6-32.8-10.8-50.8-12.3c-4.1,0.6-6.2,3.6-9.9,5.1c-9.2,7-10.8,22.1-22.3,23.2
		c-13.7,1.4-35.2-19.7-40.6,2.2c-3.3,13.3,3.3,27.1,0.3,41.4c-14.1-10.7-31.5-21.2-49.3-13.9c-15.1,6.1-23.6,20.4-23.4,36.8
		c0.3,17.3,13.4,30.7,25.1,40.7c0.9,2,1.2,3.9,1.5,5.8c3.5,33.5,13.9,65.5,46.3,82.6c11.5,6.1,21.5,13.4,32.9,19.5
		C734.7,1278.3,758.1,1283.8,778.1,1270.8z"/>
	<path class="st23" d="M780.6,1254.4c2.8-0.9,5.8-1.7,8.5-2.9c2.7-1.2,4.5-3.1,6.4-4.7c7.3-12.3,21.3-15.5,34.2-21.2
		c12.9-5.7,11.2-22.7,11.5-35c0.3-14.6,18.5-13.1,24-22.9c12.2-21.9-8.5-46.9-16.7-67.3c-2-4.9,1.1-10.9-0.7-15.9
		c-6.8-18.1-26.7-31.1-43.9-33.6c-16-2.3-28.5-9.4-44.2-10.6c-3.6,0.5-5.4,3.1-8.6,4.4c-8,6.1-9.4,19.2-19.4,20.1
		c-11.9,1.2-30.6-17.1-35.3,1.9c-2.9,11.6,2.9,23.5,0.3,36c-12.3-9.3-27.4-18.4-42.9-12.1c-13.1,5.2-20.6,17.7-20.3,31.9
		c0.2,15.1,11.7,26.6,21.8,35.4c0.8,1.7,1.1,3.4,1.2,5c3.1,29.1,12.1,56.9,40.2,71.8c9.9,5.3,18.7,11.6,28.7,16.9
		C742.9,1261,763.3,1265.7,780.6,1254.4z"/>
	<path class="st23" d="M783.1,1238c2.4-0.8,5-1.4,7.2-2.4c2.3-1,3.8-2.6,5.5-4c6.3-10.4,18-13.2,29-18c11-4.8,9.6-19.3,9.8-29.7
		c0.3-12.4,15.7-11.2,20.4-19.5c10.3-18.6-7.1-39.8-14.2-57.2c-1.7-4.2,1-9.2-0.6-13.4c-5.8-15.4-22.7-26.5-37.3-28.5
		c-13.6-1.9-24.1-8-37.5-9.1c-3.1,0.4-4.5,2.6-7.3,3.7c-6.8,5.1-8,16.3-16.5,17.1c-10.1,1-26-14.5-30,1.6c-2.4,9.8,2.4,20,0.3,30.5
		c-10.5-7.8-23.2-15.6-36.4-10.3c-11.1,4.4-17.4,15.1-17.3,27.1c0.2,12.8,9.9,22.6,18.5,30.1c0.6,1.5,1,2.9,1,4.3
		c2.6,24.7,10.3,48.3,34.2,60.9c8.5,4.4,15.9,9.8,24.3,14.4C751.1,1243.5,768.4,1247.6,783.1,1238z"/>
	<path class="st23" d="M785.7,1221.6c1.9-0.6,4.1-1.1,5.9-2c1.8-0.9,3.1-2.1,4.5-3.3c5.1-8.5,14.8-10.8,23.8-14.8
		c9-4,7.8-15.9,8-24.4c0.2-10.2,12.9-9.2,16.7-16c8.5-15.3-5.9-32.8-11.7-47c-1.4-3.4,0.8-7.6-0.5-11.1
		c-4.8-12.6-18.7-21.8-30.7-23.4c-11.2-1.6-19.9-6.5-30.9-7.4c-2.5,0.3-3.7,2.2-6,3.1c-5.6,4.3-6.5,13.3-13.5,14
		c-8.3,0.9-21.4-11.9-24.7,1.3c-2,8.1,2,16.5,0.2,25.1c-8.5-6.4-19.1-12.8-29.9-8.5c-9.2,3.7-14.4,12.4-14.2,22.3
		c0.2,10.5,8.2,18.6,15.3,24.7c0.5,1.2,0.8,2.4,0.9,3.5c2.1,20.3,8.5,39.7,28.1,50.1c7,3.7,13.1,8.1,20,11.9
		C759.3,1226.1,773.5,1229.4,785.7,1221.6z"/>
	<path class="st23" d="M796.4,1201c4-6.7,11.5-8.7,18.7-11.6c7-3.3,6.4-12.5,6.3-19.2c0.4-7.9,10.1-7.1,13.1-12.6
		c6.6-12-4.6-25.6-9.2-36.9c-1-2.7,0.7-6-0.3-8.7c-3.5-10-14.6-17-24.1-18.4c-8.8-1.1-15.6-5.1-24.1-5.8c-2,0.3-3,1.7-4.7,2.4
		c-4.4,3.3-5.1,10.4-10.6,11.1c-6.5,0.5-16.7-9.3-19.3,1c-1.6,6.4,1.6,12.9,0.2,19.7c-6.7-5.1-15-10.1-23.4-6.6
		c-7.1,2.9-11.2,9.7-11.2,17.4c0.2,8.2,6.4,14.6,11.9,19.3c0.4,1,0.6,1.8,0.7,2.7c1.7,16,6.4,31.6,22,39.3
		c5.4,3.1,10.3,6.3,15.7,9.2c9.8,4.9,20.7,7.8,30.2,1.6c1.5-0.5,3.2-1,4.6-1.6C794.3,1202.9,795.3,1202,796.4,1201z"/>
</g>
<rect class="st2" width="1920" height="1280"/>
<path class="st24" d="M1675.2,585.9h-2.7v-2.7c0-1.4-1.1-2.6-2.6-2.6s-2.6,1.1-2.6,2.6v2.7h-2.7c-1.4,0-2.6,1.1-2.6,2.6
	s1.1,2.6,2.6,2.6h2.7v2.7c0,1.4,1.1,2.6,2.6,2.6s2.6-1.1,2.6-2.6V591h2.7c1.4,0,2.6-1.1,2.6-2.6S1676.6,585.9,1675.2,585.9z
	 M1700.8,591h2.7v2.7c0,1.4,1.1,2.6,2.6,2.6s2.6-1.1,2.6-2.6V591h2.7c1.4,0,2.6-1.1,2.6-2.6s-1.1-2.6-2.6-2.6h-2.7v-2.7
	c0-1.4-1.1-2.6-2.6-2.6s-2.6,1.1-2.6,2.6v2.7h-2.7c-1.4,0-2.6,1.1-2.6,2.6S1699.3,591,1700.8,591z M1711.3,622.1h-2.7v-2.7
	c0-1.4-1.1-2.6-2.6-2.6s-2.6,1.1-2.6,2.6v2.7h-2.7c-1.4,0-2.6,1.1-2.6,2.6s1.1,2.6,2.6,2.6h2.7v2.7c0,1.4,1.1,2.6,2.6,2.6
	s2.6-1.1,2.6-2.6v-2.7h2.7c1.4,0,2.6-1.1,2.6-2.6S1712.7,622.1,1711.3,622.1z M1675.2,622.1h-2.7v-2.7c0-1.4-1.1-2.6-2.6-2.6
	s-2.6,1.1-2.6,2.6v2.7h-2.7c-1.4,0-2.6,1.1-2.6,2.6s1.1,2.6,2.6,2.6h2.7v2.7c0,1.4,1.1,2.6,2.6,2.6s2.6-1.1,2.6-2.6v-2.7h2.7
	c1.4,0,2.6-1.1,2.6-2.6S1676.6,622.1,1675.2,622.1z"/>
<path class="st24" d="M86.4,154.6h-2.7v-2.7c0-1.4-1.1-2.6-2.6-2.6s-2.6,1.1-2.6,2.6v2.7h-2.7c-1.4,0-2.6,1.1-2.6,2.6
	s1.1,2.6,2.6,2.6h2.7v2.7c0,1.4,1.1,2.6,2.6,2.6s2.6-1.1,2.6-2.6v-2.8h2.7c1.4,0,2.6-1.1,2.6-2.6S87.8,154.6,86.4,154.6z M112,159.7
	h2.7v2.7c0,1.4,1.1,2.6,2.6,2.6s2.6-1.1,2.6-2.6v-2.7h2.7c1.4,0,2.6-1.1,2.6-2.6s-1.1-2.6-2.6-2.6h-2.7v-2.7c0-1.4-1.1-2.6-2.6-2.6
	s-2.6,1.1-2.6,2.6v2.7H112c-1.4,0-2.6,1.1-2.6,2.6S110.5,159.7,112,159.7z M122.5,190.8h-2.7v-2.7c0-1.4-1.1-2.6-2.6-2.6
	s-2.6,1.1-2.6,2.6v2.7h-2.7c-1.4,0-2.6,1.1-2.6,2.6s1.1,2.6,2.6,2.6h2.7v2.7c0,1.4,1.1,2.6,2.6,2.6s2.6-1.1,2.6-2.6V196h2.7
	c1.4,0,2.6-1.1,2.6-2.6S123.9,190.8,122.5,190.8z M86.4,190.8h-2.7v-2.7c0-1.4-1.1-2.6-2.6-2.6s-2.6,1.1-2.6,2.6v2.7h-2.7
	c-1.4,0-2.6,1.1-2.6,2.6s1.1,2.6,2.6,2.6h2.7v2.7c0,1.4,1.1,2.6,2.6,2.6s2.6-1.1,2.6-2.6V196h2.7c1.4,0,2.6-1.1,2.6-2.6
	S87.8,190.8,86.4,190.8z"/>
<path class="st24" d="M195.7,338.5H193v-2.7c0-1.4-1.1-2.6-2.6-2.6s-2.6,1.1-2.6,2.6v2.7h-2.7c-1.4,0-2.6,1.1-2.6,2.6
	s1.1,2.6,2.6,2.6h2.7v2.7c0,1.4,1.1,2.6,2.6,2.6s2.6-1.1,2.6-2.6v-2.8h2.7c1.4,0,2.6-1.1,2.6-2.6S197.1,338.5,195.7,338.5z
	 M221.3,343.6h2.7v2.7c0,1.4,1.1,2.6,2.6,2.6s2.6-1.1,2.6-2.6v-2.7h2.7c1.4,0,2.6-1.1,2.6-2.6s-1.1-2.6-2.6-2.6h-2.7v-2.7
	c0-1.4-1.1-2.6-2.6-2.6s-2.6,1.1-2.6,2.6v2.7h-2.7c-1.4,0-2.6,1.1-2.6,2.6S219.8,343.6,221.3,343.6z M231.8,374.7h-2.7V372
	c0-1.4-1.1-2.6-2.6-2.6s-2.6,1.1-2.6,2.6v2.7h-2.7c-1.4,0-2.6,1.1-2.6,2.6s1.1,2.6,2.6,2.6h2.7v2.7c0,1.4,1.1,2.6,2.6,2.6
	s2.6-1.1,2.6-2.6v-2.7h2.7c1.4,0,2.6-1.1,2.6-2.6S233.2,374.7,231.8,374.7z M195.7,374.7H193V372c0-1.4-1.1-2.6-2.6-2.6
	s-2.6,1.1-2.6,2.6v2.7h-2.7c-1.4,0-2.6,1.1-2.6,2.6s1.1,2.6,2.6,2.6h2.7v2.7c0,1.4,1.1,2.6,2.6,2.6s2.6-1.1,2.6-2.6v-2.7h2.7
	c1.4,0,2.6-1.1,2.6-2.6S197.1,374.7,195.7,374.7z"/>
<path class="st24" d="M409.1,802.5h-2.7v-2.7c0-1.4-1.1-2.6-2.6-2.6s-2.6,1.1-2.6,2.6v2.7h-2.7c-1.4,0-2.6,1.1-2.6,2.6
	s1.1,2.6,2.6,2.6h2.7v2.7c0,1.4,1.1,2.6,2.6,2.6s2.6-1.1,2.6-2.6v-2.8h2.7c1.4,0,2.6-1.1,2.6-2.6S410.5,802.5,409.1,802.5z
	 M434.7,807.6h2.7v2.7c0,1.4,1.1,2.6,2.6,2.6s2.6-1.1,2.6-2.6v-2.7h2.7c1.4,0,2.6-1.1,2.6-2.6s-1.1-2.6-2.6-2.6h-2.7v-2.7
	c0-1.4-1.1-2.6-2.6-2.6s-2.6,1.1-2.6,2.6v2.7h-2.7c-1.4,0-2.6,1.1-2.6,2.6S433.2,807.6,434.7,807.6z M445.2,838.7h-2.7V836
	c0-1.4-1.1-2.6-2.6-2.6s-2.6,1.1-2.6,2.6v2.7h-2.7c-1.4,0-2.6,1.1-2.6,2.6s1.1,2.6,2.6,2.6h2.7v2.7c0,1.4,1.1,2.6,2.6,2.6
	s2.6-1.1,2.6-2.6v-2.7h2.7c1.4,0,2.6-1.1,2.6-2.6S446.6,838.7,445.2,838.7z M409.1,838.7h-2.7V836c0-1.4-1.1-2.6-2.6-2.6
	s-2.6,1.1-2.6,2.6v2.7h-2.7c-1.4,0-2.6,1.1-2.6,2.6s1.1,2.6,2.6,2.6h2.7v2.7c0,1.4,1.1,2.6,2.6,2.6s2.6-1.1,2.6-2.6v-2.7h2.7
	c1.4,0,2.6-1.1,2.6-2.6S410.5,838.7,409.1,838.7z"/>
<path class="st24" d="M1839.6,250.8h-2.7v-2.7c0-1.4-1.1-2.6-2.6-2.6s-2.6,1.1-2.6,2.6v2.7h-2.7c-1.4,0-2.6,1.1-2.6,2.6
	s1.1,2.6,2.6,2.6h2.7v2.7c0,1.4,1.1,2.6,2.6,2.6s2.6-1.1,2.6-2.6v-2.8h2.7c1.4,0,2.6-1.1,2.6-2.6S1841,250.8,1839.6,250.8z
	 M1865.2,255.9h2.7v2.7c0,1.4,1.1,2.6,2.6,2.6s2.6-1.1,2.6-2.6v-2.7h2.7c1.4,0,2.6-1.1,2.6-2.6s-1.1-2.6-2.6-2.6h-2.7V248
	c0-1.4-1.1-2.6-2.6-2.6s-2.6,1.1-2.6,2.6v2.7h-2.7c-1.4,0-2.6,1.1-2.6,2.6S1863.7,255.9,1865.2,255.9z M1875.7,287h-2.7v-2.7
	c0-1.4-1.1-2.6-2.6-2.6s-2.6,1.1-2.6,2.6v2.7h-2.7c-1.4,0-2.6,1.1-2.6,2.6s1.1,2.6,2.6,2.6h2.7v2.7c0,1.4,1.1,2.6,2.6,2.6
	s2.6-1.1,2.6-2.6v-2.7h2.7c1.4,0,2.6-1.1,2.6-2.6S1877.1,287,1875.7,287z M1839.6,287h-2.7v-2.7c0-1.4-1.1-2.6-2.6-2.6
	s-2.6,1.1-2.6,2.6v2.7h-2.7c-1.4,0-2.6,1.1-2.6,2.6s1.1,2.6,2.6,2.6h2.7v2.7c0,1.4,1.1,2.6,2.6,2.6s2.6-1.1,2.6-2.6v-2.7h2.7
	c1.4,0,2.6-1.1,2.6-2.6S1841,287,1839.6,287z"/>
<g>
	<defs>
		<rect id="SVGID_3_" width="1920" height="1280"/>
	</defs>
	<clipPath id="SVGID_4_">
		<use xlink:href="#SVGID_3_"  style="overflow:visible;"/>
	</clipPath>
	<path class="st25" d="M233.2,449.7"/>
</g>
<g>
	<defs>
		<rect id="SVGID_5_" width="1920" height="1280"/>
	</defs>
	<clipPath id="SVGID_6_">
		<use xlink:href="#SVGID_5_"  style="overflow:visible;"/>
	</clipPath>
	<path class="st26" d="M226.3,445.7"/>
</g>
<rect class="st2" width="1920" height="1280"/>
</svg>
