<?xml version="1.0" encoding="utf-8"?>
<!-- Generator: Adobe Illustrator 22.0.1, SVG Export Plug-In . SVG Version: 6.00 Build 0)  -->
<svg version="1.1" id="Layer_1" xmlns="http://www.w3.org/2000/svg" xmlns:xlink="http://www.w3.org/1999/xlink" x="0px" y="0px"
	 viewBox="0 0 200 200" style="enable-background:new 0 0 200 200;" xml:space="preserve">
<style type="text/css">
	.st0{clip-path:url(#SVGID_2_);}
	.st1{fill:none;stroke:#DCE7FF;stroke-width:0.5;stroke-miterlimit:10;}
</style>
<image style="display:none;overflow:visible;" width="1080" height="1080" xlink:href="../../../../Users/Bhavi/Downloads/brandbrainy___CAqYzusgPPx___.jpg"  transform="matrix(0.1667 0 0 0.1667 16 10)">
</image>
<g>
	<defs>
		<rect id="SVGID_1_" x="0.5" y="-0.5" width="200" height="201"/>
	</defs>
	<clipPath id="SVGID_2_">
		<use xlink:href="#SVGID_1_"  style="overflow:visible;"/>
	</clipPath>
	<g class="st0">
		<g>
			<path class="st1" d="M64.3-17.6C70.2-6.8,77.4,9.2,77.8,21c0.4,14.4-9.6,16.2-17.1,21.9c-5.4,4.1-11.8,9.5-15.3,17.7
				c-2.6,6.1-2,13.8,1.5,20.8c3.6,7.2,9.3,11.5,16,16.2c8.6,6,17.5,13,26.8,20.3c26.1,20.9,57.9,47.3,79.9,77.6
				c4,5.5,7.5,11.1,10.4,16.7"/>
			<path class="st1" d="M62.8-18.4c5.7,10.8,12.7,27,13,38.8c0.3,14.4-9.7,16.2-17.3,22c-5.5,4.1-11.9,9.5-15.6,17.8
				c-2.7,6.2-2.2,13.9,1.2,20.8c3.5,7.2,9.1,11.6,15.8,16.3c8.5,6.1,17.4,13.1,26.6,20.4c25.9,21.1,57.5,47.7,79.3,78.2
				c3.9,5.6,7.4,11.2,10.3,16.8"/>
			<path class="st1" d="M61.2-19.3c5.6,10.9,12.4,27.2,12.6,39c0.1,14.5-9.9,16.3-17.5,22c-5.5,4.1-12,9.5-15.8,17.8
				c-2.8,6.2-2.5,13.9,0.8,20.9c3.4,7.3,9,11.7,15.6,16.5c8.5,6.1,17.3,13.2,26.3,20.6c25.7,21.3,57,48.2,78.6,78.9
				c3.9,5.6,7.3,11.2,10.1,16.9"/>
			<path class="st1" d="M59.7-20.1c5.4,11,12,27.3,12.1,39.2c0,14.6-10,16.3-17.7,22.1C48.5,45.3,41.9,50.6,38,59
				c-2.9,6.2-2.7,14,0.5,21c3.3,7.3,8.8,11.8,15.3,16.6c8.4,6.2,17.1,13.3,26.1,20.8c25.5,21.4,56.6,48.6,77.8,79.5
				c3.8,5.6,7.2,11.3,9.9,17"/>
			<path class="st1" d="M58.3-21C63.5-10,70,6.5,69.9,18.4c-0.2,14.6-10.2,16.4-18,22.1c-5.6,4.1-12.3,9.5-16.3,17.8
				c-3,6.2-2.9,14,0.2,21.1c3.2,7.3,8.7,11.8,15.1,16.7c8.3,6.2,17,13.4,25.9,21c25.3,21.6,56.1,49,77.1,80.1
				c3.8,5.7,7.1,11.4,9.8,17.1"/>
			<path class="st1" d="M56.8-21.8C61.9-10.7,68.2,5.8,68,17.8c-0.3,14.7-10.3,16.4-18.2,22.2c-5.7,4.1-12.4,9.5-16.6,17.9
				C30.1,64,30.1,71.9,33.1,79c3.1,7.4,8.5,11.9,14.9,16.8c8.3,6.3,16.8,13.5,25.7,21.1c25.1,21.8,55.7,49.4,76.4,80.8
				c3.7,5.7,7,11.5,9.6,17.2"/>
			<path class="st1" d="M55.4-22.7c4.9,11.1,11,27.8,10.6,39.8c-0.5,14.8-10.5,16.4-18.4,22.2c-5.7,4.1-12.5,9.5-16.9,17.9
				c-3.2,6.2-3.4,14.1-0.5,21.2c3,7.4,8.3,12,14.7,16.9c8.2,6.4,16.7,13.7,25.4,21.3c24.8,22,55.2,49.8,75.6,81.4
				c3.6,5.7,6.8,11.5,9.4,17.3"/>
			<path class="st1" d="M54-23.5c4.7,11.2,10.6,27.9,10.1,40C63.5,31.3,53.5,33,45.5,38.7c-5.8,4.1-12.7,9.5-17.1,17.9
				c-3.3,6.2-3.6,14.1-0.8,21.3c2.9,7.5,8.2,12,14.5,17c8.1,6.4,16.5,13.8,25.2,21.5c24.6,22.1,54.7,50.2,74.8,82
				c3.6,5.8,6.7,11.6,9.3,17.4"/>
			<path class="st1" d="M52.7-24.4c4.6,11.3,10.2,28,9.6,40.2c-0.8,14.9-10.8,16.5-18.9,22.3C37.6,42.2,30.6,47.6,26,56
				c-3.4,6.2-3.8,14.2-1.2,21.4c2.8,7.5,8,12.1,14.2,17.1c8,6.5,16.4,13.9,25,21.6c24.3,22.3,54.2,50.6,74,82.6
				c3.5,5.8,6.6,11.7,9.1,17.5"/>
			<path class="st1" d="M51.3-25.2c4.4,11.3,9.8,28.2,9.1,40.4c-1,14.9-11,16.6-19.1,22.3c-5.9,4.1-12.9,9.5-17.7,17.9
				c-3.5,6.3-4.1,14.2-1.5,21.4c2.7,7.5,7.8,12.2,14,17.2c8,6.5,16.2,14,24.7,21.8c24.1,22.5,53.7,51,73.1,83.2
				c3.5,5.9,6.5,11.8,8.9,17.6"/>
			<path class="st1" d="M50-26c4.2,11.4,9.4,28.3,8.5,40.5c-1.2,15-11.2,16.6-19.4,22.3c-5.9,4.1-13.1,9.5-18,17.9
				c-3.6,6.3-4.3,14.2-1.9,21.5c2.5,7.6,7.6,12.2,13.8,17.3c7.9,6.6,16,14.1,24.5,22c23.8,22.6,53.2,51.4,72.3,83.7
				c3.4,5.9,6.4,11.8,8.7,17.7"/>
			<path class="st1" d="M48.7-26.8c4,11.4,9,28.4,8,40.7c-1.3,15-11.3,16.6-19.6,22.4c-6,4.1-13.2,9.5-18.2,17.9
				c-3.7,6.3-4.6,14.2-2.2,21.6c2.4,7.6,7.4,12.3,13.5,17.4c7.8,6.6,15.9,14.2,24.2,22.1c23.6,22.8,52.7,51.7,71.4,84.3
				c3.3,5.9,6.2,11.9,8.5,17.8"/>
			<path class="st1" d="M47.5-27.7c3.8,11.5,8.6,28.5,7.4,40.9C53.4,28.3,43.4,29.8,35,35.6c-6,4.1-13.3,9.5-18.5,17.9
				c-3.8,6.3-4.8,14.3-2.6,21.6c2.3,7.6,7.3,12.4,13.3,17.5c7.7,6.6,15.7,14.3,23.9,22.3c23.3,22.9,52.1,52.1,70.5,84.9
				c3.3,6,6.1,12,8.3,17.9"/>
			<path class="st1" d="M46.3-28.5c3.6,11.5,8.2,28.7,6.8,41C51.4,27.7,41.4,29.2,33,35c-6.1,4.1-13.5,9.5-18.8,17.9
				c-3.9,6.3-5.1,14.3-3,21.7c2.2,7.6,7.1,12.4,13,17.6c7.6,6.7,15.5,14.4,23.7,22.4c23.1,23.1,51.6,52.5,69.6,85.4
				c3.2,6,6,12,8.1,18"/>
			<path class="st1" d="M45.1-29.3c3.4,11.5,7.7,28.8,6.3,41.2c-1.9,15.2-11.9,16.7-20.4,22.4c-6.2,4.1-13.6,9.5-19.1,17.9
				c-4,6.3-5.3,14.3-3.4,21.7c2.1,7.7,6.9,12.5,12.8,17.7c7.6,6.7,15.3,14.5,23.4,22.6c22.8,23.3,51,52.8,68.7,86
				c3.1,6,5.8,12.1,7.9,18.1"/>
			<path class="st1" d="M43.9-30.1c3.2,11.6,7.3,28.9,5.7,41.3c-2.1,15.2-12.1,16.7-20.7,22.5c-6.2,4.1-13.8,9.5-19.4,17.9
				c-4.2,6.3-5.6,14.3-3.7,21.8c1.9,7.7,6.7,12.5,12.5,17.8c7.5,6.8,15.2,14.6,23.1,22.7c22.5,23.4,50.5,53.2,67.8,86.5
				c3.1,6.1,5.7,12.2,7.7,18.2"/>
			<path class="st1" d="M42.8-30.9c3,11.6,6.9,29,5.1,41.5c-2.3,15.3-12.3,16.7-21,22.5c-6.3,4.1-13.9,9.4-19.8,17.9
				C2.9,57.2,1.3,65.3,3,72.7c1.8,7.7,6.5,12.6,12.2,17.9c7.4,6.8,15,14.7,22.8,22.9c22.2,23.6,49.9,53.6,66.8,87
				c3,6.1,5.6,12.2,7.5,18.3"/>
			<path class="st1" d="M41.7-31.7c2.8,11.7,6.4,29.1,4.5,41.6c-2.5,15.3-12.5,16.8-21.2,22.5c-6.3,4.1-14.1,9.4-20.1,17.9
				c-4.4,6.3-6.2,14.4-4.5,21.8c1.7,7.7,6.3,12.6,12,18c7.3,6.9,14.8,14.8,22.6,23c21.9,23.7,49.3,53.9,65.8,87.6
				c2.9,6.1,5.4,12.3,7.3,18.4"/>
			<path class="st1" d="M40.6-32.6c2.6,11.7,6,29.2,3.8,41.8C41.7,24.6,31.7,26,22.9,31.7c-6.4,4.1-14.3,9.4-20.4,17.9
				C-2,55.9-3.9,64-2.4,71.5c1.5,7.8,6.1,12.7,11.7,18c7.2,6.9,14.6,14.8,22.3,23.2c21.7,23.9,48.7,54.3,64.8,88.1
				c2.9,6.1,5.3,12.3,7,18.5"/>
			<path class="st1" d="M39.5-33.4C42-21.6,45-4,42.7,8.5c-2.9,15.4-12.9,16.8-21.8,22.5c-6.5,4.1-14.4,9.4-20.7,17.9
				c-4.6,6.3-6.7,14.4-5.3,21.9C-3.8,78.6,0.7,83.6,6.3,89c7.1,7,14.4,14.9,22,23.3c21.4,24,48.1,54.6,63.8,88.6
				c2.8,6.2,5.1,12.4,6.8,18.5"/>
			<path class="st1" d="M38.5-34.1c2.2,11.8,5,29.4,2.6,42C38,23.3,28,24.7,18.9,30.4c-6.5,4.1-14.6,9.4-21.1,17.9
				c-4.8,6.3-7,14.4-5.8,21.9C-6.6,78-2.2,83,3.3,88.4c7,7,14.2,15,21.7,23.4C46,136,72.4,166.8,87.8,200.9c2.7,6.2,5,12.5,6.6,18.6
				"/>
			<path class="st1" d="M37.5-34.9c2,11.8,4.6,29.5,1.9,42.1C36.1,22.7,26.1,24,17,29.7c-6.6,4.1-14.7,9.4-21.4,17.8
				c-4.9,6.3-7.3,14.4-6.2,22c1.1,7.8,5.5,12.8,10.9,18.3c6.9,7,14,15.1,21.4,23.6c20.8,24.3,46.8,55.3,61.7,89.6
				c2.6,6.2,4.8,12.5,6.3,18.7"/>
			<path class="st1" d="M36.5-35.7c1.8,11.8,4.1,29.6,1.3,42.2C34.2,22,24.3,23.4,15.1,29C8.4,33.1,0.1,38.4-6.7,46.9
				c-5,6.3-7.6,14.4-6.6,22c1,7.8,5.3,12.9,10.6,18.4c6.8,7.1,13.8,15.2,21.1,23.7c20.4,24.4,46.1,55.6,60.7,90
				c2.6,6.3,4.7,12.6,6.1,18.8"/>
			<path class="st1" d="M35.6-36.5c1.6,11.9,3.6,29.6,0.6,42.3c-3.8,15.5-13.8,16.9-23.1,22.5C6.4,32.4-2,37.7-9,46.2
				c-5.2,6.3-7.9,14.4-7,22c0.8,7.9,5.1,12.9,10.3,18.4c6.7,7.1,13.6,15.3,20.8,23.8c20.1,24.5,45.5,55.9,59.6,90.5
				c2.5,6.3,4.5,12.6,5.9,18.9"/>
			<path class="st1" d="M34.7-37.3C36-25.4,37.8-7.6,34.6,5.2c-4,15.6-14,16.9-23.4,22.5C4.4,31.8-4.1,37-11.2,45.5
				c-5.3,6.3-8.2,14.4-7.5,22c0.7,7.9,4.8,12.9,10,18.5c6.6,7.2,13.4,15.3,20.4,24c19.8,24.7,44.8,56.2,58.5,91
				c2.4,6.3,4.3,12.7,5.6,18.9"/>
			<path class="st1" d="M33.8-38C34.9-26.1,36.4-8.3,33,4.5C28.8,20.1,18.8,21.4,9.3,27c-6.9,4.1-15.4,9.3-22.8,17.7
				c-5.4,6.3-8.5,14.4-7.9,22c0.6,7.9,4.6,13,9.7,18.6c6.6,7.2,13.2,15.4,20.1,24.1c19.5,24.8,44.1,56.5,57.4,91.4
				c2.3,6.3,4.2,12.7,5.4,19"/>
			<path class="st1" d="M32.9-38.8C33.8-26.9,35-8.9,31.5,3.8C27,19.4,17,20.7,7.4,26.3c-6.9,4-15.6,9.3-23.2,17.7
				c-5.6,6.3-8.8,14.4-8.4,22c0.4,7.9,4.4,13,9.4,18.6c6.4,7.2,13,15.5,19.8,24.2c19.2,24.9,43.4,56.8,56.2,91.8
				c2.2,6.4,4,12.8,5.1,19.1"/>
			<path class="st1" d="M32.1-39.6c0.7,12,1.6,29.9-2.2,42.7C25.2,18.8,15.2,20,5.5,25.6c-7,4-15.8,9.2-23.5,17.7
				c-5.7,6.3-9.1,14.4-8.8,22c0.3,7.9,4.2,13.1,9.1,18.7c6.3,7.3,12.7,15.6,19.5,24.3c18.8,25,42.7,57.1,55,92.3
				c2.2,6.4,3.8,12.8,4.9,19.1"/>
			<path class="st1" d="M31.3-40.3c0.4,12,1.1,30-2.9,42.8C23.5,18.1,13.5,19.3,3.7,24.9c-7.1,4-16,9.2-23.9,17.6
				c-5.8,6.2-9.4,14.4-9.3,22c0.1,7.9,4,13.1,8.8,18.8c6.2,7.3,12.5,15.6,19.1,24.4c18.5,25.2,42,57.4,53.9,92.7
				c2.1,6.4,3.7,12.9,4.6,19.2"/>
			<path class="st1" d="M30.5-41.1c0.2,12,0.6,30-3.6,42.9C21.7,17.5,11.7,18.7,1.8,24.3c-7.2,4-16.2,9.2-24.3,17.6
				c-6,6.2-9.7,14.4-9.7,22c0,7.9,3.7,13.1,8.5,18.8c6.1,7.3,12.3,15.7,18.8,24.6c18.1,25.3,41.3,57.7,52.7,93.1
				c2,6.4,3.5,12.9,4.3,19.3"/>
			<path class="st1" d="M29.8-41.8c0,12,0,30.1-4.3,42.9C20,16.8,10,18,0,23.6c-7.2,4-16.4,9.1-24.7,17.5c-6.1,6.2-10,14.3-10.2,22
				c-0.2,8,3.5,13.1,8.2,18.9c6,7.4,12.1,15.8,18.4,24.7c17.8,25.4,40.5,57.9,51.4,93.5c1.9,6.5,3.3,12.9,4.1,19.3"/>
			<path class="st1" d="M29.1-42.6c-0.3,12-0.5,30.1-5.1,43C18.3,16.2,8.3,17.3-1.8,22.9c-7.3,4-16.6,9.1-25,17.5
				c-6.3,6.2-10.3,14.3-10.7,22c-0.3,8,3.3,13.2,7.9,18.9c5.9,7.4,11.8,15.9,18.1,24.8c17.4,25.5,39.8,58.2,50.2,93.9
				c1.8,6.5,3.1,13,3.8,19.4"/>
			<path class="st1" d="M28.4-43.3c-0.5,12-1.1,30.2-5.8,43c-5.9,15.7-16,16.9-26.2,22.4c-7.4,4-16.7,9.1-25.4,17.4
				c-6.4,6.2-10.7,14.3-11.1,22c-0.5,8,3,13.2,7.5,19c5.8,7.4,11.6,15.9,17.7,24.9c17.1,25.6,39,58.5,49,94.3
				c1.7,6.5,2.9,13,3.5,19.4"/>
			<path class="st1" d="M27.7-44C27-32,26.1-13.8,21.1-0.9C14.9,14.8,4.9,15.9-5.4,21.5c-7.5,4-16.9,9-25.8,17.3
				c-6.6,6.2-11,14.3-11.6,21.9c-0.7,8,2.8,13.2,7.2,19c5.7,7.5,11.4,16,17.4,25c16.7,25.7,38.2,58.7,47.7,94.7
				c1.6,6.5,2.8,13.1,3.2,19.5"/>
			<path class="st1" d="M27.1-44.7c-1,12-2.2,30.3-7.4,43.1C13.3,14.2,3.2,15.3-7.2,20.7c-7.5,3.9-17.1,9-26.2,17.3
				c-6.7,6.2-11.3,14.2-12.1,21.9c-0.8,8,2.5,13.2,6.9,19.1c5.6,7.5,11.1,16,17,25.1c16.3,25.8,37.4,59,46.4,95
				c1.5,6.5,2.6,13.1,2.9,19.5"/>
			<path class="st1" d="M26.5-45.4c-1.2,12-2.7,30.3-8.1,43.2C11.6,13.5,1.6,14.6-9,20c-7.6,3.9-17.3,9-26.6,17.2
				c-6.8,6.1-11.7,14.2-12.6,21.9c-1,8,2.3,13.3,6.5,19.1c5.5,7.5,10.9,16.1,16.6,25.2c16,25.9,36.6,59.2,45.1,95.4
				c1.4,6.6,2.4,13.1,2.6,19.6"/>
		</g>
	</g>
</g>
</svg>
