<svg width="122" height="122" viewBox="0 0 122 122" fill="none" xmlns="http://www.w3.org/2000/svg"> <path fill-rule="evenodd" clip-rule="evenodd" d="M5.22857 10.4571C8.11623 10.4571 10.4571 8.11623 10.4571 5.22857C10.4571 2.34091 8.11623 0 5.22857 0C2.34091 0 0 2.34091 0 5.22857C0 8.11623 2.34091 10.4571 5.22857 10.4571ZM5.22857 29.0476C8.11623 29.0476 10.4571 26.7067 10.4571 23.819C10.4571 20.9314 8.11623 18.5905 5.22857 18.5905C2.34091 18.5905 0 20.9314 0 23.819C0 26.7067 2.34091 29.0476 5.22857 29.0476ZM29.0476 5.22857C29.0476 8.11623 26.7067 10.4571 23.819 10.4571C20.9314 10.4571 18.5905 8.11623 18.5905 5.22857C18.5905 2.34091 20.9314 0 23.819 0C26.7067 0 29.0476 2.34091 29.0476 5.22857ZM23.819 29.0476C26.7067 29.0476 29.0476 26.7067 29.0476 23.819C29.0476 20.9314 26.7067 18.5905 23.819 18.5905C20.9314 18.5905 18.5905 20.9314 18.5905 23.819C18.5905 26.7067 20.9314 29.0476 23.819 29.0476ZM47.6381 5.22857C47.6381 8.11623 45.2972 10.4571 42.4095 10.4571C39.5219 10.4571 37.181 8.11623 37.181 5.22857C37.181 2.34091 39.5219 0 42.4095 0C45.2972 0 47.6381 2.34091 47.6381 5.22857ZM42.4095 29.0476C45.2972 29.0476 47.6381 26.7067 47.6381 23.819C47.6381 20.9314 45.2972 18.5905 42.4095 18.5905C39.5219 18.5905 37.181 20.9314 37.181 23.819C37.181 26.7067 39.5219 29.0476 42.4095 29.0476ZM66.2286 5.22857C66.2286 8.11623 63.8877 10.4571 61 10.4571C58.1123 10.4571 55.7714 8.11623 55.7714 5.22857C55.7714 2.34091 58.1123 0 61 0C63.8877 0 66.2286 2.34091 66.2286 5.22857ZM61 29.0476C63.8877 29.0476 66.2286 26.7067 66.2286 23.819C66.2286 20.9314 63.8877 18.5905 61 18.5905C58.1123 18.5905 55.7714 20.9314 55.7714 23.819C55.7714 26.7067 58.1123 29.0476 61 29.0476ZM84.8191 5.22857C84.8191 8.11623 82.4781 10.4571 79.5905 10.4571C76.7028 10.4571 74.3619 8.11623 74.3619 5.22857C74.3619 2.34091 76.7028 0 79.5905 0C82.4781 0 84.8191 2.34091 84.8191 5.22857ZM79.5905 29.0476C82.4781 29.0476 84.8191 26.7067 84.8191 23.819C84.8191 20.9314 82.4781 18.5905 79.5905 18.5905C76.7028 18.5905 74.3619 20.9314 74.3619 23.819C74.3619 26.7067 76.7028 29.0476 79.5905 29.0476ZM103.41 5.22857C103.41 8.11623 101.069 10.4571 98.1809 10.4571C95.2933 10.4571 92.9524 8.11623 92.9524 5.22857C92.9524 2.34091 95.2933 0 98.1809 0C101.069 0 103.41 2.34091 103.41 5.22857ZM98.1809 29.0476C101.069 29.0476 103.41 26.7067 103.41 23.819C103.41 20.9314 101.069 18.5905 98.1809 18.5905C95.2933 18.5905 92.9524 20.9314 92.9524 23.819C92.9524 26.7067 95.2933 29.0476 98.1809 29.0476ZM122 5.22857C122 8.11623 119.659 10.4571 116.771 10.4571C113.884 10.4571 111.543 8.11623 111.543 5.22857C111.543 2.34091 113.884 0 116.771 0C119.659 0 122 2.34091 122 5.22857ZM116.771 29.0476C119.659 29.0476 122 26.7067 122 23.819C122 20.9314 119.659 18.5905 116.771 18.5905C113.884 18.5905 111.543 20.9314 111.543 23.819C111.543 26.7067 113.884 29.0476 116.771 29.0476ZM10.4571 42.4095C10.4571 45.2972 8.11623 47.6381 5.22857 47.6381C2.34091 47.6381 0 45.2972 0 42.4095C0 39.5219 2.34091 37.181 5.22857 37.181C8.11623 37.181 10.4571 39.5219 10.4571 42.4095ZM23.819 47.6381C26.7067 47.6381 29.0476 45.2972 29.0476 42.4095C29.0476 39.5219 26.7067 37.181 23.819 37.181C20.9314 37.181 18.5905 39.5219 18.5905 42.4095C18.5905 45.2972 20.9314 47.6381 23.819 47.6381ZM47.6381 42.4095C47.6381 45.2972 45.2972 47.6381 42.4095 47.6381C39.5219 47.6381 37.181 45.2972 37.181 42.4095C37.181 39.5219 39.5219 37.181 42.4095 37.181C45.2972 37.181 47.6381 39.5219 47.6381 42.4095ZM61 47.6381C63.8877 47.6381 66.2286 45.2972 66.2286 42.4095C66.2286 39.5219 63.8877 37.181 61 37.181C58.1123 37.181 55.7714 39.5219 55.7714 42.4095C55.7714 45.2972 58.1123 47.6381 61 47.6381ZM84.8191 42.4095C84.8191 45.2972 82.4781 47.6381 79.5905 47.6381C76.7028 47.6381 74.3619 45.2972 74.3619 42.4095C74.3619 39.5219 76.7028 37.181 79.5905 37.181C82.4781 37.181 84.8191 39.5219 84.8191 42.4095ZM98.1809 47.6381C101.069 47.6381 103.41 45.2972 103.41 42.4095C103.41 39.5219 101.069 37.181 98.1809 37.181C95.2933 37.181 92.9524 39.5219 92.9524 42.4095C92.9524 45.2972 95.2933 47.6381 98.1809 47.6381ZM122 42.4095C122 45.2972 119.659 47.6381 116.771 47.6381C113.884 47.6381 111.543 45.2972 111.543 42.4095C111.543 39.5219 113.884 37.181 116.771 37.181C119.659 37.181 122 39.5219 122 42.4095ZM5.22857 66.2286C8.11623 66.2286 10.4571 63.8877 10.4571 61C10.4571 58.1123 8.11623 55.7714 5.22857 55.7714C2.34091 55.7714 0 58.1123 0 61C0 63.8877 2.34091 66.2286 5.22857 66.2286ZM29.0476 61C29.0476 63.8877 26.7067 66.2286 23.819 66.2286C20.9314 66.2286 18.5905 63.8877 18.5905 61C18.5905 58.1123 20.9314 55.7714 23.819 55.7714C26.7067 55.7714 29.0476 58.1123 29.0476 61ZM42.4095 66.2286C45.2972 66.2286 47.6381 63.8877 47.6381 61C47.6381 58.1123 45.2972 55.7714 42.4095 55.7714C39.5219 55.7714 37.181 58.1123 37.181 61C37.181 63.8877 39.5219 66.2286 42.4095 66.2286ZM66.2286 61C66.2286 63.8877 63.8877 66.2286 61 66.2286C58.1123 66.2286 55.7714 63.8877 55.7714 61C55.7714 58.1123 58.1123 55.7714 61 55.7714C63.8877 55.7714 66.2286 58.1123 66.2286 61ZM79.5905 66.2286C82.4781 66.2286 84.8191 63.8877 84.8191 61C84.8191 58.1123 82.4781 55.7714 79.5905 55.7714C76.7028 55.7714 74.3619 58.1123 74.3619 61C74.3619 63.8877 76.7028 66.2286 79.5905 66.2286ZM103.41 61C103.41 63.8877 101.069 66.2286 98.1809 66.2286C95.2933 66.2286 92.9524 63.8877 92.9524 61C92.9524 58.1123 95.2933 55.7714 98.1809 55.7714C101.069 55.7714 103.41 58.1123 103.41 61ZM116.771 66.2286C119.659 66.2286 122 63.8877 122 61C122 58.1123 119.659 55.7714 116.771 55.7714C113.884 55.7714 111.543 58.1123 111.543 61C111.543 63.8877 113.884 66.2286 116.771 66.2286ZM10.4571 79.5905C10.4571 82.4781 8.11623 84.8191 5.22857 84.8191C2.34091 84.8191 0 82.4781 0 79.5905C0 76.7028 2.34091 74.3619 5.22857 74.3619C8.11623 74.3619 10.4571 76.7028 10.4571 79.5905ZM23.819 84.8191C26.7067 84.8191 29.0476 82.4781 29.0476 79.5905C29.0476 76.7028 26.7067 74.3619 23.819 74.3619C20.9314 74.3619 18.5905 76.7028 18.5905 79.5905C18.5905 82.4781 20.9314 84.8191 23.819 84.8191ZM47.6381 79.5905C47.6381 82.4781 45.2972 84.8191 42.4095 84.8191C39.5219 84.8191 37.181 82.4781 37.181 79.5905C37.181 76.7028 39.5219 74.3619 42.4095 74.3619C45.2972 74.3619 47.6381 76.7028 47.6381 79.5905ZM61 84.8191C63.8877 84.8191 66.2286 82.4781 66.2286 79.5905C66.2286 76.7028 63.8877 74.3619 61 74.3619C58.1123 74.3619 55.7714 76.7028 55.7714 79.5905C55.7714 82.4781 58.1123 84.8191 61 84.8191ZM84.8191 79.5905C84.8191 82.4781 82.4781 84.8191 79.5905 84.8191C76.7028 84.8191 74.3619 82.4781 74.3619 79.5905C74.3619 76.7028 76.7028 74.3619 79.5905 74.3619C82.4781 74.3619 84.8191 76.7028 84.8191 79.5905ZM98.1809 84.8191C101.069 84.8191 103.41 82.4781 103.41 79.5905C103.41 76.7028 101.069 74.3619 98.1809 74.3619C95.2933 74.3619 92.9524 76.7028 92.9524 79.5905C92.9524 82.4781 95.2933 84.8191 98.1809 84.8191ZM122 79.5905C122 82.4781 119.659 84.8191 116.771 84.8191C113.884 84.8191 111.543 82.4781 111.543 79.5905C111.543 76.7028 113.884 74.3619 116.771 74.3619C119.659 74.3619 122 76.7028 122 79.5905ZM5.22857 103.41C8.11623 103.41 10.4571 101.069 10.4571 98.1809C10.4571 95.2933 8.11623 92.9524 5.22857 92.9524C2.34091 92.9524 0 95.2933 0 98.1809C0 101.069 2.34091 103.41 5.22857 103.41ZM29.0476 98.1809C29.0476 101.069 26.7067 103.41 23.819 103.41C20.9314 103.41 18.5905 101.069 18.5905 98.1809C18.5905 95.2933 20.9314 92.9524 23.819 92.9524C26.7067 92.9524 29.0476 95.2933 29.0476 98.1809ZM42.4095 103.41C45.2972 103.41 47.6381 101.069 47.6381 98.1809C47.6381 95.2933 45.2972 92.9524 42.4095 92.9524C39.5219 92.9524 37.181 95.2933 37.181 98.1809C37.181 101.069 39.5219 103.41 42.4095 103.41ZM66.2286 98.1809C66.2286 101.069 63.8877 103.41 61 103.41C58.1123 103.41 55.7714 101.069 55.7714 98.1809C55.7714 95.2933 58.1123 92.9524 61 92.9524C63.8877 92.9524 66.2286 95.2933 66.2286 98.1809ZM79.5905 103.41C82.4781 103.41 84.8191 101.069 84.8191 98.1809C84.8191 95.2933 82.4781 92.9524 79.5905 92.9524C76.7028 92.9524 74.3619 95.2933 74.3619 98.1809C74.3619 101.069 76.7028 103.41 79.5905 103.41ZM103.41 98.1809C103.41 101.069 101.069 103.41 98.1809 103.41C95.2933 103.41 92.9524 101.069 92.9524 98.1809C92.9524 95.2933 95.2933 92.9524 98.1809 92.9524C101.069 92.9524 103.41 95.2933 103.41 98.1809ZM116.771 103.41C119.659 103.41 122 101.069 122 98.1809C122 95.2933 119.659 92.9524 116.771 92.9524C113.884 92.9524 111.543 95.2933 111.543 98.1809C111.543 101.069 113.884 103.41 116.771 103.41ZM10.4571 116.771C10.4571 119.659 8.11623 122 5.22857 122C2.34091 122 0 119.659 0 116.771C0 113.884 2.34091 111.543 5.22857 111.543C8.11623 111.543 10.4571 113.884 10.4571 116.771ZM23.819 122C26.7067 122 29.0476 119.659 29.0476 116.771C29.0476 113.884 26.7067 111.543 23.819 111.543C20.9314 111.543 18.5905 113.884 18.5905 116.771C18.5905 119.659 20.9314 122 23.819 122ZM47.6381 116.771C47.6381 119.659 45.2972 122 42.4095 122C39.5219 122 37.181 119.659 37.181 116.771C37.181 113.884 39.5219 111.543 42.4095 111.543C45.2972 111.543 47.6381 113.884 47.6381 116.771ZM61 122C63.8877 122 66.2286 119.659 66.2286 116.771C66.2286 113.884 63.8877 111.543 61 111.543C58.1123 111.543 55.7714 113.884 55.7714 116.771C55.7714 119.659 58.1123 122 61 122ZM84.8191 116.771C84.8191 119.659 82.4781 122 79.5905 122C76.7028 122 74.3619 119.659 74.3619 116.771C74.3619 113.884 76.7028 111.543 79.5905 111.543C82.4781 111.543 84.8191 113.884 84.8191 116.771ZM98.1809 122C101.069 122 103.41 119.659 103.41 116.771C103.41 113.884 101.069 111.543 98.1809 111.543C95.2933 111.543 92.9524 113.884 92.9524 116.771C92.9524 119.659 95.2933 122 98.1809 122ZM122 116.771C122 119.659 119.659 122 116.771 122C113.884 122 111.543 119.659 111.543 116.771C111.543 113.884 113.884 111.543 116.771 111.543C119.659 111.543 122 113.884 122 116.771Z" fill="#EAEFFD"></path> </svg>