<?xml version="1.0" encoding="utf-8"?>
<!-- Generator: Adobe Illustrator 22.0.1, SVG Export Plug-In . SVG Version: 6.00 Build 0)  -->
<svg width="196px" height="253px" version="1.1" id="Layer_1" xmlns="http://www.w3.org/2000/svg" xmlns:xlink="http://www.w3.org/1999/xlink" x="0px" y="0px"
	 viewBox="0 0 184.8 246.4" style="enable-background:new 0 0 184.8 246.4;" xml:space="preserve">
<style type="text/css">
	.st0{fill:none;stroke:#e2e3fd;stroke-width:0.8;stroke-miterlimit:10;}
</style>
<g>
	<path class="st0" d="M95.8,11.7c18.1,8.3,31.3,24.9,40.6,39c9.4,14.2,14.9,26,19.3,37.3c4.4,11.3,7.6,22,12.8,35.8
		s12.7,30.5,12.1,48.2s-9.2,36.5-23.9,48c-14.6,11.6-35.3,16-57.4,18.1c-22.2,2.3-45.3,2.1-62.8-7.9c-17.5-10-29.1-29.9-31.7-49.8
		c-2.7-19.9,3.6-39.7,11.9-55C25,110.2,35,99.6,37.8,80c2.9-19.5-1.5-48,7.9-62.2S77.7,3.6,95.8,11.7z"/>
	<path class="st0" d="M95.6,17.4c17.2,7.9,29.7,23.7,38.6,37c8.9,13.5,14.2,24.7,18.4,35.4s7.2,20.9,12.2,34s12,29,11.5,45.7
		c-0.6,16.8-8.7,34.7-22.7,45.6c-13.9,11-33.6,15.2-54.5,17.2c-21.1,2.2-43,2-59.7-7.5c-16.6-9.5-27.7-28.4-30.1-47.3
		c-2.6-18.9,3.4-37.7,11.3-52.2c7.7-14.5,17.2-24.5,19.9-43.2c2.7-18.5-1.4-45.6,7.5-59.1S78.4,9.6,95.6,17.4z"/>
	<path class="st0" d="M95.5,23c16.3,7.5,28.1,22.4,36.5,35c8.4,12.8,13.4,23.4,17.4,33.5c3.9,10.2,6.8,19.8,11.5,32.2
		s11.4,27.4,10.9,43.3s-8.3,32.9-21.5,43.2c-13.2,10.5-31.8,14.4-51.6,16.3c-20,2-40.7,1.9-56.5-7.1c-15.8-9-26.2-26.9-28.5-44.8
		c-2.4-17.9,3.3-35.7,10.7-49.4c7.3-13.7,16.3-23.2,18.9-40.9c2.6-17.5-1.4-43.2,7.1-56S79.2,15.6,95.5,23z"/>
	<path class="st0" d="M95.3,28.6c15.4,7.1,26.5,21.2,34.5,33.1c7.9,12.1,12.7,22.1,16.4,31.7c3.7,9.6,6.4,18.7,10.9,30.4
		c4.5,11.7,10.8,25.9,10.3,40.9c-0.5,15-7.8,31-20.3,40.8c-12.4,9.9-30,13.6-48.7,15.4c-18.8,1.9-38.5,1.8-53.3-6.7
		c-14.9-8.5-24.7-25.4-26.9-42.3c-2.3-16.9,3.1-33.7,10.1-46.7c6.9-13,15.4-21.9,17.8-38.6c2.4-16.5-1.3-40.8,6.7-52.8
		S79.9,21.6,95.3,28.6z"/>
	<path class="st0" d="M95.1,34.2c14.5,6.6,25,19.9,32.4,31.1c7.5,11.3,11.9,20.7,15.4,29.8c3.5,9,6,17.6,10.3,28.6
		c4.2,11,10.1,24.4,9.7,38.5c-0.5,14.1-7.4,29.2-19.1,38.4c-11.7,9.3-28.2,12.8-45.8,14.5c-17.7,1.8-36.2,1.7-50.2-6.3
		c-14-8-23.3-23.9-25.3-39.8C20.3,153,25.4,137.2,32,125c6.5-12.2,14.5-20.6,16.8-36.3c2.3-15.6-1.2-38.4,6.3-49.7
		S80.6,27.7,95.1,34.2z"/>
	<path class="st0" d="M95,39.8c13.6,6.2,23.4,18.7,30.4,29.2c7,10.6,11.2,19.4,14.5,27.9c3.3,8.5,5.7,16.5,9.6,26.8
		c4,10.3,9.5,22.8,9,36.1s-6.9,27.4-17.9,35.9c-11,8.7-26.5,12-43,13.6c-16.6,1.7-33.9,1.6-47-5.9C37.5,195.9,28.8,181,26.9,166
		c-2-14.9,2.7-29.7,8.9-41.1c6.1-11.4,13.6-19.3,15.7-34c2.1-14.6-1.1-35.9,5.9-46.6S81.4,33.7,95,39.8z"/>
	<path class="st0" d="M94.8,45.4c12.7,5.8,21.8,17.4,28.4,27.2c6.5,9.9,10.4,18.1,13.5,26s5.3,15.4,9,25s8.9,21.3,8.4,33.6
		s-6.4,25.5-16.7,33.5c-10.2,8.1-24.7,11.2-40.1,12.7c-15.5,1.6-31.6,1.5-43.9-5.5c-12.2-7-20.4-20.9-22.1-34.8
		c-1.9-13.9,2.5-27.7,8.3-38.4c5.7-10.6,12.7-18,14.7-31.7c2-13.6-1.1-33.5,5.5-43.4S82.1,39.7,94.8,45.4z"/>
	<path class="st0" d="M94.6,51c11.7,5.4,20.3,16.1,26.3,25.2c6.1,9.2,9.7,16.8,12.5,24.2s4.9,14.3,8.3,23.2s8.2,19.8,7.8,31.2
		c-0.4,11.4-6,23.7-15.5,31.1c-9.5,7.5-22.9,10.4-37.2,11.7c-14.4,1.5-29.4,1.4-40.7-5.1s-18.9-19.4-20.5-32.3
		c-1.8-12.9,2.3-25.7,7.7-35.6c5.3-9.9,11.7-16.7,13.6-29.5c1.9-12.6-1-31.1,5.1-40.3S82.9,45.7,94.6,51z"/>
	<path class="st0" d="M94.4,56.6c10.8,5,18.7,14.9,24.3,23.3c5.6,8.5,8.9,15.5,11.6,22.3c2.6,6.8,4.5,13.2,7.7,21.4
		c3.2,8.2,7.6,18.2,7.2,28.8c-0.4,10.6-5.5,21.8-14.3,28.7c-8.8,6.9-21.1,9.6-34.3,10.8c-13.3,1.4-27.1,1.3-37.5-4.7
		c-10.5-6-17.4-17.9-19-29.8c-1.6-11.9,2.2-23.7,7.1-32.9c4.9-9.1,10.8-15.4,12.5-27.2c1.7-11.6-0.9-28.7,4.7-37.2
		C70.1,51.7,83.6,51.7,94.4,56.6z"/>
	<path class="st0" d="M94.3,62.2c9.9,4.5,17.1,13.6,22.2,21.3c5.1,7.8,8.2,14.2,10.6,20.4c2.4,6.2,4.1,12.1,7,19.6
		c2.9,7.5,6.9,16.7,6.6,26.4c-0.3,9.7-5,20-13.1,26.3c-8,6.4-19.3,8.8-31.4,9.9c-12.2,1.2-24.8,1.2-34.4-4.3s-16-16.4-17.4-27.3
		c-1.5-10.9,2-21.7,6.5-30.1c4.5-8.3,9.9-14.1,11.5-24.9c1.6-10.7-0.8-26.3,4.3-34.1C71.9,57.7,84.3,57.7,94.3,62.2z"/>
	<path class="st0" d="M94.1,67.8c9,4.1,15.5,12.4,20.2,19.4c4.7,7.1,7.4,12.9,9.6,18.5c2.2,5.6,3.8,11,6.4,17.8
		c2.6,6.8,6.3,15.2,6,23.9c-0.3,8.8-4.6,18.2-11.9,23.9c-7.3,5.8-17.6,8-28.5,9c-11,1.1-22.5,1.1-31.2-3.9
		c-8.7-5-14.5-14.9-15.8-24.8c-1.4-9.9,1.8-19.7,5.9-27.3c4.1-7.6,9-12.8,10.4-22.6c1.4-9.7-0.8-23.9,3.9-30.9S85.1,63.7,94.1,67.8z
		"/>
	<path class="st0" d="M93.9,73.4c8.1,3.7,14,11.1,18.1,17.4c4.2,6.3,6.7,11.6,8.6,16.7s3.4,9.9,5.7,16c2.4,6.1,5.7,13.6,5.4,21.5
		s-4.1,16.3-10.7,21.5c-6.5,5.2-15.8,7.2-25.6,8.1c-9.9,1-20.2,0.9-28.1-3.5s-13-13.4-14.2-22.3c-1.2-8.9,1.6-17.7,5.3-24.6
		c3.6-6.8,8.1-11.5,9.4-20.3c1.3-8.7-0.7-21.5,3.5-27.8S85.8,69.8,93.9,73.4z"/>
	<path class="st0" d="M93.7,79c7.2,3.3,12.4,9.9,16.1,15.4c3.7,5.6,5.9,10.3,7.7,14.8c1.7,4.5,3,8.7,5.1,14.2
		c2.1,5.4,5,12.1,4.8,19.1c-0.2,7-3.7,14.5-9.5,19c-5.8,4.6-14,6.3-22.8,7.2c-8.8,0.9-18,0.8-24.9-3.1c-6.9-4-11.6-11.9-12.6-19.8
		c-1.1-7.9,1.4-15.7,4.7-21.8c3.2-6,7.2-10.2,8.3-18c1.1-7.7-0.6-19,3.1-24.7C77.6,75.8,86.6,75.8,93.7,79z"/>
	<path class="st0" d="M93.6,84.6c6.3,2.9,10.8,8.6,14.1,13.5c3.2,4.9,5.2,9,6.7,12.9s2.6,7.6,4.4,12.4c1.8,4.8,4.4,10.6,4.2,16.7
		c-0.2,6.1-3.2,12.7-8.3,16.6c-5.1,4-12.2,5.5-19.9,6.3c-7.7,0.8-15.7,0.7-21.7-2.7c-6.1-3.5-10.1-10.4-11-17.3
		c-0.9-6.9,1.3-13.8,4.1-19c2.8-5.3,6.3-8.9,7.3-15.7c1-6.7-0.5-16.6,2.7-21.5S87.3,81.8,93.6,84.6z"/>
	<path class="st0" d="M93.4,90.2c5.4,2.5,9.3,7.4,12,11.5c2.8,4.2,4.4,7.7,5.7,11c1.3,3.4,2.2,6.5,3.8,10.6c1.6,4.1,3.8,9,3.6,14.3
		c-0.2,5.2-2.7,10.8-7.1,14.2c-4.3,3.4-10.5,4.7-17,5.4c-6.6,0.7-13.4,0.6-18.6-2.3c-5.2-2.9-8.6-8.8-9.4-14.7
		c-0.8-5.9,1.1-11.8,3.5-16.3c2.4-4.5,5.4-7.6,6.2-13.5c0.8-5.8-0.4-14.2,2.3-18.4C81.3,87.8,88,87.8,93.4,90.2z"/>
	<path class="st0" d="M93.2,95.8c4.5,2,7.7,6.1,10,9.6c2.3,3.5,3.7,6.4,4.7,9.2s1.9,5.4,3.2,8.8c1.3,3.4,3.1,7.5,3,11.8
		s-2.3,9-5.9,11.8c-3.6,2.9-8.7,3.9-14.1,4.5c-5.5,0.6-11.1,0.5-15.4-1.9s-7.2-7.3-7.8-12.2c-0.7-4.9,0.9-9.8,2.9-13.5
		c2-3.7,4.5-6.3,5.2-11.2c0.7-4.8-0.4-11.8,1.9-15.3S88.8,93.8,93.2,95.8z"/>
	<path class="st0" d="M93.1,101.4c3.5,1.6,6.1,4.9,7.9,7.6c1.8,2.8,2.9,5.1,3.8,7.3c0.9,2.2,1.5,4.3,2.5,7s2.5,6,2.4,9.4
		c-0.1,3.5-1.8,7.1-4.7,9.4c-2.9,2.3-6.9,3.1-11.2,3.5c-4.3,0.4-8.8,0.4-12.3-1.5c-3.4-1.9-5.7-5.8-6.2-9.7
		c-0.5-3.9,0.7-7.8,2.3-10.7c1.6-3,3.5-5,4.1-8.9c0.6-3.8-0.3-9.4,1.5-12.2C85.1,99.8,89.5,99.8,93.1,101.4z"/>
	<path class="st0" d="M92.9,107c2.6,1.2,4.5,3.6,5.9,5.7c1.4,2.1,2.2,3.8,2.8,5.4c0.6,1.6,1.1,3.2,1.9,5.2c0.8,2,1.8,4.4,1.8,7
		c-0.1,2.6-1.3,5.3-3.5,7c-2.1,1.7-5.1,2.3-8.3,2.6c-3.2,0.3-6.6,0.3-9.1-1.1c-2.5-1.4-4.2-4.3-4.6-7.2c-0.4-2.9,0.5-5.8,1.7-8
		c1.2-2.2,2.6-3.7,3-6.6c0.4-2.8-0.2-7,1.1-9C87,105.9,90.3,105.9,92.9,107z"/>
	<path class="st0" d="M92.7,112.6c1.7,0.8,3,2.4,3.8,3.7c0.9,1.3,1.4,2.5,1.8,3.5c0.4,1.1,0.7,2.1,1.2,3.4c0.5,1.3,1.2,2.9,1.1,4.6
		c-0.1,1.7-0.9,3.5-2.3,4.6c-1.4,1.1-3.3,1.5-5.4,1.7c-2.1,0.2-4.3,0.2-6-0.7s-2.8-2.8-3-4.7c-0.3-1.9,0.3-3.8,1.1-5.2
		c0.8-1.4,1.7-2.4,2-4.3c0.3-1.8-0.1-4.6,0.7-5.9C88.8,111.9,91,111.9,92.7,112.6z"/>
	<path class="st0" d="M92.5,118.3c0.8,0.4,1.4,1.1,1.8,1.7c0.4,0.6,0.7,1.2,0.9,1.7s0.3,1,0.6,1.6c0.2,0.6,0.6,1.4,0.5,2.1
		c0,0.8-0.4,1.6-1.1,2.1c-0.7,0.5-1.6,0.7-2.6,0.8c-1,0.1-2,0.1-2.8-0.3c-0.8-0.4-1.3-1.3-1.4-2.2c-0.1-0.9,0.2-1.8,0.5-2.4
		c0.4-0.7,0.8-1.1,0.9-2c0.1-0.9-0.1-2.1,0.3-2.8C90.7,117.9,91.7,117.9,92.5,118.3z"/>
</g>
</svg>
