<?xml version="1.0" encoding="utf-8"?>
<!-- Generator: Adobe Illustrator 22.0.1, SVG Export Plug-In .-->
<svg width="218px" height="165px" version="1.1" id="Layer_1" xmlns="http://www.w3.org/2000/svg" xmlns:xlink="http://www.w3.org/1999/xlink" x="0px" y="0px"
	 viewBox="0 0 224.5 170.4" style="enable-background:new 0 0 224.5 170.4;" xml:space="preserve">
<style type="text/css">
	.st0{clip-path:url(#SVGID_2_);fill:#505CFD;}
</style>
<g>
	<defs>
		<path id="SVGID_1_" d="M7.7,83.3c7.8-17,23.4-29.3,36.5-38.1c13.3-8.8,24.4-14,35-18.1s20.7-7.1,33.6-12s28.6-11.9,45.2-11.3
			s34.3,8.6,45,22.4c10.9,13.7,15,33.1,17,53.8c2.1,20.8,2,42.5-7.4,58.9c-9.3,16.4-28,27.3-46.7,29.7c-18.7,2.5-37.2-3.4-51.5-11.2
			c-14.3-7.6-24.2-17-42.6-19.7c-18.3-2.7-45,1.4-58.3-7.4C0,121.5,0,100.2,7.7,83.3z"/>
	</defs>
	<clipPath id="SVGID_2_">
		<use xlink:href="#SVGID_1_"  style="overflow:visible;"/>
	</clipPath>
	<circle class="st0" cx="-12.2" cy="-22" r="2.5"/>
	<circle class="st0" cx="-1.1" cy="-22" r="2.5"/>
	<circle class="st0" cx="9.9" cy="-22" r="2.5"/>
	<circle class="st0" cx="-12.2" cy="-10.6" r="2.5"/>
	<circle class="st0" cx="-1.1" cy="-10.6" r="2.5"/>
	<circle class="st0" cx="9.9" cy="-10.6" r="2.5"/>
	<circle class="st0" cx="-12.2" cy="0.8" r="2.5"/>
	<circle class="st0" cx="-1.1" cy="0.8" r="2.5"/>
	<circle class="st0" cx="9.9" cy="0.8" r="2.5"/>
	<circle class="st0" cx="21" cy="-22" r="2.5"/>
	<circle class="st0" cx="32" cy="-22" r="2.5"/>
	<circle class="st0" cx="21" cy="-10.6" r="2.5"/>
	<circle class="st0" cx="32" cy="-10.6" r="2.5"/>
	<circle class="st0" cx="21" cy="0.8" r="2.5"/>
	<circle class="st0" cx="32" cy="0.8" r="2.5"/>
	<circle class="st0" cx="43" cy="-22" r="2.5"/>
	<circle class="st0" cx="54.1" cy="-22" r="2.5"/>
	<circle class="st0" cx="43" cy="-10.6" r="2.5"/>
	<circle class="st0" cx="54.1" cy="-10.6" r="2.5"/>
	<circle class="st0" cx="43" cy="0.8" r="2.5"/>
	<circle class="st0" cx="54.1" cy="0.8" r="2.5"/>
	<circle class="st0" cx="65.1" cy="-22" r="2.5"/>
	<circle class="st0" cx="76.2" cy="-22" r="2.5"/>
	<circle class="st0" cx="65.1" cy="-10.6" r="2.5"/>
	<circle class="st0" cx="76.2" cy="-10.6" r="2.5"/>
	<circle class="st0" cx="65.1" cy="0.8" r="2.5"/>
	<circle class="st0" cx="76.2" cy="0.8" r="2.5"/>
	<circle class="st0" cx="87.2" cy="-22" r="2.5"/>
	<circle class="st0" cx="98.2" cy="-22" r="2.5"/>
	<circle class="st0" cx="87.2" cy="-10.6" r="2.5"/>
	<circle class="st0" cx="98.2" cy="-10.6" r="2.5"/>
	<circle class="st0" cx="87.2" cy="0.8" r="2.5"/>
	<circle class="st0" cx="98.2" cy="0.8" r="2.5"/>
	<circle class="st0" cx="109.3" cy="-22" r="2.5"/>
	<circle class="st0" cx="120.3" cy="-22" r="2.5"/>
	<circle class="st0" cx="109.3" cy="-10.6" r="2.5"/>
	<circle class="st0" cx="120.3" cy="-10.6" r="2.5"/>
	<circle class="st0" cx="109.3" cy="0.8" r="2.5"/>
	<circle class="st0" cx="120.3" cy="0.8" r="2.5"/>
	<circle class="st0" cx="131.4" cy="-22" r="2.5"/>
	<circle class="st0" cx="142.4" cy="-22" r="2.5"/>
	<circle class="st0" cx="131.4" cy="-10.6" r="2.5"/>
	<circle class="st0" cx="142.4" cy="-10.6" r="2.5"/>
	<circle class="st0" cx="131.4" cy="0.8" r="2.5"/>
	<circle class="st0" cx="142.4" cy="0.8" r="2.5"/>
	<circle class="st0" cx="-12.2" cy="12.2" r="2.5"/>
	<circle class="st0" cx="-1.1" cy="12.2" r="2.5"/>
	<circle class="st0" cx="9.9" cy="12.2" r="2.5"/>
	<circle class="st0" cx="-12.2" cy="23.6" r="2.5"/>
	<circle class="st0" cx="-1.1" cy="23.6" r="2.5"/>
	<circle class="st0" cx="9.9" cy="23.6" r="2.5"/>
	<circle class="st0" cx="-12.2" cy="35.1" r="2.5"/>
	<circle class="st0" cx="-1.1" cy="35.1" r="2.5"/>
	<circle class="st0" cx="9.9" cy="35.1" r="2.5"/>
	<circle class="st0" cx="21" cy="12.2" r="2.5"/>
	<circle class="st0" cx="32" cy="12.2" r="2.5"/>
	<circle class="st0" cx="21" cy="23.6" r="2.5"/>
	<circle class="st0" cx="32" cy="23.6" r="2.5"/>
	<circle class="st0" cx="21" cy="35.1" r="2.5"/>
	<circle class="st0" cx="32" cy="35.1" r="2.5"/>
	<circle class="st0" cx="43" cy="12.2" r="2.5"/>
	<circle class="st0" cx="54.1" cy="12.2" r="2.5"/>
	<circle class="st0" cx="43" cy="23.6" r="2.5"/>
	<circle class="st0" cx="54.1" cy="23.6" r="2.5"/>
	<circle class="st0" cx="43" cy="35.1" r="2.5"/>
	<circle class="st0" cx="54.1" cy="35.1" r="2.5"/>
	<circle class="st0" cx="65.1" cy="12.2" r="2.5"/>
	<circle class="st0" cx="76.2" cy="12.2" r="2.5"/>
	<circle class="st0" cx="65.1" cy="23.6" r="2.5"/>
	<circle class="st0" cx="76.2" cy="23.6" r="2.5"/>
	<circle class="st0" cx="65.1" cy="35.1" r="2.5"/>
	<circle class="st0" cx="76.2" cy="35.1" r="2.5"/>
	<circle class="st0" cx="87.2" cy="12.2" r="2.5"/>
	<circle class="st0" cx="98.2" cy="12.2" r="2.5"/>
	<circle class="st0" cx="87.2" cy="23.6" r="2.5"/>
	<circle class="st0" cx="98.2" cy="23.6" r="2.5"/>
	<circle class="st0" cx="87.2" cy="35.1" r="2.5"/>
	<circle class="st0" cx="98.2" cy="35.1" r="2.5"/>
	<circle class="st0" cx="109.3" cy="12.2" r="2.5"/>
	<circle class="st0" cx="120.3" cy="12.2" r="2.5"/>
	<circle class="st0" cx="109.3" cy="23.6" r="2.5"/>
	<circle class="st0" cx="120.3" cy="23.6" r="2.5"/>
	<circle class="st0" cx="109.3" cy="35.1" r="2.5"/>
	<circle class="st0" cx="120.3" cy="35.1" r="2.5"/>
	<circle class="st0" cx="131.4" cy="12.2" r="2.5"/>
	<circle class="st0" cx="142.4" cy="12.2" r="2.5"/>
	<circle class="st0" cx="131.4" cy="23.6" r="2.5"/>
	<circle class="st0" cx="142.4" cy="23.6" r="2.5"/>
	<circle class="st0" cx="131.4" cy="35.1" r="2.5"/>
	<circle class="st0" cx="142.4" cy="35.1" r="2.5"/>
	<circle class="st0" cx="-12.2" cy="46.5" r="2.5"/>
	<circle class="st0" cx="-1.1" cy="46.5" r="2.5"/>
	<circle class="st0" cx="9.9" cy="46.5" r="2.5"/>
	<circle class="st0" cx="-12.2" cy="57.9" r="2.5"/>
	<circle class="st0" cx="-1.1" cy="57.9" r="2.5"/>
	<circle class="st0" cx="9.9" cy="57.9" r="2.5"/>
	<circle class="st0" cx="-12.2" cy="69.3" r="2.5"/>
	<circle class="st0" cx="-1.1" cy="69.3" r="2.5"/>
	<circle class="st0" cx="9.9" cy="69.3" r="2.5"/>
	<circle class="st0" cx="21" cy="46.5" r="2.5"/>
	<circle class="st0" cx="32" cy="46.5" r="2.5"/>
	<circle class="st0" cx="21" cy="57.9" r="2.5"/>
	<circle class="st0" cx="32" cy="57.9" r="2.5"/>
	<circle class="st0" cx="21" cy="69.3" r="2.5"/>
	<circle class="st0" cx="32" cy="69.3" r="2.5"/>
	<circle class="st0" cx="43" cy="46.5" r="2.5"/>
	<circle class="st0" cx="54.1" cy="46.5" r="2.5"/>
	<circle class="st0" cx="43" cy="57.9" r="2.5"/>
	<circle class="st0" cx="54.1" cy="57.9" r="2.5"/>
	<circle class="st0" cx="43" cy="69.3" r="2.5"/>
	<circle class="st0" cx="54.1" cy="69.3" r="2.5"/>
	<circle class="st0" cx="65.1" cy="46.5" r="2.5"/>
	<circle class="st0" cx="76.2" cy="46.5" r="2.5"/>
	<circle class="st0" cx="65.1" cy="57.9" r="2.5"/>
	<circle class="st0" cx="76.2" cy="57.9" r="2.5"/>
	<circle class="st0" cx="65.1" cy="69.3" r="2.5"/>
	<circle class="st0" cx="76.2" cy="69.3" r="2.5"/>
	<circle class="st0" cx="87.2" cy="46.5" r="2.5"/>
	<circle class="st0" cx="98.2" cy="46.5" r="2.5"/>
	<circle class="st0" cx="87.2" cy="57.9" r="2.5"/>
	<circle class="st0" cx="98.2" cy="57.9" r="2.5"/>
	<circle class="st0" cx="87.2" cy="69.3" r="2.5"/>
	<circle class="st0" cx="98.2" cy="69.3" r="2.5"/>
	<circle class="st0" cx="109.3" cy="46.5" r="2.5"/>
	<circle class="st0" cx="120.3" cy="46.5" r="2.5"/>
	<circle class="st0" cx="109.3" cy="57.9" r="2.5"/>
	<circle class="st0" cx="120.3" cy="57.9" r="2.5"/>
	<circle class="st0" cx="109.3" cy="69.3" r="2.5"/>
	<circle class="st0" cx="120.3" cy="69.3" r="2.5"/>
	<circle class="st0" cx="131.4" cy="46.5" r="2.5"/>
	<circle class="st0" cx="142.4" cy="46.5" r="2.5"/>
	<circle class="st0" cx="131.4" cy="57.9" r="2.5"/>
	<circle class="st0" cx="142.4" cy="57.9" r="2.5"/>
	<circle class="st0" cx="131.4" cy="69.3" r="2.5"/>
	<circle class="st0" cx="142.4" cy="69.3" r="2.5"/>
	<circle class="st0" cx="-12.2" cy="80.7" r="2.5"/>
	<circle class="st0" cx="-1.1" cy="80.7" r="2.5"/>
	<circle class="st0" cx="9.9" cy="80.7" r="2.5"/>
	<circle class="st0" cx="-12.2" cy="92.1" r="2.5"/>
	<circle class="st0" cx="-1.1" cy="92.1" r="2.5"/>
	<circle class="st0" cx="9.9" cy="92.1" r="2.5"/>
	<circle class="st0" cx="-12.2" cy="103.5" r="2.5"/>
	<circle class="st0" cx="-1.1" cy="103.5" r="2.5"/>
	<circle class="st0" cx="9.9" cy="103.5" r="2.5"/>
	<circle class="st0" cx="21" cy="80.7" r="2.5"/>
	<circle class="st0" cx="32" cy="80.7" r="2.5"/>
	<circle class="st0" cx="21" cy="92.1" r="2.5"/>
	<circle class="st0" cx="32" cy="92.1" r="2.5"/>
	<circle class="st0" cx="21" cy="103.5" r="2.5"/>
	<circle class="st0" cx="32" cy="103.5" r="2.5"/>
	<circle class="st0" cx="43" cy="80.7" r="2.5"/>
	<circle class="st0" cx="54.1" cy="80.7" r="2.5"/>
	<circle class="st0" cx="43" cy="92.1" r="2.5"/>
	<circle class="st0" cx="54.1" cy="92.1" r="2.5"/>
	<circle class="st0" cx="43" cy="103.5" r="2.5"/>
	<circle class="st0" cx="54.1" cy="103.5" r="2.5"/>
	<circle class="st0" cx="65.1" cy="80.7" r="2.5"/>
	<circle class="st0" cx="76.2" cy="80.7" r="2.5"/>
	<circle class="st0" cx="65.1" cy="92.1" r="2.5"/>
	<circle class="st0" cx="76.2" cy="92.1" r="2.5"/>
	<circle class="st0" cx="65.1" cy="103.5" r="2.5"/>
	<circle class="st0" cx="76.2" cy="103.5" r="2.5"/>
	<circle class="st0" cx="87.2" cy="80.7" r="2.5"/>
	<circle class="st0" cx="98.2" cy="80.7" r="2.5"/>
	<circle class="st0" cx="87.2" cy="92.1" r="2.5"/>
	<circle class="st0" cx="98.2" cy="92.1" r="2.5"/>
	<circle class="st0" cx="87.2" cy="103.5" r="2.5"/>
	<circle class="st0" cx="98.2" cy="103.5" r="2.5"/>
	<circle class="st0" cx="109.3" cy="80.7" r="2.5"/>
	<circle class="st0" cx="120.3" cy="80.7" r="2.5"/>
	<circle class="st0" cx="109.3" cy="92.1" r="2.5"/>
	<circle class="st0" cx="120.3" cy="92.1" r="2.5"/>
	<circle class="st0" cx="109.3" cy="103.5" r="2.5"/>
	<circle class="st0" cx="120.3" cy="103.5" r="2.5"/>
	<circle class="st0" cx="131.4" cy="80.7" r="2.5"/>
	<circle class="st0" cx="142.4" cy="80.7" r="2.5"/>
	<circle class="st0" cx="131.4" cy="92.1" r="2.5"/>
	<circle class="st0" cx="142.4" cy="92.1" r="2.5"/>
	<circle class="st0" cx="131.4" cy="103.5" r="2.5"/>
	<circle class="st0" cx="142.4" cy="103.5" r="2.5"/>
	<circle class="st0" cx="153.5" cy="-22" r="2.5"/>
	<circle class="st0" cx="153.5" cy="-10.6" r="2.5"/>
	<circle class="st0" cx="153.5" cy="0.8" r="2.5"/>
	<circle class="st0" cx="164.5" cy="-22" r="2.5"/>
	<circle class="st0" cx="175.5" cy="-22" r="2.5"/>
	<circle class="st0" cx="164.5" cy="-10.6" r="2.5"/>
	<circle class="st0" cx="175.5" cy="-10.6" r="2.5"/>
	<circle class="st0" cx="164.5" cy="0.8" r="2.5"/>
	<circle class="st0" cx="175.5" cy="0.8" r="2.5"/>
	<circle class="st0" cx="186.6" cy="-22" r="2.5"/>
	<circle class="st0" cx="197.6" cy="-22" r="2.5"/>
	<circle class="st0" cx="186.6" cy="-10.6" r="2.5"/>
	<circle class="st0" cx="197.6" cy="-10.6" r="2.5"/>
	<circle class="st0" cx="186.6" cy="0.8" r="2.5"/>
	<circle class="st0" cx="197.6" cy="0.8" r="2.5"/>
	<circle class="st0" cx="208.7" cy="-22" r="2.5"/>
	<circle class="st0" cx="219.7" cy="-22" r="2.5"/>
	<circle class="st0" cx="208.7" cy="-10.6" r="2.5"/>
	<circle class="st0" cx="219.7" cy="-10.6" r="2.5"/>
	<circle class="st0" cx="208.7" cy="0.8" r="2.5"/>
	<circle class="st0" cx="219.7" cy="0.8" r="2.5"/>
	<circle class="st0" cx="230.7" cy="-22" r="2.5"/>
	<circle class="st0" cx="241.8" cy="-22" r="2.5"/>
	<circle class="st0" cx="230.7" cy="-10.6" r="2.5"/>
	<circle class="st0" cx="241.8" cy="-10.6" r="2.5"/>
	<circle class="st0" cx="230.7" cy="0.8" r="2.5"/>
	<circle class="st0" cx="241.8" cy="0.8" r="2.5"/>
	<circle class="st0" cx="153.5" cy="12.2" r="2.5"/>
	<circle class="st0" cx="153.5" cy="23.6" r="2.5"/>
	<circle class="st0" cx="153.5" cy="35.1" r="2.5"/>
	<circle class="st0" cx="164.5" cy="12.2" r="2.5"/>
	<circle class="st0" cx="175.5" cy="12.2" r="2.5"/>
	<circle class="st0" cx="164.5" cy="23.6" r="2.5"/>
	<circle class="st0" cx="175.5" cy="23.6" r="2.5"/>
	<circle class="st0" cx="164.5" cy="35.1" r="2.5"/>
	<circle class="st0" cx="175.5" cy="35.1" r="2.5"/>
	<circle class="st0" cx="186.6" cy="12.2" r="2.5"/>
	<circle class="st0" cx="197.6" cy="12.2" r="2.5"/>
	<circle class="st0" cx="186.6" cy="23.6" r="2.5"/>
	<circle class="st0" cx="197.6" cy="23.6" r="2.5"/>
	<circle class="st0" cx="186.6" cy="35.1" r="2.5"/>
	<circle class="st0" cx="197.6" cy="35.1" r="2.5"/>
	<circle class="st0" cx="208.7" cy="12.2" r="2.5"/>
	<circle class="st0" cx="219.7" cy="12.2" r="2.5"/>
	<circle class="st0" cx="208.7" cy="23.6" r="2.5"/>
	<circle class="st0" cx="219.7" cy="23.6" r="2.5"/>
	<circle class="st0" cx="208.7" cy="35.1" r="2.5"/>
	<circle class="st0" cx="219.7" cy="35.1" r="2.5"/>
	<circle class="st0" cx="230.7" cy="12.2" r="2.5"/>
	<circle class="st0" cx="241.8" cy="12.2" r="2.5"/>
	<circle class="st0" cx="230.7" cy="23.6" r="2.5"/>
	<circle class="st0" cx="241.8" cy="23.6" r="2.5"/>
	<circle class="st0" cx="230.7" cy="35.1" r="2.5"/>
	<circle class="st0" cx="241.8" cy="35.1" r="2.5"/>
	<circle class="st0" cx="153.5" cy="46.5" r="2.5"/>
	<circle class="st0" cx="153.5" cy="57.9" r="2.5"/>
	<circle class="st0" cx="153.5" cy="69.3" r="2.5"/>
	<circle class="st0" cx="164.5" cy="46.5" r="2.5"/>
	<circle class="st0" cx="175.5" cy="46.5" r="2.5"/>
	<circle class="st0" cx="164.5" cy="57.9" r="2.5"/>
	<circle class="st0" cx="175.5" cy="57.9" r="2.5"/>
	<circle class="st0" cx="164.5" cy="69.3" r="2.5"/>
	<circle class="st0" cx="175.5" cy="69.3" r="2.5"/>
	<circle class="st0" cx="186.6" cy="46.5" r="2.5"/>
	<circle class="st0" cx="197.6" cy="46.5" r="2.5"/>
	<circle class="st0" cx="186.6" cy="57.9" r="2.5"/>
	<circle class="st0" cx="197.6" cy="57.9" r="2.5"/>
	<circle class="st0" cx="186.6" cy="69.3" r="2.5"/>
	<circle class="st0" cx="197.6" cy="69.3" r="2.5"/>
	<circle class="st0" cx="208.7" cy="46.5" r="2.5"/>
	<circle class="st0" cx="219.7" cy="46.5" r="2.5"/>
	<circle class="st0" cx="208.7" cy="57.9" r="2.5"/>
	<circle class="st0" cx="219.7" cy="57.9" r="2.5"/>
	<circle class="st0" cx="208.7" cy="69.3" r="2.5"/>
	<circle class="st0" cx="219.7" cy="69.3" r="2.5"/>
	<circle class="st0" cx="230.7" cy="46.5" r="2.5"/>
	<circle class="st0" cx="241.8" cy="46.5" r="2.5"/>
	<circle class="st0" cx="230.7" cy="57.9" r="2.5"/>
	<circle class="st0" cx="241.8" cy="57.9" r="2.5"/>
	<circle class="st0" cx="230.7" cy="69.3" r="2.5"/>
	<circle class="st0" cx="241.8" cy="69.3" r="2.5"/>
	<circle class="st0" cx="153.5" cy="80.7" r="2.5"/>
	<circle class="st0" cx="153.5" cy="92.1" r="2.5"/>
	<circle class="st0" cx="153.5" cy="103.5" r="2.5"/>
	<circle class="st0" cx="164.5" cy="80.7" r="2.5"/>
	<circle class="st0" cx="175.5" cy="80.7" r="2.5"/>
	<circle class="st0" cx="164.5" cy="92.1" r="2.5"/>
	<circle class="st0" cx="175.5" cy="92.1" r="2.5"/>
	<circle class="st0" cx="164.5" cy="103.5" r="2.5"/>
	<circle class="st0" cx="175.5" cy="103.5" r="2.5"/>
	<circle class="st0" cx="186.6" cy="80.7" r="2.5"/>
	<circle class="st0" cx="197.6" cy="80.7" r="2.5"/>
	<circle class="st0" cx="186.6" cy="92.1" r="2.5"/>
	<circle class="st0" cx="197.6" cy="92.1" r="2.5"/>
	<circle class="st0" cx="186.6" cy="103.5" r="2.5"/>
	<circle class="st0" cx="197.6" cy="103.5" r="2.5"/>
	<circle class="st0" cx="208.7" cy="80.7" r="2.5"/>
	<circle class="st0" cx="219.7" cy="80.7" r="2.5"/>
	<circle class="st0" cx="208.7" cy="92.1" r="2.5"/>
	<circle class="st0" cx="219.7" cy="92.1" r="2.5"/>
	<circle class="st0" cx="208.7" cy="103.5" r="2.5"/>
	<circle class="st0" cx="219.7" cy="103.5" r="2.5"/>
	<circle class="st0" cx="230.7" cy="80.7" r="2.5"/>
	<circle class="st0" cx="241.8" cy="80.7" r="2.5"/>
	<circle class="st0" cx="230.7" cy="92.1" r="2.5"/>
	<circle class="st0" cx="241.8" cy="92.1" r="2.5"/>
	<circle class="st0" cx="230.7" cy="103.5" r="2.5"/>
	<circle class="st0" cx="241.8" cy="103.5" r="2.5"/>
	<circle class="st0" cx="-12.2" cy="114.9" r="2.5"/>
	<circle class="st0" cx="-1.1" cy="114.9" r="2.5"/>
	<circle class="st0" cx="9.9" cy="114.9" r="2.5"/>
	<circle class="st0" cx="-12.2" cy="126.3" r="2.5"/>
	<circle class="st0" cx="-1.1" cy="126.3" r="2.5"/>
	<circle class="st0" cx="9.9" cy="126.3" r="2.5"/>
	<circle class="st0" cx="21" cy="114.9" r="2.5"/>
	<circle class="st0" cx="32" cy="114.9" r="2.5"/>
	<circle class="st0" cx="21" cy="126.3" r="2.5"/>
	<circle class="st0" cx="32" cy="126.3" r="2.5"/>
	<circle class="st0" cx="43" cy="114.9" r="2.5"/>
	<circle class="st0" cx="54.1" cy="114.9" r="2.5"/>
	<circle class="st0" cx="43" cy="126.3" r="2.5"/>
	<circle class="st0" cx="54.1" cy="126.3" r="2.5"/>
	<circle class="st0" cx="65.1" cy="114.9" r="2.5"/>
	<circle class="st0" cx="76.2" cy="114.9" r="2.5"/>
	<circle class="st0" cx="65.1" cy="126.3" r="2.5"/>
	<circle class="st0" cx="76.2" cy="126.3" r="2.5"/>
	<circle class="st0" cx="87.2" cy="114.9" r="2.5"/>
	<circle class="st0" cx="98.2" cy="114.9" r="2.5"/>
	<circle class="st0" cx="87.2" cy="126.3" r="2.5"/>
	<circle class="st0" cx="98.2" cy="126.3" r="2.5"/>
	<circle class="st0" cx="109.3" cy="114.9" r="2.5"/>
	<circle class="st0" cx="120.3" cy="114.9" r="2.5"/>
	<circle class="st0" cx="109.3" cy="126.3" r="2.5"/>
	<circle class="st0" cx="120.3" cy="126.3" r="2.5"/>
	<circle class="st0" cx="131.4" cy="114.9" r="2.5"/>
	<circle class="st0" cx="142.4" cy="114.9" r="2.5"/>
	<circle class="st0" cx="131.4" cy="126.3" r="2.5"/>
	<circle class="st0" cx="142.4" cy="126.3" r="2.5"/>
	<circle class="st0" cx="-12.2" cy="137.7" r="2.5"/>
	<circle class="st0" cx="-1.1" cy="137.7" r="2.5"/>
	<circle class="st0" cx="9.9" cy="137.7" r="2.5"/>
	<circle class="st0" cx="-12.2" cy="149.1" r="2.5"/>
	<circle class="st0" cx="-1.1" cy="149.1" r="2.5"/>
	<circle class="st0" cx="9.9" cy="149.1" r="2.5"/>
	<circle class="st0" cx="-12.2" cy="160.5" r="2.5"/>
	<circle class="st0" cx="-1.1" cy="160.5" r="2.5"/>
	<circle class="st0" cx="9.9" cy="160.5" r="2.5"/>
	<circle class="st0" cx="21" cy="137.7" r="2.5"/>
	<circle class="st0" cx="32" cy="137.7" r="2.5"/>
	<circle class="st0" cx="21" cy="149.1" r="2.5"/>
	<circle class="st0" cx="32" cy="149.1" r="2.5"/>
	<circle class="st0" cx="21" cy="160.5" r="2.5"/>
	<circle class="st0" cx="32" cy="160.5" r="2.5"/>
	<circle class="st0" cx="43" cy="137.7" r="2.5"/>
	<circle class="st0" cx="54.1" cy="137.7" r="2.5"/>
	<circle class="st0" cx="43" cy="149.1" r="2.5"/>
	<circle class="st0" cx="54.1" cy="149.1" r="2.5"/>
	<circle class="st0" cx="43" cy="160.5" r="2.5"/>
	<circle class="st0" cx="54.1" cy="160.5" r="2.5"/>
	<circle class="st0" cx="65.1" cy="137.7" r="2.5"/>
	<circle class="st0" cx="76.2" cy="137.7" r="2.5"/>
	<circle class="st0" cx="65.1" cy="149.1" r="2.5"/>
	<circle class="st0" cx="76.2" cy="149.1" r="2.5"/>
	<circle class="st0" cx="65.1" cy="160.5" r="2.5"/>
	<circle class="st0" cx="76.2" cy="160.5" r="2.5"/>
	<circle class="st0" cx="87.2" cy="137.7" r="2.5"/>
	<circle class="st0" cx="98.2" cy="137.7" r="2.5"/>
	<circle class="st0" cx="87.2" cy="149.1" r="2.5"/>
	<circle class="st0" cx="98.2" cy="149.1" r="2.5"/>
	<circle class="st0" cx="87.2" cy="160.5" r="2.5"/>
	<circle class="st0" cx="98.2" cy="160.5" r="2.5"/>
	<circle class="st0" cx="109.3" cy="137.7" r="2.5"/>
	<circle class="st0" cx="120.3" cy="137.7" r="2.5"/>
	<circle class="st0" cx="109.3" cy="149.1" r="2.5"/>
	<circle class="st0" cx="120.3" cy="149.1" r="2.5"/>
	<circle class="st0" cx="109.3" cy="160.5" r="2.5"/>
	<circle class="st0" cx="120.3" cy="160.5" r="2.5"/>
	<circle class="st0" cx="131.4" cy="137.7" r="2.5"/>
	<circle class="st0" cx="142.4" cy="137.7" r="2.5"/>
	<circle class="st0" cx="131.4" cy="149.1" r="2.5"/>
	<circle class="st0" cx="142.4" cy="149.1" r="2.5"/>
	<circle class="st0" cx="131.4" cy="160.5" r="2.5"/>
	<circle class="st0" cx="142.4" cy="160.5" r="2.5"/>
	<circle class="st0" cx="-12.2" cy="171.9" r="2.5"/>
	<circle class="st0" cx="-1.1" cy="171.9" r="2.5"/>
	<circle class="st0" cx="9.9" cy="171.9" r="2.5"/>
	<circle class="st0" cx="-12.2" cy="183.3" r="2.5"/>
	<circle class="st0" cx="-1.1" cy="183.3" r="2.5"/>
	<circle class="st0" cx="9.9" cy="183.3" r="2.5"/>
	<circle class="st0" cx="-12.2" cy="194.7" r="2.5"/>
	<circle class="st0" cx="-1.1" cy="194.7" r="2.5"/>
	<circle class="st0" cx="9.9" cy="194.7" r="2.5"/>
	<circle class="st0" cx="21" cy="171.9" r="2.5"/>
	<circle class="st0" cx="32" cy="171.9" r="2.5"/>
	<circle class="st0" cx="21" cy="183.3" r="2.5"/>
	<circle class="st0" cx="32" cy="183.3" r="2.5"/>
	<circle class="st0" cx="21" cy="194.7" r="2.5"/>
	<circle class="st0" cx="32" cy="194.7" r="2.5"/>
	<circle class="st0" cx="43" cy="171.9" r="2.5"/>
	<circle class="st0" cx="54.1" cy="171.9" r="2.5"/>
	<circle class="st0" cx="43" cy="183.3" r="2.5"/>
	<circle class="st0" cx="54.1" cy="183.3" r="2.5"/>
	<circle class="st0" cx="43" cy="194.7" r="2.5"/>
	<circle class="st0" cx="54.1" cy="194.7" r="2.5"/>
	<circle class="st0" cx="65.1" cy="171.9" r="2.5"/>
	<circle class="st0" cx="76.2" cy="171.9" r="2.5"/>
	<circle class="st0" cx="65.1" cy="183.3" r="2.5"/>
	<circle class="st0" cx="76.2" cy="183.3" r="2.5"/>
	<circle class="st0" cx="65.1" cy="194.7" r="2.5"/>
	<circle class="st0" cx="76.2" cy="194.7" r="2.5"/>
	<circle class="st0" cx="87.2" cy="171.9" r="2.5"/>
	<circle class="st0" cx="98.2" cy="171.9" r="2.5"/>
	<circle class="st0" cx="87.2" cy="183.3" r="2.5"/>
	<circle class="st0" cx="98.2" cy="183.3" r="2.5"/>
	<circle class="st0" cx="87.2" cy="194.7" r="2.5"/>
	<circle class="st0" cx="98.2" cy="194.7" r="2.5"/>
	<circle class="st0" cx="109.3" cy="171.9" r="2.5"/>
	<circle class="st0" cx="120.3" cy="171.9" r="2.5"/>
	<circle class="st0" cx="109.3" cy="183.3" r="2.5"/>
	<circle class="st0" cx="120.3" cy="183.3" r="2.5"/>
	<circle class="st0" cx="109.3" cy="194.7" r="2.5"/>
	<circle class="st0" cx="120.3" cy="194.7" r="2.5"/>
	<circle class="st0" cx="131.4" cy="171.9" r="2.5"/>
	<circle class="st0" cx="142.4" cy="171.9" r="2.5"/>
	<circle class="st0" cx="131.4" cy="183.3" r="2.5"/>
	<circle class="st0" cx="142.4" cy="183.3" r="2.5"/>
	<circle class="st0" cx="131.4" cy="194.7" r="2.5"/>
	<circle class="st0" cx="142.4" cy="194.7" r="2.5"/>
	<circle class="st0" cx="153.5" cy="114.9" r="2.5"/>
	<circle class="st0" cx="153.5" cy="126.3" r="2.5"/>
	<circle class="st0" cx="164.5" cy="114.9" r="2.5"/>
	<circle class="st0" cx="175.5" cy="114.9" r="2.5"/>
	<circle class="st0" cx="164.5" cy="126.3" r="2.5"/>
	<circle class="st0" cx="175.5" cy="126.3" r="2.5"/>
	<circle class="st0" cx="186.6" cy="114.9" r="2.5"/>
	<circle class="st0" cx="197.6" cy="114.9" r="2.5"/>
	<circle class="st0" cx="186.6" cy="126.3" r="2.5"/>
	<circle class="st0" cx="197.6" cy="126.3" r="2.5"/>
	<circle class="st0" cx="208.7" cy="114.9" r="2.5"/>
	<circle class="st0" cx="219.7" cy="114.9" r="2.5"/>
	<circle class="st0" cx="208.7" cy="126.3" r="2.5"/>
	<circle class="st0" cx="219.7" cy="126.3" r="2.5"/>
	<circle class="st0" cx="230.7" cy="114.9" r="2.5"/>
	<circle class="st0" cx="241.8" cy="114.9" r="2.5"/>
	<circle class="st0" cx="230.7" cy="126.3" r="2.5"/>
	<circle class="st0" cx="241.8" cy="126.3" r="2.5"/>
	<circle class="st0" cx="153.5" cy="137.7" r="2.5"/>
	<circle class="st0" cx="153.5" cy="149.1" r="2.5"/>
	<circle class="st0" cx="153.5" cy="160.5" r="2.5"/>
	<circle class="st0" cx="164.5" cy="137.7" r="2.5"/>
	<circle class="st0" cx="175.5" cy="137.7" r="2.5"/>
	<circle class="st0" cx="164.5" cy="149.1" r="2.5"/>
	<circle class="st0" cx="175.5" cy="149.1" r="2.5"/>
	<circle class="st0" cx="164.5" cy="160.5" r="2.5"/>
	<circle class="st0" cx="175.5" cy="160.5" r="2.5"/>
	<circle class="st0" cx="186.6" cy="137.7" r="2.5"/>
	<circle class="st0" cx="197.6" cy="137.7" r="2.5"/>
	<circle class="st0" cx="186.6" cy="149.1" r="2.5"/>
	<circle class="st0" cx="197.6" cy="149.1" r="2.5"/>
	<circle class="st0" cx="186.6" cy="160.5" r="2.5"/>
	<circle class="st0" cx="197.6" cy="160.5" r="2.5"/>
	<circle class="st0" cx="208.7" cy="137.7" r="2.5"/>
	<circle class="st0" cx="219.7" cy="137.7" r="2.5"/>
	<circle class="st0" cx="208.7" cy="149.1" r="2.5"/>
	<circle class="st0" cx="219.7" cy="149.1" r="2.5"/>
	<circle class="st0" cx="208.7" cy="160.5" r="2.5"/>
	<circle class="st0" cx="219.7" cy="160.5" r="2.5"/>
	<circle class="st0" cx="230.7" cy="137.7" r="2.5"/>
	<circle class="st0" cx="241.8" cy="137.7" r="2.5"/>
	<circle class="st0" cx="230.7" cy="149.1" r="2.5"/>
	<circle class="st0" cx="241.8" cy="149.1" r="2.5"/>
	<circle class="st0" cx="230.7" cy="160.5" r="2.5"/>
	<circle class="st0" cx="241.8" cy="160.5" r="2.5"/>
	<circle class="st0" cx="153.5" cy="171.9" r="2.5"/>
	<circle class="st0" cx="153.5" cy="183.3" r="2.5"/>
	<circle class="st0" cx="153.5" cy="194.7" r="2.5"/>
	<circle class="st0" cx="164.5" cy="171.9" r="2.5"/>
	<circle class="st0" cx="175.5" cy="171.9" r="2.5"/>
	<circle class="st0" cx="164.5" cy="183.3" r="2.5"/>
	<circle class="st0" cx="175.5" cy="183.3" r="2.5"/>
	<circle class="st0" cx="164.5" cy="194.7" r="2.5"/>
	<circle class="st0" cx="175.5" cy="194.7" r="2.5"/>
	<circle class="st0" cx="186.6" cy="171.9" r="2.5"/>
	<circle class="st0" cx="197.6" cy="171.9" r="2.5"/>
	<circle class="st0" cx="186.6" cy="183.3" r="2.5"/>
	<circle class="st0" cx="197.6" cy="183.3" r="2.5"/>
	<circle class="st0" cx="186.6" cy="194.7" r="2.5"/>
	<circle class="st0" cx="197.6" cy="194.7" r="2.5"/>
	<circle class="st0" cx="208.7" cy="171.9" r="2.5"/>
	<circle class="st0" cx="219.7" cy="171.9" r="2.5"/>
	<circle class="st0" cx="208.7" cy="183.3" r="2.5"/>
	<circle class="st0" cx="219.7" cy="183.3" r="2.5"/>
	<circle class="st0" cx="208.7" cy="194.7" r="2.5"/>
	<circle class="st0" cx="219.7" cy="194.7" r="2.5"/>
	<circle class="st0" cx="230.7" cy="171.9" r="2.5"/>
	<circle class="st0" cx="241.8" cy="171.9" r="2.5"/>
	<circle class="st0" cx="230.7" cy="183.3" r="2.5"/>
	<circle class="st0" cx="241.8" cy="183.3" r="2.5"/>
	<circle class="st0" cx="230.7" cy="194.7" r="2.5"/>
	<circle class="st0" cx="241.8" cy="194.7" r="2.5"/>
</g>
</svg>
