<?xml version="1.0" encoding="utf-8"?>
<!-- Generator: Adobe Illustrator 22.0.1, SVG Export Plug-In . SVG Version: 6.00 Build 0)  -->
<svg width="218px" height="165px" version="1.1" id="Layer_1" xmlns="http://www.w3.org/2000/svg" xmlns:xlink="http://www.w3.org/1999/xlink" x="0px" y="0px"
	 viewBox="0 0 224.5 170.4" style="enable-background:new 0 0 224.5 170.4;" xml:space="preserve">
<style type="text/css">
	.st0{clip-path:url(#SVGID_2_);fill:#505CFD;}
</style>
<g>
	<defs>
		<path id="SVGID_1_" d="M215.9,89.5c-7.8,17-23.4,29.3-36.5,38.1c-13.3,8.8-24.4,14-35,18.1s-20.7,7.1-33.6,12
			c-12.9,5-28.6,11.9-45.2,11.3s-34.3-8.6-45-22.4c-10.9-13.7-15-33.1-17-53.8C1.5,72.1,1.7,50.4,11,34C20.3,17.6,39,6.6,57.7,4.2
			C76.4,1.7,95,7.6,109.3,15.4c14.3,7.6,24.2,17,42.6,19.7c18.3,2.7,45-1.4,58.3,7.4C223.5,51.3,223.5,72.5,215.9,89.5z"/>
	</defs>
	<clipPath id="SVGID_2_">
		<use xlink:href="#SVGID_1_"  style="overflow:visible;"/>
	</clipPath>
	<circle class="st0" cx="235.7" cy="194.7" r="2.5"/>
	<circle class="st0" cx="224.7" cy="194.7" r="2.5"/>
	<circle class="st0" cx="213.7" cy="194.7" r="2.5"/>
	<circle class="st0" cx="235.7" cy="183.3" r="2.5"/>
	<circle class="st0" cx="224.7" cy="183.3" r="2.5"/>
	<circle class="st0" cx="213.7" cy="183.3" r="2.5"/>
	<circle class="st0" cx="235.7" cy="171.9" r="2.5"/>
	<circle class="st0" cx="224.7" cy="171.9" r="2.5"/>
	<circle class="st0" cx="213.7" cy="171.9" r="2.5"/>
	<circle class="st0" cx="202.6" cy="194.7" r="2.5"/>
	<circle class="st0" cx="191.6" cy="194.7" r="2.5"/>
	<circle class="st0" cx="202.6" cy="183.3" r="2.5"/>
	<circle class="st0" cx="191.6" cy="183.3" r="2.5"/>
	<circle class="st0" cx="202.6" cy="171.9" r="2.5"/>
	<circle class="st0" cx="191.6" cy="171.9" r="2.5"/>
	<circle class="st0" cx="180.5" cy="194.7" r="2.5"/>
	<circle class="st0" cx="169.5" cy="194.7" r="2.5"/>
	<circle class="st0" cx="180.5" cy="183.3" r="2.5"/>
	<circle class="st0" cx="169.5" cy="183.3" r="2.5"/>
	<circle class="st0" cx="180.5" cy="171.9" r="2.5"/>
	<circle class="st0" cx="169.5" cy="171.9" r="2.5"/>
	<circle class="st0" cx="158.5" cy="194.7" r="2.5"/>
	<circle class="st0" cx="147.4" cy="194.7" r="2.5"/>
	<circle class="st0" cx="158.5" cy="183.3" r="2.5"/>
	<circle class="st0" cx="147.4" cy="183.3" r="2.5"/>
	<circle class="st0" cx="158.5" cy="171.9" r="2.5"/>
	<circle class="st0" cx="147.4" cy="171.9" r="2.5"/>
	<circle class="st0" cx="136.4" cy="194.7" r="2.5"/>
	<circle class="st0" cx="125.3" cy="194.7" r="2.5"/>
	<circle class="st0" cx="136.4" cy="183.3" r="2.5"/>
	<circle class="st0" cx="125.3" cy="183.3" r="2.5"/>
	<circle class="st0" cx="136.4" cy="171.9" r="2.5"/>
	<circle class="st0" cx="125.3" cy="171.9" r="2.5"/>
	<circle class="st0" cx="114.3" cy="194.7" r="2.5"/>
	<circle class="st0" cx="103.2" cy="194.7" r="2.5"/>
	<circle class="st0" cx="114.3" cy="183.3" r="2.5"/>
	<circle class="st0" cx="103.2" cy="183.3" r="2.5"/>
	<circle class="st0" cx="114.3" cy="171.9" r="2.5"/>
	<circle class="st0" cx="103.2" cy="171.9" r="2.5"/>
	<circle class="st0" cx="92.2" cy="194.7" r="2.5"/>
	<circle class="st0" cx="81.2" cy="194.7" r="2.5"/>
	<circle class="st0" cx="92.2" cy="183.3" r="2.5"/>
	<circle class="st0" cx="81.2" cy="183.3" r="2.5"/>
	<circle class="st0" cx="92.2" cy="171.9" r="2.5"/>
	<circle class="st0" cx="81.2" cy="171.9" r="2.5"/>
	<circle class="st0" cx="235.7" cy="160.5" r="2.5"/>
	<circle class="st0" cx="224.7" cy="160.5" r="2.5"/>
	<circle class="st0" cx="213.7" cy="160.5" r="2.5"/>
	<circle class="st0" cx="235.7" cy="149.1" r="2.5"/>
	<circle class="st0" cx="224.7" cy="149.1" r="2.5"/>
	<circle class="st0" cx="213.7" cy="149.1" r="2.5"/>
	<circle class="st0" cx="235.7" cy="137.7" r="2.5"/>
	<circle class="st0" cx="224.7" cy="137.7" r="2.5"/>
	<circle class="st0" cx="213.7" cy="137.7" r="2.5"/>
	<circle class="st0" cx="202.6" cy="160.5" r="2.5"/>
	<circle class="st0" cx="191.6" cy="160.5" r="2.5"/>
	<circle class="st0" cx="202.6" cy="149.1" r="2.5"/>
	<circle class="st0" cx="191.6" cy="149.1" r="2.5"/>
	<circle class="st0" cx="202.6" cy="137.7" r="2.5"/>
	<circle class="st0" cx="191.6" cy="137.7" r="2.5"/>
	<circle class="st0" cx="180.5" cy="160.5" r="2.5"/>
	<circle class="st0" cx="169.5" cy="160.5" r="2.5"/>
	<circle class="st0" cx="180.5" cy="149.1" r="2.5"/>
	<circle class="st0" cx="169.5" cy="149.1" r="2.5"/>
	<circle class="st0" cx="180.5" cy="137.7" r="2.5"/>
	<circle class="st0" cx="169.5" cy="137.7" r="2.5"/>
	<circle class="st0" cx="158.5" cy="160.5" r="2.5"/>
	<circle class="st0" cx="147.4" cy="160.5" r="2.5"/>
	<circle class="st0" cx="158.5" cy="149.1" r="2.5"/>
	<circle class="st0" cx="147.4" cy="149.1" r="2.5"/>
	<circle class="st0" cx="158.5" cy="137.7" r="2.5"/>
	<circle class="st0" cx="147.4" cy="137.7" r="2.5"/>
	<circle class="st0" cx="136.4" cy="160.5" r="2.5"/>
	<circle class="st0" cx="125.3" cy="160.5" r="2.5"/>
	<circle class="st0" cx="136.4" cy="149.1" r="2.5"/>
	<circle class="st0" cx="125.3" cy="149.1" r="2.5"/>
	<circle class="st0" cx="136.4" cy="137.7" r="2.5"/>
	<circle class="st0" cx="125.3" cy="137.7" r="2.5"/>
	<circle class="st0" cx="114.3" cy="160.5" r="2.5"/>
	<circle class="st0" cx="103.2" cy="160.5" r="2.5"/>
	<circle class="st0" cx="114.3" cy="149.1" r="2.5"/>
	<circle class="st0" cx="103.2" cy="149.1" r="2.5"/>
	<circle class="st0" cx="114.3" cy="137.7" r="2.5"/>
	<circle class="st0" cx="103.2" cy="137.7" r="2.5"/>
	<circle class="st0" cx="92.2" cy="160.5" r="2.5"/>
	<circle class="st0" cx="81.2" cy="160.5" r="2.5"/>
	<circle class="st0" cx="92.2" cy="149.1" r="2.5"/>
	<circle class="st0" cx="81.2" cy="149.1" r="2.5"/>
	<circle class="st0" cx="92.2" cy="137.7" r="2.5"/>
	<circle class="st0" cx="81.2" cy="137.7" r="2.5"/>
	<circle class="st0" cx="235.7" cy="126.3" r="2.5"/>
	<circle class="st0" cx="224.7" cy="126.3" r="2.5"/>
	<circle class="st0" cx="213.7" cy="126.3" r="2.5"/>
	<circle class="st0" cx="235.7" cy="114.9" r="2.5"/>
	<circle class="st0" cx="224.7" cy="114.9" r="2.5"/>
	<circle class="st0" cx="213.7" cy="114.9" r="2.5"/>
	<circle class="st0" cx="235.7" cy="103.5" r="2.5"/>
	<circle class="st0" cx="224.7" cy="103.5" r="2.5"/>
	<circle class="st0" cx="213.7" cy="103.5" r="2.5"/>
	<circle class="st0" cx="202.6" cy="126.3" r="2.5"/>
	<circle class="st0" cx="191.6" cy="126.3" r="2.5"/>
	<circle class="st0" cx="202.6" cy="114.9" r="2.5"/>
	<circle class="st0" cx="191.6" cy="114.9" r="2.5"/>
	<circle class="st0" cx="202.6" cy="103.5" r="2.5"/>
	<circle class="st0" cx="191.6" cy="103.5" r="2.5"/>
	<circle class="st0" cx="180.5" cy="126.3" r="2.5"/>
	<circle class="st0" cx="169.5" cy="126.3" r="2.5"/>
	<circle class="st0" cx="180.5" cy="114.9" r="2.5"/>
	<circle class="st0" cx="169.5" cy="114.9" r="2.5"/>
	<circle class="st0" cx="180.5" cy="103.5" r="2.5"/>
	<circle class="st0" cx="169.5" cy="103.5" r="2.5"/>
	<circle class="st0" cx="158.5" cy="126.3" r="2.5"/>
	<circle class="st0" cx="147.4" cy="126.3" r="2.5"/>
	<circle class="st0" cx="158.5" cy="114.9" r="2.5"/>
	<circle class="st0" cx="147.4" cy="114.9" r="2.5"/>
	<circle class="st0" cx="158.5" cy="103.5" r="2.5"/>
	<circle class="st0" cx="147.4" cy="103.5" r="2.5"/>
	<circle class="st0" cx="136.4" cy="126.3" r="2.5"/>
	<circle class="st0" cx="125.3" cy="126.3" r="2.5"/>
	<circle class="st0" cx="136.4" cy="114.9" r="2.5"/>
	<circle class="st0" cx="125.3" cy="114.9" r="2.5"/>
	<circle class="st0" cx="136.4" cy="103.5" r="2.5"/>
	<circle class="st0" cx="125.3" cy="103.5" r="2.5"/>
	<circle class="st0" cx="114.3" cy="126.3" r="2.5"/>
	<circle class="st0" cx="103.2" cy="126.3" r="2.5"/>
	<circle class="st0" cx="114.3" cy="114.9" r="2.5"/>
	<circle class="st0" cx="103.2" cy="114.9" r="2.5"/>
	<circle class="st0" cx="114.3" cy="103.5" r="2.5"/>
	<circle class="st0" cx="103.2" cy="103.5" r="2.5"/>
	<circle class="st0" cx="92.2" cy="126.3" r="2.5"/>
	<circle class="st0" cx="81.2" cy="126.3" r="2.5"/>
	<circle class="st0" cx="92.2" cy="114.9" r="2.5"/>
	<circle class="st0" cx="81.2" cy="114.9" r="2.5"/>
	<circle class="st0" cx="92.2" cy="103.5" r="2.5"/>
	<circle class="st0" cx="81.2" cy="103.5" r="2.5"/>
	<circle class="st0" cx="235.7" cy="92.1" r="2.5"/>
	<circle class="st0" cx="224.7" cy="92.1" r="2.5"/>
	<circle class="st0" cx="213.7" cy="92.1" r="2.5"/>
	<circle class="st0" cx="235.7" cy="80.7" r="2.5"/>
	<circle class="st0" cx="224.7" cy="80.7" r="2.5"/>
	<circle class="st0" cx="213.7" cy="80.7" r="2.5"/>
	<circle class="st0" cx="235.7" cy="69.3" r="2.5"/>
	<circle class="st0" cx="224.7" cy="69.3" r="2.5"/>
	<circle class="st0" cx="213.7" cy="69.3" r="2.5"/>
	<circle class="st0" cx="202.6" cy="92.1" r="2.5"/>
	<circle class="st0" cx="191.6" cy="92.1" r="2.5"/>
	<circle class="st0" cx="202.6" cy="80.7" r="2.5"/>
	<circle class="st0" cx="191.6" cy="80.7" r="2.5"/>
	<circle class="st0" cx="202.6" cy="69.3" r="2.5"/>
	<circle class="st0" cx="191.6" cy="69.3" r="2.5"/>
	<circle class="st0" cx="180.5" cy="92.1" r="2.5"/>
	<circle class="st0" cx="169.5" cy="92.1" r="2.5"/>
	<circle class="st0" cx="180.5" cy="80.7" r="2.5"/>
	<circle class="st0" cx="169.5" cy="80.7" r="2.5"/>
	<circle class="st0" cx="180.5" cy="69.3" r="2.5"/>
	<circle class="st0" cx="169.5" cy="69.3" r="2.5"/>
	<circle class="st0" cx="158.5" cy="92.1" r="2.5"/>
	<circle class="st0" cx="147.4" cy="92.1" r="2.5"/>
	<circle class="st0" cx="158.5" cy="80.7" r="2.5"/>
	<circle class="st0" cx="147.4" cy="80.7" r="2.5"/>
	<circle class="st0" cx="158.5" cy="69.3" r="2.5"/>
	<circle class="st0" cx="147.4" cy="69.3" r="2.5"/>
	<circle class="st0" cx="136.4" cy="92.1" r="2.5"/>
	<circle class="st0" cx="125.3" cy="92.1" r="2.5"/>
	<circle class="st0" cx="136.4" cy="80.7" r="2.5"/>
	<circle class="st0" cx="125.3" cy="80.7" r="2.5"/>
	<circle class="st0" cx="136.4" cy="69.3" r="2.5"/>
	<circle class="st0" cx="125.3" cy="69.3" r="2.5"/>
	<circle class="st0" cx="114.3" cy="92.1" r="2.5"/>
	<circle class="st0" cx="103.2" cy="92.1" r="2.5"/>
	<circle class="st0" cx="114.3" cy="80.7" r="2.5"/>
	<circle class="st0" cx="103.2" cy="80.7" r="2.5"/>
	<circle class="st0" cx="114.3" cy="69.3" r="2.5"/>
	<circle class="st0" cx="103.2" cy="69.3" r="2.5"/>
	<circle class="st0" cx="92.2" cy="92.1" r="2.5"/>
	<circle class="st0" cx="81.2" cy="92.1" r="2.5"/>
	<circle class="st0" cx="92.2" cy="80.7" r="2.5"/>
	<circle class="st0" cx="81.2" cy="80.7" r="2.5"/>
	<circle class="st0" cx="92.2" cy="69.3" r="2.5"/>
	<circle class="st0" cx="81.2" cy="69.3" r="2.5"/>
	<circle class="st0" cx="70.1" cy="194.7" r="2.5"/>
	<circle class="st0" cx="70.1" cy="183.3" r="2.5"/>
	<circle class="st0" cx="70.1" cy="171.9" r="2.5"/>
	<circle class="st0" cx="59.1" cy="194.7" r="2.5"/>
	<circle class="st0" cx="48" cy="194.7" r="2.5"/>
	<circle class="st0" cx="59.1" cy="183.3" r="2.5"/>
	<circle class="st0" cx="48" cy="183.3" r="2.5"/>
	<circle class="st0" cx="59.1" cy="171.9" r="2.5"/>
	<circle class="st0" cx="48" cy="171.9" r="2.5"/>
	<circle class="st0" cx="37" cy="194.7" r="2.5"/>
	<circle class="st0" cx="26" cy="194.7" r="2.5"/>
	<circle class="st0" cx="37" cy="183.3" r="2.5"/>
	<circle class="st0" cx="26" cy="183.3" r="2.5"/>
	<circle class="st0" cx="37" cy="171.9" r="2.5"/>
	<circle class="st0" cx="26" cy="171.9" r="2.5"/>
	<circle class="st0" cx="14.9" cy="194.7" r="2.5"/>
	<circle class="st0" cx="3.9" cy="194.7" r="2.5"/>
	<circle class="st0" cx="14.9" cy="183.3" r="2.5"/>
	<circle class="st0" cx="3.9" cy="183.3" r="2.5"/>
	<circle class="st0" cx="14.9" cy="171.9" r="2.5"/>
	<circle class="st0" cx="3.9" cy="171.9" r="2.5"/>
	<circle class="st0" cx="-7.2" cy="194.7" r="2.5"/>
	<circle class="st0" cx="-18.2" cy="194.7" r="2.5"/>
	<circle class="st0" cx="-7.2" cy="183.3" r="2.5"/>
	<circle class="st0" cx="-18.2" cy="183.3" r="2.5"/>
	<circle class="st0" cx="-7.2" cy="171.9" r="2.5"/>
	<circle class="st0" cx="-18.2" cy="171.9" r="2.5"/>
	<circle class="st0" cx="70.1" cy="160.5" r="2.5"/>
	<circle class="st0" cx="70.1" cy="149.1" r="2.5"/>
	<circle class="st0" cx="70.1" cy="137.7" r="2.5"/>
	<circle class="st0" cx="59.1" cy="160.5" r="2.5"/>
	<circle class="st0" cx="48" cy="160.5" r="2.5"/>
	<circle class="st0" cx="59.1" cy="149.1" r="2.5"/>
	<circle class="st0" cx="48" cy="149.1" r="2.5"/>
	<circle class="st0" cx="59.1" cy="137.7" r="2.5"/>
	<circle class="st0" cx="48" cy="137.7" r="2.5"/>
	<circle class="st0" cx="37" cy="160.5" r="2.5"/>
	<circle class="st0" cx="26" cy="160.5" r="2.5"/>
	<circle class="st0" cx="37" cy="149.1" r="2.5"/>
	<circle class="st0" cx="26" cy="149.1" r="2.5"/>
	<circle class="st0" cx="37" cy="137.7" r="2.5"/>
	<circle class="st0" cx="26" cy="137.7" r="2.5"/>
	<circle class="st0" cx="14.9" cy="160.5" r="2.5"/>
	<circle class="st0" cx="3.9" cy="160.5" r="2.5"/>
	<circle class="st0" cx="14.9" cy="149.1" r="2.5"/>
	<circle class="st0" cx="3.9" cy="149.1" r="2.5"/>
	<circle class="st0" cx="14.9" cy="137.7" r="2.5"/>
	<circle class="st0" cx="3.9" cy="137.7" r="2.5"/>
	<circle class="st0" cx="-7.2" cy="160.5" r="2.5"/>
	<circle class="st0" cx="-18.2" cy="160.5" r="2.5"/>
	<circle class="st0" cx="-7.2" cy="149.1" r="2.5"/>
	<circle class="st0" cx="-18.2" cy="149.1" r="2.5"/>
	<circle class="st0" cx="-7.2" cy="137.7" r="2.5"/>
	<circle class="st0" cx="-18.2" cy="137.7" r="2.5"/>
	<circle class="st0" cx="70.1" cy="126.3" r="2.5"/>
	<circle class="st0" cx="70.1" cy="114.9" r="2.5"/>
	<circle class="st0" cx="70.1" cy="103.5" r="2.5"/>
	<circle class="st0" cx="59.1" cy="126.3" r="2.5"/>
	<circle class="st0" cx="48" cy="126.3" r="2.5"/>
	<circle class="st0" cx="59.1" cy="114.9" r="2.5"/>
	<circle class="st0" cx="48" cy="114.9" r="2.5"/>
	<circle class="st0" cx="59.1" cy="103.5" r="2.5"/>
	<circle class="st0" cx="48" cy="103.5" r="2.5"/>
	<circle class="st0" cx="37" cy="126.3" r="2.5"/>
	<circle class="st0" cx="26" cy="126.3" r="2.5"/>
	<circle class="st0" cx="37" cy="114.9" r="2.5"/>
	<circle class="st0" cx="26" cy="114.9" r="2.5"/>
	<circle class="st0" cx="37" cy="103.5" r="2.5"/>
	<circle class="st0" cx="26" cy="103.5" r="2.5"/>
	<circle class="st0" cx="14.9" cy="126.3" r="2.5"/>
	<circle class="st0" cx="3.9" cy="126.3" r="2.5"/>
	<circle class="st0" cx="14.9" cy="114.9" r="2.5"/>
	<circle class="st0" cx="3.9" cy="114.9" r="2.5"/>
	<circle class="st0" cx="14.9" cy="103.5" r="2.5"/>
	<circle class="st0" cx="3.9" cy="103.5" r="2.5"/>
	<circle class="st0" cx="-7.2" cy="126.3" r="2.5"/>
	<circle class="st0" cx="-18.2" cy="126.3" r="2.5"/>
	<circle class="st0" cx="-7.2" cy="114.9" r="2.5"/>
	<circle class="st0" cx="-18.2" cy="114.9" r="2.5"/>
	<circle class="st0" cx="-7.2" cy="103.5" r="2.5"/>
	<circle class="st0" cx="-18.2" cy="103.5" r="2.5"/>
	<circle class="st0" cx="70.1" cy="92.1" r="2.5"/>
	<circle class="st0" cx="70.1" cy="80.7" r="2.5"/>
	<circle class="st0" cx="70.1" cy="69.3" r="2.5"/>
	<circle class="st0" cx="59.1" cy="92.1" r="2.5"/>
	<circle class="st0" cx="48" cy="92.1" r="2.5"/>
	<circle class="st0" cx="59.1" cy="80.7" r="2.5"/>
	<circle class="st0" cx="48" cy="80.7" r="2.5"/>
	<circle class="st0" cx="59.1" cy="69.3" r="2.5"/>
	<circle class="st0" cx="48" cy="69.3" r="2.5"/>
	<circle class="st0" cx="37" cy="92.1" r="2.5"/>
	<circle class="st0" cx="26" cy="92.1" r="2.5"/>
	<circle class="st0" cx="37" cy="80.7" r="2.5"/>
	<circle class="st0" cx="26" cy="80.7" r="2.5"/>
	<circle class="st0" cx="37" cy="69.3" r="2.5"/>
	<circle class="st0" cx="26" cy="69.3" r="2.5"/>
	<circle class="st0" cx="14.9" cy="92.1" r="2.5"/>
	<circle class="st0" cx="3.9" cy="92.1" r="2.5"/>
	<circle class="st0" cx="14.9" cy="80.7" r="2.5"/>
	<circle class="st0" cx="3.9" cy="80.7" r="2.5"/>
	<circle class="st0" cx="14.9" cy="69.3" r="2.5"/>
	<circle class="st0" cx="3.9" cy="69.3" r="2.5"/>
	<circle class="st0" cx="-7.2" cy="92.1" r="2.5"/>
	<circle class="st0" cx="-18.2" cy="92.1" r="2.5"/>
	<circle class="st0" cx="-7.2" cy="80.7" r="2.5"/>
	<circle class="st0" cx="-18.2" cy="80.7" r="2.5"/>
	<circle class="st0" cx="-7.2" cy="69.3" r="2.5"/>
	<circle class="st0" cx="-18.2" cy="69.3" r="2.5"/>
	<circle class="st0" cx="235.7" cy="57.9" r="2.5"/>
	<circle class="st0" cx="224.7" cy="57.9" r="2.5"/>
	<circle class="st0" cx="213.7" cy="57.9" r="2.5"/>
	<circle class="st0" cx="235.7" cy="46.5" r="2.5"/>
	<circle class="st0" cx="224.7" cy="46.5" r="2.5"/>
	<circle class="st0" cx="213.7" cy="46.5" r="2.5"/>
	<circle class="st0" cx="202.6" cy="57.9" r="2.5"/>
	<circle class="st0" cx="191.6" cy="57.9" r="2.5"/>
	<circle class="st0" cx="202.6" cy="46.5" r="2.5"/>
	<circle class="st0" cx="191.6" cy="46.5" r="2.5"/>
	<circle class="st0" cx="180.5" cy="57.9" r="2.5"/>
	<circle class="st0" cx="169.5" cy="57.9" r="2.5"/>
	<circle class="st0" cx="180.5" cy="46.5" r="2.5"/>
	<circle class="st0" cx="169.5" cy="46.5" r="2.5"/>
	<circle class="st0" cx="158.5" cy="57.9" r="2.5"/>
	<circle class="st0" cx="147.4" cy="57.9" r="2.5"/>
	<circle class="st0" cx="158.5" cy="46.5" r="2.5"/>
	<circle class="st0" cx="147.4" cy="46.5" r="2.5"/>
	<circle class="st0" cx="136.4" cy="57.9" r="2.5"/>
	<circle class="st0" cx="125.3" cy="57.9" r="2.5"/>
	<circle class="st0" cx="136.4" cy="46.5" r="2.5"/>
	<circle class="st0" cx="125.3" cy="46.5" r="2.5"/>
	<circle class="st0" cx="114.3" cy="57.9" r="2.5"/>
	<circle class="st0" cx="103.2" cy="57.9" r="2.5"/>
	<circle class="st0" cx="114.3" cy="46.5" r="2.5"/>
	<circle class="st0" cx="103.2" cy="46.5" r="2.5"/>
	<circle class="st0" cx="92.2" cy="57.9" r="2.5"/>
	<circle class="st0" cx="81.2" cy="57.9" r="2.5"/>
	<circle class="st0" cx="92.2" cy="46.5" r="2.5"/>
	<circle class="st0" cx="81.2" cy="46.5" r="2.5"/>
	<circle class="st0" cx="235.7" cy="35.1" r="2.5"/>
	<circle class="st0" cx="224.7" cy="35.1" r="2.5"/>
	<circle class="st0" cx="213.7" cy="35.1" r="2.5"/>
	<circle class="st0" cx="235.7" cy="23.6" r="2.5"/>
	<circle class="st0" cx="224.7" cy="23.6" r="2.5"/>
	<circle class="st0" cx="213.7" cy="23.6" r="2.5"/>
	<circle class="st0" cx="235.7" cy="12.2" r="2.5"/>
	<circle class="st0" cx="224.7" cy="12.2" r="2.5"/>
	<circle class="st0" cx="213.7" cy="12.2" r="2.5"/>
	<circle class="st0" cx="202.6" cy="35.1" r="2.5"/>
	<circle class="st0" cx="191.6" cy="35.1" r="2.5"/>
	<circle class="st0" cx="202.6" cy="23.6" r="2.5"/>
	<circle class="st0" cx="191.6" cy="23.6" r="2.5"/>
	<circle class="st0" cx="202.6" cy="12.2" r="2.5"/>
	<circle class="st0" cx="191.6" cy="12.2" r="2.5"/>
	<circle class="st0" cx="180.5" cy="35.1" r="2.5"/>
	<circle class="st0" cx="169.5" cy="35.1" r="2.5"/>
	<circle class="st0" cx="180.5" cy="23.6" r="2.5"/>
	<circle class="st0" cx="169.5" cy="23.6" r="2.5"/>
	<circle class="st0" cx="180.5" cy="12.2" r="2.5"/>
	<circle class="st0" cx="169.5" cy="12.2" r="2.5"/>
	<circle class="st0" cx="158.5" cy="35.1" r="2.5"/>
	<circle class="st0" cx="147.4" cy="35.1" r="2.5"/>
	<circle class="st0" cx="158.5" cy="23.6" r="2.5"/>
	<circle class="st0" cx="147.4" cy="23.6" r="2.5"/>
	<circle class="st0" cx="158.5" cy="12.2" r="2.5"/>
	<circle class="st0" cx="147.4" cy="12.2" r="2.5"/>
	<circle class="st0" cx="136.4" cy="35.1" r="2.5"/>
	<circle class="st0" cx="125.3" cy="35.1" r="2.5"/>
	<circle class="st0" cx="136.4" cy="23.6" r="2.5"/>
	<circle class="st0" cx="125.3" cy="23.6" r="2.5"/>
	<circle class="st0" cx="136.4" cy="12.2" r="2.5"/>
	<circle class="st0" cx="125.3" cy="12.2" r="2.5"/>
	<circle class="st0" cx="114.3" cy="35.1" r="2.5"/>
	<circle class="st0" cx="103.2" cy="35.1" r="2.5"/>
	<circle class="st0" cx="114.3" cy="23.6" r="2.5"/>
	<circle class="st0" cx="103.2" cy="23.6" r="2.5"/>
	<circle class="st0" cx="114.3" cy="12.2" r="2.5"/>
	<circle class="st0" cx="103.2" cy="12.2" r="2.5"/>
	<circle class="st0" cx="92.2" cy="35.1" r="2.5"/>
	<circle class="st0" cx="81.2" cy="35.1" r="2.5"/>
	<circle class="st0" cx="92.2" cy="23.6" r="2.5"/>
	<circle class="st0" cx="81.2" cy="23.6" r="2.5"/>
	<circle class="st0" cx="92.2" cy="12.2" r="2.5"/>
	<circle class="st0" cx="81.2" cy="12.2" r="2.5"/>
	<circle class="st0" cx="235.7" cy="0.8" r="2.5"/>
	<circle class="st0" cx="224.7" cy="0.8" r="2.5"/>
	<circle class="st0" cx="213.7" cy="0.8" r="2.5"/>
	<circle class="st0" cx="235.7" cy="-10.6" r="2.5"/>
	<circle class="st0" cx="224.7" cy="-10.6" r="2.5"/>
	<circle class="st0" cx="213.7" cy="-10.6" r="2.5"/>
	<circle class="st0" cx="235.7" cy="-22" r="2.5"/>
	<circle class="st0" cx="224.7" cy="-22" r="2.5"/>
	<circle class="st0" cx="213.7" cy="-22" r="2.5"/>
	<circle class="st0" cx="202.6" cy="0.8" r="2.5"/>
	<circle class="st0" cx="191.6" cy="0.8" r="2.5"/>
	<circle class="st0" cx="202.6" cy="-10.6" r="2.5"/>
	<circle class="st0" cx="191.6" cy="-10.6" r="2.5"/>
	<circle class="st0" cx="202.6" cy="-22" r="2.5"/>
	<circle class="st0" cx="191.6" cy="-22" r="2.5"/>
	<circle class="st0" cx="180.5" cy="0.8" r="2.5"/>
	<circle class="st0" cx="169.5" cy="0.8" r="2.5"/>
	<circle class="st0" cx="180.5" cy="-10.6" r="2.5"/>
	<circle class="st0" cx="169.5" cy="-10.6" r="2.5"/>
	<circle class="st0" cx="180.5" cy="-22" r="2.5"/>
	<circle class="st0" cx="169.5" cy="-22" r="2.5"/>
	<circle class="st0" cx="158.5" cy="0.8" r="2.5"/>
	<circle class="st0" cx="147.4" cy="0.8" r="2.5"/>
	<circle class="st0" cx="158.5" cy="-10.6" r="2.5"/>
	<circle class="st0" cx="147.4" cy="-10.6" r="2.5"/>
	<circle class="st0" cx="158.5" cy="-22" r="2.5"/>
	<circle class="st0" cx="147.4" cy="-22" r="2.5"/>
	<circle class="st0" cx="136.4" cy="0.8" r="2.5"/>
	<circle class="st0" cx="125.3" cy="0.8" r="2.5"/>
	<circle class="st0" cx="136.4" cy="-10.6" r="2.5"/>
	<circle class="st0" cx="125.3" cy="-10.6" r="2.5"/>
	<circle class="st0" cx="136.4" cy="-22" r="2.5"/>
	<circle class="st0" cx="125.3" cy="-22" r="2.5"/>
	<circle class="st0" cx="114.3" cy="0.8" r="2.5"/>
	<circle class="st0" cx="103.2" cy="0.8" r="2.5"/>
	<circle class="st0" cx="114.3" cy="-10.6" r="2.5"/>
	<circle class="st0" cx="103.2" cy="-10.6" r="2.5"/>
	<circle class="st0" cx="114.3" cy="-22" r="2.5"/>
	<circle class="st0" cx="103.2" cy="-22" r="2.5"/>
	<circle class="st0" cx="92.2" cy="0.8" r="2.5"/>
	<circle class="st0" cx="81.2" cy="0.8" r="2.5"/>
	<circle class="st0" cx="92.2" cy="-10.6" r="2.5"/>
	<circle class="st0" cx="81.2" cy="-10.6" r="2.5"/>
	<circle class="st0" cx="92.2" cy="-22" r="2.5"/>
	<circle class="st0" cx="81.2" cy="-22" r="2.5"/>
	<circle class="st0" cx="70.1" cy="57.9" r="2.5"/>
	<circle class="st0" cx="70.1" cy="46.5" r="2.5"/>
	<circle class="st0" cx="59.1" cy="57.9" r="2.5"/>
	<circle class="st0" cx="48" cy="57.9" r="2.5"/>
	<circle class="st0" cx="59.1" cy="46.5" r="2.5"/>
	<circle class="st0" cx="48" cy="46.5" r="2.5"/>
	<circle class="st0" cx="37" cy="57.9" r="2.5"/>
	<circle class="st0" cx="26" cy="57.9" r="2.5"/>
	<circle class="st0" cx="37" cy="46.5" r="2.5"/>
	<circle class="st0" cx="26" cy="46.5" r="2.5"/>
	<circle class="st0" cx="14.9" cy="57.9" r="2.5"/>
	<circle class="st0" cx="3.9" cy="57.9" r="2.5"/>
	<circle class="st0" cx="14.9" cy="46.5" r="2.5"/>
	<circle class="st0" cx="3.9" cy="46.5" r="2.5"/>
	<circle class="st0" cx="-7.2" cy="57.9" r="2.5"/>
	<circle class="st0" cx="-18.2" cy="57.9" r="2.5"/>
	<circle class="st0" cx="-7.2" cy="46.5" r="2.5"/>
	<circle class="st0" cx="-18.2" cy="46.5" r="2.5"/>
	<circle class="st0" cx="70.1" cy="35.1" r="2.5"/>
	<circle class="st0" cx="70.1" cy="23.6" r="2.5"/>
	<circle class="st0" cx="70.1" cy="12.2" r="2.5"/>
	<circle class="st0" cx="59.1" cy="35.1" r="2.5"/>
	<circle class="st0" cx="48" cy="35.1" r="2.5"/>
	<circle class="st0" cx="59.1" cy="23.6" r="2.5"/>
	<circle class="st0" cx="48" cy="23.6" r="2.5"/>
	<circle class="st0" cx="59.1" cy="12.2" r="2.5"/>
	<circle class="st0" cx="48" cy="12.2" r="2.5"/>
	<circle class="st0" cx="37" cy="35.1" r="2.5"/>
	<circle class="st0" cx="26" cy="35.1" r="2.5"/>
	<circle class="st0" cx="37" cy="23.6" r="2.5"/>
	<circle class="st0" cx="26" cy="23.6" r="2.5"/>
	<circle class="st0" cx="37" cy="12.2" r="2.5"/>
	<circle class="st0" cx="26" cy="12.2" r="2.5"/>
	<circle class="st0" cx="14.9" cy="35.1" r="2.5"/>
	<circle class="st0" cx="3.9" cy="35.1" r="2.5"/>
	<circle class="st0" cx="14.9" cy="23.6" r="2.5"/>
	<circle class="st0" cx="3.9" cy="23.6" r="2.5"/>
	<circle class="st0" cx="14.9" cy="12.2" r="2.5"/>
	<circle class="st0" cx="3.9" cy="12.2" r="2.5"/>
	<circle class="st0" cx="-7.2" cy="35.1" r="2.5"/>
	<circle class="st0" cx="-18.2" cy="35.1" r="2.5"/>
	<circle class="st0" cx="-7.2" cy="23.6" r="2.5"/>
	<circle class="st0" cx="-18.2" cy="23.6" r="2.5"/>
	<circle class="st0" cx="-7.2" cy="12.2" r="2.5"/>
	<circle class="st0" cx="-18.2" cy="12.2" r="2.5"/>
	<circle class="st0" cx="70.1" cy="0.8" r="2.5"/>
	<circle class="st0" cx="70.1" cy="-10.6" r="2.5"/>
	<circle class="st0" cx="70.1" cy="-22" r="2.5"/>
	<circle class="st0" cx="59.1" cy="0.8" r="2.5"/>
	<circle class="st0" cx="48" cy="0.8" r="2.5"/>
	<circle class="st0" cx="59.1" cy="-10.6" r="2.5"/>
	<circle class="st0" cx="48" cy="-10.6" r="2.5"/>
	<circle class="st0" cx="59.1" cy="-22" r="2.5"/>
	<circle class="st0" cx="48" cy="-22" r="2.5"/>
	<circle class="st0" cx="37" cy="0.8" r="2.5"/>
	<circle class="st0" cx="26" cy="0.8" r="2.5"/>
	<circle class="st0" cx="37" cy="-10.6" r="2.5"/>
	<circle class="st0" cx="26" cy="-10.6" r="2.5"/>
	<circle class="st0" cx="37" cy="-22" r="2.5"/>
	<circle class="st0" cx="26" cy="-22" r="2.5"/>
	<circle class="st0" cx="14.9" cy="0.8" r="2.5"/>
	<circle class="st0" cx="3.9" cy="0.8" r="2.5"/>
	<circle class="st0" cx="14.9" cy="-10.6" r="2.5"/>
	<circle class="st0" cx="3.9" cy="-10.6" r="2.5"/>
	<circle class="st0" cx="14.9" cy="-22" r="2.5"/>
	<circle class="st0" cx="3.9" cy="-22" r="2.5"/>
	<circle class="st0" cx="-7.2" cy="0.8" r="2.5"/>
	<circle class="st0" cx="-18.2" cy="0.8" r="2.5"/>
	<circle class="st0" cx="-7.2" cy="-10.6" r="2.5"/>
	<circle class="st0" cx="-18.2" cy="-10.6" r="2.5"/>
	<circle class="st0" cx="-7.2" cy="-22" r="2.5"/>
	<circle class="st0" cx="-18.2" cy="-22" r="2.5"/>
</g>
</svg>
