<?xml version="1.0" encoding="utf-8"?>
<!-- Generator: Adobe Illustrator 22.0.1, SVG Export Plug-In . SVG Version: 6.00 Build 0)  -->
<svg version="1.1" id="Layer_1" xmlns="http://www.w3.org/2000/svg" xmlns:xlink="http://www.w3.org/1999/xlink" x="0px" y="0px"
	 viewBox="0 0 200 200" style="enable-background:new 0 0 200 200;" xml:space="preserve">
<style type="text/css">
	.st0{fill:none;stroke:#EAEFFD;stroke-miterlimit:10;}
</style>
<g>
	<path class="st0" d="M106.2,97.9c0,0.4,0,0.9-0.1,1.3c-0.1,0.6-0.4,1.2-0.9,1.5c-0.7,0.5-1.5,0.4-2.3,0.5c-1,0.1-1.9,0.4-2.7,0.8
		c-0.8,0.4-1.5,1-2.4,1.4c-1.1,0.5-2.4,0.2-3.4-0.5c-0.2-0.2-0.4-0.4-0.6-0.6c-0.7-0.9-0.6-2.2-0.2-3.1c0.6-1.2,1-2.6,1.3-3.9
		c0.2-0.8,0.4-1.5,0.8-2.2c0.4-0.7,1-1.1,1.8-1.3c0.5-0.2,1.1-0.2,1.8-0.1c0.6,0.1,1.2,0.2,1.8,0.4c1.7,0.6,3.4,1.8,4.4,3.4
		C105.9,96.1,106.2,97,106.2,97.9z"/>
	<path class="st0" d="M113.3,98.2c0,0.9,0,1.8-0.2,2.7c-0.3,1.2-0.9,2.4-1.9,3.1c-1.4,1-3.2,0.9-4.8,1.1c-2,0.2-3.9,0.8-5.7,1.6
		c-1.8,0.8-3.2,2.2-5,3c-2.4,1.1-5,0.4-7-1.1c-0.5-0.3-0.9-0.7-1.3-1.2c-1.5-1.9-1.3-4.5-0.5-6.6c1.3-2.6,2-5.4,2.7-8.2
		c0.4-1.6,0.9-3.2,1.7-4.6c0.9-1.5,2-2.3,3.7-2.8c1.1-0.3,2.3-0.4,3.7-0.2c1.3,0.1,2.6,0.4,3.8,0.8c3.6,1.3,7.1,3.7,9.1,7
		C112.6,94.5,113.2,96.3,113.3,98.2z"/>
	<path class="st0" d="M120.3,98.5c0.1,1.4-0.1,2.7-0.4,4.1c-0.4,1.8-1.3,3.7-2.9,4.8c-2.1,1.5-4.8,1.4-7.4,1.6c-3,0.3-6,1.2-8.7,2.5
		c-2.7,1.3-4.9,3.3-7.6,4.5c-3.6,1.7-7.5,0.6-10.7-1.7c-0.7-0.5-1.4-1.1-2-1.8c-2.3-2.9-2-6.9-0.7-10c2-3.9,3-8.2,4.1-12.5
		c0.6-2.4,1.3-4.8,2.6-6.9c1.3-2.3,3.1-3.4,5.7-4.2c1.7-0.5,3.5-0.6,5.6-0.4c1.9,0.2,3.9,0.6,5.8,1.3c5.5,1.9,10.8,5.6,13.9,10.6
		C119.3,92.8,120.2,95.7,120.3,98.5z"/>
	<path class="st0" d="M127.4,98.8c0.1,1.8-0.1,3.7-0.5,5.4c-0.6,2.5-1.8,4.9-3.9,6.4c-2.8,2-6.5,1.9-9.9,2.2c-4,0.4-8,1.6-11.7,3.3
		c-3.6,1.7-6.6,4.4-10.2,6.1c-4.8,2.2-10.1,0.8-14.3-2.2c-1-0.7-1.9-1.5-2.6-2.5c-3.1-3.9-2.7-9.2-1-13.4c2.6-5.3,4.1-11,5.5-16.7
		c0.8-3.2,1.8-6.4,3.5-9.3c1.8-3.1,4.2-4.6,7.6-5.7c2.3-0.7,4.8-0.8,7.6-0.5c2.6,0.3,5.3,0.8,7.8,1.7c7.4,2.6,14.5,7.5,18.7,14.3
		C125.9,91.2,127.2,95,127.4,98.8z"/>
	<path class="st0" d="M134.4,99.2c0.1,2.3-0.1,4.6-0.6,6.8c-0.8,3.1-2.3,6.2-4.8,8c-3.5,2.5-8.1,2.4-12.4,2.8
		c-5.1,0.5-10,2-14.7,4.1c-4.5,2.1-8.2,5.6-12.8,7.7c-6.1,2.8-12.7,1-17.9-2.8c-1.2-0.9-2.4-1.9-3.3-3.1c-3.8-4.8-3.3-11.6-1.2-16.8
		c3.3-6.6,5.1-13.8,6.9-21c1-4,2.3-8.1,4.4-11.7c2.3-3.9,5.2-5.8,9.5-7.1c2.9-0.9,6-1,9.5-0.6c3.3,0.4,6.6,1,9.7,2.1
		c9.3,3.2,18.2,9.4,23.4,17.9C132.6,89.6,134.2,94.4,134.4,99.2z"/>
	<path class="st0" d="M141.5,99.5c0.1,2.8-0.1,5.5-0.8,8.2c-0.9,3.7-2.7,7.4-5.8,9.6c-4.2,3-9.8,2.8-14.9,3.3
		c-6.1,0.6-12.1,2.3-17.6,5c-5.4,2.6-9.9,6.7-15.3,9.2c-7.3,3.4-15.3,1.1-21.6-3.4c-1.5-1.1-2.8-2.3-4-3.7c-4.6-5.8-4-13.9-1.5-20.2
		c4-8,6.2-16.6,8.3-25.3c1.2-4.8,2.7-9.7,5.3-14c2.7-4.6,6.3-7,11.5-8.5c3.4-1,7.2-1.2,11.4-0.7c3.9,0.4,8,1.2,11.7,2.5
		c11.2,3.9,21.9,11.3,28.2,21.5C139.3,88,141.2,93.7,141.5,99.5z"/>
	<path class="st0" d="M148.5,99.8c0.2,3.2-0.1,6.4-0.9,9.6c-1.1,4.4-3.2,8.7-6.8,11.3c-4.9,3.5-11.4,3.3-17.4,3.9
		c-7.1,0.7-14.1,2.7-20.6,5.8c-6.4,3-11.6,7.8-17.9,10.8c-8.5,3.9-17.8,1.3-25.2-3.9c-1.7-1.2-3.3-2.7-4.7-4.4
		c-5.4-6.8-4.7-16.3-1.8-23.6c4.7-9.3,7.2-19.5,9.8-29.6c1.4-5.7,3.2-11.3,6.1-16.4c3.2-5.4,7.4-8.2,13.4-10c4-1.2,8.4-1.4,13.4-0.9
		c4.6,0.5,9.3,1.5,13.7,3c13.1,4.5,25.6,13.2,32.9,25.2C146,86.3,148.2,93,148.5,99.8z"/>
	<path class="st0" d="M155.5,100.1c0.2,3.7-0.1,7.4-1,11c-1.2,5-3.6,9.9-7.8,12.9c-5.6,4-13.1,3.8-19.9,4.5
		c-8.2,0.8-16.2,3.1-23.6,6.7c-7.3,3.5-13.3,9-20.5,12.3c-9.8,4.5-20.4,1.5-28.9-4.5c-2-1.4-3.8-3.1-5.3-5c-6.2-7.8-5.4-18.7-2-27
		c5.3-10.7,8.3-22.3,11.2-33.8c1.6-6.5,3.6-13,7-18.8c3.7-6.2,8.4-9.3,15.3-11.4c4.6-1.4,9.6-1.6,15.3-1c5.2,0.6,10.7,1.7,15.7,3.4
		c15,5.2,29.3,15.1,37.7,28.8C152.7,84.7,155.2,92.4,155.5,100.1z"/>
	<path class="st0" d="M162.6,100.4c0.2,4.1-0.2,8.3-1.2,12.4c-1.4,5.6-4.1,11.2-8.8,14.5c-6.3,4.5-14.7,4.3-22.5,5
		c-9.2,0.9-18.2,3.5-26.6,7.5c-8.2,3.9-14.9,10.1-23.1,13.9c-11,5.1-23,1.7-32.5-5.1c-2.2-1.6-4.3-3.5-6-5.6c-7-8.8-6-21-2.3-30.4
		c6-12,9.3-25.1,12.6-38.1c1.8-7.3,4.1-14.6,7.9-21.1c4.1-7,9.5-10.5,17.3-12.9c5.2-1.6,10.8-1.8,17.2-1.1c5.9,0.6,12,1.9,17.6,3.8
		c16.9,5.8,33,17,42.4,32.4C159.3,83.1,162.2,91.7,162.6,100.4z"/>
	<path class="st0" d="M169.6,100.8c0.2,4.6-0.2,9.2-1.3,13.8c-1.5,6.2-4.5,12.4-9.8,16.1c-7,5-16.4,4.8-25,5.6
		c-10.2,1-20.3,3.9-29.5,8.3c-9.1,4.3-16.6,11.2-25.7,15.4c-12.2,5.7-25.6,1.9-36.2-5.6c-2.5-1.8-4.8-3.9-6.7-6.3
		c-7.8-9.8-6.7-23.4-2.5-33.8c6.7-13.4,10.3-27.9,14-42.4c2-8.1,4.5-16.3,8.8-23.5c4.6-7.8,10.6-11.7,19.2-14.3
		c5.8-1.7,12-2,19.2-1.2c6.6,0.7,13.4,2.1,19.6,4.3c18.8,6.5,36.7,18.9,47.2,36.1C166,81.5,169.2,91.1,169.6,100.8z"/>
	<path class="st0" d="M176.7,101.1c0.2,5.1-0.2,10.2-1.4,15.1c-1.7,6.9-5,13.7-10.8,17.8c-7.7,5.5-18,5.2-27.5,6.1
		c-11.3,1.1-22.3,4.3-32.5,9.2c-10,4.8-18.3,12.4-28.3,17c-13.5,6.2-28.1,2.1-39.8-6.2c-2.7-2-5.2-4.2-7.3-6.9
		c-8.5-10.7-7.4-25.7-2.8-37.3c7.4-14.7,11.4-30.7,15.4-46.6c2.3-8.9,5-17.9,9.7-25.9c5-8.5,11.6-12.9,21.1-15.7
		c6.4-1.9,13.2-2.2,21.1-1.3c7.2,0.8,14.7,2.3,21.6,4.7c20.7,7.2,40.4,20.8,51.9,39.7C172.7,79.8,176.2,90.4,176.7,101.1z"/>
	<path class="st0" d="M183.7,101.4c0.3,5.5-0.2,11.1-1.5,16.5c-1.8,7.5-5.5,14.9-11.7,19.4c-8.4,6.1-19.7,5.7-30,6.7
		c-12.3,1.2-24.3,4.7-35.5,10c-11,5.2-20,13.5-30.9,18.5c-14.7,6.8-30.7,2.3-43.5-6.8c-3-2.1-5.7-4.6-8-7.5
		c-9.3-11.7-8.1-28.1-3-40.7c8-16.1,12.4-33.5,16.8-50.9c2.5-9.7,5.5-19.5,10.6-28.3c5.5-9.3,12.7-14,23.1-17.2
		c6.9-2.1,14.4-2.4,23-1.5c7.9,0.9,16.1,2.5,23.6,5.1c22.6,7.8,44.2,22.7,56.7,43.3C179.4,78.2,183.2,89.8,183.7,101.4z"/>
	<path class="st0" d="M190.8,101.7c0.3,6-0.2,12-1.7,17.9c-2,8.1-5.9,16.1-12.7,21c-9.2,6.6-21.3,6.2-32.5,7.3
		c-13.3,1.3-26.4,5.1-38.5,10.9c-11.9,5.6-21.6,14.6-33.5,20.1c-15.9,7.4-33.3,2.5-47.1-7.3c-3.3-2.3-6.2-5-8.7-8.2
		c-10.1-12.7-8.7-30.4-3.3-44.1C21.5,101.9,26.3,83,31,64.1c2.7-10.6,5.9-21.2,11.5-30.6c6-10.1,13.8-15.2,25-18.6
		c7.5-2.3,15.7-2.6,25-1.6c8.6,0.9,17.4,2.7,25.5,5.5c24.5,8.5,47.9,24.6,61.5,47C186.1,76.6,190.2,89.1,190.8,101.7z"/>
	<path class="st0" d="M197.8,102c0.3,6.5-0.3,13-1.8,19.3c-2.1,8.8-6.4,17.4-13.7,22.6c-9.9,7.1-23,6.7-35.1,7.8
		c-14.4,1.4-28.4,5.5-41.4,11.7c-12.8,6.1-23.3,15.8-36.1,21.7c-17.1,7.9-35.9,2.7-50.8-7.9c-3.5-2.5-6.7-5.4-9.4-8.8
		c-10.9-13.7-9.4-32.8-3.5-47.5c9.4-18.8,14.5-39.1,19.6-59.4c2.9-11.4,6.4-22.8,12.4-33C44.5,17.6,52.9,12.1,65,8.5
		C73.1,6,81.9,5.7,91.9,6.8c9.2,1,18.7,2.9,27.5,6c26.4,9.1,51.6,26.5,66.2,50.6C192.8,75,197.2,88.5,197.8,102z"/>
</g>
</svg>
