<?xml version="1.0" encoding="utf-8"?>
<!-- Generator: Adobe Illustrator 22.0.1, SVG Export Plug-In . SVG Version: 6.00 Build 0)  -->
<svg version="1.1" id="Layer_1" xmlns="http://www.w3.org/2000/svg" xmlns:xlink="http://www.w3.org/1999/xlink" x="0px" y="0px"
	 viewBox="0 0 44.9 29" style="enable-background:new 0 0 44.9 29;" xml:space="preserve">
<style type="text/css">
	.st0{fill:none;stroke:#000000;stroke-width:0.5;stroke-miterlimit:10;}
	.st1{clip-path:url(#SVGID_2_);}
	.st2{fill:none;stroke:#E6E6E6;stroke-width:0.5;stroke-miterlimit:10;}
</style>
<path class="st0" d="M10.4-15.5"/>
<g>
	<defs>
		<rect id="SVGID_1_" x="-0.1" y="0" width="45" height="28"/>
	</defs>
	<clipPath id="SVGID_2_">
		<use xlink:href="#SVGID_1_"  style="overflow:visible;"/>
	</clipPath>
	<g class="st1">
		<path class="st2" d="M26.7-8.4c-1-0.4-3.3,0.6-4.3,0.8c-2.8,0.8-5.6,1.8-8.3,2.9c-3.5,1.4-11.8,4.5-12,9.3c0,1.5,0.8,2.9,1,4.3
			c0.6,3.7-1.2,7.4-0.4,11c0.8,4,5.1,6.3,8.8,6.9c4.6,0.8,9.1-0.3,13.4-1.8c4-1.4,8.1-2.6,12.2-0.8c4.1,1.8,8.4,3.8,11.9-0.2
			c2.7-3.2,3.5-8,3.9-12c0.3-2.4,0.4-4.8,0.5-7.2c0-1,0.3-2.7-0.1-3.7c-0.4-0.9-5.3-7.6-5.3-7.6"/>
		<path class="st2" d="M27.2-8.4c-1-0.4-3.2,0.5-4.1,0.8c-2.7,0.8-5.4,1.7-7.9,2.7C11.8-3.4,3.9-0.5,3.8,4.1c0,1.4,0.8,2.8,1,4.1
			c0.5,3.5-1.1,7-0.4,10.5c0.8,3.8,4.9,6,8.4,6.6c4.4,0.8,8.7-0.3,12.8-1.7c3.8-1.3,7.7-2.5,11.6-0.8c3.9,1.7,8,3.7,11.3-0.2
			c2.6-3.1,3.3-7.6,3.8-11.5c0.2-2.3,0.4-4.6,0.5-6.8c0-1,0.3-2.6-0.1-3.5c-0.4-0.9-5-7.2-5-7.2"/>
		<path class="st2" d="M27.7-8.4c-0.9-0.4-3,0.5-3.9,0.8C21.2-6.9,18.7-6,16.2-5C13-3.7,5.5-0.9,5.4,3.5c0,1.3,0.7,2.6,0.9,3.9
			c0.5,3.3-1.1,6.7-0.4,10c0.8,3.6,4.6,5.7,8,6.3c4.2,0.7,8.3-0.3,12.2-1.6c3.6-1.2,7.4-2.4,11-0.8c3.7,1.6,7.6,3.5,10.8-0.2
			c2.5-2.9,3.2-7.2,3.6-10.9C51.8,8,52,5.8,52,3.6c0-0.9,0.3-2.4-0.1-3.3c-0.3-0.8-4.8-6.9-4.8-6.9"/>
		<path class="st2" d="M28.2-8.4c-0.9-0.4-2.9,0.5-3.7,0.7c-2.4,0.7-4.8,1.5-7.2,2.5c-3,1.3-10.2,3.9-10.3,8c0,1.3,0.7,2.5,0.9,3.7
			c0.5,3.2-1,6.3-0.3,9.5c0.7,3.4,4.4,5.4,7.6,6c4,0.7,7.9-0.3,11.6-1.6c3.4-1.2,7-2.3,10.5-0.7c3.5,1.6,7.3,3.3,10.3-0.2
			c2.4-2.8,3-6.9,3.4-10.4c0.2-2.1,0.4-4.1,0.4-6.2c0-0.9,0.3-2.3-0.1-3.2c-0.3-0.8-4.6-6.5-4.6-6.5"/>
		<path class="st2" d="M28.7-8.4c-0.9-0.4-2.7,0.5-3.5,0.7c-2.3,0.6-4.6,1.4-6.8,2.4c-2.9,1.2-9.7,3.7-9.8,7.6
			c0,1.2,0.7,2.4,0.8,3.5c0.5,3-1,6-0.3,9c0.7,3.3,4.2,5.1,7.2,5.7c3.7,0.7,7.5-0.3,11-1.5c3.2-1.1,6.6-2.2,9.9-0.7
			c3.3,1.5,6.9,3.1,9.7-0.2c2.2-2.6,2.9-6.5,3.2-9.8c0.2-1.9,0.4-3.9,0.4-5.9c0-0.8,0.3-2.2-0.1-3c-0.3-0.8-4.3-6.2-4.3-6.2"/>
		<path class="st2" d="M29.2-8.3c-0.8-0.3-2.6,0.4-3.3,0.7c-2.2,0.6-4.3,1.4-6.4,2.2c-2.7,1.1-9.1,3.5-9.2,7.2
			c0,1.1,0.6,2.2,0.8,3.3c0.4,2.8-0.9,5.7-0.3,8.5c0.7,3.1,3.9,4.8,6.8,5.3c3.5,0.6,7-0.3,10.4-1.4c3.1-1.1,6.3-2,9.4-0.7
			c3.2,1.4,6.5,3,9.2-0.2c2.1-2.5,2.7-6.2,3-9.3c0.2-1.8,0.3-3.7,0.4-5.5c0-0.8,0.3-2.1-0.1-2.8c-0.3-0.7-4.1-5.8-4.1-5.8"/>
		<path class="st2" d="M29.7-8.3c-0.8-0.3-2.4,0.4-3.1,0.6c-2.1,0.6-4.1,1.3-6,2.1c-2.6,1.1-8.6,3.3-8.7,6.8c0,1.1,0.6,2.1,0.7,3.1
			c0.4,2.7-0.9,5.3-0.3,8c0.6,2.9,3.7,4.5,6.4,5c3.3,0.6,6.6-0.2,9.8-1.3c2.9-1,5.9-1.9,8.8-0.6c3,1.3,6.1,2.8,8.6-0.2
			c2-2.3,2.5-5.8,2.9-8.7C49,4.7,49.1,3,49.1,1.3c0-0.8,0.2-1.9-0.1-2.7c-0.3-0.7-3.8-5.5-3.8-5.5"/>
		<path class="st2" d="M30.2-8.3c-0.7-0.3-2.3,0.4-2.9,0.6c-1.9,0.5-3.8,1.2-5.7,2c-2.4,1-8.1,3.1-8.1,6.3c0,1,0.5,2,0.7,2.9
			c0.4,2.5-0.8,5-0.3,7.5c0.6,2.7,3.5,4.3,6,4.7c3.1,0.6,6.2-0.2,9.1-1.2c2.7-0.9,5.5-1.8,8.3-0.6c2.8,1.2,5.7,2.6,8.1-0.2
			c1.9-2.2,2.4-5.4,2.7-8.2c0.2-1.6,0.3-3.2,0.3-4.9c0-0.7,0.2-1.8,0-2.5C48.1-2.5,44.8-7,44.8-7"/>
		<path class="st2" d="M30.7-8.3C30.1-8.6,28.6-8,28-7.8c-1.8,0.5-3.6,1.1-5.3,1.8C20.5-5,15.2-3.1,15.1,0c0,0.9,0.5,1.8,0.6,2.7
			c0.4,2.3-0.7,4.7-0.3,7c0.5,2.5,3.2,4,5.6,4.4c2.9,0.5,5.8-0.2,8.5-1.2c2.5-0.9,5.1-1.7,7.7-0.5c2.6,1.1,5.3,2.4,7.6-0.1
			c1.7-2,2.2-5.1,2.5-7.6c0.2-1.5,0.3-3,0.3-4.5c0-0.7,0.2-1.7,0-2.3c-0.2-0.6-3.4-4.8-3.4-4.8"/>
		<path class="st2" d="M31.2-8.3c-0.6-0.3-2,0.3-2.5,0.5c-1.7,0.5-3.3,1-4.9,1.7c-2.1,0.9-7,2.7-7,5.5c0,0.9,0.5,1.7,0.6,2.6
			c0.3,2.2-0.7,4.3-0.2,6.5c0.5,2.3,3,3.7,5.2,4.1c2.7,0.5,5.4-0.2,7.9-1.1c2.3-0.8,4.8-1.6,7.2-0.5c2.4,1.1,5,2.3,7-0.1
			c1.6-1.9,2.1-4.7,2.3-7.1c0.2-1.4,0.3-2.8,0.3-4.2c0-0.6,0.2-1.6,0-2.2c-0.2-0.5-3.1-4.5-3.1-4.5"/>
		<path class="st2" d="M31.7-8.3c-0.6-0.2-1.8,0.3-2.3,0.5c-1.5,0.4-3.1,1-4.5,1.6c-1.9,0.8-6.4,2.5-6.5,5.1c0,0.8,0.4,1.6,0.6,2.4
			c0.3,2-0.6,4-0.2,6c0.5,2.2,2.8,3.4,4.8,3.8c2.5,0.4,5-0.2,7.3-1c2.2-0.7,4.4-1.4,6.6-0.5c2.2,1,4.6,2.1,6.5-0.1
			C45.3,7.6,45.7,5,46,2.8c0.1-1.3,0.2-2.6,0.3-3.9c0-0.6,0.2-1.5,0-2c-0.2-0.5-2.9-4.1-2.9-4.1"/>
		<path class="st2" d="M32.2-8.3c-0.5-0.2-1.7,0.3-2.2,0.4c-1.4,0.4-2.8,0.9-4.2,1.4c-1.8,0.7-5.9,2.2-6,4.6c0,0.7,0.4,1.4,0.5,2.2
			c0.3,1.8-0.6,3.7-0.2,5.5c0.4,2,2.5,3.1,4.4,3.5c2.3,0.4,4.5-0.2,6.7-0.9c2-0.7,4-1.3,6.1-0.4c2,0.9,4.2,1.9,5.9-0.1
			c1.4-1.6,1.7-4,2-6c0.1-1.2,0.2-2.4,0.3-3.6c0-0.5,0.2-1.3,0-1.8c-0.2-0.5-2.6-3.8-2.6-3.8"/>
		<path class="st2" d="M32.7-8.3c-0.5-0.2-1.5,0.3-2,0.4c-1.3,0.4-2.5,0.8-3.8,1.3c-1.6,0.7-5.4,2-5.4,4.2c0,0.7,0.4,1.3,0.5,2
			c0.3,1.7-0.5,3.3-0.2,5c0.4,1.8,2.3,2.8,4,3.1c2.1,0.4,4.1-0.1,6.1-0.8c1.8-0.6,3.7-1.2,5.5-0.4c1.9,0.8,3.8,1.7,5.4-0.1
			c1.2-1.4,1.6-3.6,1.8-5.4c0.1-1.1,0.2-2.2,0.2-3.2c0-0.5,0.2-1.2,0-1.7c-0.2-0.4-2.4-3.4-2.4-3.4"/>
		<path class="st2" d="M33.2-8.3c-0.4-0.2-1.4,0.2-1.8,0.3c-1.2,0.3-2.3,0.7-3.4,1.2c-1.4,0.6-4.8,1.8-4.9,3.8
			c0,0.6,0.3,1.2,0.4,1.8c0.2,1.5-0.5,3-0.2,4.5c0.3,1.6,2.1,2.6,3.6,2.8c1.9,0.3,3.7-0.1,5.5-0.7c1.6-0.6,3.3-1.1,5-0.3
			c1.7,0.7,3.4,1.6,4.8-0.1c1.1-1.3,1.4-3.2,1.6-4.9c0.1-1,0.2-1.9,0.2-2.9c0-0.4,0.1-1.1,0-1.5c-0.2-0.4-2.2-3.1-2.2-3.1"/>
		<path class="st2" d="M33.7-8.3c-0.4-0.2-1.2,0.2-1.6,0.3c-1,0.3-2,0.6-3,1c-1.3,0.5-4.3,1.6-4.3,3.4c0,0.5,0.3,1,0.4,1.6
			c0.2,1.3-0.4,2.7-0.1,4c0.3,1.4,1.8,2.3,3.2,2.5c1.7,0.3,3.3-0.1,4.9-0.7c1.4-0.5,2.9-1,4.4-0.3c1.5,0.7,3,1.4,4.3-0.1
			c1-1.2,1.3-2.9,1.4-4.4c0.1-0.9,0.2-1.7,0.2-2.6c0-0.4,0.1-1,0-1.3c-0.1-0.3-1.9-2.7-1.9-2.7"/>
		<path class="st2" d="M34.2-8.3c-0.3-0.1-1.1,0.2-1.4,0.3c-0.9,0.2-1.8,0.6-2.6,0.9c-1.1,0.5-3.7,1.4-3.8,2.9
			c0,0.5,0.3,0.9,0.3,1.4c0.2,1.2-0.4,2.3-0.1,3.5c0.3,1.3,1.6,2,2.8,2.2c1.4,0.3,2.9-0.1,4.2-0.6c1.3-0.4,2.6-0.8,3.8-0.3
			c1.3,0.6,2.7,1.2,3.8-0.1c0.9-1,1.1-2.5,1.2-3.8c0.1-0.8,0.1-1.5,0.2-2.3c0-0.3,0.1-0.8,0-1.2C42.5-5.5,41-7.6,41-7.6"/>
	</g>
</g>
</svg>
