<svg height="512pt" viewBox="0 -11 512.00045 512" width="512pt" xmlns="http://www.w3.org/2000/svg"><path d="m132.472656 388.777344h99.167969v-42.0625c-36.957031-4.300782-70.277344-25.953125-89.0625-58.6875-.769531-1.332032-.769531-2.992188 0-4.328125 18.785156-32.730469 52.105469-54.386719 89.0625-58.6875v-103.875c0-2.792969-2.28125-5.078125-5.074219-5.078125h-221.492187c-2.789063 0-5.074219 2.285156-5.074219 5.078125v363.96875c0 2.792969 2.285156 5.078125 5.074219 5.078125h221.492187c2.789063 0 5.074219-2.285156 5.074219-5.078125v-40.394531h-99.167969c-4.027344 0-7.304687-3.269532-7.304687-7.285157v-41.363281c0-4.019531 3.277343-7.285156 7.304687-7.285156zm0 0" fill="#e6e9ed"/><path d="m142.578125 288.03125c-.769531-1.335938-.769531-2.996094 0-4.332031 13.28125-23.140625 33.828125-40.742188 57.785156-50.597657v-18.535156c0-2.792968-2.28125-5.078125-5.074219-5.078125h-158.9375c-2.789062 0-5.074218 2.285157-5.074218 5.078125v106.078125c0 2.792969 2.285156 5.078125 5.074218 5.078125h140.558594c-13.835937-9.78125-25.640625-22.550781-34.332031-37.691406zm0 0" fill="#fb8276"/><path d="m245.207031 348.519531c-42.601562 0-82.257812-22.988281-103.496093-59.992187-.945313-1.648438-.945313-3.675782 0-5.328125 21.238281-37.003907 60.894531-59.988281 103.496093-59.988281 42.597657 0 82.253907 22.984374 103.496094 59.988281.945313 1.652343.945313 3.679687 0 5.328125-21.242187 37.003906-60.898437 59.992187-103.496094 59.992187zm0 0" fill="#c7fffd"/><path d="m272.503906 291.089844c-20.714844 0-37.503906-16.808594-37.503906-37.546875 0-1.308594.089844-2.597657.222656-3.871094-15.863281 4.378906-27.519531 18.917969-27.519531 36.191406 0 20.738281 16.789063 37.546875 37.503906 37.546875 19.414063 0 35.386719-14.769531 37.3125-33.699218-3.191406.882812-6.542969 1.378906-10.015625 1.378906zm0 0" fill="#046699"/><path d="m245.207031 248.316406c-3.855469 0-7.570312.585938-11.070312 1.664063-.183594 1.519531-.292969 3.058593-.292969 4.625 0 20.738281 16.792969 37.546875 37.503906 37.546875 3.855469 0 7.574219-.582032 11.070313-1.664063.1875-1.515625.296875-3.054687.296875-4.625 0-20.738281-16.796875-37.546875-37.507813-37.546875zm0 0" fill="#fff"/><path d="m395.789062 44.679688c-39 0-70.726562 31.644531-70.726562 70.546874 0 12.433594 3.285156 24.652344 9.5 35.339844 6.035156 10.375 14.683594 19.113282 25.015625 25.269532l3.1875 1.898437v18.234375h66.050781v-18.234375l3.191406-1.898437c10.328126-6.15625 18.976563-14.894532 25.011719-25.269532 6.214844-10.6875 9.5-22.90625 9.5-35.339844 0-38.898437-31.730469-70.546874-70.730469-70.546874zm0 0" fill="#ffc502"/><path d="m396.183594 149.070312h-.789063c-2.632812 0-5.078125-.8125-7.105469-2.199218v49.097656h15v-49.097656c-2.023437 1.386718-4.472656 2.199218-7.105468 2.199218zm0 0" fill="#775436"/><path d="m395.394531 106.160156c-7.492187 0-13.621093 6.140625-13.621093 13.640625v16.632813c0 7.5 6.128906 13.640625 13.621093 13.640625h.789063c7.492187 0 13.625-6.140625 13.625-13.640625v-16.632813c0-7.5-6.132813-13.640625-13.625-13.640625zm0 0" fill="#fff"/><path d="m379.390625 237.878906v19.320313c0 3.097656 2.535156 5.632812 5.628906 5.632812h21.542969c3.097656 0 5.628906-2.535156 5.628906-5.632812v-19.320313zm0 0" fill="#9ea7af"/><path d="m435.664062 234.332031c0 2.503907-2.042968 4.546875-4.539062 4.546875h-70.667969c-2.496093 0-4.539062-2.042968-4.539062-4.546875v-34.816406c0-2.5 2.042969-4.546875 4.539062-4.546875h70.667969c2.496094 0 4.539062 2.046875 4.539062 4.546875zm0 0" fill="#c6a07d"/><path d="m395.789062 27.628906c-4.140624 0-7.5-3.359375-7.5-7.5v-12.628906c0-4.144531 3.359376-7.5 7.5-7.5 4.144532 0 7.5 3.355469 7.5 7.5v12.628906c0 4.140625-3.355468 7.5-7.5 7.5zm0 0" fill="#f7931e"/><path d="m356.261719 36.164062c-2.867188 0-5.601563-1.652343-6.851563-4.4375l-5.15625-11.527343c-1.695312-3.78125 0-8.21875 3.78125-9.910157 3.777344-1.691406 8.21875 0 9.90625 3.78125l5.160156 11.53125c1.691407 3.78125 0 8.214844-3.78125 9.90625-.996093.449219-2.035156.65625-3.058593.65625zm0 0" fill="#ffc502"/><path d="m323.644531 60.03125c-1.777343 0-3.566406-.628906-4.996093-1.910156l-9.425782-8.429688c-3.089844-2.757812-3.351562-7.5-.59375-10.589844 2.761719-3.085937 7.503906-3.351562 10.589844-.589843l9.425781 8.429687c3.089844 2.757813 3.355469 7.5.59375 10.589844-1.480469 1.65625-3.535156 2.5-5.59375 2.5zm0 0" fill="#f7931e"/><path d="m303.625 95.089844c-.757812 0-1.53125-.117188-2.292969-.359375l-12.050781-3.867188c-3.945312-1.265625-6.113281-5.488281-4.851562-9.433593 1.265624-3.945313 5.492187-6.113282 9.433593-4.851563l12.050781 3.867187c3.945313 1.265626 6.117188 5.488282 4.851563 9.433594-1.019531 3.183594-3.96875 5.210938-7.140625 5.210938zm0 0" fill="#ffc502"/><path d="m287.074219 136.609375c-3.78125 0-7.03125-2.847656-7.449219-6.6875-.445312-4.117187 2.527344-7.820313 6.644531-8.269531l12.585938-1.367188c4.121093-.457031 7.816406 2.527344 8.265625 6.648438.449218 4.117187-2.527344 7.816406-6.644532 8.265625l-12.585937 1.367187c-.273437.03125-.546875.042969-.816406.042969zm0 0" fill="#f7931e"/><path d="m301.535156 179.882812c-2.578125 0-5.09375-1.332031-6.484375-3.726562-2.085937-3.578125-.875-8.167969 2.703125-10.253906l10.933594-6.371094c3.578125-2.082031 8.167969-.875 10.253906 2.707031 2.085938 3.578125.875 8.171875-2.703125 10.253907l-10.933593 6.371093c-1.1875.691407-2.484376 1.019531-3.769532 1.019531zm0 0" fill="#ffc502"/><path d="m435.316406 36.164062c-1.023437 0-2.0625-.210937-3.058594-.65625-3.78125-1.691406-5.476562-6.128906-3.78125-9.910156l5.160157-11.527344c1.691406-3.78125 6.132812-5.472656 9.910156-3.78125 3.78125 1.691407 5.472656 6.128907 3.78125 9.910157l-5.160156 11.527343c-1.246094 2.785157-3.984375 4.4375-6.851563 4.4375zm0 0" fill="#ffc502"/><path d="m467.9375 60.03125c-2.058594 0-4.113281-.84375-5.59375-2.5-2.761719-3.089844-2.496094-7.828125.589844-10.589844l9.425781-8.429687c3.089844-2.761719 7.828125-2.496094 10.589844.589843 2.761719 3.089844 2.496093 7.828126-.589844 10.589844l-9.425781 8.429688c-1.429688 1.28125-3.21875 1.910156-4.996094 1.910156zm0 0" fill="#f7931e"/><path d="m487.957031 95.089844c-3.171875 0-6.121093-2.027344-7.140625-5.210938-1.265625-3.945312.90625-8.167968 4.851563-9.433594l12.050781-3.867187c3.945312-1.261719 8.167969.910156 9.433594 4.851563 1.261718 3.945312-.90625 8.167968-4.851563 9.433593l-12.050781 3.867188c-.761719.242187-1.535156.359375-2.292969.359375zm0 0" fill="#ffc502"/><path d="m504.507812 136.609375c-.269531 0-.542968-.011719-.820312-.042969l-12.582031-1.367187c-4.117188-.449219-7.09375-4.148438-6.644531-8.269531.445312-4.117188 4.136718-7.09375 8.265624-6.644532l12.582032 1.367188c4.121094.449218 7.09375 4.148437 6.648437 8.269531-.421875 3.839844-3.671875 6.6875-7.449219 6.6875zm0 0" fill="#f7931e"/><path d="m490.042969 179.882812c-1.28125 0-2.582031-.328124-3.769531-1.019531l-10.929688-6.371093c-3.578125-2.085938-4.789062-6.675782-2.703125-10.253907 2.082031-3.582031 6.675781-4.789062 10.253906-2.707031l10.929688 6.371094c3.578125 2.085937 4.789062 6.675781 2.707031 10.257812-1.394531 2.390625-3.90625 3.722656-6.488281 3.722656zm0 0" fill="#ffc502"/><g fill="#9ea7af"><path d="m154.429688 175.347656h-77.214844c-4.140625 0-7.5-3.359375-7.5-7.5 0-4.144531 3.359375-7.5 7.5-7.5h77.214844c4.140624 0 7.5 3.355469 7.5 7.5 0 4.140625-3.359376 7.5-7.5 7.5zm0 0"/><path d="m189.996094 366.964844h-148.351563c-4.144531 0-7.5-3.355469-7.5-7.5 0-4.140625 3.355469-7.5 7.5-7.5h148.351563c4.144531 0 7.5 3.359375 7.5 7.5 0 4.144531-3.355469 7.5-7.5 7.5zm0 0"/><path d="m124.167969 396.0625c0-3.816406 2.628906-7.046875 6.164062-7.996094h-88.6875c-4.144531 0-7.5 3.359375-7.5 7.5 0 4.144532 3.355469 7.5 7.5 7.5h82.523438zm0 0"/><path d="m124.167969 437.421875v-13.25h-82.523438c-4.144531 0-7.5 3.355469-7.5 7.5 0 4.140625 3.355469 7.5 7.5 7.5h82.714844c-.125-.566406-.191406-1.148437-.191406-1.75zm0 0"/></g><path d="m132.472656 445.707031c-4.566406 0-8.304687-3.726562-8.304687-8.285156v-41.359375c0-4.558594 3.738281-8.285156 8.304687-8.285156h239.195313c4.566406 0 11.585937 1.789062 15.59375 3.972656l38.546875 21.019531c4.007812 2.1875 4.007812 5.761719 0 7.949219l-38.546875 21.015625c-4.007813 2.1875-11.027344 3.976563-15.59375 3.976563h-239.195313zm0 0" fill="#ffc502"/><path d="m124.167969 396.0625v41.359375c0 4.558594 3.738281 8.285156 8.304687 8.285156h39.863282v-57.929687h-39.863282c-4.566406 0-8.304687 3.726562-8.304687 8.285156zm0 0" fill="#ef5050"/><path d="m368.320312 445.707031h3.347657c4.566406 0 11.585937-1.789062 15.59375-3.976562l38.546875-21.015625c4.007812-2.1875 4.007812-5.761719 0-7.949219l-38.546875-21.015625c-4.007813-2.1875-11.027344-3.976562-15.59375-3.976562h-3.347657zm0 0" fill="#ffd5b3"/><path d="m399.898438 434.84375 25.910156-14.128906c4.003906-2.183594 4.003906-5.761719 0-7.945313l-25.910156-14.128906zm0 0" fill="#046699"/><path d="m172.335938 409.242188h195.984374v15h-195.984374zm0 0" fill="#c6a07d"/></svg>