<svg height="512pt" viewBox="0 0 512 512" width="512pt" xmlns="http://www.w3.org/2000/svg"><path d="m0 96v384c0 17.679688 14.320312 32 32 32h448c17.679688 0 32-14.320312 32-32v-384zm0 0" fill="#e1eaf7"/><path d="m0 0h512v128h-512zm0 0" fill="#b0bec5"/><path d="m64 48h32v32h-32zm0 0" fill="#fff"/><path d="m128 48h32v32h-32zm0 0" fill="#fff"/><path d="m432 80h-224c-8.832031 0-16-7.167969-16-16s7.167969-16 16-16h224c8.832031 0 16 7.167969 16 16s-7.167969 16-16 16zm0 0" fill="#90a4ae"/><path d="m64 192h176v128h-176zm0 0" fill="#a5d6a7"/><path d="m272 192h176v128h-176zm0 0" fill="#a5d6a7"/><path d="m224 384h-144c-8.832031 0-16-7.167969-16-16s7.167969-16 16-16h144c8.832031 0 16 7.167969 16 16s-7.167969 16-16 16zm0 0" fill="#c1cee3"/><path d="m144 448h-64c-8.832031 0-16-7.167969-16-16s7.167969-16 16-16h64zm0 0" fill="#c1cee3"/><path d="m176 416h32v32h-32zm0 0" fill="#fff"/><path d="m432 384h-144c-8.832031 0-16-7.167969-16-16s7.167969-16 16-16h144c8.832031 0 16 7.167969 16 16s-7.167969 16-16 16zm0 0" fill="#c1cee3"/><path d="m352 448h-64c-8.832031 0-16-7.167969-16-16s7.167969-16 16-16h64zm0 0" fill="#c1cee3"/><path d="m384 416h32v32h-32zm0 0" fill="#fff"/></svg>