<svg id="Layer_1" enable-background="new 0 0 512 512" height="512" viewBox="0 0 512 512" width="512" xmlns="http://www.w3.org/2000/svg"><g><path d="m408 13.358c-2.561-2.561-6.035-4-9.657-4h-47.03c-2.122 0-4.156.843-5.657 2.343-3.124 3.124-3.124 8.189 0 11.313l15.03 15.03-68.686 68.687-52.687-52.686c-6.248-6.249-16.379-6.249-22.627 0l-112 112c-6.249 6.248-6.249 16.379 0 22.627 3.124 3.125 7.219 4.687 11.313 4.687s8.189-1.562 11.313-4.687l100.688-100.686 52.687 52.686c6.248 6.249 16.379 6.249 22.627 0l80-80 15.03 15.03c3.124 3.124 8.189 3.124 11.313 0 1.5-1.5 2.343-3.535 2.343-5.657v-47.03c0-3.622-1.439-7.096-4-9.657z" fill="#e64178"/><path d="m311.79 456.751-18.177-14.138c-1.046-.813-2.333-1.255-3.657-1.255-3.29 0-5.956 2.667-5.956 5.957v10.043h-8c-8.822 0-16-7.178-16-16 0-4.418-3.582-8-8-8s-8 3.582-8 8c0 17.645 14.355 32 32 32h8v10.044c0 3.29 2.667 5.956 5.956 5.956 1.324 0 2.611-.441 3.657-1.254l18.177-14.138c2.656-2.066 4.21-5.243 4.21-8.608s-1.554-6.541-4.21-8.607z" fill="#e64178"/><g><g><path d="m412 185.358h-320c-8.837 0-16-7.163-16-16 0-8.837 7.163-16 16-16h320c8.837 0 16 7.163 16 16 0 8.837-7.163 16-16 16z" fill="#00d2d2"/></g><g><path d="m92 185.358v49.479c0 9.228 3.983 18.006 10.928 24.083l106.145 92.876c6.944 6.077 10.928 14.855 10.928 24.083v46.684c0 5.962 4.833 10.796 10.796 10.796 1.911 0 3.789-.507 5.44-1.471l39.827-23.232c4.916-2.868 7.938-8.13 7.938-13.821v-18.956c0-9.228 3.983-18.006 10.928-24.083l106.145-92.876c6.944-6.077 10.928-14.855 10.928-24.083v-49.479h-320.003z" fill="#00d2d2"/></g><g><path d="m92 233.358v1.479c0 9.228 3.983 18.006 10.928 24.083l106.144 92.876c6.944 6.077 10.928 14.855 10.928 24.083v1.479h16c8.837 0 16 7.163 16 16v29.333l24.062-14.036c4.916-2.867 7.938-8.13 7.938-13.821v-18.956c0-9.228 3.983-18.006 10.928-24.083l106.144-92.876c6.944-6.077 10.928-14.855 10.928-24.083v-1.479h-320z" fill="#289bc3"/></g><g><path d="m92 185.358v16h144c8.837 0 16 7.163 16 16v16h160v-48z" fill="#289bc3"/></g></g><g><circle cx="396" cy="425.358" fill="#fa9b37" r="48"/></g><g><circle cx="396" cy="414.692" fill="#ffd241" r="18.667"/></g><path d="m412 433.358h-32c-8.828 0-15.984 7.15-15.999 15.974 7.304 9.724 18.928 16.026 31.999 16.026s24.695-6.302 31.999-16.026c-.015-8.824-7.171-15.974-15.999-15.974z" fill="#ffd241"/><g><path d="m324 433.358h-8c-4.418 0-8-3.582-8-8s3.582-8 8-8h8c4.418 0 8 3.582 8 8s-3.582 8-8 8z" fill="#fa9b37"/></g><g><path d="m476 433.358h-8c-4.418 0-8-3.582-8-8s3.582-8 8-8h8c4.418 0 8 3.582 8 8s-3.582 8-8 8z" fill="#fa9b37"/></g><g><path d="m436.008 502.642c-2.766 0-5.454-1.435-6.936-4.001l-4-6.928c-2.21-3.826-.898-8.719 2.928-10.928 3.829-2.209 8.72-.897 10.928 2.928l4 6.928c2.21 3.826.898 8.719-2.928 10.928-1.26.727-2.636 1.073-3.992 1.073z" fill="#fa9b37"/></g><g><path d="m360.008 371.006c-2.766 0-5.454-1.435-6.936-4.001l-4-6.928c-2.21-3.826-.898-8.719 2.928-10.928 3.829-2.21 8.72-.897 10.928 2.928l4 6.928c2.21 3.826.898 8.719-2.928 10.928-1.26.727-2.636 1.073-3.992 1.073z" fill="#fa9b37"/></g><g><path d="m431.992 371.006c-1.357 0-2.732-.346-3.992-1.073-3.826-2.209-5.138-7.102-2.928-10.928l4-6.928c2.209-3.827 7.101-5.138 10.928-2.928 3.826 2.209 5.138 7.102 2.928 10.928l-4 6.928c-1.482 2.566-4.171 4.001-6.936 4.001z" fill="#fa9b37"/></g><g><path d="m355.992 502.642c-1.357 0-2.732-.346-3.992-1.073-3.826-2.209-5.138-7.102-2.928-10.928l4-6.928c2.209-3.827 7.102-5.139 10.928-2.928 3.826 2.209 5.138 7.102 2.928 10.928l-4 6.928c-1.482 2.566-4.171 4.001-6.936 4.001z" fill="#fa9b37"/></g><g><g><circle cx="105.333" cy="198.692" fill="#ff6e91" r="77.333"/></g><g><path d="m153.333 198.692c0-1.611-.083-3.203-.242-4.772-.253-2.497 1.001-4.904 3.175-6.159l.006-.003c3.07-1.773 4.122-5.699 2.35-8.769l-9.581-16.595c-1.773-3.07-5.698-4.122-8.769-2.35l-.01.006c-2.173 1.254-4.884 1.137-6.92-.329-2.58-1.859-5.352-3.467-8.281-4.79-2.28-1.03-3.728-3.319-3.728-5.821 0-3.545-2.874-6.419-6.419-6.419h-19.162c-3.545 0-6.419 2.874-6.419 6.419 0 2.502-1.447 4.791-3.728 5.821-2.929 1.323-5.701 2.931-8.281 4.79-2.036 1.466-4.747 1.584-6.92.329l-.01-.006c-3.07-1.773-6.996-.721-8.769 2.35l-9.581 16.595c-1.773 3.07-.721 6.996 2.35 8.769l.006.003c2.174 1.255 3.427 3.662 3.175 6.159-.159 1.569-.242 3.161-.242 4.772s.083 3.203.242 4.772c.253 2.497-1.001 4.904-3.175 6.159l-.006.003c-3.07 1.773-4.122 5.698-2.35 8.769l9.581 16.595c1.773 3.07 5.698 4.122 8.769 2.35l.01-.006c2.173-1.254 4.884-1.137 6.92.329 2.58 1.859 5.352 3.467 8.281 4.79 2.28 1.03 3.728 3.319 3.728 5.821 0 3.545 2.874 6.419 6.419 6.419h19.162c3.545 0 6.419-2.874 6.419-6.419 0-2.502 1.447-4.791 3.728-5.821 2.929-1.323 5.701-2.931 8.281-4.79 2.036-1.466 4.747-1.583 6.92-.329l.01.006c3.07 1.773 6.996.721 8.769-2.35l9.581-16.595c1.773-3.07.721-6.996-2.35-8.769l-.006-.003c-2.174-1.255-3.427-3.662-3.175-6.159.159-1.57.242-3.161.242-4.772z" fill="#d7e6f0"/></g><g><circle cx="105.333" cy="198.692" fill="#ff6e91" r="16"/></g></g></g></svg>