<?xml version="1.0" encoding="iso-8859-1"?>
<!-- Generator: Adobe Illustrator 19.0.0, SVG Export Plug-In . SVG Version: 6.00 Build 0)  -->
<svg version="1.1" id="Capa_1" xmlns="http://www.w3.org/2000/svg" xmlns:xlink="http://www.w3.org/1999/xlink" x="0px" y="0px"
	 viewBox="0 0 512 512" style="enable-background:new 0 0 512 512;" xml:space="preserve">
<path style="fill:#E2E2E3;" d="M445.038,454.969v25.61h-66.962v-25.61c0-9.179,7.448-16.627,16.627-16.627h33.708
	C437.59,438.342,445.038,445.79,445.038,454.969z"/>
<path style="fill:#B9C1C1;" d="M424.836,438.342h-30.133c-9.179,0-16.627,7.448-16.627,16.627v25.61h30.133v-25.61
	C408.209,445.79,415.657,438.342,424.836,438.342z"/>
<rect x="209.127" y="379.838" style="fill:#E2E2E3;" width="94.777" height="65.499"/>
<path style="fill:#B9C1C1;" d="M209.127,379.841v65.494h75.718l-28.068-25.902c-3.45-3.184-5.413-7.666-5.413-12.361v-27.231
	H209.127z"/>
<g>
	<path style="fill:#DCDDDD;" d="M375.332,172.858c-2.29,0.738-4.89,0.398-6.971-1.143c-3.429-2.539-4.151-7.378-1.612-10.808
		l45.242-61.103c2.538-3.426,7.376-4.152,10.808-1.611c3.43,2.539,4.151,7.378,1.612,10.808l-45.242,61.103
		C378.17,171.451,376.815,172.381,375.332,172.858z"/>
	<path style="fill:#DCDDDD;" d="M133.099,171.807c-1.699-0.422-3.265-1.422-4.376-2.947L77.591,98.68
		c-2.513-3.449-1.754-8.282,1.695-10.794c3.45-2.512,8.283-1.753,10.794,1.695l51.133,70.181c2.513,3.449,1.754,8.282-1.695,10.794
		C137.595,171.957,135.242,172.341,133.099,171.807z"/>
</g>
<path style="fill:#842D65;" d="M98.505,461.521H75.203c-4.268,0-7.726-3.459-7.726-7.726v-32.966c0-4.267,3.458-7.726,7.726-7.726
	h23.302c11.862,0,21.511,9.65,21.511,21.511v5.396C120.016,451.871,110.366,461.521,98.505,461.521z M82.93,446.068h15.575
	c3.341,0,6.058-2.718,6.058-6.059v-5.396c0-3.341-2.718-6.059-6.058-6.059H82.93V446.068z"/>
<path style="fill:#717483;" d="M426.474,175.697v193.571c0,10.271-8.324,18.595-18.595,18.595H105.151
	c-10.271,0-18.595-8.324-18.595-18.595V175.697c0-10.271,8.324-18.595,18.595-18.595H407.88
	C418.15,157.103,426.474,165.426,426.474,175.697z"/>
<path style="fill:#4C5574;" d="M236.962,369.268V175.697c0-10.271,8.324-18.595,18.595-18.595H105.151
	c-10.271,0-18.595,8.324-18.595,18.595v193.571c0,10.271,8.324,18.595,18.595,18.595h150.406
	C245.286,387.863,236.962,379.539,236.962,369.268z"/>
<path style="fill:#474755;" d="M400.72,195.124v154.719c0,6.774-5.492,12.266-12.266,12.266H124.577
	c-6.774,0-12.266-5.492-12.266-12.266V195.124c0-6.774,5.492-12.266,12.266-12.266h263.877
	C395.228,182.857,400.72,188.349,400.72,195.124z"/>
<path style="fill:#717483;" d="M318.357,467.393c0.639,3.08-1.772,5.975-4.924,5.975H198.588c-2.854,0-5.161-2.38-5.007-5.233
	c0.515-9.591,5.378-19.821,15.545-30.823h94.777C311.218,446.903,316.152,456.906,318.357,467.393z"/>
<path style="fill:#4C5574;" d="M246.993,468.135c0.515-9.591,5.378-19.821,15.545-30.823h-53.412
	c-10.168,11.002-15.03,21.232-15.545,30.823c-0.155,2.854,2.153,5.233,5.007,5.233H252
	C249.146,473.368,246.839,470.988,246.993,468.135z"/>
<path style="fill:#9B8580;" d="M512,479.992v19.718c0,3.657-2.967,6.624-6.624,6.624H6.624c-3.657,0-6.624-2.967-6.624-6.624
	v-19.718c0-3.657,2.967-6.624,6.624-6.624h498.752C509.033,473.368,512,476.335,512,479.992z"/>
<path style="fill:#817067;" d="M505.376,488.599H6.624c-3.657,0-6.624-2.967-6.624-6.624v17.735c0,3.657,2.967,6.624,6.624,6.624
	h498.752c3.657,0,6.624-2.967,6.624-6.624v-17.735C512,485.633,509.033,488.599,505.376,488.599z"/>
<path style="fill:#FF395E;" d="M86.535,416.883v38.22c0,10.086-8.18,18.265-18.265,18.265H40.929
	c-10.085,0-18.265-8.18-18.265-18.265v-38.22c0-2.369,1.926-4.296,4.296-4.296h55.28C84.609,412.588,86.535,414.514,86.535,416.883z
	"/>
<path style="fill:#B12E65;" d="M55.708,455.103v-38.22c0-2.369,1.926-4.296,4.296-4.296H28.068c-2.369,0-4.296,1.926-4.296,4.296
	v38.22c0,10.085,8.18,18.265,18.265,18.265h27.341c0.78,0,1.543-0.065,2.297-0.16C62.677,472.075,55.708,464.409,55.708,455.103z"/>
<path style="fill:#FF395E;" d="M388.453,182.857H124.577c-6.774,0-12.266,5.492-12.266,12.266v32.547H400.72v-32.547
	C400.72,188.349,395.228,182.857,388.453,182.857z"/>
<circle style="fill:#842D65;" cx="139.074" cy="205.521" r="7.211"/>
<circle style="fill:#EAB430;" cx="164.314" cy="206.036" r="7.211"/>
<g>
	<circle style="fill:#C5D65C;" cx="189.553" cy="206.551" r="7.211"/>
	<path style="fill:#C5D65C;" d="M189.553,270.938h-52.539c-4.268,0-7.726-3.459-7.726-7.726c0-4.267,3.458-7.726,7.726-7.726h52.539
		c4.268,0,7.726,3.459,7.726,7.726C197.28,267.478,193.821,270.938,189.553,270.938z"/>
</g>
<path style="fill:#7CA1D8;" d="M228.7,269.907h-14.423c-4.268,0-7.726-3.459-7.726-7.726c0-4.267,3.458-7.726,7.726-7.726H228.7
	c4.268,0,7.726,3.459,7.726,7.726C236.427,266.448,232.968,269.907,228.7,269.907z"/>
<path style="fill:#FF395E;" d="M347.171,270.938h-96.837c-4.268,0-7.726-3.459-7.726-7.726c0-4.267,3.458-7.726,7.726-7.726h96.837
	c4.268,0,7.726,3.459,7.726,7.726C354.897,267.478,351.439,270.938,347.171,270.938z"/>
<path style="fill:#EAB430;" d="M217.368,297.722h-52.539c-4.268,0-7.726-3.459-7.726-7.726c0-4.267,3.458-7.726,7.726-7.726h52.539
	c4.268,0,7.726,3.459,7.726,7.726C225.095,294.263,221.636,297.722,217.368,297.722z"/>
<path style="fill:#FF395E;" d="M214.278,325.537h-17.513c-4.268,0-7.726-3.459-7.726-7.726s3.458-7.726,7.726-7.726h17.513
	c4.268,0,7.726,3.459,7.726,7.726S218.546,325.537,214.278,325.537z"/>
<g>
	<path style="fill:#C5D65C;" d="M311.115,297.722h-70.052c-4.268,0-7.726-3.459-7.726-7.726c0-4.267,3.458-7.726,7.726-7.726h70.052
		c4.268,0,7.726,3.459,7.726,7.726C318.841,294.263,315.383,297.722,311.115,297.722z"/>
	<path style="fill:#C5D65C;" d="M277.119,325.537h-41.207c-4.268,0-7.726-3.459-7.726-7.726s3.458-7.726,7.726-7.726h41.207
		c4.268,0,7.726,3.459,7.726,7.726S281.387,325.537,277.119,325.537z"/>
</g>
<path style="fill:#7CA1D8;" d="M349.231,325.537h-51.509c-4.268,0-7.726-3.459-7.726-7.726s3.458-7.726,7.726-7.726h51.509
	c4.268,0,7.726,3.459,7.726,7.726S353.499,325.537,349.231,325.537z"/>
<path style="fill:#C9CACA;" d="M492.427,5.666h-76.233c-5.12,0-9.272,4.152-9.272,9.272v16.483v50.479h70.052h15.453
	c5.12,0,9.272-4.152,9.272-9.272v-57.69C501.698,9.818,497.547,5.666,492.427,5.666z"/>
<path style="fill:#E2E2E3;" d="M476.974,40.692v62.841c0,5.12-4.152,9.272-9.272,9.272h-76.233c-5.12,0-9.272-4.152-9.272-9.272
	V40.692c0-5.12,4.152-9.272,9.272-9.272h76.233C472.822,31.421,476.974,35.572,476.974,40.692z"/>
<path style="fill:#7DBFEC;" d="M123.622,15.072v76.996c0,5.12-4.152,9.272-9.272,9.272H21.634c-5.12,0-9.272-4.152-9.272-9.272
	V15.072c0-5.12,4.152-9.272,9.272-9.272h92.716C119.47,5.8,123.622,9.952,123.622,15.072z"/>
<g>
	<path style="fill:#C9CACA;" d="M416.195,100.958c-2.101,0-4.194-0.852-5.72-2.529l-10.302-11.332
		c-1.513-1.665-2.226-3.907-1.951-6.141c0.275-2.233,1.51-4.236,3.382-5.485l12.362-8.241c3.551-2.366,8.348-1.408,10.714,2.143
		c2.367,3.55,1.407,8.348-2.143,10.714l-4.89,3.261l4.262,4.687c2.87,3.158,2.638,8.044-0.52,10.914
		C419.91,100.294,418.051,100.958,416.195,100.958z"/>
	<path style="fill:#C9CACA;" d="M444.006,100.958c-1.855,0-3.715-0.663-5.195-2.01c-3.158-2.87-3.39-7.756-0.52-10.914l4.262-4.687
		l-4.89-3.261c-3.55-2.366-4.51-7.164-2.143-10.714c2.367-3.551,7.164-4.509,10.714-2.143l12.362,8.241
		c1.872,1.248,3.108,3.251,3.382,5.485c0.276,2.233-0.438,4.476-1.951,6.141l-10.302,11.332
		C448.2,100.106,446.107,100.958,444.006,100.958z"/>
</g>
<path style="fill:#FFFFFF;" d="M83.445,46.873c7.397,0,13.392,5.996,13.392,13.392s-5.996,13.392-13.392,13.392H48.419
	c-7.397,0-13.392-5.996-13.392-13.392s5.996-13.392,13.392-13.392h0.134c1.02-8.695,8.406-15.453,17.379-15.453
	s16.359,6.758,17.379,15.453H83.445z"/>
<path style="fill:#FF395E;" d="M467.702,31.421h-76.233c-5.12,0-9.272,4.152-9.272,9.272v15.612h94.777V40.692
	C476.974,35.572,472.822,31.421,467.702,31.421z"/>
<g>
</g>
<g>
</g>
<g>
</g>
<g>
</g>
<g>
</g>
<g>
</g>
<g>
</g>
<g>
</g>
<g>
</g>
<g>
</g>
<g>
</g>
<g>
</g>
<g>
</g>
<g>
</g>
<g>
</g>
</svg>
